<?xml version="1.0" standalone="no"?>
<!DOCTYPE svg PUBLIC "-//W3C//DTD SVG 1.1//EN" "http://www.w3.org/Graphics/SVG/1.1/DTD/svg11.dtd" >
<svg xmlns="http://www.w3.org/2000/svg" xmlns:xlink="http://www.w3.org/1999/xlink" version="1.1">
<metadata>
Created by FontForge 20170731 at Wed Jun  4 09:36:24 2014
 By Aleksey,,,
Copyright (c) 2012-2014 by Jan Fromm. All rights reserved.
</metadata>
<defs>
<font id="MFRooneySans-Medium" horiz-adv-x="1024" >
  <font-face 
    font-family="MFRooneySans-Medium"
    font-weight="400"
    font-stretch="normal"
    units-per-em="2048"
    panose-1="2 11 6 3 4 3 2 6 2 4"
    ascent="1536"
    descent="-512"
    x-height="1012"
    cap-height="1385"
    bbox="-70 -512 2671 2048"
    underline-thickness="172"
    underline-position="-598"
    unicode-range="U+000D-FB02"
  />
<missing-glyph 
d="M398 440q0 -65 -51 -65q-23 0 -31.5 4t-15.5 4q-16 0 -16 -21q0 -13 10 -18q11 -5 24 -6.5t25 -1.5q56 0 81.5 26t25.5 78v246q0 33 -33 33h-92q-17 0 -17 -21q0 -20 17 -20h73v-238zM529 360q0 -9 7 -14.5t18 -5.5t19 5.5t8 14.5v152h141q14 0 14 20q0 21 -14 21h-141
v125h157q17 0 17 20q0 21 -17 21h-174q-35 0 -35 -33v-326zM165 539q0 74 26 138t72.5 110.5t109.5 73t138 26.5t138.5 -26.5t110 -73t73 -110.5t26.5 -138q0 -75 -26.5 -138t-73 -109.5t-110 -72.5t-138.5 -26t-138 26t-109.5 72.5t-72.5 109.5t-26 138z" />
    <glyph glyph-name="f_i" unicode="fi" horiz-adv-x="1225" 
d="M107 844q-34 0 -55 21.5t-21 62.5q0 40 21 62t55 22h97v78q0 92 29.5 166.5t90 126.5t152.5 80.5t217 28.5q55 0 99.5 -6t78.5 -16t58 -22.5t37 -25.5q14 -14 20 -28.5t6 -36.5q0 -19 -6 -33.5t-16.5 -25t-24 -16t-28.5 -5.5q-19 0 -38 6.5t-45.5 14.5t-65 14.5
t-98.5 6.5q-63 0 -109.5 -14t-76 -41t-44 -67.5t-14.5 -93.5v-91h536q50 0 76 -26t26 -76v-818q0 -47 -27.5 -73t-83.5 -26t-83.5 26t-27.5 73v752h-416v-752q0 -47 -27.5 -73t-83.5 -26t-83.5 26t-27.5 73v752h-97z" />
    <glyph glyph-name="f_l" unicode="fl" horiz-adv-x="1256" 
d="M107 841q-34 0 -55 22t-21 64q0 41 21 63t55 22h97v66q0 96 30 173.5t91.5 131.5t154 83t216.5 29q67 0 120 -6.5t92.5 -17.5t66 -24.5t39.5 -26.5q20 -20 26.5 -40.5t6.5 -50.5v-1023q0 -41 5.5 -68.5t15.5 -43t24.5 -22t33.5 -6.5q16 0 28 1.5t24 1.5q13 0 23.5 -4.5
t18 -13t12.5 -21t5 -27.5q0 -24 -7.5 -40t-19.5 -28q-8 -9 -20.5 -17t-30 -14.5t-41 -10.5t-54.5 -4q-117 0 -178 63.5t-61 193.5v1054q-16 7 -40 12q-20 4 -50.5 8t-72.5 4q-119 0 -178 -57.5t-59 -171.5v-83h149q34 0 55 -22t21 -63q0 -42 -21 -64t-55 -22h-148v-749
q0 -47 -27.5 -73t-83.5 -26t-83.5 26t-27.5 73v749h-97z" />
    <glyph glyph-name="f_b" unicode="fb" horiz-adv-x="1847" 
d="M107 841q-34 0 -55 22t-21 64q0 41 21 63t55 22h97v66q0 96 30 173.5t91.5 131.5t154 83t216.5 29q67 0 120 -6.5t92.5 -17.5t66 -24.5t39.5 -26.5q20 -20 26.5 -40.5t6.5 -50.5v-294q0 -36 -1.5 -70.5t-5.5 -73.5h3q29 39 73 69q18 13 41.5 25.5t51.5 23t61 16t71 5.5
q93 0 169 -31t130.5 -93t84.5 -155.5t30 -217.5q0 -131 -37.5 -233.5t-108.5 -173.5t-173.5 -108t-231.5 -37q-73 0 -130.5 9t-101 22t-72 28.5t-41.5 28.5q-8 8 -14.5 17.5t-11 20t-6.5 24.5t-2 33v1136q-16 7 -40 12q-20 4 -50.5 8t-72.5 4q-119 0 -178 -57.5t-59 -171.5
v-83h149q34 0 55 -22t21 -63q0 -42 -21 -64t-55 -22h-148v-749q0 -47 -27.5 -73t-83.5 -26t-83.5 26t-27.5 73v749h-97zM1047 195q18 -12 45 -21q23 -8 56.5 -14.5t78.5 -6.5q67 0 122.5 23t95 68t61.5 112.5t22 157.5q0 91 -17 155t-48.5 104t-75.5 59t-99 19
q-30 0 -56.5 -7.5t-49 -18.5t-41.5 -25.5t-34 -29.5q-36 -36 -60 -80v-495z" />
    <glyph glyph-name="f_f" unicode="ff" horiz-adv-x="1315" 
d="M842 1012v97q0 43 6.5 83t19.5 76q-17 11 -47 20q-24 7 -63 14t-94 7q-120 0 -179 -55.5t-59 -161.5v-80h416zM107 844q-34 0 -55 21.5t-21 62.5q0 40 21 62t55 22h97v66q0 92 30 165.5t90.5 125t151 79.5t212.5 28q66 0 118 -9.5t88 -20.5q43 -13 75 -29
q45 36 103.5 55.5t133.5 19.5q61 0 102 -14t59 -32q14 -14 20.5 -30t6.5 -41q0 -18 -5.5 -32.5t-14.5 -24.5t-21.5 -15t-26.5 -5q-12 0 -23.5 3t-24.5 7t-29.5 7.5t-40.5 3.5q-70 0 -107 -46t-37 -150v-111h159q34 0 54.5 -22t20.5 -62q0 -41 -20.5 -62.5t-54.5 -21.5h-159
v-752q0 -47 -27.5 -73t-83.5 -26t-83.5 26t-27.5 73v752h-416v-752q0 -47 -27.5 -73t-83.5 -26t-83.5 26t-27.5 73v752h-97z" />
    <glyph glyph-name="f_h" unicode="fh" horiz-adv-x="1875" 
d="M107 841q-34 0 -55 22t-21 64q0 41 21 63t55 22h97v66q0 96 30 173.5t91.5 131.5t154 83t216.5 29q67 0 120 -6.5t92.5 -17.5t66 -24.5t39.5 -26.5q20 -20 26.5 -40.5t6.5 -50.5v-294q0 -36 -1.5 -70.5t-5.5 -73.5h3q30 39 73 69q19 13 42 25.5t51.5 23t61.5 16t72 5.5
q87 0 157.5 -26.5t119.5 -79t75.5 -129.5t26.5 -178v-525q0 -47 -27.5 -73t-83.5 -26t-83.5 26t-27.5 73v496q0 69 -14.5 118.5t-41.5 81.5t-67 47.5t-90 15.5q-30 0 -56 -7.5t-49 -18.5t-41.5 -25.5t-33.5 -29.5q-36 -36 -60 -80v-598q0 -47 -27.5 -73t-83.5 -26t-83.5 26
t-27.5 73v1208q-16 7 -40 12q-20 4 -50.5 8t-72.5 4q-119 0 -178 -57.5t-59 -171.5v-83h149q34 0 55 -22t21 -63q0 -42 -21 -64t-55 -22h-148v-749q0 -47 -27.5 -73t-83.5 -26t-83.5 26t-27.5 73v749h-97z" />
    <glyph glyph-name="f_dotlessi" unicode="f&#x131;" horiz-adv-x="1225" 
d="M107 844q-34 0 -55 21.5t-21 62.5q0 40 21 62t55 22h97v97q0 91 25 162.5t73 120.5t116 74.5t153 25.5q61 0 101.5 -14t59.5 -32q14 -14 20.5 -30t6.5 -41q0 -18 -5.5 -32.5t-15 -24.5t-21.5 -15t-26 -5q-12 0 -23.5 3t-24.5 7t-29.5 7.5t-40.5 3.5q-70 0 -108.5 -46
t-38.5 -150v-111h536q50 0 76 -26t26 -76v-818q0 -47 -27.5 -73t-83.5 -26t-83.5 26t-27.5 73v752h-416v-752q0 -47 -27.5 -73t-83.5 -26t-83.5 26t-27.5 73v752h-97z" />
    <glyph glyph-name="f_j" unicode="fj" horiz-adv-x="1225" 
d="M107 844q-34 0 -55 21.5t-21 62.5q0 40 21 62t55 22h97v78q0 92 29.5 166.5t90 126.5t152.5 80.5t217 28.5q55 0 99.5 -6t78.5 -16t58 -22.5t37 -25.5q14 -14 20 -28.5t6 -36.5q0 -19 -6 -33.5t-16.5 -25t-24 -16t-28.5 -5.5q-19 0 -38 6.5t-45.5 14.5t-65 14.5
t-98.5 6.5q-63 0 -109.5 -14t-76 -41t-44 -67.5t-14.5 -93.5v-91h536q50 0 76 -26t26 -76v-912q0 -73 -10.5 -132.5t-28.5 -106t-41.5 -82t-49.5 -61.5q-48 -47 -100.5 -71.5t-102.5 -24.5q-22 0 -40 6t-30.5 17t-19.5 26t-7 34q0 24 10.5 41t30.5 30q41 27 72 54.5t52 65
t32 90.5t11 131v829h-416v-752q0 -47 -27.5 -73t-83.5 -26t-83.5 26t-27.5 73v752h-97z" />
    <glyph glyph-name="f_k" unicode="fk" horiz-adv-x="1700" 
d="M107 841q-34 0 -55 22t-21 64q0 41 21 63t55 22h97v66q0 96 30 173.5t91.5 131.5t154 83t216.5 29q67 0 120 -6.5t92.5 -17.5t66 -24.5t39.5 -26.5q20 -20 26.5 -40.5t6.5 -50.5v-744l366 370q13 14 22.5 23t16.5 16q15 12 31.5 19.5t37.5 7.5q23 0 43 -8.5t35 -23
t24 -33t9 -37.5t-9 -37.5t-30 -38.5l-304 -283l325 -383q17 -20 25.5 -37.5t8.5 -37.5q0 -24 -11 -44.5t-28 -35.5t-39 -23.5t-44 -8.5q-20 0 -37.5 7.5t-31.5 22.5q-9 9 -16.5 17.5t-17.5 21.5l-376 469v-436q0 -47 -27.5 -73t-83.5 -26t-83.5 26t-27.5 73v1208
q-16 7 -40 12q-20 4 -50.5 8t-72.5 4q-119 0 -178 -57.5t-59 -171.5v-83h149q34 0 55 -22t21 -63q0 -42 -21 -64t-55 -22h-148v-749q0 -47 -27.5 -73t-83.5 -26t-83.5 26t-27.5 73v749h-97z" />
    <glyph glyph-name="f_f_b" unicode="ffb" horiz-adv-x="2484" 
d="M842 1012v66q0 55 9.5 101t27.5 83q-20 13 -50 23q-26 9 -66.5 16.5t-98.5 7.5q-123 0 -180.5 -55.5t-57.5 -161.5v-80h416zM107 844q-34 0 -55 21.5t-21 62.5q0 40 21 62t55 22h97v66q0 92 29.5 165.5t89.5 125t151 79.5t214 28q72 0 128.5 -11.5t95.5 -24.5
q47 -16 82 -35q59 42 143.5 66t197.5 24q66 0 119 -6.5t92.5 -17.5t66 -24.5t39.5 -26.5q20 -20 26.5 -40.5t6.5 -50.5v-294q0 -36 -1.5 -70.5t-6.5 -73.5h3q30 39 73 69q19 13 42 25.5t51 23t61.5 16t71.5 5.5q93 0 169 -31t130.5 -93t84 -155.5t29.5 -217.5
q0 -131 -37.5 -233.5t-107.5 -173.5t-173 -108t-233 -37q-72 0 -130 9t-101.5 22.5t-72 28.5t-40.5 28q-9 8 -15.5 17.5t-10.5 20t-6 24.5t-2 33v1136q-17 7 -40 12q-20 4 -50.5 8t-71.5 4q-121 0 -180 -57.5t-59 -171.5v-83h150q34 0 54.5 -22t20.5 -62q0 -41 -20.5 -62.5
t-54.5 -21.5h-148v-752q0 -47 -27.5 -73t-83.5 -26t-83.5 26t-27.5 73v752h-416v-752q0 -47 -27.5 -73t-83.5 -26t-83.5 26t-27.5 73v752h-97zM1685 195q18 -12 44 -21q23 -8 57 -14.5t79 -6.5q67 0 122 23t95 68t62 112.5t22 157.5q0 91 -17 155t-48.5 104t-76 59t-98.5 19
q-30 0 -56.5 -7.5t-49.5 -18.5t-41.5 -25.5t-33.5 -29.5q-36 -36 -60 -80v-495z" />
    <glyph glyph-name="f_f_h" unicode="ffh" horiz-adv-x="2512" 
d="M842 1012v66q0 55 9.5 101t27.5 83q-20 13 -50 23q-26 9 -66.5 16.5t-98.5 7.5q-123 0 -180.5 -55.5t-57.5 -161.5v-80h416zM107 844q-34 0 -55 21.5t-21 62.5q0 40 21 62t55 22h97v66q0 92 29.5 165.5t89.5 125t151 79.5t214 28q72 0 128.5 -11.5t95.5 -24.5
q47 -16 82 -35q59 42 143.5 66t197.5 24q66 0 119 -6.5t92.5 -17.5t66 -24.5t39.5 -26.5q20 -20 26.5 -40.5t6.5 -50.5v-294q0 -36 -1.5 -70.5t-6.5 -73.5h3q30 39 74 69q18 13 41.5 25.5t51.5 23t61.5 16t71.5 5.5q88 0 158 -26.5t119.5 -79t75.5 -129.5t26 -178v-525
q0 -47 -27.5 -73t-83.5 -26t-83.5 26t-27.5 73v496q0 69 -14 118.5t-41 81.5t-67 47.5t-90 15.5q-30 0 -56 -7.5t-49 -18.5t-41.5 -25.5t-33.5 -29.5q-36 -36 -60 -80v-598q0 -47 -27.5 -73t-83.5 -26t-83.5 26t-27.5 73v1208q-17 7 -40 12q-20 4 -50.5 8t-71.5 4
q-121 0 -180 -57.5t-59 -171.5v-83h150q34 0 54.5 -22t20.5 -62q0 -41 -20.5 -62.5t-54.5 -21.5h-148v-752q0 -47 -27.5 -73t-83.5 -26t-83.5 26t-27.5 73v752h-416v-752q0 -47 -27.5 -73t-83.5 -26t-83.5 26t-27.5 73v752h-97z" />
    <glyph glyph-name="f_f_i" unicode="ffi" horiz-adv-x="1863" 
d="M842 1012v78q0 55 9.5 97.5t25.5 76.5q-20 12 -49 22q-26 8 -66 15.5t-98 7.5q-120 0 -179 -55.5t-59 -161.5v-80h416zM107 844q-34 0 -55 21.5t-21 62.5q0 40 21 62t55 22h97v66q0 92 30 165.5t90.5 125t151 79.5t212.5 28q72 0 128.5 -11t95.5 -24q47 -16 81 -35
q61 42 144.5 64t192.5 22q55 0 100 -6t79 -16t57.5 -22.5t37.5 -25.5q14 -14 20 -28.5t6 -36.5q0 -19 -6 -33.5t-16 -25t-24 -16t-29 -5.5q-19 0 -38 6.5t-45.5 14.5t-65.5 14.5t-98 6.5q-64 0 -110 -14t-76 -41t-44 -67.5t-14 -93.5v-91h535q51 0 76.5 -26t25.5 -76v-818
q0 -47 -27.5 -73t-83.5 -26t-83.5 26t-27.5 73v752h-415v-752q0 -47 -27.5 -73t-83.5 -26t-83.5 26t-27.5 73v752h-416v-752q0 -47 -27.5 -73t-83.5 -26t-83.5 26t-27.5 73v752h-97z" />
    <glyph glyph-name="f_f_j" unicode="ffj" horiz-adv-x="1863" 
d="M842 1012v78q0 55 9.5 97.5t25.5 76.5q-20 12 -49 22q-26 8 -66 15.5t-98 7.5q-120 0 -179 -55.5t-59 -161.5v-80h416zM107 844q-34 0 -55 21.5t-21 62.5q0 40 21 62t55 22h97v66q0 92 30 165.5t90.5 125t151 79.5t212.5 28q72 0 128.5 -11t95.5 -24q47 -16 81 -35
q61 42 144.5 64t192.5 22q55 0 100 -6t79 -16t57.5 -22.5t37.5 -25.5q14 -14 20 -28.5t6 -36.5q0 -19 -6 -33.5t-16 -25t-24 -16t-29 -5.5q-19 0 -38 6.5t-45.5 14.5t-65.5 14.5t-98 6.5q-64 0 -110 -14t-76 -41t-44 -67.5t-14 -93.5v-91h535q51 0 76.5 -26t25.5 -76v-912
q0 -73 -10 -132.5t-28 -106t-41.5 -82t-49.5 -61.5q-48 -47 -100.5 -71.5t-101.5 -24.5q-23 0 -41 6t-31 17t-19.5 26t-6.5 34q0 24 10 41t30 30q42 27 73 54.5t52 65t31.5 90.5t10.5 131v829h-415v-752q0 -47 -27.5 -73t-83.5 -26t-83.5 26t-27.5 73v752h-416v-752
q0 -47 -27.5 -73t-83.5 -26t-83.5 26t-27.5 73v752h-97z" />
    <glyph glyph-name="f_f_k" unicode="ffk" horiz-adv-x="2338" 
d="M842 1012v66q0 55 9.5 101t27.5 83q-20 13 -50 23q-26 9 -66.5 16.5t-98.5 7.5q-123 0 -180.5 -55.5t-57.5 -161.5v-80h416zM107 844q-34 0 -55 21.5t-21 62.5q0 40 21 62t55 22h97v66q0 92 29.5 165.5t89.5 125t151 79.5t214 28q72 0 128.5 -11.5t95.5 -24.5
q47 -16 82 -35q59 42 143.5 66t197.5 24q66 0 119 -6.5t92.5 -17.5t66 -24.5t39.5 -26.5q20 -20 26.5 -40.5t6.5 -50.5v-744l366 370l22.5 22.5t17.5 16.5q14 12 30.5 19.5t37.5 7.5q22 0 42 -8.5t35.5 -23t24.5 -33t9 -37.5t-9 -37.5t-30 -38.5l-305 -283l326 -383
q17 -20 25 -37.5t8 -37.5q0 -24 -10.5 -44.5t-28 -35.5t-39 -23.5t-44.5 -8.5q-20 0 -36.5 7t-31.5 23q-9 8 -16.5 17t-17.5 22l-376 469v-436q0 -47 -27.5 -73t-83.5 -26t-83.5 26t-27.5 73v1208q-17 7 -40 12q-20 4 -50.5 8t-71.5 4q-121 0 -180 -57.5t-59 -171.5v-83h150
q34 0 54.5 -22t20.5 -62q0 -41 -20.5 -62.5t-54.5 -21.5h-148v-752q0 -47 -27.5 -73t-83.5 -26t-83.5 26t-27.5 73v752h-416v-752q0 -47 -27.5 -73t-83.5 -26t-83.5 26t-27.5 73v752h-97z" />
    <glyph glyph-name="f_f_l" unicode="ffl" horiz-adv-x="1893" 
d="M842 1012v66q0 55 9.5 101t27.5 83q-20 13 -50 23q-26 9 -66.5 16.5t-98.5 7.5q-123 0 -180.5 -55.5t-57.5 -161.5v-80h416zM107 844q-34 0 -55 21.5t-21 62.5q0 40 21 62t55 22h97v66q0 92 29.5 165.5t89.5 125t151 79.5t214 28q72 0 128.5 -11.5t95.5 -24.5
q47 -16 82 -35q59 42 143.5 66t197.5 24q66 0 119 -6.5t92.5 -17.5t66 -24.5t39.5 -26.5q20 -20 26.5 -40.5t6.5 -50.5v-1023q0 -41 5.5 -68.5t15.5 -43t24.5 -22t32.5 -6.5q16 0 28.5 1.5t24.5 1.5t23 -4.5t18.5 -13t12 -21t4.5 -27.5q0 -24 -7 -40t-19 -28
q-8 -9 -20.5 -17t-30 -14.5t-41 -10.5t-54.5 -4q-117 0 -178 63.5t-61 193.5v1054q-17 7 -40 12q-20 4 -50.5 8t-71.5 4q-121 0 -180 -57.5t-59 -171.5v-83h150q34 0 54.5 -22t20.5 -62q0 -41 -20.5 -62.5t-54.5 -21.5h-148v-752q0 -47 -27.5 -73t-83.5 -26t-83.5 26
t-27.5 73v752h-416v-752q0 -47 -27.5 -73t-83.5 -26t-83.5 26t-27.5 73v752h-97z" />
    <glyph glyph-name="f_thorn" unicode="f&#xfe;" horiz-adv-x="1847" 
d="M107 841q-34 0 -55 22t-21 64q0 41 21 63t55 22h97v66q0 96 30 173.5t91.5 131.5t154 83t216.5 29q67 0 120 -6.5t92.5 -17.5t66 -24.5t39.5 -26.5q20 -20 26.5 -40.5t6.5 -50.5v-294q0 -36 -1.5 -70.5t-5.5 -73.5h3q29 39 73 69q18 13 41.5 25.5t51.5 23t61 16t71 5.5
q93 0 169 -31t130.5 -93t84.5 -155.5t30 -217.5q0 -131 -37.5 -233.5t-108.5 -173.5t-173.5 -108t-231.5 -37q-34 0 -62.5 3t-49.5 7q-24 5 -45 10l-3 -1q2 -28 2.5 -58t0.5 -61v-261q0 -47 -27.5 -72.5t-83.5 -25.5t-83.5 25.5t-27.5 72.5v1680q-16 7 -40 12q-20 4 -50.5 8
t-72.5 4q-119 0 -178 -57.5t-59 -171.5v-83h149q34 0 55 -22t21 -63q0 -42 -21 -64t-55 -22h-148v-749q0 -47 -27.5 -73t-83.5 -26t-83.5 26t-27.5 73v749h-97zM1047 190q20 -11 46 -19q23 -7 56 -12.5t78 -5.5q67 0 122.5 23t95 68t61.5 112.5t22 157.5q0 91 -17 155
t-48.5 104t-75.5 59t-99 19q-30 0 -56.5 -7.5t-49 -18.5t-41.5 -25.5t-34 -29.5q-36 -36 -60 -80v-500z" />
    <glyph glyph-name="f_t" unicode="ft" horiz-adv-x="1357" 
d="M107 844q-34 0 -55 21.5t-21 62.5q0 40 21 62t55 22h97v97q0 91 24.5 162.5t71 120.5t112.5 74.5t148 25.5q61 0 100 -13t57 -32q14 -14 20.5 -30t6.5 -40q0 -19 -5.5 -33t-14.5 -24.5t-21.5 -15.5t-26.5 -5q-12 0 -23 3t-23.5 7t-28.5 7t-39 3q-68 0 -103.5 -47
t-35.5 -149v-111h414l28 180q8 49 33.5 73t67.5 24t65 -23.5t23 -67.5v-186h192q34 0 55 -22t21 -62q0 -41 -21 -62.5t-55 -21.5h-192v-537q0 -77 27 -109t82 -32q21 0 36 2.5t26.5 6t21.5 6t19 2.5q15 0 26.5 -5t19.5 -14t13 -21.5t5 -27.5q0 -24 -8 -39.5t-22 -29.5
q-8 -9 -23.5 -18.5t-39 -18t-56 -14.5t-74.5 -6q-140 0 -207.5 67.5t-67.5 203.5v584h-406v-752q0 -47 -27.5 -73t-83.5 -26t-83.5 26t-27.5 73v752h-97z" />
    <glyph glyph-name="f_f_t" unicode="fft" horiz-adv-x="1995" 
d="M842 1012v97q0 43 6.5 83t19.5 76q-17 11 -47 20q-24 7 -63 14t-94 7q-120 0 -179 -55.5t-59 -161.5v-80h416zM107 844q-34 0 -55 21.5t-21 62.5q0 40 21 62t55 22h97v66q0 92 30 165.5t90.5 125t151 79.5t212.5 28q66 0 117.5 -9.5t87.5 -20.5q43 -12 75 -29
q42 36 99.5 55.5t130.5 19.5q60 0 99 -13t58 -32q14 -14 20.5 -30t6.5 -40q0 -19 -5.5 -33t-14.5 -24.5t-21.5 -15.5t-26.5 -5q-12 0 -23 3t-23.5 7t-28.5 7t-39 3q-68 0 -103.5 -47t-35.5 -149v-111h414l28 180q8 49 33.5 73t66.5 24q42 0 65 -23.5t23 -67.5v-186h193
q34 0 54.5 -22t20.5 -62q0 -41 -20.5 -62.5t-54.5 -21.5h-193v-537q0 -77 27 -109t82 -32q21 0 36 2.5t27 6t21.5 6t19.5 2.5q14 0 26 -5t20 -14t12.5 -21.5t4.5 -27.5q0 -24 -7.5 -39.5t-21.5 -29.5q-8 -9 -23.5 -18.5t-39.5 -18t-56 -14.5t-74 -6q-140 0 -208 67.5
t-68 203.5v584h-405v-752q0 -47 -27.5 -73t-83.5 -26t-83.5 26t-27.5 73v752h-416v-752q0 -47 -27.5 -73t-83.5 -26t-83.5 26t-27.5 73v752h-97z" />
    <glyph glyph-name="t_t" unicode="tt" horiz-adv-x="1377" 
d="M104 843q-35 0 -55.5 21.5t-20.5 62.5t20.5 63t55.5 22h102l28 180q8 49 33.5 73t67.5 24t64.5 -23.5t22.5 -67.5v-186h435l28 180q8 49 33.5 73t67.5 24t65 -23.5t23 -67.5v-186h192q34 0 55 -22t21 -63t-21 -62.5t-55 -21.5h-192v-536q0 -77 26.5 -109t82.5 -32
q20 0 35.5 2.5t27 6t21 6t19.5 2.5q15 0 26.5 -5t19.5 -14t13 -21.5t5 -27.5q0 -24 -8 -39.5t-22 -29.5q-8 -9 -23.5 -18.5t-39 -18t-56 -14.5t-74.5 -6q-141 0 -208 67.5t-67 203.5v584h-430v-537q0 -38 7 -65t19.5 -44t31 -24.5t43.5 -7.5q18 0 31.5 2.5t24 5.5t19.5 5
t18 2q15 0 26.5 -5t19.5 -14t13 -21.5t5 -27.5q0 -24 -8 -39.5t-22 -29.5q-8 -8 -23 -18t-37 -18t-53 -13.5t-70 -5.5q-134 0 -200 67.5t-66 203.5v583h-97z" />
    <glyph glyph-name=".notdef" 
d="M398 440q0 -65 -51 -65q-23 0 -31.5 4t-15.5 4q-16 0 -16 -21q0 -13 10 -18q11 -5 24 -6.5t25 -1.5q56 0 81.5 26t25.5 78v246q0 33 -33 33h-92q-17 0 -17 -21q0 -20 17 -20h73v-238zM529 360q0 -9 7 -14.5t18 -5.5t19 5.5t8 14.5v152h141q14 0 14 20q0 21 -14 21h-141
v125h157q17 0 17 20q0 21 -17 21h-174q-35 0 -35 -33v-326zM165 539q0 74 26 138t72.5 110.5t109.5 73t138 26.5t138.5 -26.5t110 -73t73 -110.5t26.5 -138q0 -75 -26.5 -138t-73 -109.5t-110 -72.5t-138.5 -26t-138 26t-109.5 72.5t-72.5 109.5t-26 138z" />
    <glyph glyph-name=".null" horiz-adv-x="0" 
 />
    <glyph glyph-name=".null" horiz-adv-x="0" 
 />
    <glyph glyph-name="nonmarkingreturn" unicode="&#xd;" horiz-adv-x="0" 
 />
    <glyph glyph-name="space" unicode=" " horiz-adv-x="537" 
 />
    <glyph glyph-name="exclam" unicode="!" horiz-adv-x="693" 
d="M227 1252q-1 27 -1.5 48t-1 37.5t-0.5 30v25.5q0 20 6.5 37t21 29t38 19.5t56.5 7.5q34 0 57.5 -7.5t38 -19.5t21 -29t6.5 -37v-25.5t-0.5 -30t-1 -37.5t-1.5 -48l-19 -769q-1 -36 -26 -58.5t-75 -22.5q-48 0 -73.5 22.5t-26.5 58.5zM197 123q0 32 11.5 59t32 47t48 31
t59.5 11q33 0 60 -10.5t46.5 -29.5t30.5 -45.5t11 -58.5q0 -31 -11.5 -57.5t-31.5 -46.5t-48 -31t-61 -11t-60 10.5t-46 29.5t-30 45t-11 57z" />
    <glyph glyph-name="quotedbl" unicode="&#x22;" horiz-adv-x="813" 
d="M129 1371q-2 19 -2.5 29.5t-0.5 18.5q0 35 26.5 55.5t76.5 20.5q49 0 75 -20.5t26 -55.5q0 -8 -0.5 -18.5t-1.5 -29.5l-22 -346q-2 -33 -23.5 -48.5t-53.5 -15.5t-53.5 15.5t-24.5 48.5zM485 1371q-2 19 -2.5 29.5t-0.5 18.5q0 35 26.5 55.5t76.5 20.5q49 0 75 -20.5
t26 -55.5q0 -8 -0.5 -18.5t-1.5 -29.5l-22 -346q-3 -33 -24.5 -48.5t-52.5 -15.5q-32 0 -53.5 15.5t-24.5 48.5z" />
    <glyph glyph-name="numbersign" unicode="#" horiz-adv-x="1480" 
d="M126 349q-35 0 -53.5 19t-18.5 55q0 37 18.5 55.5t53.5 18.5h216l124 382h-170q-35 0 -54 19t-19 55q0 37 19 55.5t54 18.5h217l97 300q11 37 32 53t52 16q18 0 35 -5.5t28.5 -15.5t18.5 -24.5t7 -31.5q0 -12 -1.5 -22.5t-5.5 -24.5l-80 -245h302l98 300q12 37 33 53
t51 16q19 0 35.5 -5.5t28.5 -15.5t19 -24.5t7 -31.5q0 -12 -2 -22.5t-6 -24.5l-79 -245h170q34 0 53.5 -18.5t19.5 -55.5q0 -36 -19.5 -55t-53.5 -19h-217l-123 -382h170q35 0 54.5 -18.5t19.5 -55.5q0 -36 -19.5 -55t-54.5 -19h-217l-96 -299q-12 -37 -33 -53.5t-51 -16.5
q-20 0 -36 5.5t-28 15.5t-19 24.5t-7 31.5q0 11 1 22t6 26l80 244h-302l-98 -299q-12 -37 -32.5 -53.5t-51.5 -16.5q-19 0 -35.5 5.5t-28.5 15.5t-19 24.5t-7 31.5q0 11 1.5 22t6.5 26l79 244h-170zM526 497h303l124 382h-304z" />
    <glyph glyph-name="dollar" unicode="$" horiz-adv-x="1090" 
d="M468 3q-62 1 -112 9t-89 20.5t-66 27t-40 27.5q-18 19 -25.5 35.5t-7.5 40.5q0 37 22.5 58t57.5 21q22 0 44.5 -10t54 -22t78 -21.5t117.5 -9.5q68 0 116.5 13.5t80 38.5t46.5 59.5t15 77.5q0 53 -27.5 89t-72 62.5t-101.5 47t-116.5 42t-116.5 48t-101.5 65.5t-72 93.5
t-27.5 131.5q0 68 21.5 127.5t64 106t107 78.5t150.5 46v222q0 38 20.5 57t58.5 19q39 0 60 -19t21 -57v-213q48 -1 89.5 -8.5t75.5 -19t58.5 -25.5t38.5 -28q18 -18 24.5 -35t6.5 -38q0 -36 -22 -57t-58 -21q-22 0 -44 9t-51.5 19.5t-69.5 20t-98 9.5q-61 0 -105 -12.5
t-72 -34t-41.5 -52.5t-13.5 -68q0 -48 27.5 -81t72 -57.5t101.5 -44t116.5 -41t116.5 -49t101.5 -69t72 -98.5t27.5 -139q0 -73 -22 -136t-66.5 -112t-110.5 -83t-154 -49v-228q0 -38 -21 -57.5t-59 -19.5q-39 0 -59.5 19.5t-20.5 57.5v217z" />
    <glyph glyph-name="percent" unicode="%" horiz-adv-x="1938" 
d="M1276 1353q12 21 27 32.5t39 11.5q15 0 30 -5.5t27 -15.5t19.5 -23.5t7.5 -28.5q0 -12 -4.5 -22.5t-12.5 -25.5l-746 -1250q-12 -21 -27 -32.5t-38 -11.5q-16 0 -31 5.5t-27 15t-19 23t-7 29.5q0 11 4 22t13 26zM102 995q0 97 26 171.5t72.5 125.5t111 77t141.5 26
t139 -24t106 -71.5t68 -119t24 -167.5q0 -97 -26 -171.5t-73 -125.5t-111 -77t-142 -26q-76 0 -138 24t-106 71.5t-68 119t-24 167.5zM287 1005q0 -69 13.5 -117.5t35.5 -78.5t51 -43.5t60 -13.5t60 13.5t50.5 43t34.5 77.5t13 117t-13.5 117t-35.5 78.5t-51 44t-61 13.5
q-31 0 -59.5 -13.5t-50 -43.5t-34.5 -78t-13 -116zM1147 366q0 97 26 171.5t72.5 125.5t111 77t141.5 26t139 -24t106 -71.5t68 -119t24 -167.5q0 -97 -26 -171.5t-73 -125.5t-111 -77t-142 -26q-76 0 -138 24t-106 71.5t-68 119t-24 167.5zM1332 376q0 -69 13.5 -117.5
t35.5 -78.5t51 -43.5t60 -13.5t60 13.5t50.5 43t34.5 77.5t13 117t-13.5 117t-35.5 78.5t-51 44t-61 13.5q-31 0 -59.5 -13.5t-50 -43.5t-34.5 -78t-13 -116z" />
    <glyph glyph-name="ampersand" unicode="&#x26;" horiz-adv-x="1631" 
d="M1395 1012q35 0 55.5 -22t20.5 -63q0 -42 -20.5 -64t-55.5 -22h-148q24 -25 43.5 -57.5t33 -70.5t21 -81.5t7.5 -90.5q0 -69 -15 -133.5t-44 -122.5q47 -29 87 -52t81 -45q18 -10 34.5 -19t28.5 -20.5t19 -26t7 -33.5q0 -20 -7 -38t-20.5 -32t-32.5 -22.5t-42 -8.5
q-8 0 -17.5 1t-21 4t-26.5 9t-33 14q-24 11 -45.5 22.5t-44 24.5t-47 28t-53.5 33q-27 -27 -68 -52.5t-98 -45.5t-128.5 -32.5t-158.5 -12.5q-144 0 -252 33.5t-179.5 93.5t-107.5 141.5t-36 178.5q0 54 11 100.5t29.5 87t42.5 73.5t49 60q57 62 132 105q-37 68 -55.5 133
t-18.5 127q0 88 27 158.5t79 120t129 76t177 26.5q52 0 93 -6.5t72 -16t51.5 -21.5t31.5 -23q16 -16 22.5 -32.5t6.5 -39.5q0 -17 -5.5 -30.5t-15.5 -23.5t-24 -15.5t-29 -5.5q-18 0 -37 6.5t-43.5 15t-55.5 15t-73 6.5q-92 0 -140.5 -49t-48.5 -144q0 -81 41.5 -170.5
t117.5 -183t183.5 -190t239.5 -190.5q10 27 15.5 61.5t5.5 72.5q0 62 -12 108t-32.5 82t-48 65t-59.5 57q-25 22 -35 40.5t-10 48.5q0 36 19.5 58t55.5 22h375zM730 158q45 0 85 5t74 15.5t61 25.5t46 34q-157 114 -284.5 234t-216.5 239q-41 -27 -72 -64q-27 -33 -49.5 -81
t-22.5 -115q0 -65 22.5 -119t69.5 -93t118.5 -60t168.5 -21z" />
    <glyph glyph-name="quotesingle" unicode="'" horiz-adv-x="457" 
d="M129 1371q-2 19 -2.5 29.5t-0.5 18.5q0 35 26.5 55.5t76.5 20.5q49 0 75 -20.5t26 -55.5q0 -8 -0.5 -18.5t-1.5 -29.5l-22 -346q-2 -33 -23.5 -48.5t-53.5 -15.5t-53.5 15.5t-24.5 48.5z" />
    <glyph glyph-name="parenleft" unicode="(" horiz-adv-x="662" 
d="M131 582q0 142 22 274.5t64 252.5t103 224.5t139 192.5q16 17 35 25.5t38 8.5q18 0 33.5 -6t26.5 -16t17 -23.5t6 -27.5q0 -15 -5.5 -28.5t-15.5 -28.5q-56 -83 -101.5 -175.5t-77.5 -197.5t-49.5 -223t-17.5 -252t17.5 -252.5t49.5 -223.5t77.5 -197.5t101.5 -175.5
q10 -15 15.5 -28.5t5.5 -28.5t-6 -28t-17 -23t-26.5 -16t-33.5 -6q-19 0 -38.5 8.5t-34.5 25.5q-78 87 -139 192.5t-103 225t-64 252t-22 275.5z" />
    <glyph glyph-name="parenright" unicode=")" horiz-adv-x="662" 
d="M314 582q0 134 -17 252t-49 223t-77.5 197.5t-101.5 174.5q-10 16 -16 29.5t-6 27.5q0 15 6.5 28.5t17.5 23t26.5 15.5t33.5 6q19 0 38.5 -8t34.5 -25q77 -88 138 -193.5t103 -224.5t64.5 -251.5t22.5 -274.5q0 -143 -22.5 -275.5t-64.5 -252t-103 -225t-138 -192.5
q-15 -17 -34.5 -25.5t-38.5 -8.5q-18 0 -33.5 6t-26.5 16t-17.5 23t-6.5 28t6 28.5t16 28.5q56 83 101.5 175.5t77.5 197.5t49 223.5t17 252.5z" />
    <glyph glyph-name="asterisk" unicode="*" horiz-adv-x="852" 
d="M226 940q-15 -11 -26 -16t-23 -5q-15 0 -28.5 8t-23.5 20.5t-15.5 27.5t-5.5 29q0 24 14 37.5t42 25.5l148 69l-152 74q-27 12 -40 25t-13 36q0 16 6 31.5t16.5 28t23.5 20.5t27 8t25 -5.5t25 -15.5l141 -95l-13 169q-2 13 -2.5 18t-0.5 9q0 25 22 40t53 15
q32 0 53.5 -15t21.5 -40v-9t-2 -18l-13 -169l140 93q16 11 27 16t23 5q15 0 28.5 -7.5t23.5 -20t15.5 -28t5.5 -29.5q0 -24 -14.5 -37t-42.5 -26l-148 -68l152 -74q28 -13 41 -25.5t13 -36.5q0 -16 -6 -32t-16.5 -28.5t-23.5 -20t-27 -7.5t-25 5.5t-25 15.5l-141 95l13 -168
q2 -14 2 -19v-9q0 -25 -21.5 -39.5t-53.5 -14.5q-31 0 -53 14.5t-22 39.5q0 4 0.5 9t2.5 19l13 168z" />
    <glyph glyph-name="plus" unicode="+" horiz-adv-x="1168" 
d="M223 499q-37 0 -58 23t-21 61q0 39 21 61.5t58 22.5h269v269q0 48 24.5 71.5t67.5 23.5t67.5 -23.5t24.5 -71.5v-269h269q37 0 58 -22.5t21 -61.5q0 -38 -21 -61t-58 -23h-269v-268q0 -48 -24.5 -72t-67.5 -24t-67.5 24t-24.5 72v268h-269z" />
    <glyph glyph-name="comma" unicode="," horiz-adv-x="589" 
d="M144 129q0 33 11.5 60.5t32 48t48.5 32.5t61 12q34 0 61 -12t46.5 -34t29.5 -53.5t10 -71.5q0 -48 -11 -93t-29 -85.5t-39 -75t-41 -60.5q-44 -60 -88.5 -92.5t-85.5 -32.5q-34 0 -52 17t-18 45q0 22 15.5 40t38 45t47.5 68.5t45 109.5q-15 6 -29.5 17t-26 27.5t-19 38
t-7.5 49.5z" />
    <glyph glyph-name="hyphen" unicode="-" horiz-adv-x="951" 
d="M727 630q37 0 57.5 -22t20.5 -65t-20.5 -65.5t-57.5 -22.5h-505q-35 0 -56 22.5t-21 65.5t21 65t56 22h505z" />
    <glyph glyph-name="period" unicode="." horiz-adv-x="589" 
d="M144 129q0 33 11.5 60.5t32 48t48.5 32.5t61 12q32 0 59.5 -11t47 -31t30 -47t10.5 -60t-11 -60.5t-31.5 -48t-48.5 -32t-61 -11.5t-60 11t-46.5 30.5t-30.5 46.5t-11 60z" />
    <glyph glyph-name="slash" unicode="/" horiz-adv-x="858" 
d="M601 1420q14 37 33.5 54t53.5 17q20 0 39 -6.5t34 -18t24.5 -27t9.5 -34.5q0 -12 -4 -25t-11 -34l-587 -1608q-13 -37 -32.5 -54t-53.5 -17q-20 0 -39 6.5t-34 18t-24.5 27.5t-9.5 35q0 11 3.5 23.5t11.5 33.5z" />
    <glyph glyph-name="zero" unicode="0" horiz-adv-x="1318" 
d="M118 671q0 185 41 321.5t115.5 226.5t176 134.5t221.5 44.5q115 0 212 -41.5t167.5 -127t110 -215.5t39.5 -306q0 -185 -41.5 -322t-115.5 -226.5t-175.5 -134t-221.5 -44.5q-115 0 -212.5 41.5t-168 127t-109.5 215.5t-39 306zM342 691q0 -145 26 -247t70 -166
t101.5 -93t121.5 -29t121.5 28.5t101 92t68.5 164.5t25 246q0 146 -26 247.5t-69.5 165.5t-101.5 93t-123 29q-64 0 -121 -28.5t-100 -92t-68.5 -164.5t-25.5 -246z" />
    <glyph glyph-name="one" unicode="1" horiz-adv-x="763" 
d="M191 1061q-21 -10 -35.5 -16.5t-25.5 -10.5t-20 -5.5t-19 -1.5q-17 0 -31 7t-24.5 18t-16 25.5t-5.5 30.5q0 34 26 59q17 17 68 50t131 78q44 25 77 42.5t59.5 29t48 17t43.5 5.5q50 0 78 -28t28 -78v-1191q0 -48 -27.5 -73.5t-83.5 -25.5t-83 25.5t-27 73.5v1043z" />
    <glyph glyph-name="two" unicode="2" horiz-adv-x="981" 
d="M831 185q37 0 58.5 -24t21.5 -68q0 -45 -21.5 -69t-58.5 -24h-687q-60 0 -93 31.5t-33 84.5q0 35 14 64t45 63l256 285q80 90 138 156.5t94.5 122t53.5 105t17 107.5q0 99 -58 152t-180 53q-47 0 -84 -8t-66.5 -18t-52.5 -17.5t-41 -7.5q-31 0 -50.5 19.5t-19.5 52.5
q0 37 26 62q15 15 45.5 31t74 29.5t98.5 22t119 8.5q105 0 184 -24.5t131.5 -69.5t79 -108t26.5 -139q0 -81 -22.5 -151.5t-69 -143.5t-118 -155t-168.5 -187l-219 -235h560z" />
    <glyph glyph-name="three" unicode="3" horiz-adv-x="987" 
d="M398 149q62 0 111 18.5t83.5 51t53 77t18.5 98.5q0 56 -19 100.5t-63 75t-118 47.5t-185 17q-19 0 -30 3.5t-19 10.5q-12 11 -17 30t-5 39.5t5 40t17 30.5q7 7 18.5 10.5t30.5 3.5q92 0 156.5 17.5t105.5 48.5t59.5 73.5t18.5 95.5q0 89 -52.5 138t-166.5 49
q-47 0 -82 -7.5t-62.5 -17t-49 -17t-39.5 -7.5q-31 0 -50.5 19t-19.5 53q0 19 6 34t19 28q15 14 44 30t70.5 29t94 21.5t115.5 8.5q99 0 174 -24.5t125 -68t75 -105t25 -136.5q0 -56 -17 -105.5t-47.5 -90.5t-72.5 -73t-91 -52v-2q65 -14 116 -43t86.5 -71t54 -98t18.5 -123
q0 -91 -33.5 -168.5t-97.5 -134.5t-156.5 -89.5t-209.5 -32.5q-63 0 -112 7.5t-86 18.5t-61.5 24.5t-36.5 25.5q-16 15 -23.5 32t-7.5 41q0 35 20.5 55.5t53.5 20.5q19 0 39 -8.5t48 -19.5t68.5 -20t100.5 -9z" />
    <glyph glyph-name="four" unicode="4" horiz-adv-x="1125" 
d="M169 378q-66 0 -98.5 32t-32.5 89q0 15 1.5 28t6.5 27t13.5 28.5t21.5 33.5l446 654q23 34 45.5 57.5t46 37.5t49.5 20t57 6q67 0 101 -30.5t34 -92.5v-713h143q36 0 57 -22.5t21 -65.5t-21 -66t-57 -23h-143v-287q0 -48 -26 -73t-82 -25q-53 0 -79.5 25t-26.5 73v287
h-477zM646 1145l-398 -590h398v590z" />
    <glyph glyph-name="five" unicode="5" horiz-adv-x="1008" 
d="M332 860q156 -5 266 -39.5t179.5 -92.5t101 -135.5t31.5 -167.5q0 -99 -33 -180.5t-98 -140t-160 -91t-219 -32.5q-62 0 -111.5 7.5t-87 18.5t-62 24.5t-36.5 25.5q-15 15 -23 32t-8 41q0 36 21 56.5t54 20.5q19 0 39 -9t48.5 -19.5t69 -19t101.5 -8.5q66 0 118 18
t87.5 51.5t54 80t18.5 103.5q0 60 -25 111t-80 88t-141.5 58t-210.5 21q-46 0 -67 22.5t-19 67.5l25 510q2 48 28 72t76 24h521q36 0 58.5 -23.5t22.5 -68.5q0 -46 -22.5 -69t-58.5 -23h-443z" />
    <glyph glyph-name="six" unicode="6" horiz-adv-x="1148" 
d="M118 582q0 202 46.5 355t130.5 255.5t200.5 154t256.5 51.5q41 0 72.5 -4t55 -10t39 -14.5t23.5 -17.5q12 -12 17.5 -25.5t5.5 -33.5q0 -39 -21.5 -59t-53.5 -20q-13 0 -25.5 2t-28 4t-37 4t-50.5 2q-79 0 -146.5 -27.5t-119 -83.5t-86 -141t-49.5 -200q32 23 75 42
q36 16 90 29.5t123 13.5q97 0 174 -28.5t130 -81.5t81.5 -129t28.5 -171q0 -108 -32.5 -194.5t-93 -147t-145.5 -93.5t-191 -33q-110 0 -197 35.5t-148 109.5t-93 187.5t-32 268.5zM582 686q-58 0 -102.5 -14.5t-76.5 -31.5q-37 -21 -66 -46q1 -124 19.5 -208t53 -136
t82.5 -74t109 -22q50 0 91.5 17.5t71 52.5t46.5 86t17 118q0 62 -17 110t-48.5 81t-77 50t-102.5 17z" />
    <glyph glyph-name="seven" unicode="7" horiz-adv-x="909" 
d="M107 1191q-37 0 -59 23.5t-22 69.5q0 47 21.5 70.5t59.5 23.5h654q31 0 53.5 -7t37.5 -21t22 -33t7 -42q0 -30 -8 -55.5t-23 -57.5q-75 -151 -138.5 -296t-115 -280t-92 -259t-71.5 -231q-7 -27 -16.5 -47t-22.5 -33t-30 -19t-39 -6q-23 0 -42 6t-33 18t-21.5 29.5
t-7.5 41.5q0 17 3 33.5t9 40.5q26 103 65.5 223t89 252t108 272t123.5 284h-512z" />
    <glyph glyph-name="eight" unicode="8" horiz-adv-x="1109" 
d="M95 336q0 68 22 122.5t59.5 99.5t86.5 82t105 69q-49 27 -92.5 60.5t-75.5 74t-51 89.5t-19 107q0 76 28.5 141.5t84.5 113.5t138.5 75.5t189.5 27.5q98 0 173.5 -25.5t127.5 -69t78.5 -101.5t26.5 -123q0 -64 -19 -114t-52 -90.5t-77 -73.5t-94 -62q55 -29 105 -66
t88.5 -82t62 -99t23.5 -118q0 -87 -30 -160t-89.5 -125t-149 -80t-208.5 -28q-108 0 -190.5 27t-138.5 74.5t-84.5 112.5t-28.5 141zM312 359q0 -48 15.5 -86.5t46.5 -66.5t76.5 -43t105.5 -15q59 0 103 14.5t74 42t45.5 65.5t15.5 85q0 49 -20 88.5t-54.5 72.5t-81.5 60
t-102 52q-50 -28 -91 -56.5t-70.5 -60.5t-46 -69t-16.5 -83zM350 1059q0 -45 15.5 -79t44 -62t69 -52t89.5 -47q44 25 79.5 50.5t60 54t38.5 60.5t14 71q0 38 -13.5 70t-40.5 55.5t-65.5 36.5t-89.5 13q-48 0 -85.5 -12.5t-63.5 -35.5t-39 -54.5t-13 -68.5z" />
    <glyph glyph-name="nine" unicode="9" horiz-adv-x="1149" 
d="M321 951q0 -63 16.5 -111t48.5 -80.5t77 -49.5t103 -17q56 0 101 14t77 31q37 21 66 47q1 130 -19.5 215t-56.5 134.5t-84.5 70t-103.5 20.5q-50 0 -91 -18t-71 -52.5t-46.5 -85.5t-16.5 -118zM97 930q0 108 32.5 194.5t93 147t146 93.5t191.5 33q109 0 196.5 -35.5
t148 -109.5t93 -187t32.5 -268q0 -203 -47.5 -356t-135 -255t-212.5 -154t-280 -52q-42 0 -73.5 4t-54 10t-38 14t-24.5 18q-12 12 -18 25.5t-6 34.5q0 39 22 58.5t54 19.5q12 0 25 -2t28.5 -4t36.5 -3.5t50 -1.5q109 0 187 33.5t130.5 94t82.5 143.5t43 181
q-32 -24 -75 -44q-36 -16 -90 -29t-123 -13q-98 0 -174.5 28t-130 81.5t-82 129.5t-28.5 171z" />
    <glyph glyph-name="colon" unicode=":" horiz-adv-x="589" 
d="M144 129q0 33 11.5 60.5t32 48t48.5 32.5t61 12q32 0 59.5 -11t47 -31t30 -47t10.5 -60t-11 -60.5t-31.5 -48t-48.5 -32t-61 -11.5t-60 11t-46.5 30.5t-30.5 46.5t-11 60zM144 740q0 32 11.5 60t32 48t48.5 32t61 12q32 0 59.5 -11t47 -31t30 -47t10.5 -59
q0 -34 -11 -61.5t-31.5 -48t-48.5 -32t-61 -11.5t-60 11t-46.5 30.5t-30.5 46.5t-11 61z" />
    <glyph glyph-name="semicolon" unicode=";" horiz-adv-x="589" 
d="M144 740q0 32 11.5 60t32 48t48.5 32t61 12q32 0 59.5 -11t47 -31t30 -47t10.5 -59q0 -34 -11 -61.5t-31.5 -48t-48.5 -32t-61 -11.5t-60 11t-46.5 30.5t-30.5 46.5t-11 61zM144 129q0 33 11.5 60.5t32 48t48.5 32.5t61 12q34 0 61 -12t46.5 -34t29.5 -53.5t10 -71.5
q0 -48 -11 -93t-29 -85.5t-39 -75t-41 -60.5q-44 -60 -88.5 -92.5t-86.5 -32.5q-33 0 -51 17t-18 45q0 22 15.5 40t38 45t47.5 68.5t45 109.5q-15 6 -29.5 17t-26 27.5t-19 38t-7.5 49.5z" />
    <glyph glyph-name="less" unicode="&#x3c;" horiz-adv-x="1168" 
d="M870 312q24 -16 33.5 -34t9.5 -37t-7 -37.5t-20.5 -32.5t-31 -23.5t-36.5 -9.5q-16 0 -29 5t-32 18l-500 327q-32 20 -43.5 42.5t-11.5 50.5t12 50.5t43 43.5l504 330q21 12 34.5 18t28.5 6q19 0 35.5 -8.5t29 -21.5t19.5 -30t7 -35q0 -21 -10 -38.5t-33 -32.5l-419 -275
z" />
    <glyph glyph-name="equal" unicode="=" horiz-adv-x="1168" 
d="M924 475q37 0 58.5 -23.5t21.5 -60.5q0 -39 -21.5 -61.5t-58.5 -22.5h-681q-37 0 -58 22.5t-21 61.5q0 38 21 61t57 23h682zM924 858q37 0 58.5 -23t21.5 -61q0 -39 -21.5 -61.5t-58.5 -22.5h-681q-37 0 -58 22.5t-21 61.5q0 38 21 61t58 23h681z" />
    <glyph glyph-name="greater" unicode="&#x3e;" horiz-adv-x="1168" 
d="M298 854q-24 16 -33.5 34t-9.5 38q0 18 7 36.5t20.5 33t30.5 23t37 8.5q16 0 29 -4.5t32 -17.5l500 -326q32 -22 43.5 -44t11.5 -50q0 -27 -12 -50.5t-43 -43.5l-504 -330q-21 -12 -34.5 -18t-28.5 -6q-19 0 -35.5 8.5t-29 21.5t-19.5 30.5t-7 34.5q0 22 10 38.5t33 31.5
l419 276z" />
    <glyph glyph-name="question" unicode="?" horiz-adv-x="830" 
d="M232 595q0 68 23.5 120.5t58 95.5t75.5 80.5t75.5 76t58 80t23.5 94.5q0 40 -13 72.5t-40 55.5t-67.5 35.5t-95.5 12.5q-47 0 -77 -6t-52 -13.5t-38 -13.5t-34 -6q-32 0 -51 19t-19 51q0 20 6.5 35t20.5 29q15 15 41.5 30t63.5 26t83 18.5t102 7.5q101 0 176 -23.5
t125 -66.5t74.5 -103.5t24.5 -135.5q0 -74 -24 -130t-60 -101.5t-78 -83.5t-77.5 -76.5t-59.5 -80.5t-24 -95q0 -27 2.5 -45.5t6 -31.5t6.5 -23t3 -22q0 -33 -26 -54t-80 -21q-29 0 -53.5 11t-42 34t-27.5 59.5t-10 88.5zM224 123q0 32 11.5 59t32 47t48 31t59.5 11
t59.5 -10.5t47 -29.5t30 -45.5t10.5 -58.5q0 -31 -11 -57.5t-31.5 -46.5t-48 -31t-60.5 -11t-59.5 10.5t-46 29.5t-30.5 45t-11 57z" />
    <glyph glyph-name="at" unicode="@" horiz-adv-x="2119" 
d="M1436 445q-4 -44 0.5 -74t17 -48t33 -26t49.5 -8q42 0 86.5 24t81 79t60.5 146t24 224q0 134 -38 238t-112.5 175.5t-186 108.5t-259.5 37q-126 0 -238 -27.5t-206 -79.5t-169 -125.5t-127 -165.5t-79.5 -200.5t-27.5 -229.5q0 -322 168 -487.5t508 -165.5
q96 0 163.5 9.5t113.5 21t74.5 21t47.5 9.5q32 0 50.5 -19t18.5 -50q0 -19 -5.5 -33.5t-20.5 -28.5q-16 -17 -53.5 -35t-95 -33t-136 -25t-176.5 -10q-212 0 -373.5 55t-271 158.5t-165.5 253t-56 339.5q0 150 34.5 284t99.5 247.5t159 204.5t213 154.5t261 97.5t304 34
q193 0 339.5 -49t245 -140t148.5 -221t50 -293q0 -159 -35 -282.5t-98.5 -208.5t-152 -129.5t-193.5 -44.5q-101 0 -159.5 40t-80.5 106l-4 2q-30 -42 -73 -74q-37 -29 -91.5 -51.5t-129.5 -22.5q-78 0 -141.5 24.5t-107.5 71.5t-68.5 114.5t-24.5 154.5q0 123 38.5 223
t109 170.5t169 109t218.5 38.5q51 0 94 -5t76.5 -13t57.5 -18.5t40 -22.5q25 -20 33 -42.5t6 -58.5zM1265 834q-13 8 -33 15q-16 5 -42 10t-61 5q-61 0 -113 -23t-90.5 -68t-60.5 -110.5t-22 -151.5q0 -109 47.5 -160.5t129.5 -51.5q53 0 93 20.5t67 45.5q31 30 52 68z" />
    <glyph glyph-name="A" unicode="A" horiz-adv-x="1265" 
d="M279 101q-11 -33 -20 -53t-21 -33q-11 -11 -29 -18t-42 -7q-21 0 -41.5 7t-38 19t-28 30.5t-10.5 41.5q0 13 3.5 27t14.5 46l381 1077q7 18 13 33.5t13.5 28t15 22.5t16.5 20q21 21 51 31.5t75 10.5q44 0 74.5 -10.5t51.5 -31.5q9 -10 16.5 -20t14.5 -22.5t13.5 -28
t13.5 -33.5l382 -1074q12 -32 15 -46t3 -25q0 -26 -11.5 -45t-29.5 -31.5t-40.5 -19.5t-43.5 -7q-23 0 -41.5 7.5t-31.5 20.5q-12 12 -20 30.5t-19 50.5l-87 248h-531zM835 526l-149 439q-14 41 -25.5 76.5t-20.5 63.5q-10 32 -17 60h-4q-8 -28 -17 -60q-8 -28 -19 -63.5
t-24 -76.5l-144 -439h420z" />
    <glyph glyph-name="B" unicode="B" horiz-adv-x="1225" 
d="M566 176q87 0 148.5 17t100.5 47t57.5 72t18.5 91q0 50 -17 90.5t-55.5 69t-100.5 44.5t-152 16h-161v-447h161zM557 798q76 0 129.5 15.5t88.5 43t51.5 65.5t16.5 83t-15.5 81t-49 62t-87 40t-129.5 14h-157v-404h152zM181 1272q0 50 27.5 78t78.5 28h288
q133 0 227.5 -25.5t154.5 -71t88 -108.5t28 -139q0 -56 -16 -104.5t-45 -87.5t-70 -67.5t-91 -45.5v-2q63 -12 113.5 -37.5t86 -65t54 -91.5t18.5 -115q0 -90 -34 -166t-104 -132t-177.5 -88t-254.5 -32h-266q-51 0 -78.5 28t-27.5 78v1166z" />
    <glyph glyph-name="C" unicode="C" horiz-adv-x="1191" 
d="M99 645q0 176 48.5 315.5t136.5 236t209 148t268 51.5q63 0 115 -10t92 -24.5t67 -31t41 -30.5q19 -19 26.5 -37.5t7.5 -43.5q0 -18 -6 -33.5t-17 -26t-26 -17t-33 -6.5q-22 0 -44 12t-52.5 25.5t-74.5 25t-110 11.5q-86 0 -161 -34t-131.5 -101.5t-89 -168.5t-32.5 -234
q0 -120 32 -213.5t89 -157.5t135.5 -97t171.5 -33q64 0 108.5 11t76 24.5t54 24.5t42.5 11q16 0 29.5 -6t22.5 -16.5t14.5 -24.5t5.5 -30q0 -23 -8 -40.5t-25 -34.5t-48.5 -35.5t-76.5 -34.5t-104 -26.5t-130 -10.5q-138 0 -253 46t-197 132t-127.5 208.5t-45.5 275.5z" />
    <glyph glyph-name="D" unicode="D" horiz-adv-x="1405" 
d="M181 1272q0 50 27.5 78t78.5 28h327q169 0 299 -44.5t218 -128.5t133 -206.5t45 -279.5q0 -168 -49 -301.5t-142.5 -226t-227.5 -142t-303 -49.5h-300q-51 0 -78.5 28t-27.5 78v1166zM600 181q110 0 198 33.5t150 99t95 162.5t33 222q0 126 -30.5 219.5t-90.5 156
t-149 93t-206 30.5h-192v-1016h192z" />
    <glyph glyph-name="E" unicode="E" horiz-adv-x="1077" 
d="M408 182h504q37 0 59 -23t22 -68t-22 -68t-59 -23h-625q-51 0 -78.5 28t-27.5 78v1166q0 50 27.5 78t78.5 28h620q38 0 60 -23t22 -67q0 -45 -22 -68.5t-60 -23.5h-499v-400h429q37 0 58.5 -23t21.5 -67t-21.5 -67t-58.5 -23h-429v-434z" />
    <glyph glyph-name="F" unicode="F" horiz-adv-x="1019" 
d="M408 94q0 -48 -28.5 -74.5t-85.5 -26.5t-85 26.5t-28 74.5v1178q0 50 27.5 78t78.5 28h611q38 0 59 -23t21 -67q0 -45 -21 -68.5t-59 -23.5h-490v-424h409q37 0 58.5 -23t21.5 -67q0 -45 -21.5 -67.5t-58.5 -22.5h-409v-498z" />
    <glyph glyph-name="G" unicode="G" horiz-adv-x="1386" 
d="M807 559q-38 0 -58.5 23.5t-20.5 65.5q0 41 20.5 64.5t58.5 23.5h337q48 0 73.5 -25.5t25.5 -73.5v-430q0 -46 -13 -74.5t-39 -49.5q-21 -16 -56.5 -34.5t-87 -33.5t-119 -24.5t-149.5 -9.5q-158 0 -284 45.5t-213.5 132.5t-135 212.5t-47.5 284.5q0 170 51 307
t145.5 233t230 148t304.5 52q75 0 136.5 -11.5t108 -27.5t77.5 -35t45 -33q19 -18 26.5 -36t7.5 -44q0 -19 -6.5 -34t-17 -25.5t-26 -16.5t-33.5 -6q-23 0 -47.5 12.5t-62 28.5t-93 29t-141.5 13q-105 0 -192 -34.5t-149 -102t-96 -165.5t-34 -225q0 -129 34 -226.5
t97 -163.5t151.5 -99t197.5 -33q55 0 94.5 5.5t66.5 13.5q31 8 51 19v360h-218z" />
    <glyph glyph-name="H" unicode="H" horiz-adv-x="1435" 
d="M408 94q0 -48 -27.5 -74.5t-86.5 -26.5q-57 0 -85 26.5t-28 74.5v1190q0 48 28 74.5t85 26.5q59 0 86.5 -26.5t27.5 -74.5v-486h619v486q0 48 28 74.5t86 26.5q57 0 85 -26.5t28 -74.5v-1190q0 -48 -28 -74.5t-85 -26.5q-58 0 -86 26.5t-28 74.5v519h-619v-519z" />
    <glyph glyph-name="I" unicode="I" horiz-adv-x="589" 
d="M181 1284q0 48 28 74.5t85 26.5q59 0 86.5 -26.5t27.5 -74.5v-1190q0 -48 -27.5 -74.5t-86.5 -26.5q-57 0 -85 26.5t-28 74.5v1190z" />
    <glyph glyph-name="J" unicode="J" horiz-adv-x="597" 
d="M189 1284q0 48 28 74.5t86 26.5t85.5 -26.5t27.5 -74.5v-1112q0 -90 -8 -158t-24 -121t-41.5 -93.5t-59.5 -74.5q-55 -55 -116.5 -82t-115.5 -27q-50 0 -74.5 23.5t-24.5 59.5q0 28 12 46.5t35 31.5q42 23 76.5 48.5t60 62t39.5 90.5t14 135v1171z" />
    <glyph glyph-name="K" unicode="K" horiz-adv-x="1183" 
d="M910 1320q11 12 18.5 20.5t13.5 14.5q14 14 32 23.5t40 9.5q24 0 45.5 -9t38 -23.5t27 -34t10.5 -41.5q0 -18 -6.5 -34.5t-22.5 -33.5l-457 -490l455 -532q7 -8 14.5 -17.5t13 -20t9 -21.5t3.5 -24q0 -24 -11 -45t-29 -37t-40.5 -25.5t-45.5 -9.5q-22 0 -40.5 8t-31.5 21
q-8 8 -15 16t-19 23l-504 606v-570q0 -48 -27.5 -74.5t-86.5 -26.5q-57 0 -85 26.5t-28 74.5v1190q0 48 28 74.5t85 26.5q59 0 86.5 -26.5t27.5 -74.5v-543z" />
    <glyph glyph-name="L" unicode="L" horiz-adv-x="998" 
d="M891 186q39 0 61 -23t22 -70t-22 -70t-61 -23h-604q-51 0 -78.5 28t-27.5 78v1178q0 48 28 74.5t85 26.5q59 0 86.5 -26.5t27.5 -74.5v-1098h483z" />
    <glyph glyph-name="M" unicode="M" horiz-adv-x="1830" 
d="M243 1227q4 40 15.5 68t30.5 47t51.5 31t79.5 12q41 0 70.5 -9.5t51.5 -27.5t37.5 -45.5t25.5 -62.5l260 -814q12 -37 21.5 -71.5t16.5 -60.5q8 -31 14 -58h4q6 27 14 58q7 26 16 60t21 72l261 813q11 36 26 63t36.5 45.5t51 28t69.5 9.5q44 0 75 -11t51 -31t31 -48.5
t14 -67.5l115 -1092q2 -18 3 -30t1 -22q0 -21 -9.5 -38t-25.5 -29t-37.5 -19t-46.5 -7t-47.5 8t-36.5 22q-16 16 -21 40t-8 57l-72 812q-4 41 -5 79t-2 67q0 34 1 65h-4l-320 -1006q-12 -36 -24.5 -62.5t-28.5 -42.5q-20 -20 -45.5 -28t-60.5 -8q-36 0 -62.5 8t-45.5 28
q-16 16 -28.5 42.5t-24.5 62.5l-320 1006h-4q0 -30 -2 -64q-1 -29 -3 -66.5t-6 -79.5l-71 -813q-3 -33 -7.5 -57t-21.5 -41q-14 -14 -35 -21.5t-45 -7.5q-23 0 -43.5 6.5t-36.5 18t-24.5 28t-8.5 37.5q0 11 1 23t3 31z" />
    <glyph glyph-name="N" unicode="N" horiz-adv-x="1498" 
d="M181 1227q0 79 39.5 118.5t119.5 39.5q36 0 62 -9t47 -25t38.5 -38.5t35.5 -51.5l490 -782q24 -38 44 -75t36 -66q17 -34 33 -65l5 2q-3 35 -6 75q-3 34 -5.5 77.5t-2.5 90.5l-8 773q-2 44 25 69t79 25q53 0 78.5 -25t25.5 -69v-1139q0 -80 -39.5 -119.5t-119.5 -39.5
q-36 0 -62.5 9t-47.5 25t-38.5 38.5t-34.5 51.5l-490 782q-24 38 -44.5 75t-35.5 66q-19 34 -34 65l-4 -2q3 -35 6 -75q3 -34 5 -78t3 -90l8 -773q2 -44 -25 -69t-79 -25q-53 0 -78.5 25t-25.5 69v1140z" />
    <glyph glyph-name="O" unicode="O" horiz-adv-x="1498" 
d="M99 670q0 172 48.5 307t136 229t209.5 143t269 49q142 0 259.5 -46.5t201.5 -136t130 -217.5t46 -290q0 -171 -48.5 -306t-136 -229t-209 -143t-268.5 -49q-142 0 -259.5 46.5t-201.5 135.5t-130.5 217t-46.5 290zM333 691q0 -127 33 -225.5t89 -165t132.5 -101
t163.5 -34.5t163 34t131.5 100t87.5 163.5t32 224.5q0 128 -32.5 226t-89 164.5t-133 101t-163.5 34.5t-162.5 -34t-131 -99.5t-88 -163.5t-32.5 -225z" />
    <glyph glyph-name="P" unicode="P" horiz-adv-x="1136" 
d="M407 94q0 -48 -27.5 -74.5t-85.5 -26.5q-59 0 -86 26.5t-27 74.5v1178q0 50 27.5 78t78.5 28h281q128 0 223 -29t157 -82.5t92.5 -129t30.5 -168.5q0 -101 -34 -183.5t-100 -141t-164.5 -91.5t-228.5 -33h-137v-426zM559 698q136 0 208.5 68t72.5 187q0 118 -69 182
t-217 64h-147v-501h152z" />
    <glyph glyph-name="Q" unicode="Q" horiz-adv-x="1499" 
d="M99 670q0 172 48.5 307t136 229t209.5 143t269 49q142 0 259.5 -46.5t201.5 -136t130 -217.5t46 -290q0 -143 -34 -261t-96.5 -208t-151 -150t-197.5 -85q37 -57 87.5 -98.5t111 -70t128.5 -45t142 -23.5q48 -5 68.5 -27t20.5 -57q0 -23 -9 -43.5t-28.5 -34.5t-50 -22.5
t-73.5 -8.5q-50 0 -106 11.5t-113 34.5t-112.5 57t-105.5 79.5t-92 101.5t-71 123q-138 3 -251.5 51t-195 136.5t-126.5 215t-45 286.5zM333 690q0 -128 33 -226t89 -165t132.5 -101.5t163.5 -34.5t163 34t131.5 100.5t87.5 164t32 225.5t-32.5 226t-89 164.5t-133 101
t-163.5 34.5t-162.5 -34t-131 -100t-88 -163.5t-32.5 -225.5z" />
    <glyph glyph-name="R" unicode="R" horiz-adv-x="1193" 
d="M405 94q0 -48 -27.5 -74.5t-84.5 -26.5q-58 0 -85 26.5t-27 74.5v1178q0 50 27.5 78t78.5 28h285q135 0 233 -28t162 -78.5t94 -120.5t30 -153q0 -73 -22 -135t-62 -111t-96.5 -83t-124.5 -52l291 -441q14 -21 21.5 -37.5t7.5 -35.5q0 -24 -11.5 -44.5t-29.5 -35.5
t-41 -24t-47 -9t-41.5 8.5t-30.5 20.5q-4 5 -8.5 10t-8.5 10.5t-8.5 12.5t-10.5 17l-314 507h-150v-482zM564 754q75 0 131 17t92.5 46.5t54 71.5t17.5 92t-16.5 90.5t-52.5 68.5t-93 43.5t-138 15.5h-154v-445h159z" />
    <glyph glyph-name="S" unicode="S" horiz-adv-x="1106" 
d="M122 1004q0 84 31 156t92 125t151.5 82.5t208.5 29.5q60 0 110 -7.5t88.5 -19.5t66 -27.5t41.5 -29.5q19 -19 25.5 -36.5t6.5 -40.5q0 -38 -23 -59t-59 -21q-23 0 -44.5 9t-51 20.5t-71.5 20.5t-103 9q-62 0 -107 -13.5t-75 -38t-44.5 -58.5t-14.5 -75q0 -55 27.5 -92
t73.5 -63.5t104 -47t118.5 -43t118.5 -51.5t103.5 -73t73 -107t27.5 -154t-32.5 -167.5t-96 -132t-159 -86.5t-220.5 -31q-69 0 -125 8.5t-98 21.5t-70.5 28t-42.5 30q-18 18 -25.5 35.5t-7.5 41.5q0 39 23 61t59 22q23 0 44.5 -10.5t53.5 -22.5t80 -22.5t123 -10.5
q67 0 117 15.5t83 43t49.5 66t16.5 84.5q0 60 -27.5 100t-73 68.5t-103.5 50t-119 44t-119 50t-103.5 69.5t-73 102t-27.5 147z" />
    <glyph glyph-name="T" unicode="T" horiz-adv-x="1128" 
d="M107 1192q-38 0 -60 23t-22 70t22 70t60 23h914q38 0 60 -23t22 -70t-22 -70t-60 -23h-344v-1098q0 -48 -27.5 -74.5t-85.5 -26.5t-86 26.5t-28 74.5v1098h-343z" />
    <glyph glyph-name="U" unicode="U" horiz-adv-x="1423" 
d="M168 1284q0 48 28.5 74.5t85.5 26.5q58 0 86 -26.5t28 -74.5v-715q0 -107 23.5 -183t66.5 -124.5t102 -71.5t130 -23q67 0 123.5 22t97.5 68t64.5 116t23.5 167v744q0 48 27.5 74.5t85.5 26.5t86 -26.5t28 -74.5v-718q0 -147 -38 -256.5t-109 -182.5t-173 -109.5
t-230 -36.5q-130 0 -229.5 35t-167.5 104.5t-103.5 174t-35.5 242.5v747z" />
    <glyph glyph-name="V" unicode="V" horiz-adv-x="1222" 
d="M66 1209q-11 32 -14 46.5t-3 26.5q0 26 11.5 45t30 32.5t40.5 21t43 7.5q23 0 41 -7t30 -20q12 -11 19.5 -30.5t18.5 -50.5l279 -854q13 -39 23.5 -75.5t18.5 -64.5q8 -32 15 -61h4q6 28 15 61q7 28 17 64t23 76l268 855q10 30 18 49.5t21 32.5q11 11 29 18t40 7
q20 0 41 -6.5t38.5 -19t29 -31t11.5 -41.5q0 -10 -3.5 -25t-14.5 -47l-370 -1088q-11 -32 -24 -55.5t-29 -40.5q-20 -19 -49 -30t-74 -11t-74.5 11t-48.5 30q-17 18 -29.5 41t-23.5 55z" />
    <glyph glyph-name="W" unicode="W" horiz-adv-x="1928" 
d="M81 1219q-8 33 -10 45t-2 21q0 25 11 44t29 32t40 20t44 7q24 0 42.5 -7.5t30.5 -19.5q16 -16 22 -36t14 -51l212 -849q10 -42 17 -78t12 -64q5 -33 9 -59h4q5 25 10 58q6 27 13.5 63.5t18.5 79.5l212 832q18 73 57.5 102t103.5 29t104 -29t58 -103l209 -828
q10 -40 18 -76.5t13 -65.5q6 -33 12 -63h4q5 30 11 63q5 29 12.5 65.5t17.5 74.5l201 847q8 32 14 52.5t20 34.5q14 13 33 20.5t42 7.5q21 0 42 -6.5t38 -18.5t27.5 -30t10.5 -41q0 -4 -0.5 -8.5t-1.5 -12t-3.5 -18t-6.5 -26.5l-284 -1087q-9 -35 -20.5 -61t-29.5 -43
q-21 -22 -52.5 -32.5t-75.5 -10.5t-73.5 10.5t-50.5 32.5q-18 17 -28.5 43t-19.5 60l-207 810q-9 35 -16 70t-13 64q-6 33 -12 62h-4q-5 -30 -10 -63l-13.5 -63t-16.5 -71l-206 -809q-9 -34 -19.5 -60t-28.5 -43q-21 -22 -50.5 -32.5t-73.5 -10.5t-75.5 10.5t-53.5 32.5
q-18 17 -29 43t-20 61z" />
    <glyph glyph-name="X" unicode="X" horiz-adv-x="1208" 
d="M127 1163q-12 16 -21.5 29t-16.5 25t-10.5 24t-3.5 25q0 26 11 48t30 38.5t42 26t47 9.5q23 0 38 -7t27 -19l7 -7t9 -10.5t13 -16.5t18 -26l304 -438l278 431q11 16 18 27t12.5 18.5t9.5 12.5t9 10q12 11 27.5 18t35.5 7q23 0 45.5 -8.5t39.5 -23t27.5 -33.5t10.5 -41
q0 -25 -13.5 -46t-35.5 -53l-341 -478l357 -490q11 -17 21 -29.5t17 -24.5t11 -24t4 -25q0 -26 -12 -48t-30.5 -38.5t-42 -26t-47.5 -9.5q-21 0 -36.5 7t-27.5 19q-7 6 -16 17.5t-31 42.5l-325 470l-297 -463q-21 -32 -30.5 -45.5t-18.5 -22.5q-11 -11 -27 -18t-36 -7
q-23 0 -45 8.5t-39.5 23t-27.5 33.5t-10 41q0 25 12.5 46t35.5 53l360 509z" />
    <glyph glyph-name="Y" unicode="Y" horiz-adv-x="1127" 
d="M73 1179q-10 15 -17.5 27.5t-12 23.5t-7 21.5t-2.5 21.5q0 26 11.5 47t30.5 36t41 23.5t44 8.5q23 0 39 -7.5t27 -18.5q9 -10 18.5 -24.5t27.5 -45.5l244 -425q11 -20 20.5 -39.5t17.5 -34.5q10 -18 17 -34h4q8 17 16 35l18 36t22 42l232 419q17 32 25.5 46t18.5 24
q13 13 29.5 20t35.5 7q22 0 43.5 -8.5t38.5 -23t27.5 -34t10.5 -42.5q0 -21 -9.5 -40.5t-28.5 -50.5l-380 -632v-463q0 -48 -28 -74.5t-86 -26.5t-86 26.5t-28 74.5v463z" />
    <glyph glyph-name="Z" unicode="Z" horiz-adv-x="1060" 
d="M910 186q39 0 61 -23t22 -70t-22 -70t-61 -23h-701q-63 0 -96.5 32t-33.5 89q0 27 11.5 56t35.5 68l575 947h-517q-38 0 -60 23t-22 70t22 70t60 23h660q63 0 96.5 -32t33.5 -89q0 -27 -11.5 -56t-35.5 -68l-576 -947h559z" />
    <glyph glyph-name="bracketleft" unicode="[" horiz-adv-x="655" 
d="M524 -193q33 0 52.5 -21t19.5 -62t-19.5 -61.5t-52.5 -20.5h-258q-45 0 -69 24t-24 69v1693q0 44 24 69t69 25h258q33 0 52.5 -21.5t19.5 -62.5q0 -40 -19.5 -61t-52.5 -21h-147v-1549h147z" />
    <glyph glyph-name="backslash" unicode="\" horiz-adv-x="860" 
d="M76 1344q-7 21 -10 32.5t-3 23.5q0 20 9.5 37t25.5 29t36 18.5t40 6.5t34 -5.5t24.5 -16t17.5 -25t13 -32.5l584 -1598q7 -20 10 -31.5t3 -23.5q0 -21 -10 -38t-26 -29t-35.5 -18.5t-39.5 -6.5t-34 6t-24.5 16t-17.5 25t-13 33z" />
    <glyph glyph-name="bracketright" unicode="]" horiz-adv-x="655" 
d="M278 1356h-147q-33 0 -52.5 21t-19.5 61q0 41 19.5 62.5t52.5 21.5h258q45 0 69.5 -25t24.5 -69v-1693q0 -45 -24.5 -69t-69.5 -24h-258q-33 0 -52.5 20.5t-19.5 61.5t19.5 62t52.5 21h147v1549z" />
    <glyph glyph-name="asciicircum" unicode="^" horiz-adv-x="1168" 
d="M328 758q-17 -26 -36 -41t-46 -15q-18 0 -34 7t-29 18.5t-20.5 27t-7.5 34.5q0 15 5.5 29.5t17.5 34.5l297 478q22 34 49 50.5t62 16.5q34 0 60.5 -15.5t49.5 -51.5l292 -473q12 -19 18.5 -33.5t6.5 -32.5q0 -19 -8.5 -35.5t-22.5 -28t-32 -19t-36 -7.5q-27 1 -46.5 15
t-36.5 40l-252 402z" />
    <glyph glyph-name="underscore" unicode="_" horiz-adv-x="1168" 
d="M1091 -340q36 0 56.5 -22t20.5 -65q0 -42 -20.5 -63.5t-56.5 -21.5h-1014q-36 0 -56.5 21.5t-20.5 63.5q0 43 20.5 65t56.5 22h1014z" />
    <glyph glyph-name="grave" unicode="`" 
d="M366 1362q-7 6 -14 12.5t-12.5 14t-9 16.5t-3.5 20q0 22 10 42t27 35t37.5 24.5t40.5 9.5q10 0 18.5 -2.5t16.5 -7.5t15.5 -12.5t14.5 -17.5l171 -227q9 -12 16.5 -23.5t7.5 -25.5q0 -15 -6 -28.5t-17.5 -24.5t-25.5 -17.5t-30 -6.5q-14 0 -27 6t-27 20z" />
    <glyph glyph-name="a" unicode="a" horiz-adv-x="1097" 
d="M721 390q-22 6 -49 10q-23 5 -54.5 8t-70.5 3q-115 0 -170 -31t-55 -92q0 -30 11 -55t33 -43.5t54 -29.5t74 -11q54 0 96 19.5t72 42.5q34 28 59 62v117zM721 645q0 56 -12 96t-38.5 65t-70 37t-105.5 12q-60 0 -103.5 -9.5t-75 -21t-54 -20.5t-41.5 -9q-32 0 -52 20
t-20 56q0 19 6 33.5t21 28.5q14 15 47.5 32t81.5 31t109 24t130 10q199 0 298.5 -89.5t99.5 -260.5v-351q0 -67 4.5 -108.5t10 -68.5t10 -44t4.5 -34q0 -18 -7 -33t-19 -26.5t-30.5 -17.5t-40.5 -6q-27 0 -48 9t-36.5 26t-26 41t-16.5 53h-3q-32 -39 -77 -70
q-38 -26 -95 -47.5t-133 -21.5q-81 0 -145 22.5t-108 62.5t-67 94.5t-23 118.5q0 69 30 122t85.5 88t134.5 53t178 18q46 0 82.5 -3t62.5 -7q30 -4 52 -10v105z" />
    <glyph glyph-name="b" unicode="b" horiz-adv-x="1183" 
d="M162 1384q0 47 27.5 72.5t83.5 25.5t83.5 -25.5t27.5 -72.5v-349q0 -36 -1.5 -70.5t-6.5 -73.5h3q30 39 73 69q19 13 42 25.5t51 23t61.5 16t71.5 5.5q93 0 168.5 -31t130 -93t84.5 -155.5t30 -217.5q0 -131 -37.5 -233.5t-108 -173.5t-173 -108t-232.5 -37q-72 0 -130 9
t-101.5 22.5t-72 28.5t-40.5 28q-8 8 -14.5 17.5t-11 20t-6.5 24.5t-2 33v1220zM384 195q18 -12 45 -21q22 -8 55.5 -14.5t78.5 -6.5q67 0 122.5 23t95 68t61.5 112.5t22 157.5q0 91 -17 155t-48 104t-75.5 59t-98.5 19q-30 0 -56.5 -7.5t-49.5 -18.5t-41.5 -25.5
t-33.5 -29.5q-36 -36 -60 -80v-495z" />
    <glyph glyph-name="c" unicode="c" horiz-adv-x="930" 
d="M92 468q0 131 38 235t107 177t164.5 111.5t211.5 38.5q45 0 81.5 -6t64.5 -15.5t47 -21t29 -22.5q15 -14 22 -31.5t7 -41.5q0 -17 -5.5 -31t-15 -24.5t-23.5 -16.5t-31 -6q-18 0 -34.5 6t-37 14t-48.5 14.5t-68 6.5q-59 0 -110.5 -23t-90 -68.5t-60 -113t-21.5 -156.5
q0 -80 22 -142.5t61 -105t93.5 -65.5t119.5 -23q42 0 70.5 6t49 13.5t36 13.5t30.5 6q16 0 28.5 -5.5t21 -15.5t13.5 -23t5 -28q0 -21 -8 -37.5t-23 -31.5q-14 -15 -38 -28.5t-57.5 -23.5t-77 -16.5t-95.5 -6.5q-108 0 -196 34t-150.5 98t-97 154t-34.5 201z" />
    <glyph glyph-name="d" unicode="d" horiz-adv-x="1183" 
d="M800 1384q0 47 27 72.5t83 25.5q57 0 84 -25.5t27 -72.5v-1301q0 -44 -23.5 -68t-68.5 -24q-22 0 -39 5.5t-29 16.5t-19 27.5t-11 38.5l-9 60h-3q-31 -44 -76 -79q-38 -29 -97 -54t-141 -25q-93 0 -169 31.5t-130 93.5t-84 155t-30 218q0 131 37.5 233.5t108 173.5
t173 108t232.5 37q34 0 62.5 -3.5t49.5 -6.5q24 -5 45 -11l3 1q-3 57 -3 120v253zM800 819q-20 10 -47 18q-22 7 -55.5 13t-77.5 6q-68 0 -123 -23t-95 -68t-61.5 -111.5t-21.5 -155.5q0 -91 17 -155t48 -104.5t75.5 -59t98.5 -18.5q31 0 57 6.5t48.5 18t41 26t34.5 30.5
q36 35 61 80v497z" />
    <glyph glyph-name="e" unicode="e" horiz-adv-x="1084" 
d="M314 470v-5q4 -73 27 -130t63 -96.5t96.5 -60t124.5 -20.5q55 0 94 8t67.5 16.5t49 16.5t39.5 8q16 0 28.5 -6t21.5 -15.5t13.5 -22t4.5 -27.5q0 -20 -7 -35.5t-22 -31.5q-14 -14 -42 -29.5t-69 -28.5t-95.5 -21.5t-120.5 -8.5q-114 0 -205.5 34t-156 98.5t-99 155
t-34.5 204.5q0 133 36.5 237t101.5 175t154.5 108.5t195.5 37.5q91 0 166 -29.5t128.5 -85.5t83 -136t29.5 -182q0 -65 -30 -96.5t-88 -31.5h-555zM779 620q-14 126 -69 186.5t-153 60.5q-42 0 -79.5 -14.5t-69 -45t-54.5 -77t-34 -110.5h459z" />
    <glyph glyph-name="f" unicode="f" horiz-adv-x="677" 
d="M107 841q-34 0 -55 22t-21 64q0 41 21 63t55 22h97v97q0 91 25 162.5t72.5 120.5t115 74.5t151.5 25.5q61 0 102 -14t59 -32q14 -14 20.5 -30t6.5 -41q0 -18 -5 -32.5t-14.5 -24.5t-22 -15t-26.5 -5q-12 0 -23.5 3t-24.5 7t-29.5 7.5t-40.5 3.5q-70 0 -107 -46t-37 -150
v-111h158q35 0 56 -22t21 -63q0 -42 -21 -64t-56 -22h-158v-749q0 -47 -27.5 -73t-83.5 -26t-83.5 26t-27.5 73v749h-97z" />
    <glyph glyph-name="g" unicode="g" horiz-adv-x="1183" 
d="M1021 43q0 -135 -33.5 -235.5t-102.5 -166.5t-173.5 -99.5t-245.5 -33.5q-93 0 -159.5 16t-95.5 44q-11 12 -17.5 25.5t-6.5 34.5q0 39 22.5 58.5t54.5 19.5q17 0 34 -4.5t39.5 -9.5t53.5 -9.5t74 -4.5q88 0 151 19t104 58t60.5 98.5t19.5 139.5q1 33 2 63t5 65h-3
q-30 -40 -73 -70q-37 -26 -93 -48t-133 -22q-93 0 -169 31.5t-130 93.5t-84 155t-30 218q0 131 37.5 233.5t108 173.5t173 108t232.5 37q72 0 130 -9t101.5 -22.5t72 -29t41.5 -27.5q8 -9 14.5 -18t10.5 -20t6 -24.5t2 -32.5v-805zM800 819q-19 10 -46 18q-22 7 -55.5 13
t-78.5 6q-68 0 -123 -23t-95 -68t-61.5 -111.5t-21.5 -155.5q0 -91 17 -155t48 -104.5t75.5 -59t98.5 -18.5q31 0 57 6.5t48.5 18t41 26t34.5 30.5q36 35 61 80v497z" />
    <glyph glyph-name="h" unicode="h" horiz-adv-x="1211" 
d="M162 1384q0 47 27.5 72.5t83.5 25.5t83.5 -25.5t27.5 -72.5v-349q0 -36 -1.5 -70.5t-6.5 -73.5h3q30 39 74 69q18 13 41.5 25.5t52 23t61.5 16t71 5.5q88 0 158 -26.5t119.5 -79t75.5 -129.5t26 -178v-525q0 -47 -27.5 -73t-83.5 -26t-83.5 26t-27.5 73v496
q0 69 -14 118.5t-41.5 81.5t-67 47.5t-89.5 15.5q-30 0 -56 -7.5t-49 -18.5t-41.5 -25.5t-33.5 -29.5q-36 -36 -60 -80v-598q0 -47 -27.5 -73t-83.5 -26t-83.5 26t-27.5 73v1292z" />
    <glyph glyph-name="i" unicode="i" horiz-adv-x="545" 
d="M162 920q0 47 27.5 72.5t83.5 25.5t83.5 -25.5t27.5 -72.5v-828q0 -47 -27.5 -73t-83.5 -26t-83.5 26t-27.5 73v828zM132 1318q0 29 10.5 54.5t29 43.5t45 29t58.5 11q30 0 55.5 -11t44 -28.5t29 -42t10.5 -52.5q0 -30 -10.5 -55t-29.5 -43.5t-45 -29t-58 -10.5
q-30 0 -55.5 10.5t-44 28.5t-29 42t-10.5 53z" />
    <glyph glyph-name="j" unicode="j" horiz-adv-x="547" 
d="M164 920q0 47 27 72.5t83 25.5t83.5 -25.5t27.5 -72.5v-922q0 -73 -10 -132.5t-28 -106t-41.5 -82t-50.5 -61.5q-47 -47 -100 -71.5t-102 -24.5q-22 0 -40 6t-30.5 17t-19.5 26t-7 34q0 24 10 41t30 30q42 27 73 54.5t52 65t32 90.5t11 131v905zM133 1318q0 29 10.5 54.5
t29 43.5t45 29t58.5 11q30 0 56 -11t44.5 -28.5t29 -42t10.5 -52.5q0 -30 -10.5 -55t-29.5 -43.5t-45.5 -29t-58.5 -10.5q-30 0 -55.5 10.5t-44 28.5t-29 42t-10.5 53z" />
    <glyph glyph-name="k" unicode="k" horiz-adv-x="1037" 
d="M750 955l22.5 22.5l16.5 16.5q14 13 31 20t38 7q22 0 42 -8.5t35.5 -23t24.5 -33t9 -37.5t-9 -37.5t-30 -38.5l-305 -283l326 -383q17 -19 25 -37t8 -38q0 -24 -10.5 -44.5t-28 -35.5t-39 -23.5t-44.5 -8.5q-20 0 -37 7.5t-31 22.5q-9 9 -16.5 17.5t-17.5 21.5l-376 469
v-436q0 -47 -27.5 -73t-83.5 -26t-83.5 26t-27.5 73v1292q0 47 27.5 72.5t83.5 25.5t83.5 -25.5t27.5 -72.5v-799z" />
    <glyph glyph-name="l" unicode="l" horiz-adv-x="588" 
d="M158 1384q0 47 27.5 72.5t83.5 25.5t83.5 -25.5t27.5 -72.5v-1078q0 -41 5.5 -68.5t16 -43t25 -22t32.5 -6.5q16 0 28 1.5t24 1.5t23 -4.5t18.5 -13t12.5 -21t5 -27.5q0 -24 -7.5 -40t-19.5 -28q-8 -9 -20.5 -17t-30 -14.5t-41 -10.5t-54.5 -4q-117 0 -178 63.5
t-61 193.5v1138z" />
    <glyph glyph-name="m" unicode="m" horiz-adv-x="1851" 
d="M162 929q0 44 24 68t68 24q22 0 39 -5.5t29.5 -17t19.5 -27.5t10 -37l9 -61h4q29 44 73 79q18 15 42 29t53 25t63 17.5t75 6.5q118 0 197.5 -48.5t122.5 -132.5q34 50 83 90q21 17 47 33.5t57.5 29.5t69 20.5t80.5 7.5q84 0 152.5 -26.5t117 -79t74.5 -129.5t26 -178
v-525q0 -47 -27.5 -73t-83.5 -26t-83.5 26t-27.5 73v496q0 69 -14 118.5t-40.5 81.5t-64.5 47.5t-84 15.5q-30 0 -55.5 -7.5t-47.5 -19.5t-40.5 -27t-33.5 -31q-34 -36 -60 -83q0 -7 2.5 -33.5t2.5 -60.5v-497q0 -47 -27.5 -73t-83.5 -26t-83.5 26t-27.5 73v496
q0 69 -14 118.5t-40.5 81.5t-64.5 47.5t-85 15.5q-28 0 -53 -7.5t-47 -18.5t-40 -25.5t-32 -29.5q-35 -36 -59 -80v-598q0 -47 -27.5 -73t-83.5 -26t-83.5 26t-27.5 73v837z" />
    <glyph glyph-name="n" unicode="n" horiz-adv-x="1211" 
d="M162 929q0 44 24 68t68 24q22 0 39 -5.5t29.5 -17t19.5 -27.5t10 -37l9 -61h4q29 44 74 79q19 15 43.5 29t54.5 25t65.5 17.5t76.5 6.5q88 0 158 -26.5t119.5 -79t75.5 -129.5t26 -178v-525q0 -47 -27.5 -73t-83.5 -26t-83.5 26t-27.5 73v496q0 69 -14 118.5t-41.5 81.5
t-67 47.5t-89.5 15.5q-30 0 -56 -7.5t-49 -18.5t-41.5 -25.5t-33.5 -29.5q-36 -36 -60 -80v-598q0 -47 -27.5 -73t-83.5 -26t-83.5 26t-27.5 73v837z" />
    <glyph glyph-name="o" unicode="o" horiz-adv-x="1193" 
d="M92 488q0 128 36.5 229t104 170.5t163 106.5t213.5 37q109 0 199 -36t155 -102.5t101 -160.5t36 -208q0 -128 -36.5 -229t-103.5 -171t-162.5 -106.5t-213.5 -36.5q-109 0 -199.5 36t-155.5 102.5t-101 160t-36 208.5zM319 508q0 -86 21.5 -151.5t59.5 -110t89 -67.5
t110 -23q58 0 108.5 22t87.5 66t58 109t21 151q0 85 -22 151t-60 110.5t-88.5 67.5t-108.5 23q-59 0 -109.5 -22.5t-88 -66t-58 -108.5t-20.5 -151z" />
    <glyph glyph-name="p" unicode="p" horiz-adv-x="1183" 
d="M162 929q0 44 24 68t68 24q22 0 39 -5.5t29.5 -17t19.5 -27.5t10 -37l9 -61h4q30 44 74 79q19 15 43.5 29t54.5 25t65 17.5t76 6.5q93 0 168.5 -31t130 -93t84.5 -155.5t30 -217.5q0 -131 -37.5 -233.5t-108 -173.5t-173 -108t-232.5 -37q-34 0 -62.5 3t-48.5 7
q-25 5 -45 10l-3 -1q2 -28 2.5 -58t0.5 -61v-261q0 -47 -27.5 -72.5t-83.5 -25.5t-83.5 25.5t-27.5 72.5v1309zM384 190q19 -11 46 -19q23 -7 56 -12.5t77 -5.5q67 0 122.5 23t95 68t61.5 112.5t22 157.5q0 91 -17 155t-48 104t-75.5 59t-98.5 19q-30 0 -56.5 -7.5
t-49.5 -18.5t-41.5 -25.5t-33.5 -29.5q-36 -36 -60 -80v-500z" />
    <glyph glyph-name="q" unicode="q" horiz-adv-x="1183" 
d="M800 -23q0 36 1.5 70t5.5 74h-3q-30 -40 -73 -70q-37 -26 -93 -48t-133 -22q-93 0 -169 31.5t-130 93.5t-84 155t-30 218q0 131 37.5 233.5t108 173.5t173 108t232.5 37q72 0 130 -9t101.5 -22.5t72 -29t41.5 -27.5q8 -9 14.5 -18t10.5 -20t6 -24.5t2 -32.5v-1228
q0 -47 -27 -72.5t-84 -25.5q-56 0 -83 25.5t-27 72.5v357zM800 819q-19 10 -46 18q-22 7 -55.5 13t-78.5 6q-68 0 -123 -23t-95 -68t-61.5 -111.5t-21.5 -155.5q0 -91 17 -155t48 -104.5t75.5 -59t98.5 -18.5q31 0 57 6.5t48.5 18t41 26t34.5 30.5q36 35 61 80v497z" />
    <glyph glyph-name="r" unicode="r" horiz-adv-x="736" 
d="M162 929q0 44 24 68t68 24q22 0 39 -5.5t29 -17t19.5 -28.5t10.5 -38l13 -84h3q20 39 46 73t57.5 58.5t67 38t74.5 13.5q55 0 84 -28t29 -82q0 -62 -26 -95t-60 -33q-11 0 -19.5 2t-16.5 4t-17 4.5t-20 2.5q-25 0 -50 -12.5t-48 -34t-44.5 -52t-40.5 -66.5v-549
q0 -47 -27.5 -73t-83.5 -26t-83.5 26t-27.5 73v837z" />
    <glyph glyph-name="s" unicode="s" horiz-adv-x="929" 
d="M108 726q0 64 25 119.5t76 96.5t126 64.5t174 23.5q54 0 96 -6t73 -16t52 -21.5t31 -22.5q16 -16 22.5 -32.5t6.5 -38.5q0 -16 -6 -29.5t-15.5 -23t-23 -15t-29.5 -5.5q-18 0 -38.5 6.5t-46 15t-59 15t-77.5 6.5q-45 0 -77 -8.5t-53 -23.5t-30.5 -35t-9.5 -44
q0 -36 22 -60t58 -42t82.5 -32.5t94.5 -31t94 -38t82.5 -54t58.5 -79t22 -112.5q0 -67 -26.5 -125.5t-80 -102t-133 -69t-184.5 -25.5q-63 0 -110.5 7t-81.5 17t-56 23t-34 25q-14 14 -21 30.5t-7 40.5q0 34 20.5 55t53.5 21q17 0 37.5 -8t49.5 -17.5t68 -17.5t95 -8
q50 0 86.5 10t60 26.5t34.5 40t11 50.5q0 38 -22 63.5t-58.5 44t-82.5 33t-94 31.5t-94 38t-82.5 53t-58 77.5t-21.5 109.5z" />
    <glyph glyph-name="t" unicode="t" horiz-adv-x="725" 
d="M104 841q-35 0 -55.5 22t-20.5 64q0 41 20.5 63t55.5 22h102l28 180q8 49 33.5 73t67.5 24t64.5 -23.5t22.5 -67.5v-186h192q35 0 56 -22t21 -63q0 -42 -21 -64t-56 -22h-192v-534q0 -77 27 -109t82 -32q21 0 36 2.5t27 6t21.5 6t19.5 2.5q15 0 26.5 -5t19.5 -14
t13 -21.5t5 -27.5q0 -24 -8 -39.5t-22 -29.5q-8 -9 -23.5 -18.5t-39.5 -18t-56 -14.5t-74 -6q-141 0 -208 67.5t-67 203.5v581h-97z" />
    <glyph glyph-name="u" unicode="u" horiz-adv-x="1205" 
d="M153 920q0 47 27 72.5t84 25.5t84 -25.5t27 -72.5v-496q0 -138 55 -200.5t151 -62.5q31 0 57 6.5t48 18t41 26t35 30.5q35 35 59 80v598q0 47 27.5 72.5t83.5 25.5q57 0 84 -25.5t27 -72.5v-837q0 -44 -24 -68t-68 -24q-22 0 -39 5.5t-29 16.5t-19 27.5t-11 38.5l-9 60
h-3q-30 -44 -75 -79q-19 -15 -43.5 -29t-54.5 -25t-65.5 -18t-76.5 -7q-86 0 -154.5 27t-117.5 79.5t-75 129.5t-26 178v525z" />
    <glyph glyph-name="v" unicode="v" horiz-adv-x="1029" 
d="M65 845q-12 33 -15.5 47t-3.5 27q0 24 11.5 43t29 32.5t39.5 20t43 6.5q23 0 40 -6.5t28 -18.5q11 -11 18 -28.5t19 -49.5l201 -557q11 -31 19 -57t14 -46q6 -22 11 -40h4q5 18 11 41q5 20 13.5 45.5t19.5 56.5l198 562q10 27 17 44.5t18 28.5q11 12 28 18.5t40 6.5
q20 0 40.5 -6t37 -18t27 -29.5t10.5 -40.5q0 -12 -3 -25t-14 -42l-270 -708q-16 -43 -31 -72t-32 -46q-10 -10 -21.5 -17.5t-26 -12.5t-32.5 -8t-40 -3q-21 0 -39 3t-32.5 7.5t-26.5 12t-22 17.5q-16 17 -31.5 46.5t-31.5 72.5z" />
    <glyph glyph-name="w" unicode="w" horiz-adv-x="1639" 
d="M85 854q-11 33 -13 47t-2 23q0 24 12 42t29.5 30.5t39 18.5t41.5 6q24 0 42 -6.5t29 -18.5q13 -12 19.5 -32t16.5 -54l155 -553q9 -32 15 -59.5t11 -47.5q4 -24 8 -43h4q3 20 8 44q5 20 11 47t16 59l149 527q11 37 24 63.5t31 43t41.5 23.5t55.5 7t56 -7t41.5 -23.5
t30.5 -42.5t23 -64l151 -527q8 -32 15 -59t12 -47q5 -24 9 -44h4q4 20 8 44q5 20 11.5 47t14.5 59l147 554q9 32 15.5 52.5t18.5 32.5q11 12 29 18.5t41 6.5q21 0 41 -5.5t36 -17t26 -28.5t10 -39q0 -9 -2 -22.5t-12 -46.5l-218 -720q-12 -40 -24.5 -67t-29.5 -43
q-20 -20 -48 -29.5t-67 -9.5q-37 0 -65 9t-47 28q-18 17 -30 46t-24 69l-142 490q-11 34 -17.5 62.5t-10.5 50.5q-4 25 -8 46h-4q-4 -21 -8 -46q-5 -22 -11.5 -50.5t-15.5 -62.5l-144 -490q-11 -38 -23.5 -67.5t-29.5 -45.5q-19 -20 -46.5 -29.5t-67.5 -9.5
q-42 0 -70.5 10.5t-47.5 28.5q-16 16 -28.5 42t-24.5 65z" />
    <glyph glyph-name="x" unicode="x" horiz-adv-x="1054" 
d="M145 801q-14 16 -25 28.5t-18.5 24t-12 23t-4.5 24.5q0 27 12 48.5t30.5 38t40.5 25t42 8.5q17 0 30.5 -5t24.5 -15q3 -2 6.5 -5.5t8.5 -9t12.5 -15t19.5 -24.5l232 -288l210 284q11 15 18 24.5t12 15t7.5 9t5.5 5.5q12 12 26 18t32 6q20 0 40.5 -8t37.5 -22.5t27 -34
t10 -42.5q0 -12 -3.5 -23.5t-10.5 -22.5t-17.5 -22.5t-22.5 -25.5l-250 -297l263 -312q13 -16 24 -28.5t19 -24.5t12.5 -23.5t4.5 -23.5q0 -27 -12 -49t-30.5 -38t-40.5 -25t-42 -9q-17 0 -31 5.5t-25 15.5q-3 3 -6 6.5t-8 8.5t-13 14.5t-20 24.5l-250 311l-229 -307
q-11 -15 -18.5 -24.5t-12 -15.5t-7 -9t-5.5 -5q-12 -12 -26.5 -18.5t-32.5 -6.5q-20 0 -40 8t-36.5 22.5t-27 34.5t-10.5 42q0 13 4 24t11.5 22.5t17.5 23.5t22 26l268 319z" />
    <glyph glyph-name="y" unicode="y" horiz-adv-x="1029" 
d="M65 845q-12 33 -15.5 47t-3.5 27q0 24 11.5 43t29.5 32.5t39.5 20t42.5 6.5q24 0 39.5 -7t27.5 -19q11 -11 18 -28t18 -49l200 -566q12 -32 20.5 -60t14.5 -49q6 -25 11 -46h4q6 21 13 46q5 21 13.5 49t19.5 60l198 572q9 27 16 43.5t18 28.5t28.5 18.5t39.5 6.5
q20 0 40.5 -6t37 -17.5t27 -29.5t10.5 -41q0 -12 -3 -25t-14 -42l-286 -751q-62 -161 -125.5 -274t-133 -183.5t-148 -102.5t-170.5 -32q-44 0 -77.5 10.5t-52.5 28.5q-27 27 -27 69q0 35 21 56t58 21q12 0 22 -1t19.5 -2.5t19 -2t21.5 -0.5q45 0 85 18t75 53t66.5 86.5
t60.5 118.5z" />
    <glyph glyph-name="z" unicode="z" horiz-adv-x="958" 
d="M591 841h-401q-35 0 -56 22t-21 64q0 41 21 63t56 22h546q64 0 95.5 -29.5t31.5 -81.5q0 -27 -12.5 -53.5t-40.5 -64.5l-450 -613h449q34 0 55 -21.5t21 -63.5q0 -41 -21 -63t-55 -22h-593q-64 0 -95.5 29t-31.5 81q0 28 12 54.5t41 64.5z" />
    <glyph glyph-name="braceleft" unicode="{" horiz-adv-x="701" 
d="M245 232q0 36 -2 71t-7.5 66t-15 56.5t-25.5 41.5q-17 17 -32.5 25t-29.5 12.5t-26 8.5t-22 14q-12 11 -18.5 29t-6.5 42t6.5 41.5t18.5 28.5q10 10 22 14t26 9t29.5 12.5t32.5 24.5q16 16 25.5 41.5t15 57t7.5 66.5t2 70v226q0 87 19 151t55.5 106t88.5 62t117 20h4
q31 0 52 -6t35 -17.5t20.5 -26.5t6.5 -34q0 -18 -5.5 -32t-15.5 -24t-25 -16t-34 -6h-8q-28 0 -47.5 -6.5t-32 -24.5t-18.5 -49t-6 -79v-226q0 -90 -8.5 -151t-26 -103.5t-44.5 -69.5t-64 -48v-2q37 -21 64 -48t44.5 -69t26 -102.5t8.5 -147.5v-269q0 -53 7 -87t20.5 -54
t34 -27.5t48.5 -7.5h8q37 0 55.5 -19.5t18.5 -52.5q0 -20 -7.5 -36.5t-23 -28t-39.5 -17.5t-58 -6h-4q-64 0 -113.5 18t-83.5 57t-51.5 99.5t-17.5 144.5v278z" />
    <glyph glyph-name="bar" unicode="|" horiz-adv-x="632" 
d="M220 1400q0 48 24.5 71.5t70.5 23.5q47 0 72.5 -23.5t25.5 -71.5v-1796q0 -48 -25.5 -72t-72.5 -24q-46 0 -70.5 24t-24.5 72v1796z" />
    <glyph glyph-name="braceright" unicode="}" horiz-adv-x="701" 
d="M249 214q0 90 8.5 151t26.5 103.5t45 69t65 48.5v2q-38 21 -65 48t-45 69t-26.5 102.5t-8.5 148.5v235q0 53 -6.5 87t-20.5 54t-34.5 27.5t-48.5 7.5h-8q-37 0 -55 19.5t-18 51.5q0 21 7.5 37t23 28t39.5 18.5t57 6.5h4q64 0 113.5 -18.5t83.5 -57.5t52 -99.5t18 -144.5
v-245q0 -35 1.5 -70t7 -66.5t15 -57t25.5 -41.5q17 -17 33 -24.5t29.5 -12.5t26 -9t22.5 -14q24 -24 24 -70q0 -24 -6.5 -42t-17.5 -29q-10 -10 -22.5 -14t-26 -8.5t-29.5 -12.5t-33 -25q-16 -16 -25.5 -41.5t-15 -56.5t-7 -66t-1.5 -71v-259q0 -88 -19.5 -151.5t-55.5 -105
t-88 -61.5t-118 -20h-4q-30 0 -51.5 5.5t-35 17t-20 26.5t-6.5 34q0 17 5.5 31.5t15 24.5t24.5 15.5t34 5.5h8q28 0 47.5 6.5t32 24.5t18.5 49t6 80v259z" />
    <glyph glyph-name="asciitilde" unicode="~" horiz-adv-x="1168" 
d="M418 741q42 0 76.5 -10t63 -25t53 -33t49 -33t48.5 -25t52 -10q42 0 75 25t58 65q12 14 27 22.5t33 8.5q16 0 30.5 -6t25.5 -16t18 -24.5t7 -31.5q0 -9 -2 -18.5t-6 -19.5q-18 -40 -46 -73t-64 -57t-78.5 -38t-88.5 -14q-43 0 -77 10.5t-62.5 25.5t-53.5 32.5t-48.5 32.5
t-48 25.5t-52.5 10.5q-42 0 -75 -25t-58 -65q-12 -15 -27 -23t-33 -8q-16 0 -30.5 5.5t-25.5 16t-18 25t-7 31.5q0 19 8 37q18 40 46 73.5t64 57.5t78.5 37.5t88.5 13.5z" />
    <glyph glyph-name="uni00A0" unicode="&#xa0;" horiz-adv-x="537" 
 />
    <glyph glyph-name="exclamdown" unicode="&#xa1;" horiz-adv-x="631" 
d="M216 581q1 37 26 59t74 22q48 0 73.5 -22t26.5 -59l20 -769q1 -27 1.5 -48t0.5 -37.5v-30v-25.5q0 -20 -6.5 -37t-21 -29t-38 -19.5t-56.5 -7.5q-34 0 -57.5 7.5t-38 19.5t-21 29t-6.5 37v25.5t0.5 30t1 37.5t1.5 48zM167 936q0 32 11 58.5t31.5 46.5t48 31t60.5 11
q32 0 59.5 -10.5t46.5 -29.5t30 -45t11 -57q0 -32 -11.5 -58.5t-32 -46.5t-48 -31t-59.5 -11q-33 0 -60 10.5t-46.5 29.5t-30 45t-10.5 57z" />
    <glyph glyph-name="cent" unicode="&#xa2;" horiz-adv-x="1021" 
d="M505 134q-93 13 -166.5 51t-123.5 96.5t-76.5 136t-26.5 170.5q0 101 27 186t78 150.5t124 109.5t165 63v225q0 38 21 57t59 19q39 0 59.5 -19t20.5 -57v-211q47 -2 85 -9.5t66.5 -18t47.5 -22t29 -21.5q16 -15 23 -32t7 -42q0 -33 -20 -55.5t-55 -22.5q-18 0 -37.5 7.5
t-44.5 16.5t-57.5 16.5t-75.5 7.5q-67 0 -121.5 -22t-93.5 -63.5t-60 -103t-21 -140.5q0 -70 21 -126.5t60.5 -95.5t97 -59.5t130.5 -20.5q47 0 79.5 6.5t56.5 14.5t42 15t36 7q15 0 28 -5.5t21.5 -15.5t13 -23t4.5 -28q0 -39 -30 -69q-12 -12 -33 -24.5t-50 -23t-66.5 -19
t-82.5 -11.5v-215q0 -38 -21 -57t-59 -19q-39 0 -60 19t-21 57v220z" />
    <glyph glyph-name="sterling" unicode="&#xa3;" horiz-adv-x="1076" 
d="M186 621q-39 0 -59.5 22.5t-20.5 62.5q0 39 20.5 62t59.5 23h54q-10 38 -21 85t-11 106q0 85 33 159.5t95 129.5t151.5 86.5t202.5 31.5q47 0 84.5 -6.5t66 -16t48 -21.5t29.5 -22q15 -15 22.5 -32t7.5 -41q0 -17 -5.5 -30.5t-16 -24t-24.5 -16.5t-31 -6q-18 0 -35 6.5
t-38.5 14.5t-50 14.5t-68.5 6.5q-62 0 -108.5 -15.5t-78 -44t-47.5 -68.5t-16 -89q0 -30 3 -56t8.5 -51t11.5 -49.5t13 -50.5h328q40 0 60.5 -23t20.5 -62q0 -40 -20.5 -62.5t-60.5 -22.5h-294q15 -127 -17.5 -232.5t-108.5 -202.5l2 -3h552q36 0 57 -24t21 -67t-21 -67.5
t-57 -24.5h-681q-61 0 -94 31.5t-33 84.5q0 18 3 34t9.5 31.5t16.5 31t24 35.5q24 32 47 70.5t39 84t22 99.5t-5 119h-89z" />
    <glyph glyph-name="currency" unicode="&#xa4;" horiz-adv-x="1058" 
d="M244 248q-15 -21 -29 -29.5t-33 -8.5q-16 0 -31.5 7t-28 19t-19.5 26.5t-7 30.5t7 28.5t20 26.5l104 110q-37 47 -56.5 107.5t-19.5 134.5q0 77 20 140t59 111l-100 106q-12 13 -20 25.5t-8 30.5q0 16 8 32t21.5 28.5t30 20.5t33.5 8q20 0 33 -10t28 -29l88 -123
q42 22 89.5 32.5t103.5 10.5q108 0 185 -42l92 127q15 20 29 29t33 9q16 0 31.5 -7.5t28 -19t19.5 -26.5t7 -31t-7 -28.5t-20 -26.5l-104 -111q37 -46 56.5 -106t19.5 -134q0 -77 -20.5 -140t-58.5 -111l100 -107q12 -13 19.5 -25.5t7.5 -29.5t-8 -33t-21 -28.5t-29.5 -20
t-33.5 -7.5q-20 0 -33.5 9.5t-27.5 29.5l-88 122q-40 -22 -89 -32.5t-104 -10.5q-54 0 -100 10.5t-86 30.5zM322 710q0 -57 15.5 -102.5t43 -76.5t66 -47t84.5 -16q45 0 82.5 16t65 46t42.5 74.5t15 101.5q0 58 -15.5 102.5t-43 76t-66 47.5t-84.5 16t-83.5 -16t-64.5 -46.5
t-42 -74.5t-15 -101z" />
    <glyph glyph-name="yen" unicode="&#xa5;" horiz-adv-x="1234" 
d="M273 507q-38 0 -56 19t-18 52t18 52t56 19h203l-327 536q-20 33 -30 53t-10 43q0 24 10 43.5t26.5 33.5t37 22t42.5 8q21 0 37 -7.5t27 -18.5t22 -29.5t24 -41.5l235 -406q11 -20 21 -39.5t18 -34.5q9 -18 16 -33h4q7 16 16 34q7 16 17 36t23 41l223 403q17 33 26 47
t18 23q25 26 63 26q21 0 40.5 -8t35 -21.5t25 -32t9.5 -39.5q0 -22 -10.5 -42.5t-29.5 -51.5l-332 -544h203q38 0 56 -19t18 -52t-18 -52t-56 -19h-230v-139h230q38 0 56 -19t18 -52t-18 -52t-56 -19h-230v-135q0 -47 -27.5 -72.5t-84.5 -25.5q-56 0 -84 25.5t-28 72.5v135
h-229q-38 0 -56 19t-18 52t18 52t56 19h231v139h-231z" />
    <glyph glyph-name="brokenbar" unicode="&#xa6;" horiz-adv-x="632" 
d="M220 1400q0 48 24.5 71.5t70.5 23.5q47 0 72.5 -23.5t25.5 -71.5v-657q0 -48 -25.5 -71.5t-72.5 -23.5q-46 0 -70.5 23.5t-24.5 71.5v657zM220 276q0 48 24.5 71.5t70.5 23.5q47 0 72.5 -23.5t25.5 -71.5v-672q0 -48 -25.5 -72t-72.5 -24q-46 0 -70.5 24t-24.5 72v672z
" />
    <glyph glyph-name="section" unicode="&#xa7;" horiz-adv-x="1126" 
d="M123 547q0 112 53 187.5t150 126.5q-44 40 -71.5 91.5t-27.5 123.5t26.5 131t77 101.5t124 66t168.5 23.5q53 0 94.5 -6t72.5 -16t51.5 -22t31.5 -23q16 -15 22 -31t6 -38q0 -16 -5.5 -29.5t-15 -23t-23.5 -15t-29 -5.5q-18 0 -38 7t-46 15t-58.5 15t-76.5 7
q-87 0 -126.5 -35t-39.5 -96q0 -43 24 -74.5t63.5 -58t89.5 -50.5t102.5 -50t103 -57.5t89.5 -72.5t63 -95t24 -125q0 -112 -53 -187.5t-149 -126.5q44 -40 71 -92t27 -124q0 -71 -26.5 -130.5t-77 -101.5t-124.5 -65.5t-168 -23.5q-53 0 -94 6t-72 16t-52 22t-32 23
q-16 15 -22 31t-6 39q0 15 5.5 28t15.5 23t23.5 15t29.5 5q17 0 37.5 -6.5t46.5 -15t58.5 -15t75.5 -6.5q87 0 126.5 35t39.5 95q0 42 -23.5 74.5t-63 59t-90 50t-102.5 49.5t-102.5 57.5t-90 73t-63.5 95t-24 125.5zM344 573q0 -52 26 -90t68 -68t94.5 -56t106.5 -54
q68 31 105 76.5t37 110.5q0 52 -26 90t-68 68t-95 56t-106 54q-68 -32 -105 -76.5t-37 -110.5z" />
    <glyph glyph-name="dieresis" unicode="&#xa8;" 
d="M172 1317q0 27 10.5 51.5t28.5 42t42.5 28t52.5 10.5q29 0 53.5 -9.5t42 -26.5t27 -41t9.5 -51q0 -29 -10 -53t-28 -42t-42.5 -28.5t-53.5 -10.5t-53 9.5t-41.5 27t-27.5 41t-10 52.5zM586 1317q0 27 10.5 51.5t28.5 42t43 28t54 10.5q28 0 52 -9.5t41.5 -26.5t27 -41
t9.5 -51q0 -29 -10 -53t-28 -42t-42 -28.5t-53 -10.5t-53.5 9.5t-42 27t-27.5 41t-10 52.5z" />
    <glyph glyph-name="copyright" unicode="&#xa9;" horiz-adv-x="1612" 
d="M459 668q0 101 28 180t79 133.5t121.5 83.5t155.5 29q37 0 68 -5t54.5 -13.5t40 -18.5t25.5 -19q13 -13 18 -25.5t5 -28.5q0 -26 -15 -42.5t-39 -16.5q-14 0 -27 6.5t-30 13.5t-41.5 13.5t-62.5 6.5q-45 0 -84.5 -18t-68.5 -53t-45.5 -87t-16.5 -122q0 -64 16 -112.5
t45 -81.5t70.5 -49.5t92.5 -16.5q35 0 60 6t42.5 13t30.5 13t26 6q23 0 36 -15.5t13 -39.5q0 -30 -22 -52q-11 -11 -29.5 -21.5t-45 -19.5t-61.5 -15t-76 -6q-83 0 -150 26t-114.5 74.5t-73 117.5t-25.5 156zM102 684q0 158 52.5 289.5t146 225.5t224 146.5t286.5 52.5
q157 0 285.5 -50.5t221 -143t142.5 -222.5t50 -288t-52 -289.5t-146 -225.5t-224.5 -146t-286.5 -52t-285 50.5t-221 143t-142.5 222t-50.5 287.5zM255 689q0 -130 40.5 -236.5t113.5 -181.5t174 -116t223 -41t223.5 41t174.5 116t113.5 181t40.5 237t-40.5 237
t-113.5 181.5t-174.5 116.5t-223.5 41t-223 -41t-174 -116.5t-113.5 -181.5t-40.5 -237z" />
    <glyph glyph-name="ordfeminine" unicode="&#xaa;" horiz-adv-x="846" 
d="M536 963q-14 3 -31 7q-15 2 -35 4.5t-44 2.5q-141 0 -141 -79q0 -38 27 -62.5t81 -24.5q34 0 60.5 12t45.5 26q21 17 37 39v75zM536 1132q0 34 -8 58.5t-25 40.5t-45 23.5t-68 7.5q-41 0 -70 -6.5t-50 -14t-36.5 -13.5t-28.5 -6q-23 0 -37.5 15t-14.5 41q0 14 4.5 25
t14.5 20q10 11 33 22.5t56 21.5t75 16.5t90 6.5q138 0 205.5 -60t67.5 -175v-226q0 -45 3.5 -73t7.5 -46t7.5 -30t3.5 -25q0 -26 -19 -43.5t-55 -17.5q-38 0 -60 24t-32 61h-2q-21 -26 -51 -45q-26 -17 -63.5 -31.5t-88.5 -14.5q-55 0 -98 15.5t-73 42.5t-46 64t-16 81
q0 46 20.5 81t59 58.5t92 35.5t120.5 12q28 0 51.5 -2t40.5 -5q19 -3 35 -6v67zM699 581q32 0 49.5 -18t17.5 -50t-17.5 -49.5t-49.5 -17.5h-547q-32 0 -49.5 17.5t-17.5 49.5t17.5 50t49.5 18h547z" />
    <glyph glyph-name="guillemotleft" unicode="&#xab;" horiz-adv-x="1204" 
d="M589 211q15 -18 23.5 -32.5t8.5 -32.5q0 -19 -8.5 -36t-22.5 -29.5t-31.5 -20t-37.5 -7.5q-11 0 -20.5 2.5t-18.5 8t-18.5 13t-18.5 18.5l-308 322q-19 19 -30.5 40.5t-11.5 47.5q0 28 11.5 48.5t29.5 40.5l308 322q18 19 36 31.5t41 12.5q20 0 37 -7t30.5 -19t21 -28.5
t7.5 -35.5t-10 -34.5t-24 -31.5l-259 -294zM1068 228q17 -19 25 -33.5t8 -31.5q0 -19 -8.5 -36t-22 -29.5t-31.5 -19.5t-37 -7q-11 0 -20 2t-18 7t-18 13t-20 19l-290 305q-19 19 -30.5 40.5t-11.5 47.5q0 28 11.5 48.5t29.5 40.5l292 305q20 22 37 32.5t39 10.5
q18 0 35.5 -7t30.5 -19t20.5 -28t7.5 -34q0 -21 -11 -37t-28 -37l-239 -270z" />
    <glyph glyph-name="logicalnot" unicode="&#xac;" horiz-adv-x="1168" 
d="M236 499q-36 0 -57 23t-21 61q0 39 21 61.5t57 22.5h660q104 0 104 -104v-283q0 -48 -24.5 -72t-67.5 -24q-42 0 -67 24t-25 72v219h-580z" />
    <glyph glyph-name="uni00AD" unicode="&#xad;" horiz-adv-x="951" 
d="M727 630q37 0 57.5 -22t20.5 -65t-20.5 -65.5t-57.5 -22.5h-505q-35 0 -56 22.5t-21 65.5t21 65t56 22h505z" />
    <glyph glyph-name="registered" unicode="&#xae;" horiz-adv-x="983" 
d="M433 917q0 -19 -11 -30t-34 -11q-24 0 -35 11t-11 30v342q0 20 11 30.5t31 10.5h106q89 0 129.5 -34t40.5 -87q0 -46 -24 -75.5t-61 -41.5q10 -30 23.5 -49.5t29.5 -35.5q13 -13 24 -21.5t18 -14.5t9.5 -13t2.5 -14q0 -16 -12.5 -27t-34.5 -11q-19 0 -37 8.5t-36 25.5
q-21 22 -39 52t-35 82h-55v-127zM490 1115q39 0 57 16t18 42q0 25 -17.5 39.5t-61.5 14.5h-53v-112h57zM73 1084q0 89 31 164.5t87 130.5t133.5 85.5t171.5 30.5q93 0 169 -29.5t131 -83t84.5 -127.5t29.5 -164t-30.5 -165.5t-86.5 -130.5t-133.5 -85.5t-171.5 -30.5
t-170 30t-130.5 83.5t-84.5 127.5t-30 164zM171 1087q0 -72 23.5 -132t65.5 -102t101 -65.5t131 -23.5q71 0 130.5 23.5t101.5 65.5t65.5 102t23.5 132q0 73 -23.5 132t-65.5 101.5t-101 66t-131 23.5q-71 0 -130.5 -23.5t-101.5 -66t-65.5 -101.5t-23.5 -132z" />
    <glyph glyph-name="macron" unicode="&#xaf;" 
d="M766 1397q37 0 56 -20t19 -60t-19 -60t-56 -20h-508q-37 0 -56 20t-19 60t19 60t56 20h508z" />
    <glyph glyph-name="degree" unicode="&#xb0;" horiz-adv-x="847" 
d="M115 1203q0 62 22.5 115t64 92.5t99 62t127.5 22.5q69 0 125.5 -21t96 -59t61 -90t21.5 -114t-23 -115t-64 -92.5t-98.5 -62t-126.5 -22.5q-70 0 -126.5 21.5t-96 59t-61 89.5t-21.5 114zM275 1207q0 -34 11 -62t31 -47.5t47 -31t60 -11.5q32 0 59 11.5t47 31t31 47.5
t11 62t-11 62t-31 48t-47 31t-59 11q-33 0 -60 -11t-47 -31t-31 -48t-11 -62z" />
    <glyph glyph-name="plusminus" unicode="&#xb1;" horiz-adv-x="1167" 
d="M231 658q-36 0 -57.5 22.5t-21.5 61.5q0 38 21.5 60.5t57.5 22.5h261v259q0 48 24.5 72t67.5 24t67.5 -24t24.5 -72v-259h260q37 0 58.5 -22.5t21.5 -60.5q0 -39 -21.5 -61.5t-58.5 -22.5h-260v-259q0 -48 -24.5 -72t-67.5 -24t-67.5 24t-24.5 72v259h-261zM943 168
q37 0 58.5 -22.5t21.5 -61.5q0 -38 -21.5 -61t-57.5 -23h-720q-37 0 -58 23t-21 61q0 39 21 61.5t58 22.5h719z" />
    <glyph glyph-name="two.superior" unicode="&#xb2;" horiz-adv-x="697" 
d="M560 773q28 0 44.5 -18t16.5 -54q0 -34 -16.5 -52.5t-44.5 -18.5h-411q-45 0 -70 23.5t-25 62.5q0 28 11 49.5t32 41.5l138 127q44 41 76 73t51 58t28.5 49.5t9.5 47.5q0 41 -27.5 66t-86.5 25q-25 0 -45 -3.5t-37 -8.5t-31.5 -8.5t-26.5 -3.5q-24 0 -39.5 15t-15.5 40
q0 16 6 28.5t16 22.5q10 11 30.5 21t49.5 18t64.5 13t76.5 5q66 0 115 -15.5t81.5 -42.5t48.5 -63.5t16 -80.5t-13 -82t-40.5 -75.5t-71 -79t-103.5 -92.5l-102 -88h295z" />
    <glyph glyph-name="three.superior" unicode="&#xb3;" horiz-adv-x="703" 
d="M289 747q66 0 99.5 28.5t33.5 71.5q0 23 -9.5 42t-32.5 32t-63 20t-101 7q-14 0 -21.5 2.5t-13.5 7.5q-10 9 -14.5 24.5t-4.5 31.5t4.5 31t14.5 25q6 5 13.5 7t21.5 2q51 0 86 7.5t56 20.5t29.5 31.5t8.5 39.5q0 35 -26 56.5t-86 21.5q-25 0 -44 -4t-34 -8t-27.5 -8
t-24.5 -4q-25 0 -40 15t-15 42q0 15 5 27t15 22q21 21 74 37.5t133 16.5q66 0 114.5 -14t80.5 -39t47.5 -59.5t15.5 -75.5q0 -59 -33 -102t-87 -67v-1q70 -16 108.5 -61.5t38.5 -120.5q0 -49 -20 -92t-60 -75t-99 -50.5t-136 -18.5t-126 14.5t-71 36.5q-9 10 -15 22t-6 31
q0 26 16.5 42.5t40.5 16.5q14 0 27 -5t29.5 -11t40 -11t57.5 -5z" />
    <glyph glyph-name="acute" unicode="&#xb4;" 
d="M514 1496q16 21 30.5 30.5t35.5 9.5q19 0 39.5 -9.5t37 -24.5t27.5 -35t11 -42q0 -11 -3.5 -20t-9.5 -16.5t-12.5 -14t-13.5 -12.5l-203 -193q-15 -14 -27.5 -20t-26.5 -6q-17 0 -31 6.5t-25 17.5t-17 24.5t-6 28.5q0 14 7.5 25.5t16.5 23.5z" />
    <glyph glyph-name="mu" unicode="&#xb5;" horiz-adv-x="1214" 
d="M162 920q0 47 27 72.5t84 25.5q56 0 83.5 -25.5t27.5 -72.5v-496q0 -138 55 -200.5t151 -62.5q30 0 56 6.5t48.5 18t41.5 26t34 30.5q36 35 61 80v598q0 47 27 72.5t84 25.5q56 0 83.5 -25.5t27.5 -72.5v-837q0 -44 -24.5 -68t-68.5 -24q-22 0 -39 5.5t-28.5 16.5
t-19 27.5t-11.5 38.5l-9 60h-3q-28 -44 -70 -79q-36 -29 -90.5 -54t-127.5 -25q-52 0 -88.5 10.5t-60.5 22.5q-28 14 -48 33l-2 -2l16 -337q0 -12 0.5 -23.5l1 -23t0.5 -22v-19.5q0 -52 -29 -75t-79 -23q-56 0 -83.5 25.5t-27.5 72.5v1300z" />
    <glyph glyph-name="mu" unicode="&#x3bc;" horiz-adv-x="1214" 
d="M162 920q0 47 27 72.5t84 25.5q56 0 83.5 -25.5t27.5 -72.5v-496q0 -138 55 -200.5t151 -62.5q30 0 56 6.5t48.5 18t41.5 26t34 30.5q36 35 61 80v598q0 47 27 72.5t84 25.5q56 0 83.5 -25.5t27.5 -72.5v-837q0 -44 -24.5 -68t-68.5 -24q-22 0 -39 5.5t-28.5 16.5
t-19 27.5t-11.5 38.5l-9 60h-3q-28 -44 -70 -79q-36 -29 -90.5 -54t-127.5 -25q-52 0 -88.5 10.5t-60.5 22.5q-28 14 -48 33l-2 -2l16 -337q0 -12 0.5 -23.5l1 -23t0.5 -22v-19.5q0 -52 -29 -75t-79 -23q-56 0 -83.5 25.5t-27.5 72.5v1300z" />
    <glyph glyph-name="paragraph" unicode="&#xb6;" horiz-adv-x="1291" 
d="M741 -239q0 -39 -21 -60t-65 -21t-65 21t-21 60v733q-109 0 -192.5 28t-139.5 83t-85 136.5t-29 188.5q0 108 31 191.5t95.5 140.5t164.5 86.5t238 29.5h344q51 0 77.5 -26.5t26.5 -77.5v-1513q0 -39 -21.5 -60t-64.5 -21q-44 0 -65.5 21t-21.5 60v1448h-186v-1448z" />
    <glyph glyph-name="periodcentered" unicode="&#xb7;" horiz-adv-x="587" 
d="M144 540q0 32 11.5 60.5t32 48.5t48 31.5t60.5 11.5q32 0 59 -10.5t46.5 -30t30.5 -47t11 -59.5t-12 -60t-32 -48t-47.5 -31.5t-59.5 -11.5q-33 0 -60 11t-46.5 30t-30.5 46t-11 59z" />
    <glyph glyph-name="cedilla" unicode="&#xb8;" 
d="M591 0l-26 -98q39 -4 70.5 -16.5t54 -34t35 -51t12.5 -68.5q0 -46 -19 -86.5t-55.5 -71.5t-91 -48.5t-125.5 -17.5q-39 0 -65 6.5t-42 17t-22.5 24t-6.5 28.5q0 24 14 39.5t42 15.5q13 0 27.5 -1t30.5 -1q37 0 62.5 6t40.5 17t21 26t6 31q0 29 -18.5 46t-64.5 17h-18
q-24 0 -34.5 15t-3.5 44l40 161h136z" />
    <glyph glyph-name="one.superior" unicode="&#xb9;" horiz-adv-x="562" 
d="M161 1160q-14 -5 -27.5 -10t-25.5 -5q-31 0 -49.5 20.5t-18.5 48.5q0 15 5.5 26t16.5 22q7 7 20.5 16t31.5 19t40.5 21t47.5 23q49 22 79.5 33.5t56.5 11.5q39 0 61.5 -21.5t22.5 -60.5v-601q0 -37 -23.5 -58.5t-69.5 -21.5t-69.5 21.5t-23.5 58.5v486z" />
    <glyph glyph-name="ordmasculine" unicode="&#xba;" horiz-adv-x="899" 
d="M108 1026q0 85 24.5 153t70 114.5t110 71.5t145.5 25q75 0 136.5 -24.5t105.5 -69t68 -107.5t24 -139q0 -86 -24.5 -153.5t-70 -114t-110.5 -71t-146 -24.5q-75 0 -136 24t-105 68.5t-68 107t-24 139.5zM275 1039q0 -55 14 -97t38 -70t56 -42.5t68 -14.5q37 0 69 14
t55 42t36 69.5t13 95.5q0 55 -14 97t-37.5 70.5t-55.5 43t-69 14.5q-36 0 -67.5 -14.5t-55 -42t-37 -69.5t-13.5 -96zM732 581q32 0 50 -18t18 -50t-18 -49.5t-50 -17.5h-565q-32 0 -49.5 17.5t-17.5 49.5t17.5 50t49.5 18h565z" />
    <glyph glyph-name="guillemotright" unicode="&#xbb;" horiz-adv-x="1204" 
d="M615 800q-15 18 -23.5 32.5t-8.5 32.5q0 19 8 36t22 29.5t32 20t38 7.5q22 0 39.5 -10.5t37.5 -30.5l307 -322q19 -20 30.5 -41.5t11.5 -47.5q0 -28 -11.5 -48.5t-29.5 -40.5l-309 -321q-17 -20 -35 -32.5t-42 -12.5q-19 0 -36.5 7t-30.5 19.5t-21 29t-8 34.5
q0 19 10.5 35t24.5 32l258 293zM135 784q-15 18 -23 32.5t-8 31.5q0 19 8 36t21.5 29.5t31 20t36.5 7.5q11 0 21 -2.5t18.5 -7.5t17.5 -13t20 -19l291 -304q18 -20 29.5 -41.5t11.5 -47.5q0 -28 -11.5 -48.5t-29.5 -40.5l-292 -305q-20 -22 -37.5 -32.5t-38.5 -10.5
q-19 0 -35.5 7t-29.5 19t-21 28t-8 34q0 21 11 37.5t28 36.5l238 270z" />
    <glyph glyph-name="onequarter" unicode="&#xbc;" horiz-adv-x="1573" 
d="M1034 1353q12 21 27 32.5t39 11.5q15 0 30 -5.5t27 -15.5t19.5 -23.5t7.5 -28.5q0 -12 -4.5 -22.5t-12.5 -25.5l-746 -1250q-12 -21 -27 -32.5t-38 -11.5q-16 0 -31 5.5t-27 15t-19 23t-7 29.5q0 11 4 22t13 26zM161 1160q-14 -5 -27.5 -10t-25.5 -5q-31 0 -49.5 20.5
t-18.5 48.5q0 15 5.5 26t16.5 22q7 7 20.5 16t31.5 19t40.5 21t47.5 23q49 22 79.5 33.5t56.5 11.5q39 0 61.5 -21.5t22.5 -60.5v-601q0 -37 -23.5 -58.5t-69.5 -21.5t-69.5 21.5t-23.5 58.5v486zM952 190q-55 0 -81.5 25.5t-26.5 70.5q0 22 7.5 42.5t27.5 47.5l231 306
q17 21 33 36t34 24t40 13.5t49 4.5q62 0 90 -22t28 -68v-345h68q27 0 42 -16.5t15 -51.5q0 -34 -15 -50.5t-42 -16.5h-68v-118q0 -38 -22 -58t-66 -20t-66 20t-22 58v118h-256zM1208 598l-205 -273h205v273z" />
    <glyph glyph-name="onehalf" unicode="&#xbd;" horiz-adv-x="1604" 
d="M1034 1353q12 21 27 32.5t39 11.5q15 0 30 -5.5t27 -15.5t19.5 -23.5t7.5 -28.5q0 -12 -4.5 -22.5t-12.5 -25.5l-746 -1250q-12 -21 -27 -32.5t-38 -11.5q-16 0 -31 5.5t-27 15t-19 23t-7 29.5q0 11 4 22t13 26zM161 1160q-14 -5 -27.5 -10t-25.5 -5q-31 0 -49.5 20.5
t-18.5 48.5q0 15 5.5 26t16.5 22q7 7 20.5 16t31.5 19t40.5 21t47.5 23q49 22 79.5 33.5t56.5 11.5q39 0 61.5 -21.5t22.5 -60.5v-601q0 -37 -23.5 -58.5t-69.5 -21.5t-69.5 21.5t-23.5 58.5v486zM1467 144q28 0 44.5 -18t16.5 -54q0 -34 -16.5 -52.5t-44.5 -18.5h-411
q-45 0 -70 23.5t-25 62.5q0 28 11 49.5t32 41.5l138 127q44 41 76 73t51 58t28.5 49.5t9.5 47.5q0 41 -27.5 66t-86.5 25q-25 0 -45 -3.5t-37 -8.5t-31.5 -8.5t-26.5 -3.5q-24 0 -39.5 15t-15.5 40q0 16 6 28.5t16 22.5q10 11 30.5 21t49.5 18t64.5 13t76.5 5
q66 0 115 -15.5t81.5 -42.5t48.5 -63.5t16 -80.5t-13 -82t-40.5 -75.5t-71 -79t-103.5 -92.5l-102 -88h295z" />
    <glyph glyph-name="threequarters" unicode="&#xbe;" horiz-adv-x="1682" 
d="M1143 1353q12 21 27 32.5t39 11.5q15 0 30 -5.5t27 -15.5t19.5 -23.5t7.5 -28.5q0 -12 -4.5 -22.5t-12.5 -25.5l-746 -1250q-12 -21 -27 -32.5t-38 -11.5q-16 0 -31 5.5t-27 15t-19 23t-7 29.5q0 11 4 22t13 26zM1062 190q-55 0 -81.5 25.5t-26.5 70.5q0 22 7.5 42.5
t27.5 47.5l231 306q17 21 33 36t34 24t40 13.5t49 4.5q62 0 90 -22t28 -68v-345h68q27 0 42 -16.5t15 -51.5q0 -34 -15 -50.5t-42 -16.5h-68v-118q0 -38 -22 -58t-66 -20t-66 20t-22 58v118h-256zM1318 598l-205 -273h205v273zM289 747q66 0 99.5 28.5t33.5 71.5
q0 23 -9.5 42t-32.5 32t-63 20t-101 7q-14 0 -21.5 2.5t-13.5 7.5q-10 9 -14.5 24.5t-4.5 31.5t4.5 31t14.5 25q6 5 13.5 7t21.5 2q51 0 86 7.5t56 20.5t29.5 31.5t8.5 39.5q0 35 -26 56.5t-86 21.5q-25 0 -44 -4t-34 -8t-27.5 -8t-24.5 -4q-25 0 -40 15t-15 42q0 15 5 27
t15 22q21 21 74 37.5t133 16.5q66 0 114.5 -14t80.5 -39t47.5 -59.5t15.5 -75.5q0 -59 -33 -102t-87 -67v-1q70 -16 108.5 -61.5t38.5 -120.5q0 -49 -20 -92t-60 -75t-99 -50.5t-136 -18.5t-126 14.5t-71 36.5q-9 10 -15 22t-6 31q0 26 16.5 42.5t40.5 16.5q14 0 27 -5
t29.5 -11t40 -11t57.5 -5z" />
    <glyph glyph-name="questiondown" unicode="&#xbf;" horiz-adv-x="787" 
d="M369 465q0 27 -2.5 45.5t-5.5 31.5t-6 23t-3 22q0 33 26.5 54t78.5 21q29 0 54 -11t42.5 -34t27 -59.5t9.5 -87.5q0 -68 -23 -120.5t-57.5 -96t-75.5 -81t-75.5 -75.5t-58 -80.5t-23.5 -94.5q0 -40 13 -72.5t39.5 -55.5t67.5 -35.5t96 -12.5q46 0 76.5 6t52 13.5t38 13.5
t34.5 6q32 0 51 -19t19 -51q0 -19 -6.5 -35t-20.5 -30q-15 -14 -41.5 -28.5t-63.5 -26t-84 -19t-102 -7.5q-101 0 -176.5 23.5t-125 66.5t-74 103.5t-24.5 134.5t24 130t60 101.5t77.5 84t77.5 77t60 80.5t24 95zM300 936q0 32 11.5 58.5t31.5 46.5t47.5 31t61.5 11
q32 0 59 -10.5t46.5 -29.5t30 -45t10.5 -57q0 -32 -11 -58.5t-31.5 -46.5t-48.5 -31t-60 -11q-33 0 -60 10.5t-46 29.5t-30 45t-11 57z" />
    <glyph glyph-name="Agrave" unicode="&#xc0;" horiz-adv-x="1265" 
d="M279 101q-11 -33 -20 -53t-21 -33q-11 -11 -29 -18t-42 -7q-21 0 -41.5 7t-38 19t-28 30.5t-10.5 41.5q0 13 3.5 27t14.5 46l381 1077q7 18 13 33.5t13.5 28t15 22.5t16.5 20q21 21 51 31.5t75 10.5q44 0 74.5 -10.5t51.5 -31.5q9 -10 16.5 -20t14.5 -22.5t13.5 -28
t13.5 -33.5l382 -1074q12 -32 15 -46t3 -25q0 -26 -11.5 -45t-29.5 -31.5t-40.5 -19.5t-43.5 -7q-23 0 -41.5 7.5t-31.5 20.5q-12 12 -20 30.5t-19 50.5l-87 248h-531zM835 526l-149 439q-14 41 -25.5 76.5t-20.5 63.5q-10 32 -17 60h-4q-8 -28 -17 -60q-8 -28 -19 -63.5
t-24 -76.5l-144 -439h420zM373 1659q-22 13 -34.5 28t-12.5 38q0 21 9 42.5t24 39t34 29t41 11.5q16 0 28.5 -6t26.5 -18l229 -200q18 -15 25 -27.5t7 -28.5q0 -15 -6 -29.5t-16 -26t-24 -18.5t-31 -7q-12 0 -22.5 4t-22.5 11z" />
    <glyph glyph-name="Aacute" unicode="&#xc1;" horiz-adv-x="1265" 
d="M279 101q-11 -33 -20 -53t-21 -33q-11 -11 -29 -18t-42 -7q-21 0 -41.5 7t-38 19t-28 30.5t-10.5 41.5q0 13 3.5 27t14.5 46l381 1077q7 18 13 33.5t13.5 28t15 22.5t16.5 20q21 21 51 31.5t75 10.5q44 0 74.5 -10.5t51.5 -31.5q9 -10 16.5 -20t14.5 -22.5t13.5 -28
t13.5 -33.5l382 -1074q12 -32 15 -46t3 -25q0 -26 -11.5 -45t-29.5 -31.5t-40.5 -19.5t-43.5 -7q-23 0 -41.5 7.5t-31.5 20.5q-12 12 -20 30.5t-19 50.5l-87 248h-531zM835 526l-149 439q-14 41 -25.5 76.5t-20.5 63.5q-10 32 -17 60h-4q-8 -28 -17 -60q-8 -28 -19 -63.5
t-24 -76.5l-144 -439h420zM749 1823q14 12 26.5 18t28.5 6q22 0 41 -11.5t34 -29t24 -39t9 -42.5q0 -23 -12.5 -38t-34.5 -28l-255 -158q-12 -7 -22.5 -11t-22.5 -4q-17 0 -31 7t-24 18.5t-16 26t-6 29.5q0 16 7 28.5t26 27.5z" />
    <glyph glyph-name="Acircumflex" unicode="&#xc2;" horiz-adv-x="1265" 
d="M279 101q-11 -33 -20 -53t-21 -33q-11 -11 -29 -18t-42 -7q-21 0 -41.5 7t-38 19t-28 30.5t-10.5 41.5q0 13 3.5 27t14.5 46l381 1077q7 18 13 33.5t13.5 28t15 22.5t16.5 20q21 21 51 31.5t75 10.5q44 0 74.5 -10.5t51.5 -31.5q9 -10 16.5 -20t14.5 -22.5t13.5 -28
t13.5 -33.5l382 -1074q12 -32 15 -46t3 -25q0 -26 -11.5 -45t-29.5 -31.5t-40.5 -19.5t-43.5 -7q-23 0 -41.5 7.5t-31.5 20.5q-12 12 -20 30.5t-19 50.5l-87 248h-531zM835 526l-149 439q-14 41 -25.5 76.5t-20.5 63.5q-10 32 -17 60h-4q-8 -28 -17 -60q-8 -28 -19 -63.5
t-24 -76.5l-144 -439h420zM426 1509q-14 -10 -24.5 -14.5t-22.5 -4.5q-15 0 -27.5 6t-22 16t-15 22.5t-5.5 26.5q0 15 6.5 27t25.5 31l189 175q22 20 43.5 31.5t52.5 11.5q29 0 51 -11t43 -32l184 -176q16 -15 21.5 -26t5.5 -24q0 -16 -6 -30t-16.5 -24t-24 -16t-28.5 -6
q-12 0 -23 4t-27 15l-190 132z" />
    <glyph glyph-name="Atilde" unicode="&#xc3;" horiz-adv-x="1265" 
d="M279 101q-11 -33 -20 -53t-21 -33q-11 -11 -29 -18t-42 -7q-21 0 -41.5 7t-38 19t-28 30.5t-10.5 41.5q0 13 3.5 27t14.5 46l381 1077q7 18 13 33.5t13.5 28t15 22.5t16.5 20q21 21 51 31.5t75 10.5q44 0 74.5 -10.5t51.5 -31.5q9 -10 16.5 -20t14.5 -22.5t13.5 -28
t13.5 -33.5l382 -1074q12 -32 15 -46t3 -25q0 -26 -11.5 -45t-29.5 -31.5t-40.5 -19.5t-43.5 -7q-23 0 -41.5 7.5t-31.5 20.5q-12 12 -20 30.5t-19 50.5l-87 248h-531zM835 526l-149 439q-14 41 -25.5 76.5t-20.5 63.5q-10 32 -17 60h-4q-8 -28 -17 -60q-8 -28 -19 -63.5
t-24 -76.5l-144 -439h420zM478 1618q-31 0 -50 -12.5t-34 -27.5t-30 -27.5t-38 -12.5q-26 0 -45.5 17t-19.5 51q0 26 16.5 57t46 58.5t72 46t95.5 18.5q50 0 89.5 -15t73 -33.5t64 -33.5t62.5 -15t51 12.5t34 27.5t30 27.5t38 12.5q26 0 45 -17t19 -51q0 -25 -16 -56.5
t-46 -59t-72.5 -46t-95.5 -18.5q-50 0 -89.5 15.5t-73 33.5t-64 33t-62.5 15z" />
    <glyph glyph-name="Adieresis" unicode="&#xc4;" horiz-adv-x="1265" 
d="M279 101q-11 -33 -20 -53t-21 -33q-11 -11 -29 -18t-42 -7q-21 0 -41.5 7t-38 19t-28 30.5t-10.5 41.5q0 13 3.5 27t14.5 46l381 1077q7 18 13 33.5t13.5 28t15 22.5t16.5 20q21 21 51 31.5t75 10.5q44 0 74.5 -10.5t51.5 -31.5q9 -10 16.5 -20t14.5 -22.5t13.5 -28
t13.5 -33.5l382 -1074q12 -32 15 -46t3 -25q0 -26 -11.5 -45t-29.5 -31.5t-40.5 -19.5t-43.5 -7q-23 0 -41.5 7.5t-31.5 20.5q-12 12 -20 30.5t-19 50.5l-87 248h-531zM835 526l-149 439q-14 41 -25.5 76.5t-20.5 63.5q-10 32 -17 60h-4q-8 -28 -17 -60q-8 -28 -19 -63.5
t-24 -76.5l-144 -439h420zM269 1652q0 29 10.5 53t28.5 42t42.5 28.5t53.5 10.5t53.5 -9.5t42 -27t27 -41t9.5 -52.5q0 -28 -10 -52.5t-28 -42.5t-43 -28.5t-54 -10.5q-28 0 -52.5 9.5t-42 27t-27.5 41.5t-10 52zM710 1652q0 29 10.5 53t28.5 42t43 28.5t54 10.5t53 -9.5
t41.5 -27t27 -41t9.5 -52.5q0 -28 -10 -52.5t-28 -42.5t-42.5 -28.5t-53.5 -10.5t-53.5 9.5t-42 27t-27.5 41.5t-10 52z" />
    <glyph glyph-name="Aring" unicode="&#xc5;" horiz-adv-x="1265" 
d="M279 101q-11 -33 -20 -53t-21 -33q-11 -11 -29 -18t-42 -7q-21 0 -41.5 7t-38 19t-28 30.5t-10.5 41.5q0 13 3.5 27t14.5 46l381 1077q7 18 13 33.5t13.5 28t15 22.5t16.5 20q21 21 51 31.5t75 10.5q44 0 74.5 -10.5t51.5 -31.5q9 -10 16.5 -20t14.5 -22.5t13.5 -28
t13.5 -33.5l382 -1074q12 -32 15 -46t3 -25q0 -26 -11.5 -45t-29.5 -31.5t-40.5 -19.5t-43.5 -7q-23 0 -41.5 7.5t-31.5 20.5q-12 12 -20 30.5t-19 50.5l-87 248h-531zM835 526l-149 439q-14 41 -25.5 76.5t-20.5 63.5q-10 32 -17 60h-4q-8 -28 -17 -60q-8 -28 -19 -63.5
t-24 -76.5l-144 -439h420zM359 1717q0 51 20.5 94.5t55.5 75.5t84.5 50.5t108.5 18.5q58 0 106.5 -17t82.5 -48t53 -73t19 -93q0 -50 -20.5 -94t-55.5 -76t-85 -50t-108 -18q-59 0 -107 17t-82 47.5t-53 73t-19 92.5zM497 1721q0 -56 34.5 -90t92.5 -34t92.5 34t34.5 90
t-34.5 90t-92.5 34t-92.5 -34t-34.5 -90z" />
    <glyph glyph-name="AE" unicode="&#xc6;" horiz-adv-x="1756" 
d="M232 93q-19 -33 -30 -49t-20 -25q-13 -13 -30 -21t-41 -8q-20 0 -39.5 7.5t-35.5 20.5t-26 32t-10 43q0 11 2.5 21.5t7 22t12 24.5t17.5 31l644 1093q16 27 31.5 44.5t33.5 28.5t40.5 15.5t53.5 4.5h744q38 0 60 -23t22 -67q0 -45 -22 -68.5t-60 -23.5h-499v-400h429
q37 0 58.5 -23t21.5 -67t-21.5 -67t-58.5 -23h-429v-434h504q37 0 59 -23t22 -68t-22 -68t-59 -23h-625q-51 0 -78.5 28t-27.5 78v241h-480zM860 526v670h-3l-382 -670h385z" />
    <glyph glyph-name="Ccedilla" unicode="&#xc7;" horiz-adv-x="1191" 
d="M592 -5q-105 18 -195 69.5t-156 133.5t-104 194.5t-38 252.5q0 176 48.5 315.5t136.5 236t209 148t268 51.5q63 0 115 -10t92 -24.5t67 -31t41 -30.5q19 -19 26.5 -37.5t7.5 -43.5q0 -18 -6 -33.5t-17 -26t-26 -17t-33 -6.5q-22 0 -44 12t-52.5 25.5t-74.5 25t-110 11.5
q-86 0 -161 -34t-131.5 -101.5t-89 -168.5t-32.5 -234q0 -120 32 -213.5t89 -157.5t135.5 -97t171.5 -33q64 0 108.5 11t76 24.5t54 24.5t42.5 11q16 0 29.5 -6t22.5 -16.5t14.5 -24.5t5.5 -30q0 -23 -7.5 -40t-25.5 -35t-49.5 -36.5t-77 -34t-103 -25.5t-125.5 -10l-22 -82
q38 -4 70 -16.5t54.5 -34t35 -51t12.5 -68.5q0 -46 -19 -86.5t-56 -71.5t-91.5 -48.5t-124.5 -17.5q-39 0 -65 6.5t-42 17t-22.5 24t-6.5 28.5q0 24 14 39.5t42 15.5q13 0 27.5 -1t30.5 -1q37 0 62 6t40.5 17t21.5 26t6 31q0 29 -18.5 46t-64.5 17h-18q-24 0 -34.5 15
t-3.5 44z" />
    <glyph glyph-name="Egrave" unicode="&#xc8;" horiz-adv-x="1077" 
d="M408 182h504q37 0 59 -23t22 -68t-22 -68t-59 -23h-625q-51 0 -78.5 28t-27.5 78v1166q0 50 27.5 78t78.5 28h620q38 0 60 -23t22 -67q0 -45 -22 -68.5t-60 -23.5h-499v-400h429q37 0 58.5 -23t21.5 -67t-21.5 -67t-58.5 -23h-429v-434zM319 1659q-22 13 -34.5 28
t-12.5 38q0 21 9 42.5t24 39t34 29t41 11.5q16 0 28.5 -6t26.5 -18l229 -200q18 -15 25 -27.5t7 -28.5q0 -15 -6 -29.5t-16 -26t-24 -18.5t-31 -7q-12 0 -22.5 4t-22.5 11z" />
    <glyph glyph-name="Eacute" unicode="&#xc9;" horiz-adv-x="1077" 
d="M408 182h504q37 0 59 -23t22 -68t-22 -68t-59 -23h-625q-51 0 -78.5 28t-27.5 78v1166q0 50 27.5 78t78.5 28h620q38 0 60 -23t22 -67q0 -45 -22 -68.5t-60 -23.5h-499v-400h429q37 0 58.5 -23t21.5 -67t-21.5 -67t-58.5 -23h-429v-434zM733 1823q14 12 26.5 18t28.5 6
q22 0 41 -11.5t34 -29t24 -39t9 -42.5q0 -23 -12.5 -38t-34.5 -28l-255 -158q-12 -7 -22.5 -11t-22.5 -4q-17 0 -31 7t-24 18.5t-16 26t-6 29.5q0 16 7 28.5t26 27.5z" />
    <glyph glyph-name="Ecircumflex" unicode="&#xca;" horiz-adv-x="1077" 
d="M408 182h504q37 0 59 -23t22 -68t-22 -68t-59 -23h-625q-51 0 -78.5 28t-27.5 78v1166q0 50 27.5 78t78.5 28h620q38 0 60 -23t22 -67q0 -45 -22 -68.5t-60 -23.5h-499v-400h429q37 0 58.5 -23t21.5 -67t-21.5 -67t-58.5 -23h-429v-434zM385 1509q-14 -10 -24.5 -14.5
t-22.5 -4.5q-15 0 -27.5 6t-22 16t-15 22.5t-5.5 26.5q0 15 6.5 27t25.5 31l189 175q22 20 43.5 31.5t52.5 11.5q29 0 51 -11t43 -32l184 -176q16 -15 21.5 -26t5.5 -24q0 -16 -6 -30t-16.5 -24t-24 -16t-28.5 -6q-12 0 -23 4t-27 15l-190 132z" />
    <glyph glyph-name="Edieresis" unicode="&#xcb;" horiz-adv-x="1077" 
d="M408 182h504q37 0 59 -23t22 -68t-22 -68t-59 -23h-625q-51 0 -78.5 28t-27.5 78v1166q0 50 27.5 78t78.5 28h620q38 0 60 -23t22 -67q0 -45 -22 -68.5t-60 -23.5h-499v-400h429q37 0 58.5 -23t21.5 -67t-21.5 -67t-58.5 -23h-429v-434zM221 1652q0 29 10.5 53t28.5 42
t42.5 28.5t53.5 10.5t53.5 -9.5t42 -27t27 -41t9.5 -52.5q0 -28 -10 -52.5t-28 -42.5t-43 -28.5t-54 -10.5q-28 0 -52.5 9.5t-42 27t-27.5 41.5t-10 52zM662 1652q0 29 10.5 53t28.5 42t43 28.5t54 10.5t53 -9.5t41.5 -27t27 -41t9.5 -52.5q0 -28 -10 -52.5t-28 -42.5
t-42.5 -28.5t-53.5 -10.5t-53.5 9.5t-42 27t-27.5 41.5t-10 52z" />
    <glyph glyph-name="Igrave" unicode="&#xcc;" horiz-adv-x="589" 
d="M181 1284q0 48 28 74.5t85 26.5q59 0 86.5 -26.5t27.5 -74.5v-1190q0 -48 -27.5 -74.5t-86.5 -26.5q-57 0 -85 26.5t-28 74.5v1190zM59 1659q-22 13 -34.5 28t-12.5 38q0 21 9 42.5t24 39t34 29t41 11.5q16 0 28.5 -6t26.5 -18l229 -200q18 -15 25 -27.5t7 -28.5
q0 -15 -6 -29.5t-16 -26t-24 -18.5t-31 -7q-12 0 -22.5 4t-22.5 11z" />
    <glyph glyph-name="Iacute" unicode="&#xcd;" horiz-adv-x="589" 
d="M181 1284q0 48 28 74.5t85 26.5q59 0 86.5 -26.5t27.5 -74.5v-1190q0 -48 -27.5 -74.5t-86.5 -26.5q-57 0 -85 26.5t-28 74.5v1190zM406 1823q14 12 26.5 18t28.5 6q22 0 41 -11.5t34 -29t24 -39t9 -42.5q0 -23 -12.5 -38t-34.5 -28l-255 -158q-12 -7 -22.5 -11t-22.5 -4
q-17 0 -31 7t-24 18.5t-16 26t-6 29.5q0 16 7 28.5t26 27.5z" />
    <glyph glyph-name="Icircumflex" unicode="&#xce;" horiz-adv-x="589" 
d="M181 1284q0 48 28 74.5t85 26.5q59 0 86.5 -26.5t27.5 -74.5v-1190q0 -48 -27.5 -74.5t-86.5 -26.5q-57 0 -85 26.5t-28 74.5v1190zM100 1509q-14 -10 -24.5 -14.5t-22.5 -4.5q-15 0 -27.5 6t-22 16t-15 22.5t-5.5 26.5q0 15 6.5 27t25.5 31l189 175q22 20 43.5 31.5
t52.5 11.5q29 0 51 -11t43 -32l184 -176q16 -15 21.5 -26t5.5 -24q0 -16 -6 -30t-16.5 -24t-24 -16t-28.5 -6q-12 0 -23 4t-27 15l-190 132z" />
    <glyph glyph-name="Idieresis" unicode="&#xcf;" horiz-adv-x="589" 
d="M181 1284q0 48 28 74.5t85 26.5q59 0 86.5 -26.5t27.5 -74.5v-1190q0 -48 -27.5 -74.5t-86.5 -26.5q-57 0 -85 26.5t-28 74.5v1190zM-57 1652q0 29 10.5 53t28.5 42t42.5 28.5t53.5 10.5t53.5 -9.5t42 -27t27 -41t9.5 -52.5q0 -28 -10 -52.5t-28 -42.5t-43 -28.5
t-54 -10.5q-28 0 -52.5 9.5t-42 27t-27.5 41.5t-10 52zM384 1652q0 29 10.5 53t28.5 42t43 28.5t54 10.5t53 -9.5t41.5 -27t27 -41t9.5 -52.5q0 -28 -10 -52.5t-28 -42.5t-42.5 -28.5t-53.5 -10.5t-53.5 9.5t-42 27t-27.5 41.5t-10 52z" />
    <glyph glyph-name="Eth" unicode="&#xd0;" horiz-adv-x="1437" 
d="M117 637q-35 0 -55 22t-20 63q0 40 20 61t55 21h96v468q0 50 27.5 78t78.5 28h327q169 0 299 -44.5t218 -128.5t133 -206.5t45 -279.5q0 -168 -49 -301.5t-142.5 -226t-227.5 -142t-303 -49.5h-300q-51 0 -78.5 28t-27.5 78v531h-96zM440 181h192q110 0 198 33.5
t149.5 99t95 162.5t33.5 222q0 126 -30.5 219.5t-90.5 156t-149 93t-206 30.5h-192v-393h233q34 0 54.5 -21.5t20.5 -61.5t-20.5 -62t-54.5 -22h-233v-456z" />
    <glyph glyph-name="Ntilde" unicode="&#xd1;" horiz-adv-x="1498" 
d="M181 1227q0 79 39.5 118.5t119.5 39.5q36 0 62 -9t47 -25t38.5 -38.5t35.5 -51.5l490 -782q24 -38 44 -75t36 -66q17 -34 33 -65l5 2q-3 35 -6 75q-3 34 -5.5 77.5t-2.5 90.5l-8 773q-2 44 25 69t79 25q53 0 78.5 -25t25.5 -69v-1139q0 -80 -39.5 -119.5t-119.5 -39.5
q-36 0 -62.5 9t-47.5 25t-38.5 38.5t-34.5 51.5l-490 782q-24 38 -44.5 75t-35.5 66q-19 34 -34 65l-4 -2q3 -35 6 -75q3 -34 5 -78t3 -90l8 -773q2 -44 -25 -69t-79 -25q-53 0 -78.5 25t-25.5 69v1140zM607 1618q-31 0 -50 -12.5t-34 -27.5t-30 -27.5t-38 -12.5
q-26 0 -45.5 17t-19.5 51q0 26 16.5 57t46 58.5t72 46t95.5 18.5q50 0 89.5 -15t73 -33.5t64 -33.5t62.5 -15t51 12.5t34 27.5t30 27.5t38 12.5q26 0 45 -17t19 -51q0 -25 -16 -56.5t-46 -59t-72.5 -46t-95.5 -18.5q-50 0 -89.5 15.5t-73 33.5t-64 33t-62.5 15z" />
    <glyph glyph-name="Ograve" unicode="&#xd2;" horiz-adv-x="1498" 
d="M99 670q0 172 48.5 307t136 229t209.5 143t269 49q142 0 259.5 -46.5t201.5 -136t130 -217.5t46 -290q0 -171 -48.5 -306t-136 -229t-209 -143t-268.5 -49q-142 0 -259.5 46.5t-201.5 135.5t-130.5 217t-46.5 290zM333 691q0 -127 33 -225.5t89 -165t132.5 -101
t163.5 -34.5t163 34t131.5 100t87.5 163.5t32 224.5q0 128 -32.5 226t-89 164.5t-133 101t-163.5 34.5t-162.5 -34t-131 -99.5t-88 -163.5t-32.5 -225zM482 1659q-22 13 -34.5 28t-12.5 38q0 21 9 42.5t24 39t34 29t41 11.5q16 0 28.5 -6t26.5 -18l229 -200q18 -15 25 -27.5
t7 -28.5q0 -15 -6 -29.5t-16 -26t-24 -18.5t-31 -7q-12 0 -22.5 4t-22.5 11z" />
    <glyph glyph-name="Oacute" unicode="&#xd3;" horiz-adv-x="1498" 
d="M99 670q0 172 48.5 307t136 229t209.5 143t269 49q142 0 259.5 -46.5t201.5 -136t130 -217.5t46 -290q0 -171 -48.5 -306t-136 -229t-209 -143t-268.5 -49q-142 0 -259.5 46.5t-201.5 135.5t-130.5 217t-46.5 290zM333 691q0 -127 33 -225.5t89 -165t132.5 -101
t163.5 -34.5t163 34t131.5 100t87.5 163.5t32 224.5q0 128 -32.5 226t-89 164.5t-133 101t-163.5 34.5t-162.5 -34t-131 -99.5t-88 -163.5t-32.5 -225zM879 1823q14 12 26.5 18t28.5 6q22 0 41 -11.5t34 -29t24 -39t9 -42.5q0 -23 -12.5 -38t-34.5 -28l-255 -158
q-12 -7 -22.5 -11t-22.5 -4q-17 0 -31 7t-24 18.5t-16 26t-6 29.5q0 16 7 28.5t26 27.5z" />
    <glyph glyph-name="Ocircumflex" unicode="&#xd4;" horiz-adv-x="1498" 
d="M99 670q0 172 48.5 307t136 229t209.5 143t269 49q142 0 259.5 -46.5t201.5 -136t130 -217.5t46 -290q0 -171 -48.5 -306t-136 -229t-209 -143t-268.5 -49q-142 0 -259.5 46.5t-201.5 135.5t-130.5 217t-46.5 290zM333 691q0 -127 33 -225.5t89 -165t132.5 -101
t163.5 -34.5t163 34t131.5 100t87.5 163.5t32 224.5q0 128 -32.5 226t-89 164.5t-133 101t-163.5 34.5t-162.5 -34t-131 -99.5t-88 -163.5t-32.5 -225zM560 1509q-14 -10 -24.5 -14.5t-22.5 -4.5q-15 0 -27.5 6t-22 16t-15 22.5t-5.5 26.5q0 15 6.5 27t25.5 31l189 175
q22 20 43.5 31.5t52.5 11.5q29 0 51 -11t43 -32l184 -176q16 -15 21.5 -26t5.5 -24q0 -16 -6 -30t-16.5 -24t-24 -16t-28.5 -6q-12 0 -23 4t-27 15l-190 132z" />
    <glyph glyph-name="Otilde" unicode="&#xd5;" horiz-adv-x="1498" 
d="M99 670q0 172 48.5 307t136 229t209.5 143t269 49q142 0 259.5 -46.5t201.5 -136t130 -217.5t46 -290q0 -171 -48.5 -306t-136 -229t-209 -143t-268.5 -49q-142 0 -259.5 46.5t-201.5 135.5t-130.5 217t-46.5 290zM333 691q0 -127 33 -225.5t89 -165t132.5 -101
t163.5 -34.5t163 34t131.5 100t87.5 163.5t32 224.5q0 128 -32.5 226t-89 164.5t-133 101t-163.5 34.5t-162.5 -34t-131 -99.5t-88 -163.5t-32.5 -225zM597 1618q-31 0 -50 -12.5t-34 -27.5t-30 -27.5t-38 -12.5q-26 0 -45.5 17t-19.5 51q0 26 16.5 57t46 58.5t72 46
t95.5 18.5q50 0 89.5 -15t73 -33.5t64 -33.5t62.5 -15t51 12.5t34 27.5t30 27.5t38 12.5q26 0 45 -17t19 -51q0 -25 -16 -56.5t-46 -59t-72.5 -46t-95.5 -18.5q-50 0 -89.5 15.5t-73 33.5t-64 33t-62.5 15z" />
    <glyph glyph-name="Odieresis" unicode="&#xd6;" horiz-adv-x="1498" 
d="M99 670q0 172 48.5 307t136 229t209.5 143t269 49q142 0 259.5 -46.5t201.5 -136t130 -217.5t46 -290q0 -171 -48.5 -306t-136 -229t-209 -143t-268.5 -49q-142 0 -259.5 46.5t-201.5 135.5t-130.5 217t-46.5 290zM333 691q0 -127 33 -225.5t89 -165t132.5 -101
t163.5 -34.5t163 34t131.5 100t87.5 163.5t32 224.5q0 128 -32.5 226t-89 164.5t-133 101t-163.5 34.5t-162.5 -34t-131 -99.5t-88 -163.5t-32.5 -225zM394 1652q0 29 10.5 53t28.5 42t42.5 28.5t53.5 10.5t53.5 -9.5t42 -27t27 -41t9.5 -52.5q0 -28 -10 -52.5t-28 -42.5
t-43 -28.5t-54 -10.5q-28 0 -52.5 9.5t-42 27t-27.5 41.5t-10 52zM835 1652q0 29 10.5 53t28.5 42t43 28.5t54 10.5t53 -9.5t41.5 -27t27 -41t9.5 -52.5q0 -28 -10 -52.5t-28 -42.5t-42.5 -28.5t-53.5 -10.5t-53.5 9.5t-42 27t-27.5 41.5t-10 52z" />
    <glyph glyph-name="multiply" unicode="&#xd7;" horiz-adv-x="1168" 
d="M214 828q-15 15 -23 29t-8 33q0 18 7.5 35t21 29.5t30 20.5t34.5 8q19 0 33 -8.5t27 -21.5l251 -253l248 249q16 16 30 23.5t32 7.5q17 0 32.5 -7t28 -19t19.5 -28t7 -32q0 -18 -9 -33t-24 -30l-247 -247l250 -250q15 -15 23 -28.5t8 -33.5q0 -18 -7.5 -34.5t-21 -30
t-30 -21t-34.5 -7.5q-19 0 -33 8.5t-27 21.5l-251 252l-248 -247q-16 -17 -30 -25t-32 -8q-17 0 -33 7.5t-28 19.5t-19 27.5t-7 32.5q0 18 9 33.5t24 30.5l247 246z" />
    <glyph glyph-name="Oslash" unicode="&#xd8;" horiz-adv-x="1527" 
d="M416 -124q-17 -30 -25 -42t-15 -19q-19 -19 -51 -19q-17 0 -35 6.5t-32 18t-23 27.5t-9 35q0 15 7 30.5t23 45.5l83 149q-55 43 -99.5 99.5t-75.5 126.5t-48 153.5t-17 182.5q0 172 49 307t138 229t213 143t277 49q70 0 134 -11.5t119 -32.5l83 148q17 30 24 41.5
t15 19.5q19 19 51 19q18 0 35.5 -6.5t32 -18t23.5 -27.5t9 -35q0 -15 -7.5 -30.5t-23.5 -45.5l-82 -149q57 -44 101.5 -102.5t75 -129.5t46 -154t15.5 -176q0 -171 -48.5 -306t-137.5 -229t-213.5 -143t-275.5 -49q-77 0 -141 12.5t-112 32.5zM937 1180q-31 16 -75.5 27.5
t-99.5 11.5q-95 0 -174.5 -34.5t-138.5 -101t-91.5 -165.5t-32.5 -227q0 -129 33.5 -225.5t92.5 -161.5zM591 198q39 -19 83.5 -28.5t91.5 -9.5q94 0 173.5 34.5t138.5 101t91.5 165t32.5 226.5q0 117 -29 214.5t-96 174.5z" />
    <glyph glyph-name="Ugrave" unicode="&#xd9;" horiz-adv-x="1423" 
d="M168 1284q0 48 28.5 74.5t85.5 26.5q58 0 86 -26.5t28 -74.5v-715q0 -107 23.5 -183t66.5 -124.5t102 -71.5t130 -23q67 0 123.5 22t97.5 68t64.5 116t23.5 167v744q0 48 27.5 74.5t85.5 26.5t86 -26.5t28 -74.5v-718q0 -147 -38 -256.5t-109 -182.5t-173 -109.5
t-230 -36.5q-130 0 -229.5 35t-167.5 104.5t-103.5 174t-35.5 242.5v747zM423 1659q-22 13 -34.5 28t-12.5 38q0 21 9 42.5t24 39t34 29t41 11.5q16 0 28.5 -6t26.5 -18l229 -200q18 -15 25 -27.5t7 -28.5q0 -15 -6 -29.5t-16 -26t-24 -18.5t-31 -7q-12 0 -22.5 4t-22.5 11z
" />
    <glyph glyph-name="Uacute" unicode="&#xda;" horiz-adv-x="1423" 
d="M168 1284q0 48 28.5 74.5t85.5 26.5q58 0 86 -26.5t28 -74.5v-715q0 -107 23.5 -183t66.5 -124.5t102 -71.5t130 -23q67 0 123.5 22t97.5 68t64.5 116t23.5 167v744q0 48 27.5 74.5t85.5 26.5t86 -26.5t28 -74.5v-718q0 -147 -38 -256.5t-109 -182.5t-173 -109.5
t-230 -36.5q-130 0 -229.5 35t-167.5 104.5t-103.5 174t-35.5 242.5v747zM874 1823q14 12 26.5 18t28.5 6q22 0 41 -11.5t34 -29t24 -39t9 -42.5q0 -23 -12.5 -38t-34.5 -28l-255 -158q-12 -7 -22.5 -11t-22.5 -4q-17 0 -31 7t-24 18.5t-16 26t-6 29.5q0 16 7 28.5t26 27.5z
" />
    <glyph glyph-name="Ucircumflex" unicode="&#xdb;" horiz-adv-x="1423" 
d="M168 1284q0 48 28.5 74.5t85.5 26.5q58 0 86 -26.5t28 -74.5v-715q0 -107 23.5 -183t66.5 -124.5t102 -71.5t130 -23q67 0 123.5 22t97.5 68t64.5 116t23.5 167v744q0 48 27.5 74.5t85.5 26.5t86 -26.5t28 -74.5v-718q0 -147 -38 -256.5t-109 -182.5t-173 -109.5
t-230 -36.5q-130 0 -229.5 35t-167.5 104.5t-103.5 174t-35.5 242.5v747zM521 1509q-14 -10 -24.5 -14.5t-22.5 -4.5q-15 0 -27.5 6t-22 16t-15 22.5t-5.5 26.5q0 15 6.5 27t25.5 31l189 175q22 20 43.5 31.5t52.5 11.5q29 0 51 -11t43 -32l184 -176q16 -15 21.5 -26
t5.5 -24q0 -16 -6 -30t-16.5 -24t-24 -16t-28.5 -6q-12 0 -23 4t-27 15l-190 132z" />
    <glyph glyph-name="Udieresis" unicode="&#xdc;" horiz-adv-x="1423" 
d="M168 1284q0 48 28.5 74.5t85.5 26.5q58 0 86 -26.5t28 -74.5v-715q0 -107 23.5 -183t66.5 -124.5t102 -71.5t130 -23q67 0 123.5 22t97.5 68t64.5 116t23.5 167v744q0 48 27.5 74.5t85.5 26.5t86 -26.5t28 -74.5v-718q0 -147 -38 -256.5t-109 -182.5t-173 -109.5
t-230 -36.5q-130 0 -229.5 35t-167.5 104.5t-103.5 174t-35.5 242.5v747zM361 1652q0 29 10.5 53t28.5 42t42.5 28.5t53.5 10.5t53.5 -9.5t42 -27t27 -41t9.5 -52.5q0 -28 -10 -52.5t-28 -42.5t-43 -28.5t-54 -10.5q-28 0 -52.5 9.5t-42 27t-27.5 41.5t-10 52zM802 1652
q0 29 10.5 53t28.5 42t43 28.5t54 10.5t53 -9.5t41.5 -27t27 -41t9.5 -52.5q0 -28 -10 -52.5t-28 -42.5t-42.5 -28.5t-53.5 -10.5t-53.5 9.5t-42 27t-27.5 41.5t-10 52z" />
    <glyph glyph-name="Yacute" unicode="&#xdd;" horiz-adv-x="1127" 
d="M73 1179q-10 15 -17.5 27.5t-12 23.5t-7 21.5t-2.5 21.5q0 26 11.5 47t30.5 36t41 23.5t44 8.5q23 0 39 -7.5t27 -18.5q9 -10 18.5 -24.5t27.5 -45.5l244 -425q11 -20 20.5 -39.5t17.5 -34.5q10 -18 17 -34h4q8 17 16 35l18 36t22 42l232 419q17 32 25.5 46t18.5 24
q13 13 29.5 20t35.5 7q22 0 43.5 -8.5t38.5 -23t27.5 -34t10.5 -42.5q0 -21 -9.5 -40.5t-28.5 -50.5l-380 -632v-463q0 -48 -28 -74.5t-86 -26.5t-86 26.5t-28 74.5v463zM720 1823q14 12 26.5 18t28.5 6q22 0 41 -11.5t34 -29t24 -39t9 -42.5q0 -23 -12.5 -38t-34.5 -28
l-255 -158q-12 -7 -22.5 -11t-22.5 -4q-17 0 -31 7t-24 18.5t-16 26t-6 29.5q0 16 7 28.5t26 27.5z" />
    <glyph glyph-name="Thorn" unicode="&#xde;" horiz-adv-x="1136" 
d="M407 88q0 -22 -7 -39.5t-20.5 -29.5t-35 -19t-50.5 -7q-59 0 -86 26.5t-27 74.5v1191q0 47 27 73.5t86 26.5q29 0 50.5 -7t35 -19t20.5 -29.5t7 -39.5v-167h161q129 0 224 -28.5t156.5 -81t92 -127t30.5 -166.5q0 -100 -33.5 -181.5t-99 -139.5t-164.5 -90t-230 -32h-137
v-189zM559 454q138 0 209.5 67t71.5 183q0 115 -68.5 177t-217.5 62h-147v-489h152z" />
    <glyph glyph-name="germandbls" unicode="&#xdf;" horiz-adv-x="1244" 
d="M162 1054q0 104 30.5 186t92 138.5t153.5 86.5t215 30q89 0 157.5 -22.5t114 -61.5t69 -91.5t23.5 -113.5q0 -60 -18 -105.5t-44.5 -82.5t-57.5 -66.5t-57.5 -57t-44 -55t-17.5 -60.5q0 -35 17.5 -60t46 -45.5t65.5 -38.5t75 -38t75 -44.5t65.5 -58t46 -78.5t17.5 -106
q0 -70 -25.5 -130.5t-75.5 -104.5t-123 -69t-167 -25q-50 0 -88 5.5t-66.5 14.5t-47.5 20t-30 22q-14 15 -21.5 31t-7.5 40q0 17 5.5 31t15 24t23.5 15.5t29 5.5q18 0 34.5 -6.5t38 -14t51 -13.5t71.5 -6q83 0 124 37.5t41 98.5q0 37 -17 63t-46 46t-66 37.5t-75.5 36.5
t-75 42t-65.5 55.5t-46.5 76t-17.5 103.5q0 54 17.5 96t43.5 76t57 63.5t56.5 58.5t43 60.5t17.5 69.5q0 69 -44.5 109.5t-141.5 40.5q-103 0 -163 -63t-60 -183v-982q0 -47 -27.5 -73t-83.5 -26t-83.5 26t-27.5 73v962z" />
    <glyph glyph-name="agrave" unicode="&#xe0;" horiz-adv-x="1097" 
d="M721 390q-22 6 -49 10q-23 5 -54.5 8t-70.5 3q-115 0 -170 -31t-55 -92q0 -30 11 -55t33 -43.5t54 -29.5t74 -11q54 0 96 19.5t72 42.5q34 28 59 62v117zM721 645q0 56 -12 96t-38.5 65t-70 37t-105.5 12q-60 0 -103.5 -9.5t-75 -21t-54 -20.5t-41.5 -9q-32 0 -52 20
t-20 56q0 19 6 33.5t21 28.5q14 15 47.5 32t81.5 31t109 24t130 10q199 0 298.5 -89.5t99.5 -260.5v-351q0 -67 4.5 -108.5t10 -68.5t10 -44t4.5 -34q0 -18 -7 -33t-19 -26.5t-30.5 -17.5t-40.5 -6q-27 0 -48 9t-36.5 26t-26 41t-16.5 53h-3q-32 -39 -77 -70
q-38 -26 -95 -47.5t-133 -21.5q-81 0 -145 22.5t-108 62.5t-67 94.5t-23 118.5q0 69 30 122t85.5 88t134.5 53t178 18q46 0 82.5 -3t62.5 -7q30 -4 52 -10v105zM319 1362q-7 6 -14 12.5t-12.5 14t-9 16.5t-3.5 20q0 22 10 42t27 35t37.5 24.5t40.5 9.5q10 0 18.5 -2.5
t16.5 -7.5t15.5 -12.5t14.5 -17.5l171 -227q9 -12 16.5 -23.5t7.5 -25.5q0 -15 -6 -28.5t-17.5 -24.5t-25.5 -17.5t-30 -6.5q-14 0 -27 6t-27 20z" />
    <glyph glyph-name="aacute" unicode="&#xe1;" horiz-adv-x="1097" 
d="M721 390q-22 6 -49 10q-23 5 -54.5 8t-70.5 3q-115 0 -170 -31t-55 -92q0 -30 11 -55t33 -43.5t54 -29.5t74 -11q54 0 96 19.5t72 42.5q34 28 59 62v117zM721 645q0 56 -12 96t-38.5 65t-70 37t-105.5 12q-60 0 -103.5 -9.5t-75 -21t-54 -20.5t-41.5 -9q-32 0 -52 20
t-20 56q0 19 6 33.5t21 28.5q14 15 47.5 32t81.5 31t109 24t130 10q199 0 298.5 -89.5t99.5 -260.5v-351q0 -67 4.5 -108.5t10 -68.5t10 -44t4.5 -34q0 -18 -7 -33t-19 -26.5t-30.5 -17.5t-40.5 -6q-27 0 -48 9t-36.5 26t-26 41t-16.5 53h-3q-32 -39 -77 -70
q-38 -26 -95 -47.5t-133 -21.5q-81 0 -145 22.5t-108 62.5t-67 94.5t-23 118.5q0 69 30 122t85.5 88t134.5 53t178 18q46 0 82.5 -3t62.5 -7q30 -4 52 -10v105zM634 1496q16 21 30.5 30.5t35.5 9.5q19 0 39.5 -9.5t37 -24.5t27.5 -35t11 -42q0 -11 -3.5 -20t-9.5 -16.5
t-12.5 -14t-13.5 -12.5l-203 -193q-15 -14 -27.5 -20t-26.5 -6q-17 0 -31 6.5t-25 17.5t-17 24.5t-6 28.5q0 14 7.5 25.5t16.5 23.5z" />
    <glyph glyph-name="acircumflex" unicode="&#xe2;" horiz-adv-x="1097" 
d="M721 390q-22 6 -49 10q-23 5 -54.5 8t-70.5 3q-115 0 -170 -31t-55 -92q0 -30 11 -55t33 -43.5t54 -29.5t74 -11q54 0 96 19.5t72 42.5q34 28 59 62v117zM721 645q0 56 -12 96t-38.5 65t-70 37t-105.5 12q-60 0 -103.5 -9.5t-75 -21t-54 -20.5t-41.5 -9q-32 0 -52 20
t-20 56q0 19 6 33.5t21 28.5q14 15 47.5 32t81.5 31t109 24t130 10q199 0 298.5 -89.5t99.5 -260.5v-351q0 -67 4.5 -108.5t10 -68.5t10 -44t4.5 -34q0 -18 -7 -33t-19 -26.5t-30.5 -17.5t-40.5 -6q-27 0 -48 9t-36.5 26t-26 41t-16.5 53h-3q-32 -39 -77 -70
q-38 -26 -95 -47.5t-133 -21.5q-81 0 -145 22.5t-108 62.5t-67 94.5t-23 118.5q0 69 30 122t85.5 88t134.5 53t178 18q46 0 82.5 -3t62.5 -7q30 -4 52 -10v105zM363 1170q-15 -12 -25.5 -17t-23.5 -5q-14 0 -26.5 6t-22 15.5t-15.5 22t-6 27.5q0 14 7 25t19 24l190 202
q20 21 40.5 32.5t47.5 11.5q26 0 47.5 -11t40.5 -32l182 -197q13 -15 20 -26t7 -24q0 -16 -6.5 -29.5t-17 -23.5t-24 -16t-29.5 -6q-13 0 -24.5 4.5t-27.5 17.5l-176 148z" />
    <glyph glyph-name="atilde" unicode="&#xe3;" horiz-adv-x="1097" 
d="M721 390q-22 6 -49 10q-23 5 -54.5 8t-70.5 3q-115 0 -170 -31t-55 -92q0 -30 11 -55t33 -43.5t54 -29.5t74 -11q54 0 96 19.5t72 42.5q34 28 59 62v117zM721 645q0 56 -12 96t-38.5 65t-70 37t-105.5 12q-60 0 -103.5 -9.5t-75 -21t-54 -20.5t-41.5 -9q-32 0 -52 20
t-20 56q0 19 6 33.5t21 28.5q14 15 47.5 32t81.5 31t109 24t130 10q199 0 298.5 -89.5t99.5 -260.5v-351q0 -67 4.5 -108.5t10 -68.5t10 -44t4.5 -34q0 -18 -7 -33t-19 -26.5t-30.5 -17.5t-40.5 -6q-27 0 -48 9t-36.5 26t-26 41t-16.5 53h-3q-32 -39 -77 -70
q-38 -26 -95 -47.5t-133 -21.5q-81 0 -145 22.5t-108 62.5t-67 94.5t-23 118.5q0 69 30 122t85.5 88t134.5 53t178 18q46 0 82.5 -3t62.5 -7q30 -4 52 -10v105zM404 1286q-31 0 -50 -13.5t-34.5 -29.5t-31 -29t-40.5 -13q-13 0 -25 4.5t-21.5 13.5t-14.5 21.5t-5 28.5
q0 29 17 61.5t47.5 59.5t73.5 45t95 18q51 0 88.5 -16t68.5 -35.5t57.5 -35.5t55.5 -16q31 0 50 13t34 29t31 29.5t40 13.5q14 0 26 -5t21 -13.5t14.5 -21t5.5 -28.5q0 -29 -17 -61.5t-48 -60t-74 -45.5t-95 -18q-51 0 -88.5 16.5t-68.5 35.5t-57.5 35.5t-54.5 16.5z" />
    <glyph glyph-name="adieresis" unicode="&#xe4;" horiz-adv-x="1097" 
d="M721 390q-22 6 -49 10q-23 5 -54.5 8t-70.5 3q-115 0 -170 -31t-55 -92q0 -30 11 -55t33 -43.5t54 -29.5t74 -11q54 0 96 19.5t72 42.5q34 28 59 62v117zM721 645q0 56 -12 96t-38.5 65t-70 37t-105.5 12q-60 0 -103.5 -9.5t-75 -21t-54 -20.5t-41.5 -9q-32 0 -52 20
t-20 56q0 19 6 33.5t21 28.5q14 15 47.5 32t81.5 31t109 24t130 10q199 0 298.5 -89.5t99.5 -260.5v-351q0 -67 4.5 -108.5t10 -68.5t10 -44t4.5 -34q0 -18 -7 -33t-19 -26.5t-30.5 -17.5t-40.5 -6q-27 0 -48 9t-36.5 26t-26 41t-16.5 53h-3q-32 -39 -77 -70
q-38 -26 -95 -47.5t-133 -21.5q-81 0 -145 22.5t-108 62.5t-67 94.5t-23 118.5q0 69 30 122t85.5 88t134.5 53t178 18q46 0 82.5 -3t62.5 -7q30 -4 52 -10v105zM197 1317q0 27 10.5 51.5t28.5 42t42.5 28t52.5 10.5q29 0 53.5 -9.5t42 -26.5t27 -41t9.5 -51q0 -29 -10 -53
t-28 -42t-42.5 -28.5t-53.5 -10.5t-53 9.5t-41.5 27t-27.5 41t-10 52.5zM611 1317q0 27 10.5 51.5t28.5 42t43 28t54 10.5q28 0 52 -9.5t41.5 -26.5t27 -41t9.5 -51q0 -29 -10 -53t-28 -42t-42 -28.5t-53 -10.5t-53.5 9.5t-42 27t-27.5 41t-10 52.5z" />
    <glyph glyph-name="aring" unicode="&#xe5;" horiz-adv-x="1097" 
d="M721 390q-22 6 -49 10q-23 5 -54.5 8t-70.5 3q-115 0 -170 -31t-55 -92q0 -30 11 -55t33 -43.5t54 -29.5t74 -11q54 0 96 19.5t72 42.5q34 28 59 62v117zM721 645q0 56 -12 96t-38.5 65t-70 37t-105.5 12q-60 0 -103.5 -9.5t-75 -21t-54 -20.5t-41.5 -9q-32 0 -52 20
t-20 56q0 19 6 33.5t21 28.5q14 15 47.5 32t81.5 31t109 24t130 10q199 0 298.5 -89.5t99.5 -260.5v-351q0 -67 4.5 -108.5t10 -68.5t10 -44t4.5 -34q0 -18 -7 -33t-19 -26.5t-30.5 -17.5t-40.5 -6q-27 0 -48 9t-36.5 26t-26 41t-16.5 53h-3q-32 -39 -77 -70
q-38 -26 -95 -47.5t-133 -21.5q-81 0 -145 22.5t-108 62.5t-67 94.5t-23 118.5q0 69 30 122t85.5 88t134.5 53t178 18q46 0 82.5 -3t62.5 -7q30 -4 52 -10v105zM291 1349q0 50 19.5 93.5t54 75t83 50t105.5 18.5t104 -17t80 -47.5t51.5 -72t18.5 -91.5q0 -51 -19.5 -94.5
t-54 -75t-83 -50t-105.5 -18.5t-104 17t-80 47.5t-51.5 72.5t-18.5 92zM429 1353q0 -56 32.5 -88.5t87.5 -32.5t87.5 32.5t32.5 89.5q0 56 -32.5 88t-87.5 32t-87.5 -32t-32.5 -89z" />
    <glyph glyph-name="ae" unicode="&#xe6;" horiz-adv-x="1701" 
d="M744 272q-7 14 -12 32q-5 16 -10 38t-8 49q-21 5 -48 10q-22 4 -52.5 7t-66.5 3q-115 0 -170 -31t-55 -92q0 -30 11 -55t33.5 -43.5t55 -29.5t75.5 -11q58 0 103 19t77 42q38 27 67 62zM718 645q0 55 -12 95t-38.5 65.5t-69 37.5t-103.5 12q-60 0 -103.5 -9.5t-75 -21
t-54 -20.5t-41.5 -9q-32 0 -52 20t-20 56q0 19 6 33.5t21 28.5q14 15 47.5 32t81.5 31t109 24t130 10q70 0 122 -12t90 -32t64 -46.5t43 -57.5q24 32 58 59.5t76 47t92 31t108 11.5q91 0 166 -29.5t128.5 -85.5t83 -136t29.5 -182q0 -65 -30 -96.5t-88 -31.5h-555v-5
q4 -73 27 -130t63 -96.5t96.5 -60t124.5 -20.5q55 0 94 8t67.5 16.5t49 16.5t39.5 8q16 0 28.5 -6t21.5 -15.5t13.5 -22t4.5 -27.5q0 -20 -7 -35.5t-22 -31.5q-14 -14 -42 -29.5t-69 -28.5t-95.5 -21.5t-120.5 -8.5q-68 0 -126 12t-106.5 33.5t-87 52t-68.5 66.5
q-8 -8 -36 -34.5t-74.5 -55.5t-112 -51.5t-148.5 -22.5t-148 22.5t-110 62.5t-68 94.5t-23 118.5q0 69 30 122t85.5 88t134.5 53t178 18q44 0 79.5 -3t61.5 -7q30 -4 53 -10v105zM1396 620q-14 126 -69 186.5t-153 60.5q-42 0 -79.5 -14.5t-69 -45t-54.5 -77t-34 -110.5h459
z" />
    <glyph glyph-name="ccedilla" unicode="&#xe7;" horiz-adv-x="930" 
d="M444 -5q-81 18 -146 59t-111 101.5t-70.5 140t-24.5 172.5q0 131 38 235t107 177t164.5 111.5t211.5 38.5q45 0 81.5 -6t64.5 -15.5t47 -21t29 -22.5q15 -14 22 -31.5t7 -41.5q0 -17 -5.5 -31t-15 -24.5t-23.5 -16.5t-31 -6q-18 0 -34.5 6t-37 14t-48.5 14.5t-68 6.5
q-59 0 -110.5 -23t-90 -68.5t-60 -113t-21.5 -156.5q0 -80 22 -142.5t61 -105t93.5 -65.5t119.5 -23q42 0 70.5 6t49 13.5t36 13.5t30.5 6q16 0 28.5 -5.5t21 -15.5t13.5 -23t5 -28q0 -21 -8 -37.5t-23 -31.5q-14 -15 -38 -28t-57 -23.5t-75 -17t-91 -6.5l-21 -79
q38 -4 69.5 -16.5t54 -34t35.5 -51t13 -68.5q0 -46 -19 -86.5t-56 -71.5t-91.5 -48.5t-125.5 -17.5q-38 0 -64.5 6.5t-42 17t-22.5 24t-7 28.5q0 24 14.5 39.5t41.5 15.5q14 0 28 -1t31 -1q37 0 62 6t40 17t21.5 26t6.5 31q0 29 -19 46t-64 17h-18q-25 0 -35.5 15t-2.5 44z
" />
    <glyph glyph-name="egrave" unicode="&#xe8;" horiz-adv-x="1084" 
d="M314 470v-5q4 -73 27 -130t63 -96.5t96.5 -60t124.5 -20.5q55 0 94 8t67.5 16.5t49 16.5t39.5 8q16 0 28.5 -6t21.5 -15.5t13.5 -22t4.5 -27.5q0 -20 -7 -35.5t-22 -31.5q-14 -14 -42 -29.5t-69 -28.5t-95.5 -21.5t-120.5 -8.5q-114 0 -205.5 34t-156 98.5t-99 155
t-34.5 204.5q0 133 36.5 237t101.5 175t154.5 108.5t195.5 37.5q91 0 166 -29.5t128.5 -85.5t83 -136t29.5 -182q0 -65 -30 -96.5t-88 -31.5h-555zM779 620q-14 126 -69 186.5t-153 60.5q-42 0 -79.5 -14.5t-69 -45t-54.5 -77t-34 -110.5h459zM324 1362q-7 6 -14 12.5
t-12.5 14t-9 16.5t-3.5 20q0 22 10 42t27 35t37.5 24.5t40.5 9.5q10 0 18.5 -2.5t16.5 -7.5t15.5 -12.5t14.5 -17.5l171 -227q9 -12 16.5 -23.5t7.5 -25.5q0 -15 -6 -28.5t-17.5 -24.5t-25.5 -17.5t-30 -6.5q-14 0 -27 6t-27 20z" />
    <glyph glyph-name="eacute" unicode="&#xe9;" horiz-adv-x="1084" 
d="M314 470v-5q4 -73 27 -130t63 -96.5t96.5 -60t124.5 -20.5q55 0 94 8t67.5 16.5t49 16.5t39.5 8q16 0 28.5 -6t21.5 -15.5t13.5 -22t4.5 -27.5q0 -20 -7 -35.5t-22 -31.5q-14 -14 -42 -29.5t-69 -28.5t-95.5 -21.5t-120.5 -8.5q-114 0 -205.5 34t-156 98.5t-99 155
t-34.5 204.5q0 133 36.5 237t101.5 175t154.5 108.5t195.5 37.5q91 0 166 -29.5t128.5 -85.5t83 -136t29.5 -182q0 -65 -30 -96.5t-88 -31.5h-555zM779 620q-14 126 -69 186.5t-153 60.5q-42 0 -79.5 -14.5t-69 -45t-54.5 -77t-34 -110.5h459zM629 1496q16 21 30.5 30.5
t35.5 9.5q19 0 39.5 -9.5t37 -24.5t27.5 -35t11 -42q0 -11 -3.5 -20t-9.5 -16.5t-12.5 -14t-13.5 -12.5l-203 -193q-15 -14 -27.5 -20t-26.5 -6q-17 0 -31 6.5t-25 17.5t-17 24.5t-6 28.5q0 14 7.5 25.5t16.5 23.5z" />
    <glyph glyph-name="ecircumflex" unicode="&#xea;" horiz-adv-x="1084" 
d="M314 470v-5q4 -73 27 -130t63 -96.5t96.5 -60t124.5 -20.5q55 0 94 8t67.5 16.5t49 16.5t39.5 8q16 0 28.5 -6t21.5 -15.5t13.5 -22t4.5 -27.5q0 -20 -7 -35.5t-22 -31.5q-14 -14 -42 -29.5t-69 -28.5t-95.5 -21.5t-120.5 -8.5q-114 0 -205.5 34t-156 98.5t-99 155
t-34.5 204.5q0 133 36.5 237t101.5 175t154.5 108.5t195.5 37.5q91 0 166 -29.5t128.5 -85.5t83 -136t29.5 -182q0 -65 -30 -96.5t-88 -31.5h-555zM779 620q-14 126 -69 186.5t-153 60.5q-42 0 -79.5 -14.5t-69 -45t-54.5 -77t-34 -110.5h459zM371 1170q-15 -12 -25.5 -17
t-23.5 -5q-14 0 -26.5 6t-22 15.5t-15.5 22t-6 27.5q0 14 7 25t19 24l190 202q20 21 40.5 32.5t47.5 11.5q26 0 47.5 -11t40.5 -32l182 -197q13 -15 20 -26t7 -24q0 -16 -6.5 -29.5t-17 -23.5t-24 -16t-29.5 -6q-13 0 -24.5 4.5t-27.5 17.5l-176 148z" />
    <glyph glyph-name="edieresis" unicode="&#xeb;" horiz-adv-x="1084" 
d="M314 470v-5q4 -73 27 -130t63 -96.5t96.5 -60t124.5 -20.5q55 0 94 8t67.5 16.5t49 16.5t39.5 8q16 0 28.5 -6t21.5 -15.5t13.5 -22t4.5 -27.5q0 -20 -7 -35.5t-22 -31.5q-14 -14 -42 -29.5t-69 -28.5t-95.5 -21.5t-120.5 -8.5q-114 0 -205.5 34t-156 98.5t-99 155
t-34.5 204.5q0 133 36.5 237t101.5 175t154.5 108.5t195.5 37.5q91 0 166 -29.5t128.5 -85.5t83 -136t29.5 -182q0 -65 -30 -96.5t-88 -31.5h-555zM779 620q-14 126 -69 186.5t-153 60.5q-42 0 -79.5 -14.5t-69 -45t-54.5 -77t-34 -110.5h459zM212 1317q0 27 10.5 51.5
t28.5 42t42.5 28t52.5 10.5q29 0 53.5 -9.5t42 -26.5t27 -41t9.5 -51q0 -29 -10 -53t-28 -42t-42.5 -28.5t-53.5 -10.5t-53 9.5t-41.5 27t-27.5 41t-10 52.5zM626 1317q0 27 10.5 51.5t28.5 42t43 28t54 10.5q28 0 52 -9.5t41.5 -26.5t27 -41t9.5 -51q0 -29 -10 -53t-28 -42
t-42 -28.5t-53 -10.5t-53.5 9.5t-42 27t-27.5 41t-10 52.5z" />
    <glyph glyph-name="igrave" unicode="&#xec;" horiz-adv-x="545" 
d="M91 1362q-7 6 -14 12.5t-12.5 14t-9 16.5t-3.5 20q0 22 10 42t27 35t37.5 24.5t40.5 9.5q10 0 18.5 -2.5t16.5 -7.5t15.5 -12.5t14.5 -17.5l171 -227q9 -12 16.5 -23.5t7.5 -25.5q0 -15 -6 -28.5t-17.5 -24.5t-25.5 -17.5t-30 -6.5q-14 0 -27 6t-27 20zM162 920
q0 47 27.5 72.5t83.5 25.5t83.5 -25.5t27.5 -72.5v-828q0 -47 -27.5 -73t-83.5 -26t-83.5 26t-27.5 73v828z" />
    <glyph glyph-name="iacute" unicode="&#xed;" horiz-adv-x="545" 
d="M309 1496q16 21 30.5 30.5t35.5 9.5q19 0 39.5 -9.5t37 -24.5t27.5 -35t11 -42q0 -11 -3.5 -20t-9.5 -16.5t-12.5 -14t-13.5 -12.5l-203 -193q-15 -14 -27.5 -20t-26.5 -6q-17 0 -31 6.5t-25 17.5t-17 24.5t-6 28.5q0 14 7.5 25.5t16.5 23.5zM162 920q0 47 27.5 72.5
t83.5 25.5t83.5 -25.5t27.5 -72.5v-828q0 -47 -27.5 -73t-83.5 -26t-83.5 26t-27.5 73v828z" />
    <glyph glyph-name="icircumflex" unicode="&#xee;" horiz-adv-x="545" 
d="M162 920q0 47 27.5 72.5t83.5 25.5t83.5 -25.5t27.5 -72.5v-828q0 -47 -27.5 -73t-83.5 -26t-83.5 26t-27.5 73v828zM120 1177q-16 -15 -28 -21.5t-28 -6.5q-14 0 -26.5 5.5t-22 14.5t-15 21t-5.5 26q0 15 7 28t20 27l162 193q21 24 42 37.5t53 13.5q15 0 28.5 -3.5
t24.5 -10t21 -15.5t20 -21l161 -195q12 -15 18 -25.5t6 -23.5q0 -15 -6.5 -28t-17.5 -23t-24.5 -15.5t-29.5 -5.5q-15 0 -28 6t-29 21l-152 143z" />
    <glyph glyph-name="idieresis" unicode="&#xef;" horiz-adv-x="545" 
d="M162 920q0 47 27.5 72.5t83.5 25.5t83.5 -25.5t27.5 -72.5v-828q0 -47 -27.5 -73t-83.5 -26t-83.5 26t-27.5 73v828zM-52 1317q0 27 10.5 51t28 41.5t42 28t52.5 10.5q29 0 53 -9.5t41 -26.5t26.5 -40.5t9.5 -50.5q0 -29 -10 -53t-27.5 -41.5t-42 -28t-52.5 -10.5
q-29 0 -53 9.5t-41 27t-27 40.5t-10 52zM337 1317q0 27 10.5 51t28 41.5t42 28t53.5 10.5q28 0 52 -9.5t41 -26.5t26.5 -40.5t9.5 -50.5q0 -29 -10 -53t-27.5 -41.5t-42 -28t-52.5 -10.5t-52.5 9.5t-41.5 27t-27 40.5t-10 52z" />
    <glyph glyph-name="eth" unicode="&#xf0;" horiz-adv-x="1159" 
d="M764 1313q70 -62 125 -139t93.5 -167t59 -191.5t20.5 -211.5q0 -159 -36 -276.5t-102 -194.5t-158.5 -114.5t-206.5 -37.5q-107 0 -193 33.5t-147.5 96.5t-94.5 154t-33 205q0 86 18.5 159t52.5 132.5t81 104.5t105 76.5t125 47t139 15.5q33 0 57.5 -3.5t42.5 -7.5
q20 -5 35 -11q-29 59 -68.5 112t-86.5 93l-131 -101q-24 -19 -49 -19q-15 0 -29 6.5t-24.5 17.5t-17 25.5t-6.5 30.5q0 20 9.5 34t29.5 29l96 74q-29 16 -51 26.5t-39.5 17.5t-30 12.5t-20.5 14.5q-9 9 -13.5 20.5t-4.5 26.5q0 18 7 33.5t21 27.5t34.5 19.5t47.5 7.5
q21 0 48 -6.5t56.5 -18t59 -26t55.5 -31.5l127 98q24 18 49 18q15 0 29 -6.5t24.5 -17t16.5 -25t6 -30.5q0 -19 -8.5 -33t-28.5 -29zM843 564q0 59 -7 115t-18 108q-22 12 -52 22q-26 9 -62.5 16t-86.5 7q-66 0 -121 -22.5t-95 -66t-62 -107t-22 -145.5q0 -85 19.5 -147.5
t54.5 -104.5t82 -62.5t104 -20.5q55 0 104 23t84.5 72t56.5 126.5t21 186.5z" />
    <glyph glyph-name="ntilde" unicode="&#xf1;" horiz-adv-x="1211" 
d="M162 929q0 44 24 68t68 24q22 0 39 -5.5t29.5 -17t19.5 -27.5t10 -37l9 -61h4q29 44 74 79q19 15 43.5 29t54.5 25t65.5 17.5t76.5 6.5q88 0 158 -26.5t119.5 -79t75.5 -129.5t26 -178v-525q0 -47 -27.5 -73t-83.5 -26t-83.5 26t-27.5 73v496q0 69 -14 118.5t-41.5 81.5
t-67 47.5t-89.5 15.5q-30 0 -56 -7.5t-49 -18.5t-41.5 -25.5t-33.5 -29.5q-36 -36 -60 -80v-598q0 -47 -27.5 -73t-83.5 -26t-83.5 26t-27.5 73v837zM465 1286q-31 0 -50 -13.5t-34.5 -29.5t-31 -29t-40.5 -13q-13 0 -25 4.5t-21.5 13.5t-14.5 21.5t-5 28.5q0 29 17 61.5
t47.5 59.5t73.5 45t95 18q51 0 88.5 -16t68.5 -35.5t57.5 -35.5t55.5 -16q31 0 50 13t34 29t31 29.5t40 13.5q14 0 26 -5t21 -13.5t14.5 -21t5.5 -28.5q0 -29 -17 -61.5t-48 -60t-74 -45.5t-95 -18q-51 0 -88.5 16.5t-68.5 35.5t-57.5 35.5t-54.5 16.5z" />
    <glyph glyph-name="ograve" unicode="&#xf2;" horiz-adv-x="1193" 
d="M92 488q0 128 36.5 229t104 170.5t163 106.5t213.5 37q109 0 199 -36t155 -102.5t101 -160.5t36 -208q0 -128 -36.5 -229t-103.5 -171t-162.5 -106.5t-213.5 -36.5q-109 0 -199.5 36t-155.5 102.5t-101 160t-36 208.5zM319 508q0 -86 21.5 -151.5t59.5 -110t89 -67.5
t110 -23q58 0 108.5 22t87.5 66t58 109t21 151q0 85 -22 151t-60 110.5t-88.5 67.5t-108.5 23q-59 0 -109.5 -22.5t-88 -66t-58 -108.5t-20.5 -151zM372 1362q-7 6 -14 12.5t-12.5 14t-9 16.5t-3.5 20q0 22 10 42t27 35t37.5 24.5t40.5 9.5q10 0 18.5 -2.5t16.5 -7.5
t15.5 -12.5t14.5 -17.5l171 -227q9 -12 16.5 -23.5t7.5 -25.5q0 -15 -6 -28.5t-17.5 -24.5t-25.5 -17.5t-30 -6.5q-14 0 -27 6t-27 20z" />
    <glyph glyph-name="oacute" unicode="&#xf3;" horiz-adv-x="1193" 
d="M92 488q0 128 36.5 229t104 170.5t163 106.5t213.5 37q109 0 199 -36t155 -102.5t101 -160.5t36 -208q0 -128 -36.5 -229t-103.5 -171t-162.5 -106.5t-213.5 -36.5q-109 0 -199.5 36t-155.5 102.5t-101 160t-36 208.5zM319 508q0 -86 21.5 -151.5t59.5 -110t89 -67.5
t110 -23q58 0 108.5 22t87.5 66t58 109t21 151q0 85 -22 151t-60 110.5t-88.5 67.5t-108.5 23q-59 0 -109.5 -22.5t-88 -66t-58 -108.5t-20.5 -151zM658 1496q16 21 30.5 30.5t35.5 9.5q19 0 39.5 -9.5t37 -24.5t27.5 -35t11 -42q0 -11 -3.5 -20t-9.5 -16.5t-12.5 -14
t-13.5 -12.5l-203 -193q-15 -14 -27.5 -20t-26.5 -6q-17 0 -31 6.5t-25 17.5t-17 24.5t-6 28.5q0 14 7.5 25.5t16.5 23.5z" />
    <glyph glyph-name="ocircumflex" unicode="&#xf4;" horiz-adv-x="1193" 
d="M92 488q0 128 36.5 229t104 170.5t163 106.5t213.5 37q109 0 199 -36t155 -102.5t101 -160.5t36 -208q0 -128 -36.5 -229t-103.5 -171t-162.5 -106.5t-213.5 -36.5q-109 0 -199.5 36t-155.5 102.5t-101 160t-36 208.5zM319 508q0 -86 21.5 -151.5t59.5 -110t89 -67.5
t110 -23q58 0 108.5 22t87.5 66t58 109t21 151q0 85 -22 151t-60 110.5t-88.5 67.5t-108.5 23q-59 0 -109.5 -22.5t-88 -66t-58 -108.5t-20.5 -151zM416 1170q-15 -12 -25.5 -17t-23.5 -5q-14 0 -26.5 6t-22 15.5t-15.5 22t-6 27.5q0 14 7 25t19 24l190 202q20 21 40.5 32.5
t47.5 11.5q26 0 47.5 -11t40.5 -32l182 -197q13 -15 20 -26t7 -24q0 -16 -6.5 -29.5t-17 -23.5t-24 -16t-29.5 -6q-13 0 -24.5 4.5t-27.5 17.5l-176 148z" />
    <glyph glyph-name="otilde" unicode="&#xf5;" horiz-adv-x="1193" 
d="M92 488q0 128 36.5 229t104 170.5t163 106.5t213.5 37q109 0 199 -36t155 -102.5t101 -160.5t36 -208q0 -128 -36.5 -229t-103.5 -171t-162.5 -106.5t-213.5 -36.5q-109 0 -199.5 36t-155.5 102.5t-101 160t-36 208.5zM319 508q0 -86 21.5 -151.5t59.5 -110t89 -67.5
t110 -23q58 0 108.5 22t87.5 66t58 109t21 151q0 85 -22 151t-60 110.5t-88.5 67.5t-108.5 23q-59 0 -109.5 -22.5t-88 -66t-58 -108.5t-20.5 -151zM455 1286q-31 0 -50 -13.5t-34.5 -29.5t-31 -29t-40.5 -13q-13 0 -25 4.5t-21.5 13.5t-14.5 21.5t-5 28.5q0 29 17 61.5
t47.5 59.5t73.5 45t95 18q51 0 88.5 -16t68.5 -35.5t57.5 -35.5t55.5 -16q31 0 50 13t34 29t31 29.5t40 13.5q14 0 26 -5t21 -13.5t14.5 -21t5.5 -28.5q0 -29 -17 -61.5t-48 -60t-74 -45.5t-95 -18q-51 0 -88.5 16.5t-68.5 35.5t-57.5 35.5t-54.5 16.5z" />
    <glyph glyph-name="odieresis" unicode="&#xf6;" horiz-adv-x="1193" 
d="M92 488q0 128 36.5 229t104 170.5t163 106.5t213.5 37q109 0 199 -36t155 -102.5t101 -160.5t36 -208q0 -128 -36.5 -229t-103.5 -171t-162.5 -106.5t-213.5 -36.5q-109 0 -199.5 36t-155.5 102.5t-101 160t-36 208.5zM319 508q0 -86 21.5 -151.5t59.5 -110t89 -67.5
t110 -23q58 0 108.5 22t87.5 66t58 109t21 151q0 85 -22 151t-60 110.5t-88.5 67.5t-108.5 23q-59 0 -109.5 -22.5t-88 -66t-58 -108.5t-20.5 -151zM253 1317q0 27 10.5 51.5t28.5 42t42.5 28t52.5 10.5q29 0 53.5 -9.5t42 -26.5t27 -41t9.5 -51q0 -29 -10 -53t-28 -42
t-42.5 -28.5t-53.5 -10.5t-53 9.5t-41.5 27t-27.5 41t-10 52.5zM667 1317q0 27 10.5 51.5t28.5 42t43 28t54 10.5q28 0 52 -9.5t41.5 -26.5t27 -41t9.5 -51q0 -29 -10 -53t-28 -42t-42 -28.5t-53 -10.5t-53.5 9.5t-42 27t-27.5 41t-10 52.5z" />
    <glyph glyph-name="divide" unicode="&#xf7;" horiz-adv-x="1168" 
d="M944 667q37 0 58.5 -22.5t21.5 -61.5q0 -38 -21.5 -61t-58.5 -23h-721q-37 0 -58 23t-21 61q0 39 21 61.5t58 22.5h721zM462 254q0 27 9.5 49t26 38t38.5 25.5t48 9.5t48.5 -9.5t38.5 -25.5t25.5 -38t9.5 -49q0 -26 -9.5 -48t-25.5 -38.5t-38.5 -25.5t-48.5 -9t-48 9
t-38.5 25.5t-26 38.5t-9.5 48zM462 911q0 27 9.5 49t26 38t38.5 25.5t48 9.5t48 -9.5t38.5 -25.5t26 -38t9.5 -49q0 -25 -9.5 -47.5t-26 -38.5t-38.5 -25.5t-48 -9.5t-48 9.5t-38.5 25.5t-26 38.5t-9.5 47.5z" />
    <glyph glyph-name="oslash" unicode="&#xf8;" horiz-adv-x="1199" 
d="M253 96q-77 68 -118.5 167.5t-41.5 224.5q0 128 36 229t104 170.5t164 106.5t215 37q49 0 96 -8.5t86 -24.5l86 144q16 25 32.5 36.5t40.5 11.5q18 0 34.5 -6.5t30.5 -18t22 -26.5t8 -33q0 -10 -4 -21.5t-13 -26.5l-86 -144q76 -67 118.5 -166t42.5 -224
q0 -128 -36.5 -229t-104 -171t-163.5 -106.5t-215 -36.5q-49 0 -95 8.5t-87 23.5l-84 -140q-16 -26 -33 -37.5t-41 -11.5q-17 0 -34 6.5t-30.5 18t-22 27t-8.5 32.5q0 10 4 21.5t13 26.5zM494 172q25 -13 52 -19.5t56 -6.5q64 0 117.5 22.5t92.5 67.5t60.5 111.5t21.5 156.5
q0 73 -17 131t-46 100zM705 840q-21 11 -48.5 18t-58.5 7q-64 0 -117.5 -22t-92.5 -67t-61 -111.5t-22 -156.5q0 -73 17 -131t46 -101z" />
    <glyph glyph-name="ugrave" unicode="&#xf9;" horiz-adv-x="1205" 
d="M153 920q0 47 27 72.5t84 25.5t84 -25.5t27 -72.5v-496q0 -138 55 -200.5t151 -62.5q31 0 57 6.5t48 18t41 26t35 30.5q35 35 59 80v598q0 47 27.5 72.5t83.5 25.5q57 0 84 -25.5t27 -72.5v-837q0 -44 -24 -68t-68 -24q-22 0 -39 5.5t-29 16.5t-19 27.5t-11 38.5l-9 60
h-3q-30 -44 -75 -79q-19 -15 -43.5 -29t-54.5 -25t-65.5 -18t-76.5 -7q-86 0 -154.5 27t-117.5 79.5t-75 129.5t-26 178v525zM356 1362q-7 6 -14 12.5t-12.5 14t-9 16.5t-3.5 20q0 22 10 42t27 35t37.5 24.5t40.5 9.5q10 0 18.5 -2.5t16.5 -7.5t15.5 -12.5t14.5 -17.5
l171 -227q9 -12 16.5 -23.5t7.5 -25.5q0 -15 -6 -28.5t-17.5 -24.5t-25.5 -17.5t-30 -6.5q-14 0 -27 6t-27 20z" />
    <glyph glyph-name="uacute" unicode="&#xfa;" horiz-adv-x="1205" 
d="M153 920q0 47 27 72.5t84 25.5t84 -25.5t27 -72.5v-496q0 -138 55 -200.5t151 -62.5q31 0 57 6.5t48 18t41 26t35 30.5q35 35 59 80v598q0 47 27.5 72.5t83.5 25.5q57 0 84 -25.5t27 -72.5v-837q0 -44 -24 -68t-68 -24q-22 0 -39 5.5t-29 16.5t-19 27.5t-11 38.5l-9 60
h-3q-30 -44 -75 -79q-19 -15 -43.5 -29t-54.5 -25t-65.5 -18t-76.5 -7q-86 0 -154.5 27t-117.5 79.5t-75 129.5t-26 178v525zM671 1496q16 21 30.5 30.5t35.5 9.5q19 0 39.5 -9.5t37 -24.5t27.5 -35t11 -42q0 -11 -3.5 -20t-9.5 -16.5t-12.5 -14t-13.5 -12.5l-203 -193
q-15 -14 -27.5 -20t-26.5 -6q-17 0 -31 6.5t-25 17.5t-17 24.5t-6 28.5q0 14 7.5 25.5t16.5 23.5z" />
    <glyph glyph-name="ucircumflex" unicode="&#xfb;" horiz-adv-x="1205" 
d="M153 920q0 47 27 72.5t84 25.5t84 -25.5t27 -72.5v-496q0 -138 55 -200.5t151 -62.5q31 0 57 6.5t48 18t41 26t35 30.5q35 35 59 80v598q0 47 27.5 72.5t83.5 25.5q57 0 84 -25.5t27 -72.5v-837q0 -44 -24 -68t-68 -24q-22 0 -39 5.5t-29 16.5t-19 27.5t-11 38.5l-9 60
h-3q-30 -44 -75 -79q-19 -15 -43.5 -29t-54.5 -25t-65.5 -18t-76.5 -7q-86 0 -154.5 27t-117.5 79.5t-75 129.5t-26 178v525zM420 1170q-15 -12 -25.5 -17t-23.5 -5q-14 0 -26.5 6t-22 15.5t-15.5 22t-6 27.5q0 14 7 25t19 24l190 202q20 21 40.5 32.5t47.5 11.5
q26 0 47.5 -11t40.5 -32l182 -197q13 -15 20 -26t7 -24q0 -16 -6.5 -29.5t-17 -23.5t-24 -16t-29.5 -6q-13 0 -24.5 4.5t-27.5 17.5l-176 148z" />
    <glyph glyph-name="udieresis" unicode="&#xfc;" horiz-adv-x="1205" 
d="M153 920q0 47 27 72.5t84 25.5t84 -25.5t27 -72.5v-496q0 -138 55 -200.5t151 -62.5q31 0 57 6.5t48 18t41 26t35 30.5q35 35 59 80v598q0 47 27.5 72.5t83.5 25.5q57 0 84 -25.5t27 -72.5v-837q0 -44 -24 -68t-68 -24q-22 0 -39 5.5t-29 16.5t-19 27.5t-11 38.5l-9 60
h-3q-30 -44 -75 -79q-19 -15 -43.5 -29t-54.5 -25t-65.5 -18t-76.5 -7q-86 0 -154.5 27t-117.5 79.5t-75 129.5t-26 178v525zM257 1317q0 27 10.5 51.5t28.5 42t42.5 28t52.5 10.5q29 0 53.5 -9.5t42 -26.5t27 -41t9.5 -51q0 -29 -10 -53t-28 -42t-42.5 -28.5t-53.5 -10.5
t-53 9.5t-41.5 27t-27.5 41t-10 52.5zM671 1317q0 27 10.5 51.5t28.5 42t43 28t54 10.5q28 0 52 -9.5t41.5 -26.5t27 -41t9.5 -51q0 -29 -10 -53t-28 -42t-42 -28.5t-53 -10.5t-53.5 9.5t-42 27t-27.5 41t-10 52.5z" />
    <glyph glyph-name="yacute" unicode="&#xfd;" horiz-adv-x="1029" 
d="M65 845q-12 33 -15.5 47t-3.5 27q0 24 11.5 43t29.5 32.5t39.5 20t42.5 6.5q24 0 39.5 -7t27.5 -19q11 -11 18 -28t18 -49l200 -566q12 -32 20.5 -60t14.5 -49q6 -25 11 -46h4q6 21 13 46q5 21 13.5 49t19.5 60l198 572q9 27 16 43.5t18 28.5t28.5 18.5t39.5 6.5
q20 0 40.5 -6t37 -17.5t27 -29.5t10.5 -41q0 -12 -3 -25t-14 -42l-286 -751q-62 -161 -125.5 -274t-133 -183.5t-148 -102.5t-170.5 -32q-44 0 -77.5 10.5t-52.5 28.5q-27 27 -27 69q0 35 21 56t58 21q12 0 22 -1t19.5 -2.5t19 -2t21.5 -0.5q45 0 85 18t75 53t66.5 86.5
t60.5 118.5zM616 1496q16 21 30.5 30.5t35.5 9.5q19 0 39.5 -9.5t37 -24.5t27.5 -35t11 -42q0 -11 -3.5 -20t-9.5 -16.5t-12.5 -14t-13.5 -12.5l-203 -193q-15 -14 -27.5 -20t-26.5 -6q-17 0 -31 6.5t-25 17.5t-17 24.5t-6 28.5q0 14 7.5 25.5t16.5 23.5z" />
    <glyph glyph-name="thorn" unicode="&#xfe;" horiz-adv-x="1183" 
d="M384 190q19 -11 46 -19q23 -7 56 -12.5t78 -5.5q67 0 122 23t95 68t62 112.5t22 157.5q0 91 -17 155t-48.5 104t-76 59t-98.5 19q-30 0 -56.5 -7.5t-49.5 -18.5t-41.5 -25.5t-33.5 -29.5q-36 -36 -60 -80v-500zM162 1384q0 47 27.5 72.5t83.5 25.5t83.5 -25.5t27.5 -72.5
v-349q0 -36 -1.5 -70.5t-6.5 -73.5h3q30 39 73 69q19 13 42 25.5t51 23t61.5 16t71.5 5.5q93 0 168.5 -31t130 -93t84.5 -155.5t30 -217.5q0 -131 -37.5 -233.5t-108 -173.5t-173 -108t-232.5 -37q-34 0 -62 3t-49 7q-25 5 -45 10l-3 -1q2 -28 2.5 -58t0.5 -61v-261
q0 -47 -27.5 -72.5t-83.5 -25.5t-83.5 25.5t-27.5 72.5v1764z" />
    <glyph glyph-name="ydieresis" unicode="&#xff;" horiz-adv-x="1029" 
d="M65 845q-12 33 -15.5 47t-3.5 27q0 24 11.5 43t29.5 32.5t39.5 20t42.5 6.5q24 0 39.5 -7t27.5 -19q11 -11 18 -28t18 -49l200 -566q12 -32 20.5 -60t14.5 -49q6 -25 11 -46h4q6 21 13 46q5 21 13.5 49t19.5 60l198 572q9 27 16 43.5t18 28.5t28.5 18.5t39.5 6.5
q20 0 40.5 -6t37 -17.5t27 -29.5t10.5 -41q0 -12 -3 -25t-14 -42l-286 -751q-62 -161 -125.5 -274t-133 -183.5t-148 -102.5t-170.5 -32q-44 0 -77.5 10.5t-52.5 28.5q-27 27 -27 69q0 35 21 56t58 21q12 0 22 -1t19.5 -2.5t19 -2t21.5 -0.5q45 0 85 18t75 53t66.5 86.5
t60.5 118.5zM181 1317q0 27 10.5 51.5t28.5 42t42.5 28t52.5 10.5q29 0 53.5 -9.5t42 -26.5t27 -41t9.5 -51q0 -29 -10 -53t-28 -42t-42.5 -28.5t-53.5 -10.5t-53 9.5t-41.5 27t-27.5 41t-10 52.5zM595 1317q0 27 10.5 51.5t28.5 42t43 28t54 10.5q28 0 52 -9.5t41.5 -26.5
t27 -41t9.5 -51q0 -29 -10 -53t-28 -42t-42 -28.5t-53 -10.5t-53.5 9.5t-42 27t-27.5 41t-10 52.5z" />
    <glyph glyph-name="Amacron" unicode="&#x100;" horiz-adv-x="1265" 
d="M279 101q-11 -33 -20 -53t-21 -33q-11 -11 -29 -18t-42 -7q-21 0 -41.5 7t-38 19t-28 30.5t-10.5 41.5q0 13 3.5 27t14.5 46l381 1077q7 18 13 33.5t13.5 28t15 22.5t16.5 20q21 21 51 31.5t75 10.5q44 0 74.5 -10.5t51.5 -31.5q9 -10 16.5 -20t14.5 -22.5t13.5 -28
t13.5 -33.5l382 -1074q12 -32 15 -46t3 -25q0 -26 -11.5 -45t-29.5 -31.5t-40.5 -19.5t-43.5 -7q-23 0 -41.5 7.5t-31.5 20.5q-12 12 -20 30.5t-19 50.5l-87 248h-531zM835 526l-149 439q-14 41 -25.5 76.5t-20.5 63.5q-10 32 -17 60h-4q-8 -28 -17 -60q-8 -28 -19 -63.5
t-24 -76.5l-144 -439h420zM882 1730q37 0 56 -20.5t19 -61.5q0 -40 -19 -60.5t-56 -20.5h-516q-36 0 -55.5 20.5t-19.5 60.5q0 41 19.5 61.5t55.5 20.5h516z" />
    <glyph glyph-name="amacron" unicode="&#x101;" horiz-adv-x="1097" 
d="M721 390q-22 6 -49 10q-23 5 -54.5 8t-70.5 3q-115 0 -170 -31t-55 -92q0 -30 11 -55t33 -43.5t54 -29.5t74 -11q54 0 96 19.5t72 42.5q34 28 59 62v117zM721 645q0 56 -12 96t-38.5 65t-70 37t-105.5 12q-60 0 -103.5 -9.5t-75 -21t-54 -20.5t-41.5 -9q-32 0 -52 20
t-20 56q0 19 6 33.5t21 28.5q14 15 47.5 32t81.5 31t109 24t130 10q199 0 298.5 -89.5t99.5 -260.5v-351q0 -67 4.5 -108.5t10 -68.5t10 -44t4.5 -34q0 -18 -7 -33t-19 -26.5t-30.5 -17.5t-40.5 -6q-27 0 -48 9t-36.5 26t-26 41t-16.5 53h-3q-32 -39 -77 -70
q-38 -26 -95 -47.5t-133 -21.5q-81 0 -145 22.5t-108 62.5t-67 94.5t-23 118.5q0 69 30 122t85.5 88t134.5 53t178 18q46 0 82.5 -3t62.5 -7q30 -4 52 -10v105zM801 1397q37 0 56 -20t19 -60t-19 -60t-56 -20h-508q-37 0 -56 20t-19 60t19 60t56 20h508z" />
    <glyph glyph-name="Abreve" unicode="&#x102;" horiz-adv-x="1265" 
d="M279 101q-11 -33 -20 -53t-21 -33q-11 -11 -29 -18t-42 -7q-21 0 -41.5 7t-38 19t-28 30.5t-10.5 41.5q0 13 3.5 27t14.5 46l381 1077q7 18 13 33.5t13.5 28t15 22.5t16.5 20q21 21 51 31.5t75 10.5q44 0 74.5 -10.5t51.5 -31.5q9 -10 16.5 -20t14.5 -22.5t13.5 -28
t13.5 -33.5l382 -1074q12 -32 15 -46t3 -25q0 -26 -11.5 -45t-29.5 -31.5t-40.5 -19.5t-43.5 -7q-23 0 -41.5 7.5t-31.5 20.5q-12 12 -20 30.5t-19 50.5l-87 248h-531zM835 526l-149 439q-14 41 -25.5 76.5t-20.5 63.5q-10 32 -17 60h-4q-8 -28 -17 -60q-8 -28 -19 -63.5
t-24 -76.5l-144 -439h420zM322 1755q0 40 21.5 60t56.5 20q31 0 49 -15t23 -44q11 -60 47.5 -90t105.5 -30q67 0 103.5 31.5t46.5 88.5q6 29 23.5 44t48.5 15q36 0 57 -20t21 -60q0 -55 -24 -102.5t-65.5 -82.5t-97.5 -55t-119 -20q-67 0 -121.5 20t-93.5 55t-60.5 82.5
t-21.5 102.5z" />
    <glyph glyph-name="abreve" unicode="&#x103;" horiz-adv-x="1097" 
d="M721 390q-22 6 -49 10q-23 5 -54.5 8t-70.5 3q-115 0 -170 -31t-55 -92q0 -30 11 -55t33 -43.5t54 -29.5t74 -11q54 0 96 19.5t72 42.5q34 28 59 62v117zM721 645q0 56 -12 96t-38.5 65t-70 37t-105.5 12q-60 0 -103.5 -9.5t-75 -21t-54 -20.5t-41.5 -9q-32 0 -52 20
t-20 56q0 19 6 33.5t21 28.5q14 15 47.5 32t81.5 31t109 24t130 10q199 0 298.5 -89.5t99.5 -260.5v-351q0 -67 4.5 -108.5t10 -68.5t10 -44t4.5 -34q0 -18 -7 -33t-19 -26.5t-30.5 -17.5t-40.5 -6q-27 0 -48 9t-36.5 26t-26 41t-16.5 53h-3q-32 -39 -77 -70
q-38 -26 -95 -47.5t-133 -21.5q-81 0 -145 22.5t-108 62.5t-67 94.5t-23 118.5q0 69 30 122t85.5 88t134.5 53t178 18q46 0 82.5 -3t62.5 -7q30 -4 52 -10v105zM253 1411q0 37 21 56.5t56 19.5q28 0 46 -14t23 -43q9 -61 43 -97t103 -36q35 0 60.5 10t42.5 27.5t27 42
t15 53.5q3 29 22 43t47 14q34 0 55.5 -19.5t21.5 -56.5q0 -57 -21.5 -106t-60 -85.5t-93.5 -57.5t-123 -21q-59 0 -111 18t-90.5 52.5t-61 84.5t-22.5 115z" />
    <glyph glyph-name="Aogonek" unicode="&#x104;" horiz-adv-x="1265" 
d="M835 526l-149 439q-14 41 -25.5 76.5t-20.5 63.5q-10 32 -17 60h-4q-8 -28 -17 -60q-8 -28 -19 -63.5t-24 -76.5l-144 -439h420zM279 101q-11 -33 -20 -53t-21 -33q-11 -11 -29 -18t-42 -7q-21 0 -41.5 7t-38 19t-28 30.5t-10.5 41.5q0 7 0.5 13t2.5 14.5t5.5 19
t9.5 26.5l381 1077q7 18 13 33.5t13.5 28t15 22.5t16.5 20q21 21 51 31.5t75 10.5q44 0 74.5 -10.5t51.5 -31.5q9 -9 16.5 -19t14.5 -23t13.5 -28.5t13.5 -33.5l382 -1074q12 -32 15 -46t3 -25q0 -25 -10.5 -43t-25.5 -33q-37 -36 -71 -71t-59.5 -68.5t-40.5 -67t-15 -68.5
q0 -40 19.5 -59.5t57.5 -19.5q17 0 29 2.5t22.5 5.5t20 5.5t20.5 2.5q26 0 41.5 -16t15.5 -42q0 -16 -6 -30t-20 -28q-22 -23 -69 -39t-110 -16q-53 0 -94.5 13.5t-69.5 38.5t-42.5 59.5t-14.5 77.5q0 47 20.5 92t53 86.5t72.5 77.5t80 64q-12 11 -20.5 27.5t-20.5 54.5
l-87 248h-531z" />
    <glyph glyph-name="aogonek" unicode="&#x105;" horiz-adv-x="1097" 
d="M721 390q-22 6 -49 10q-23 5 -54.5 8t-70.5 3q-115 0 -170 -31t-55 -92q0 -30 11 -55t33 -43.5t54 -29.5t74 -11q54 0 96 19.5t72 42.5q34 28 59 62v117zM721 645q0 56 -12 96t-38.5 65t-70 37t-105.5 12q-60 0 -103.5 -9.5t-75 -21t-54 -20.5t-41.5 -9q-32 0 -52 20
t-20 56q0 19 6 33.5t21 28.5q14 15 47.5 32t81.5 31t109 24t130 10q199 0 298.5 -89.5t99.5 -260.5v-351q0 -67 4.5 -108.5t10 -68.5t10 -44t4.5 -34q0 -19 -8.5 -36t-33.5 -41q-29 -30 -60 -60.5t-56.5 -62.5t-42 -66t-16.5 -69q0 -38 19 -57t52 -19q17 0 29.5 2.5
t22.5 5.5t19.5 5.5t20.5 2.5q26 0 41 -16t15 -42q0 -16 -5.5 -30t-19.5 -28q-23 -23 -69.5 -39t-109.5 -16q-52 0 -92 13.5t-67 38t-41 59t-14 75.5q0 48 21.5 95t56.5 90t77 79.5t83 64.5q-16 15 -27 39t-19 58h-3q-32 -39 -77 -70q-38 -26 -95 -47.5t-133 -21.5
q-81 0 -145 22.5t-108 62.5t-67 94.5t-23 118.5q0 69 30 122t85.5 88t134.5 53t178 18q46 0 82.5 -3t62.5 -7q30 -4 52 -10v105z" />
    <glyph glyph-name="Cacute" unicode="&#x106;" horiz-adv-x="1191" 
d="M99 645q0 176 48.5 315.5t136.5 236t209 148t268 51.5q63 0 115 -10t92 -24.5t67 -31t41 -30.5q19 -19 26.5 -37.5t7.5 -43.5q0 -18 -6 -33.5t-17 -26t-26 -17t-33 -6.5q-22 0 -44 12t-52.5 25.5t-74.5 25t-110 11.5q-86 0 -161 -34t-131.5 -101.5t-89 -168.5t-32.5 -234
q0 -120 32 -213.5t89 -157.5t135.5 -97t171.5 -33q64 0 108.5 11t76 24.5t54 24.5t42.5 11q16 0 29.5 -6t22.5 -16.5t14.5 -24.5t5.5 -30q0 -23 -8 -40.5t-25 -34.5t-48.5 -35.5t-76.5 -34.5t-104 -26.5t-130 -10.5q-138 0 -253 46t-197 132t-127.5 208.5t-45.5 275.5z
M827 1823q14 12 26.5 18t28.5 6q22 0 41 -11.5t34 -29t24 -39t9 -42.5q0 -23 -12.5 -38t-34.5 -28l-255 -158q-12 -7 -22.5 -11t-22.5 -4q-17 0 -31 7t-24 18.5t-16 26t-6 29.5q0 16 7 28.5t26 27.5z" />
    <glyph glyph-name="cacute" unicode="&#x107;" horiz-adv-x="930" 
d="M92 468q0 131 38 235t107 177t164.5 111.5t211.5 38.5q45 0 81.5 -6t64.5 -15.5t47 -21t29 -22.5q15 -14 22 -31.5t7 -41.5q0 -17 -5.5 -31t-15 -24.5t-23.5 -16.5t-31 -6q-18 0 -34.5 6t-37 14t-48.5 14.5t-68 6.5q-59 0 -110.5 -23t-90 -68.5t-60 -113t-21.5 -156.5
q0 -80 22 -142.5t61 -105t93.5 -65.5t119.5 -23q42 0 70.5 6t49 13.5t36 13.5t30.5 6q16 0 28.5 -5.5t21 -15.5t13.5 -23t5 -28q0 -21 -8 -37.5t-23 -31.5q-14 -15 -38 -28.5t-57.5 -23.5t-77 -16.5t-95.5 -6.5q-108 0 -196 34t-150.5 98t-97 154t-34.5 201zM610 1496
q16 21 30.5 30.5t35.5 9.5q19 0 39.5 -9.5t37 -24.5t27.5 -35t11 -42q0 -11 -3.5 -20t-9.5 -16.5t-12.5 -14t-13.5 -12.5l-203 -193q-15 -14 -27.5 -20t-26.5 -6q-17 0 -31 6.5t-25 17.5t-17 24.5t-6 28.5q0 14 7.5 25.5t16.5 23.5z" />
    <glyph glyph-name="Ccircumflex" unicode="&#x108;" horiz-adv-x="1191" 
d="M99 645q0 176 48.5 315.5t136.5 236t209 148t268 51.5q63 0 115 -10t92 -24.5t67 -31t41 -30.5q19 -19 26.5 -37.5t7.5 -43.5q0 -18 -6 -33.5t-17 -26t-26 -17t-33 -6.5q-22 0 -44 12t-52.5 25.5t-74.5 25t-110 11.5q-86 0 -161 -34t-131.5 -101.5t-89 -168.5t-32.5 -234
q0 -120 32 -213.5t89 -157.5t135.5 -97t171.5 -33q64 0 108.5 11t76 24.5t54 24.5t42.5 11q16 0 29.5 -6t22.5 -16.5t14.5 -24.5t5.5 -30q0 -23 -8 -40.5t-25 -34.5t-48.5 -35.5t-76.5 -34.5t-104 -26.5t-130 -10.5q-138 0 -253 46t-197 132t-127.5 208.5t-45.5 275.5z
M507 1509q-14 -10 -24.5 -14.5t-22.5 -4.5q-15 0 -27.5 6t-22 16t-15 22.5t-5.5 26.5q0 15 6.5 27t25.5 31l189 175q22 20 43.5 31.5t52.5 11.5q29 0 51 -11t43 -32l184 -176q16 -15 21.5 -26t5.5 -24q0 -16 -6 -30t-16.5 -24t-24 -16t-28.5 -6q-12 0 -23 4t-27 15l-190 132
z" />
    <glyph glyph-name="ccircumflex" unicode="&#x109;" horiz-adv-x="930" 
d="M92 468q0 131 38 235t107 177t164.5 111.5t211.5 38.5q45 0 81.5 -6t64.5 -15.5t47 -21t29 -22.5q15 -14 22 -31.5t7 -41.5q0 -17 -5.5 -31t-15 -24.5t-23.5 -16.5t-31 -6q-18 0 -34.5 6t-37 14t-48.5 14.5t-68 6.5q-59 0 -110.5 -23t-90 -68.5t-60 -113t-21.5 -156.5
q0 -80 22 -142.5t61 -105t93.5 -65.5t119.5 -23q42 0 70.5 6t49 13.5t36 13.5t30.5 6q16 0 28.5 -5.5t21 -15.5t13.5 -23t5 -28q0 -21 -8 -37.5t-23 -31.5q-14 -15 -38 -28.5t-57.5 -23.5t-77 -16.5t-95.5 -6.5q-108 0 -196 34t-150.5 98t-97 154t-34.5 201zM359 1170
q-15 -12 -25.5 -17t-23.5 -5q-14 0 -26.5 6t-22 15.5t-15.5 22t-6 27.5q0 14 7 25t19 24l190 202q20 21 40.5 32.5t47.5 11.5q26 0 47.5 -11t40.5 -32l182 -197q13 -15 20 -26t7 -24q0 -16 -6.5 -29.5t-17 -23.5t-24 -16t-29.5 -6q-13 0 -24.5 4.5t-27.5 17.5l-176 148z" />
    <glyph glyph-name="Cdotaccent" unicode="&#x10a;" horiz-adv-x="1191" 
d="M99 645q0 176 48.5 315.5t136.5 236t209 148t268 51.5q63 0 115 -10t92 -24.5t67 -31t41 -30.5q19 -19 26.5 -37.5t7.5 -43.5q0 -18 -6 -33.5t-17 -26t-26 -17t-33 -6.5q-22 0 -44 12t-52.5 25.5t-74.5 25t-110 11.5q-86 0 -161 -34t-131.5 -101.5t-89 -168.5t-32.5 -234
q0 -120 32 -213.5t89 -157.5t135.5 -97t171.5 -33q64 0 108.5 11t76 24.5t54 24.5t42.5 11q16 0 29.5 -6t22.5 -16.5t14.5 -24.5t5.5 -30q0 -23 -8 -40.5t-25 -34.5t-48.5 -35.5t-76.5 -34.5t-104 -26.5t-130 -10.5q-138 0 -253 46t-197 132t-127.5 208.5t-45.5 275.5z
M573 1655q0 29 10.5 53t28.5 42t42.5 28t53.5 10t53 -9.5t41.5 -26.5t27 -40.5t9.5 -52.5q0 -28 -10 -52.5t-28 -42.5t-42.5 -28.5t-53.5 -10.5t-53 9.5t-41.5 26.5t-27.5 41.5t-10 52.5z" />
    <glyph glyph-name="cdotaccent" unicode="&#x10b;" horiz-adv-x="930" 
d="M92 468q0 131 38 235t107 177t164.5 111.5t211.5 38.5q45 0 81.5 -6t64.5 -15.5t47 -21t29 -22.5q15 -14 22 -31.5t7 -41.5q0 -17 -5.5 -31t-15 -24.5t-23.5 -16.5t-31 -6q-18 0 -34.5 6t-37 14t-48.5 14.5t-68 6.5q-59 0 -110.5 -23t-90 -68.5t-60 -113t-21.5 -156.5
q0 -80 22 -142.5t61 -105t93.5 -65.5t119.5 -23q42 0 70.5 6t49 13.5t36 13.5t30.5 6q16 0 28.5 -5.5t21 -15.5t13.5 -23t5 -28q0 -21 -8 -37.5t-23 -31.5q-14 -15 -38 -28.5t-57.5 -23.5t-77 -16.5t-95.5 -6.5q-108 0 -196 34t-150.5 98t-97 154t-34.5 201zM411 1320
q0 28 10 52t28.5 42t42.5 28.5t53 10.5t52.5 -10t41 -27t27 -40.5t9.5 -51.5t-10 -52.5t-27.5 -42.5t-42 -28t-53.5 -10t-52.5 9.5t-41.5 26.5t-27.5 41t-9.5 52z" />
    <glyph glyph-name="Ccaron" unicode="&#x10c;" horiz-adv-x="1191" 
d="M99 645q0 176 48.5 315.5t136.5 236t209 148t268 51.5q63 0 115 -10t92 -24.5t67 -31t41 -30.5q19 -19 26.5 -37.5t7.5 -43.5q0 -18 -6 -33.5t-17 -26t-26 -17t-33 -6.5q-22 0 -44 12t-52.5 25.5t-74.5 25t-110 11.5q-86 0 -161 -34t-131.5 -101.5t-89 -168.5t-32.5 -234
q0 -120 32 -213.5t89 -157.5t135.5 -97t171.5 -33q64 0 108.5 11t76 24.5t54 24.5t42.5 11q16 0 29.5 -6t22.5 -16.5t14.5 -24.5t5.5 -30q0 -23 -8 -40.5t-25 -34.5t-48.5 -35.5t-76.5 -34.5t-104 -26.5t-130 -10.5q-138 0 -253 46t-197 132t-127.5 208.5t-45.5 275.5z
M897 1822q15 11 25.5 15t22.5 4q14 0 26.5 -5.5t22.5 -16t15.5 -23t5.5 -26.5q0 -15 -7 -27t-26 -30l-188 -175q-22 -21 -44 -32.5t-52 -11.5t-52 11.5t-43 32.5l-183 175q-16 15 -21.5 26.5t-5.5 24.5q0 16 6 29.5t16.5 24t24 16.5t28.5 6q12 0 23 -4.5t27 -15.5l190 -132z
" />
    <glyph glyph-name="ccaron" unicode="&#x10d;" horiz-adv-x="930" 
d="M92 468q0 131 38 235t107 177t164.5 111.5t211.5 38.5q45 0 81.5 -6t64.5 -15.5t47 -21t29 -22.5q15 -14 22 -31.5t7 -41.5q0 -17 -5.5 -31t-15 -24.5t-23.5 -16.5t-31 -6q-18 0 -34.5 6t-37 14t-48.5 14.5t-68 6.5q-59 0 -110.5 -23t-90 -68.5t-60 -113t-21.5 -156.5
q0 -80 22 -142.5t61 -105t93.5 -65.5t119.5 -23q42 0 70.5 6t49 13.5t36 13.5t30.5 6q16 0 28.5 -5.5t21 -15.5t13.5 -23t5 -28q0 -21 -8 -37.5t-23 -31.5q-14 -15 -38 -28.5t-57.5 -23.5t-77 -16.5t-95.5 -6.5q-108 0 -196 34t-150.5 98t-97 154t-34.5 201zM720 1492
q15 12 25.5 16.5t22.5 4.5q15 0 27.5 -5.5t22.5 -15.5t15.5 -22.5t5.5 -26.5t-6.5 -25t-19.5 -25l-190 -201q-20 -22 -41 -33.5t-47 -11.5t-46.5 11.5t-40.5 32.5l-183 197q-13 14 -20 25.5t-7 24.5q0 15 6 28.5t17 24t24.5 16.5t28.5 6q14 0 25.5 -5t27.5 -18l176 -147z
" />
    <glyph glyph-name="Dcaron" unicode="&#x10e;" horiz-adv-x="1405" 
d="M181 1272q0 50 27.5 78t78.5 28h327q169 0 299 -44.5t218 -128.5t133 -206.5t45 -279.5q0 -168 -49 -301.5t-142.5 -226t-227.5 -142t-303 -49.5h-300q-51 0 -78.5 28t-27.5 78v1166zM600 181q110 0 198 33.5t150 99t95 162.5t33 222q0 126 -30.5 219.5t-90.5 156
t-149 93t-206 30.5h-192v-1016h192zM838 1822q15 11 25.5 15t22.5 4q14 0 26.5 -5.5t22.5 -16t15.5 -23t5.5 -26.5q0 -15 -7 -27t-26 -30l-188 -175q-22 -21 -44 -32.5t-52 -11.5t-52 11.5t-43 32.5l-183 175q-16 15 -21.5 26.5t-5.5 24.5q0 16 6 29.5t16.5 24t24 16.5
t28.5 6q12 0 23 -4.5t27 -15.5l190 -132z" />
    <glyph glyph-name="dcaron" unicode="&#x10f;" horiz-adv-x="1317" 
d="M804 1384q0 47 27 72.5t83 25.5q57 0 84 -25.5t27 -72.5v-1301q0 -44 -23.5 -68t-68.5 -24q-22 0 -39 5.5t-29 16.5t-19 27.5t-11 38.5l-9 60h-3q-31 -44 -76 -79q-38 -29 -97 -54t-141 -25q-93 0 -169 31.5t-130 93.5t-84 155t-30 218q0 131 37.5 233.5t108 173.5
t173 108t232.5 37q34 0 62.5 -3.5t49.5 -6.5q24 -5 45 -11l3 1q-3 57 -3 120v253zM804 819q-20 10 -47 18q-22 7 -55.5 13t-77.5 6q-68 0 -123 -23t-95 -68t-61.5 -111.5t-21.5 -155.5q0 -91 17 -155t48 -104.5t75.5 -59t98.5 -18.5q31 0 57 6.5t48.5 18t41 26t34.5 30.5
q36 35 61 80v497zM1206 1502q10 38 29 55t55 17q21 0 41.5 -6t36 -17.5t25 -26.5t9.5 -32q0 -10 -3.5 -21.5t-10.5 -26.5l-116 -254q-10 -23 -26.5 -33.5t-39.5 -10.5q-14 0 -28 4t-24.5 12t-17 19t-6.5 26q0 8 1.5 17.5t5.5 24.5z" />
    <glyph glyph-name="Dcroat" unicode="&#x110;" horiz-adv-x="1437" 
d="M117 637q-35 0 -55 22t-20 63q0 40 20 61t55 21h96v468q0 50 27.5 78t78.5 28h327q169 0 299 -44.5t218 -128.5t133 -206.5t45 -279.5q0 -168 -49 -301.5t-142.5 -226t-227.5 -142t-303 -49.5h-300q-51 0 -78.5 28t-27.5 78v531h-96zM440 181h192q110 0 198 33.5
t149.5 99t95 162.5t33.5 222q0 126 -30.5 219.5t-90.5 156t-149 93t-206 30.5h-192v-393h233q34 0 54.5 -21.5t20.5 -61.5t-20.5 -62t-54.5 -22h-233v-456z" />
    <glyph glyph-name="dcroat" unicode="&#x111;" horiz-adv-x="1188" 
d="M578 1160q-33 0 -52.5 20t-19.5 57q0 38 19.5 57.5t52.5 19.5h220v90q0 20 7.5 35.5t22 26t35.5 16t46 5.5q26 0 46.5 -5.5t35 -16t22 -26t7.5 -35.5v-90h89q34 0 53 -19.5t19 -57.5q0 -37 -19 -57t-53 -20h-89v-1077q0 -44 -24 -68t-68 -24q-22 0 -39 5.5t-29 16.5
t-19.5 27.5t-10.5 38.5l-9 60h-4q-29 -44 -74 -79q-20 -15 -44 -29t-54 -25t-65 -18t-76 -7q-92 0 -168 31t-130 93t-84 153.5t-30 213.5q0 129 37.5 230t108 171.5t172.5 107.5t232 37q34 0 62.5 -3.5t49.5 -6.5q24 -5 44 -10l3 1q-3 54 -3 114v47h-220zM798 808
q-19 11 -46 19q-23 7 -56 13t-77 6q-67 0 -122.5 -23t-95 -67.5t-61 -110.5t-21.5 -152q0 -89 17 -152t48 -103t75 -58.5t99 -18.5q30 0 56 6.5t48.5 18t41.5 26t34 30.5q36 35 60 80v486z" />
    <glyph glyph-name="Emacron" unicode="&#x112;" horiz-adv-x="1077" 
d="M408 182h504q37 0 59 -23t22 -68t-22 -68t-59 -23h-625q-51 0 -78.5 28t-27.5 78v1166q0 50 27.5 78t78.5 28h620q38 0 60 -23t22 -67q0 -45 -22 -68.5t-60 -23.5h-499v-400h429q37 0 58.5 -23t21.5 -67t-21.5 -67t-58.5 -23h-429v-434zM832 1730q37 0 56 -20.5t19 -61.5
q0 -40 -19 -60.5t-56 -20.5h-516q-36 0 -55.5 20.5t-19.5 60.5q0 41 19.5 61.5t55.5 20.5h516z" />
    <glyph glyph-name="emacron" unicode="&#x113;" horiz-adv-x="1084" 
d="M314 470v-5q4 -73 27 -130t63 -96.5t96.5 -60t124.5 -20.5q55 0 94 8t67.5 16.5t49 16.5t39.5 8q16 0 28.5 -6t21.5 -15.5t13.5 -22t4.5 -27.5q0 -20 -7 -35.5t-22 -31.5q-14 -14 -42 -29.5t-69 -28.5t-95.5 -21.5t-120.5 -8.5q-114 0 -205.5 34t-156 98.5t-99 155
t-34.5 204.5q0 133 36.5 237t101.5 175t154.5 108.5t195.5 37.5q91 0 166 -29.5t128.5 -85.5t83 -136t29.5 -182q0 -65 -30 -96.5t-88 -31.5h-555zM779 620q-14 126 -69 186.5t-153 60.5q-42 0 -79.5 -14.5t-69 -45t-54.5 -77t-34 -110.5h459zM805 1397q37 0 56 -20t19 -60
t-19 -60t-56 -20h-508q-37 0 -56 20t-19 60t19 60t56 20h508z" />
    <glyph glyph-name="Ebreve" unicode="&#x114;" horiz-adv-x="1077" 
d="M408 182h504q37 0 59 -23t22 -68t-22 -68t-59 -23h-625q-51 0 -78.5 28t-27.5 78v1166q0 50 27.5 78t78.5 28h620q38 0 60 -23t22 -67q0 -45 -22 -68.5t-60 -23.5h-499v-400h429q37 0 58.5 -23t21.5 -67t-21.5 -67t-58.5 -23h-429v-434zM278 1755q0 40 21.5 60t56.5 20
q31 0 49 -15t23 -44q11 -60 47.5 -90t105.5 -30q67 0 103.5 31.5t46.5 88.5q6 29 23.5 44t48.5 15q36 0 57 -20t21 -60q0 -55 -24 -102.5t-65.5 -82.5t-97.5 -55t-119 -20q-67 0 -121.5 20t-93.5 55t-60.5 82.5t-21.5 102.5z" />
    <glyph glyph-name="ebreve" unicode="&#x115;" horiz-adv-x="1084" 
d="M314 470v-5q4 -73 27 -130t63 -96.5t96.5 -60t124.5 -20.5q55 0 94 8t67.5 16.5t49 16.5t39.5 8q16 0 28.5 -6t21.5 -15.5t13.5 -22t4.5 -27.5q0 -20 -7 -35.5t-22 -31.5q-14 -14 -42 -29.5t-69 -28.5t-95.5 -21.5t-120.5 -8.5q-114 0 -205.5 34t-156 98.5t-99 155
t-34.5 204.5q0 133 36.5 237t101.5 175t154.5 108.5t195.5 37.5q91 0 166 -29.5t128.5 -85.5t83 -136t29.5 -182q0 -65 -30 -96.5t-88 -31.5h-555zM779 620q-14 126 -69 186.5t-153 60.5q-42 0 -79.5 -14.5t-69 -45t-54.5 -77t-34 -110.5h459zM261 1411q0 37 21 56.5
t56 19.5q28 0 46 -14t23 -43q9 -61 43 -97t103 -36q35 0 60.5 10t42.5 27.5t27 42t15 53.5q3 29 22 43t47 14q34 0 55.5 -19.5t21.5 -56.5q0 -57 -21.5 -106t-60 -85.5t-93.5 -57.5t-123 -21q-59 0 -111 18t-90.5 52.5t-61 84.5t-22.5 115z" />
    <glyph glyph-name="Edotaccent" unicode="&#x116;" horiz-adv-x="1077" 
d="M408 182h504q37 0 59 -23t22 -68t-22 -68t-59 -23h-625q-51 0 -78.5 28t-27.5 78v1166q0 50 27.5 78t78.5 28h620q38 0 60 -23t22 -67q0 -45 -22 -68.5t-60 -23.5h-499v-400h429q37 0 58.5 -23t21.5 -67t-21.5 -67t-58.5 -23h-429v-434zM463 1655q0 29 10.5 53t28.5 42
t42.5 28t53.5 10t53 -9.5t41.5 -26.5t27 -40.5t9.5 -52.5q0 -28 -10 -52.5t-28 -42.5t-42.5 -28.5t-53.5 -10.5t-53 9.5t-41.5 26.5t-27.5 41.5t-10 52.5z" />
    <glyph glyph-name="edotaccent" unicode="&#x117;" horiz-adv-x="1084" 
d="M314 470v-5q4 -73 27 -130t63 -96.5t96.5 -60t124.5 -20.5q55 0 94 8t67.5 16.5t49 16.5t39.5 8q16 0 28.5 -6t21.5 -15.5t13.5 -22t4.5 -27.5q0 -20 -7 -35.5t-22 -31.5q-14 -14 -42 -29.5t-69 -28.5t-95.5 -21.5t-120.5 -8.5q-114 0 -205.5 34t-156 98.5t-99 155
t-34.5 204.5q0 133 36.5 237t101.5 175t154.5 108.5t195.5 37.5q91 0 166 -29.5t128.5 -85.5t83 -136t29.5 -182q0 -65 -30 -96.5t-88 -31.5h-555zM779 620q-14 126 -69 186.5t-153 60.5q-42 0 -79.5 -14.5t-69 -45t-54.5 -77t-34 -110.5h459zM424 1320q0 28 10 52t28.5 42
t42.5 28.5t53 10.5t52.5 -10t41 -27t27 -40.5t9.5 -51.5t-10 -52.5t-27.5 -42.5t-42 -28t-53.5 -10t-52.5 9.5t-41.5 26.5t-27.5 41t-9.5 52z" />
    <glyph glyph-name="Eogonek" unicode="&#x118;" horiz-adv-x="1077" 
d="M408 182h504q37 0 59 -23t22 -68q0 -18 -3.5 -30.5t-8.5 -23t-12.5 -19.5t-15.5 -18q-31 -30 -63.5 -62t-59 -65.5t-43 -66.5t-16.5 -66q0 -39 19 -58t55 -19q17 0 29 2.5t22 5.5t19.5 5.5t20.5 2.5q26 0 41 -16t15 -42q0 -16 -6 -30t-20 -28q-22 -23 -68.5 -39
t-108.5 -16q-52 0 -93 13.5t-68.5 38t-42 59.5t-14.5 78q0 44 19.5 87t50.5 82.5t69 73.5t75 60h-498q-51 0 -78.5 28t-27.5 78v1166q0 50 27.5 78t78.5 28h620q38 0 60 -23t22 -67q0 -45 -22 -68.5t-60 -23.5h-499v-400h429q37 0 58.5 -23t21.5 -67t-21.5 -67t-58.5 -23
h-429v-434z" />
    <glyph glyph-name="eogonek" unicode="&#x119;" horiz-adv-x="1084" 
d="M314 470v-5q3 -74 26 -130.5t63.5 -96t97 -60t124.5 -20.5q55 0 94 8t67.5 16.5t49 16.5t39.5 8q16 0 28.5 -6t21.5 -15.5t13.5 -22t4.5 -27.5q0 -20 -7 -35.5t-22 -31.5q-29 -28 -70.5 -63t-80.5 -76t-66.5 -88t-27.5 -100q0 -40 19.5 -59.5t57.5 -19.5q17 0 29.5 2.5
t23 5.5t20 5.5t20.5 2.5q25 0 40.5 -16t15.5 -42q0 -16 -6 -30t-20 -28q-22 -23 -68.5 -39t-110.5 -16q-53 0 -94.5 13.5t-69.5 38.5t-42 59.5t-14 77.5t15.5 83.5t41.5 78t57.5 69t64.5 56.5q-12 -1 -28 -2t-35 -1q-113 0 -204.5 34t-156 98.5t-99 155t-34.5 204.5
q0 133 36.5 237t101.5 175t154.5 108.5t195.5 37.5q91 0 166 -29.5t128.5 -85.5t83 -136t29.5 -182q0 -65 -30 -96.5t-88 -31.5h-555zM779 620q-14 126 -69 186.5t-153 60.5q-42 0 -79.5 -14.5t-69 -45t-54.5 -77t-34 -110.5h459z" />
    <glyph glyph-name="Ecaron" unicode="&#x11a;" horiz-adv-x="1077" 
d="M408 182h504q37 0 59 -23t22 -68t-22 -68t-59 -23h-625q-51 0 -78.5 28t-27.5 78v1166q0 50 27.5 78t78.5 28h620q38 0 60 -23t22 -67q0 -45 -22 -68.5t-60 -23.5h-499v-400h429q37 0 58.5 -23t21.5 -67t-21.5 -67t-58.5 -23h-429v-434zM774 1822q15 11 25.5 15t22.5 4
q14 0 26.5 -5.5t22.5 -16t15.5 -23t5.5 -26.5q0 -15 -7 -27t-26 -30l-188 -175q-22 -21 -44 -32.5t-52 -11.5t-52 11.5t-43 32.5l-183 175q-16 15 -21.5 26.5t-5.5 24.5q0 16 6 29.5t16.5 24t24 16.5t28.5 6q12 0 23 -4.5t27 -15.5l190 -132z" />
    <glyph glyph-name="ecaron" unicode="&#x11b;" horiz-adv-x="1084" 
d="M314 470v-5q4 -73 27 -130t63 -96.5t96.5 -60t124.5 -20.5q55 0 94 8t67.5 16.5t49 16.5t39.5 8q16 0 28.5 -6t21.5 -15.5t13.5 -22t4.5 -27.5q0 -20 -7 -35.5t-22 -31.5q-14 -14 -42 -29.5t-69 -28.5t-95.5 -21.5t-120.5 -8.5q-114 0 -205.5 34t-156 98.5t-99 155
t-34.5 204.5q0 133 36.5 237t101.5 175t154.5 108.5t195.5 37.5q91 0 166 -29.5t128.5 -85.5t83 -136t29.5 -182q0 -65 -30 -96.5t-88 -31.5h-555zM779 620q-14 126 -69 186.5t-153 60.5q-42 0 -79.5 -14.5t-69 -45t-54.5 -77t-34 -110.5h459zM738 1492q15 12 25.5 16.5
t22.5 4.5q15 0 27.5 -5.5t22.5 -15.5t15.5 -22.5t5.5 -26.5t-6.5 -25t-19.5 -25l-190 -201q-20 -22 -41 -33.5t-47 -11.5t-46.5 11.5t-40.5 32.5l-183 197q-13 14 -20 25.5t-7 24.5q0 15 6 28.5t17 24t24.5 16.5t28.5 6q14 0 25.5 -5t27.5 -18l176 -147z" />
    <glyph glyph-name="Gcircumflex" unicode="&#x11c;" horiz-adv-x="1386" 
d="M807 559q-38 0 -58.5 23.5t-20.5 65.5q0 41 20.5 64.5t58.5 23.5h337q48 0 73.5 -25.5t25.5 -73.5v-430q0 -46 -13 -74.5t-39 -49.5q-21 -16 -56.5 -34.5t-87 -33.5t-119 -24.5t-149.5 -9.5q-158 0 -284 45.5t-213.5 132.5t-135 212.5t-47.5 284.5q0 170 51 307
t145.5 233t230 148t304.5 52q75 0 136.5 -11.5t108 -27.5t77.5 -35t45 -33q19 -18 26.5 -36t7.5 -44q0 -19 -6.5 -34t-17 -25.5t-26 -16.5t-33.5 -6q-23 0 -47.5 12.5t-62 28.5t-93 29t-141.5 13q-105 0 -192 -34.5t-149 -102t-96 -165.5t-34 -225q0 -129 34 -226.5
t97 -163.5t151.5 -99t197.5 -33q55 0 94.5 5.5t66.5 13.5q31 8 51 19v360h-218zM566 1509q-14 -10 -24.5 -14.5t-22.5 -4.5q-15 0 -27.5 6t-22 16t-15 22.5t-5.5 26.5q0 15 6.5 27t25.5 31l189 175q22 20 43.5 31.5t52.5 11.5q29 0 51 -11t43 -32l184 -176q16 -15 21.5 -26
t5.5 -24q0 -16 -6 -30t-16.5 -24t-24 -16t-28.5 -6q-12 0 -23 4t-27 15l-190 132z" />
    <glyph glyph-name="gcircumflex" unicode="&#x11d;" horiz-adv-x="1183" 
d="M1021 43q0 -135 -33.5 -235.5t-102.5 -166.5t-173.5 -99.5t-245.5 -33.5q-93 0 -159.5 16t-95.5 44q-11 12 -17.5 25.5t-6.5 34.5q0 39 22.5 58.5t54.5 19.5q17 0 34 -4.5t39.5 -9.5t53.5 -9.5t74 -4.5q88 0 151 19t104 58t60.5 98.5t19.5 139.5q1 33 2 63t5 65h-3
q-30 -40 -73 -70q-37 -26 -93 -48t-133 -22q-93 0 -169 31.5t-130 93.5t-84 155t-30 218q0 131 37.5 233.5t108 173.5t173 108t232.5 37q72 0 130 -9t101.5 -22.5t72 -29t41.5 -27.5q8 -9 14.5 -18t10.5 -20t6 -24.5t2 -32.5v-805zM800 819q-19 10 -46 18q-22 7 -55.5 13
t-78.5 6q-68 0 -123 -23t-95 -68t-61.5 -111.5t-21.5 -155.5q0 -91 17 -155t48 -104.5t75.5 -59t98.5 -18.5q31 0 57 6.5t48.5 18t41 26t34.5 30.5q36 35 61 80v497zM431 1170q-15 -12 -25.5 -17t-23.5 -5q-14 0 -26.5 6t-22 15.5t-15.5 22t-6 27.5q0 14 7 25t19 24l190 202
q20 21 40.5 32.5t47.5 11.5q26 0 47.5 -11t40.5 -32l182 -197q13 -15 20 -26t7 -24q0 -16 -6.5 -29.5t-17 -23.5t-24 -16t-29.5 -6q-13 0 -24.5 4.5t-27.5 17.5l-176 148z" />
    <glyph glyph-name="Gbreve" unicode="&#x11e;" horiz-adv-x="1386" 
d="M807 559q-38 0 -58.5 23.5t-20.5 65.5q0 41 20.5 64.5t58.5 23.5h337q48 0 73.5 -25.5t25.5 -73.5v-430q0 -46 -13 -74.5t-39 -49.5q-21 -16 -56.5 -34.5t-87 -33.5t-119 -24.5t-149.5 -9.5q-158 0 -284 45.5t-213.5 132.5t-135 212.5t-47.5 284.5q0 170 51 307
t145.5 233t230 148t304.5 52q75 0 136.5 -11.5t108 -27.5t77.5 -35t45 -33q19 -18 26.5 -36t7.5 -44q0 -19 -6.5 -34t-17 -25.5t-26 -16.5t-33.5 -6q-23 0 -47.5 12.5t-62 28.5t-93 29t-141.5 13q-105 0 -192 -34.5t-149 -102t-96 -165.5t-34 -225q0 -129 34 -226.5
t97 -163.5t151.5 -99t197.5 -33q55 0 94.5 5.5t66.5 13.5q31 8 51 19v360h-218zM436 1755q0 40 21.5 60t56.5 20q31 0 49 -15t23 -44q11 -60 47.5 -90t105.5 -30q67 0 103.5 31.5t46.5 88.5q6 29 23.5 44t48.5 15q36 0 57 -20t21 -60q0 -55 -24 -102.5t-65.5 -82.5
t-97.5 -55t-119 -20q-67 0 -121.5 20t-93.5 55t-60.5 82.5t-21.5 102.5z" />
    <glyph glyph-name="gbreve" unicode="&#x11f;" horiz-adv-x="1183" 
d="M1021 43q0 -135 -33.5 -235.5t-102.5 -166.5t-173.5 -99.5t-245.5 -33.5q-93 0 -159.5 16t-95.5 44q-11 12 -17.5 25.5t-6.5 34.5q0 39 22.5 58.5t54.5 19.5q17 0 34 -4.5t39.5 -9.5t53.5 -9.5t74 -4.5q88 0 151 19t104 58t60.5 98.5t19.5 139.5q1 33 2 63t5 65h-3
q-30 -40 -73 -70q-37 -26 -93 -48t-133 -22q-93 0 -169 31.5t-130 93.5t-84 155t-30 218q0 131 37.5 233.5t108 173.5t173 108t232.5 37q72 0 130 -9t101.5 -22.5t72 -29t41.5 -27.5q8 -9 14.5 -18t10.5 -20t6 -24.5t2 -32.5v-805zM800 819q-19 10 -46 18q-22 7 -55.5 13
t-78.5 6q-68 0 -123 -23t-95 -68t-61.5 -111.5t-21.5 -155.5q0 -91 17 -155t48 -104.5t75.5 -59t98.5 -18.5q31 0 57 6.5t48.5 18t41 26t34.5 30.5q36 35 61 80v497zM325 1411q0 37 21 56.5t56 19.5q28 0 46 -14t23 -43q9 -61 43 -97t103 -36q35 0 60.5 10t42.5 27.5t27 42
t15 53.5q3 29 22 43t47 14q34 0 55.5 -19.5t21.5 -56.5q0 -57 -21.5 -106t-60 -85.5t-93.5 -57.5t-123 -21q-59 0 -111 18t-90.5 52.5t-61 84.5t-22.5 115z" />
    <glyph glyph-name="Gdotaccent" unicode="&#x120;" horiz-adv-x="1386" 
d="M807 559q-38 0 -58.5 23.5t-20.5 65.5q0 41 20.5 64.5t58.5 23.5h337q48 0 73.5 -25.5t25.5 -73.5v-430q0 -46 -13 -74.5t-39 -49.5q-21 -16 -56.5 -34.5t-87 -33.5t-119 -24.5t-149.5 -9.5q-158 0 -284 45.5t-213.5 132.5t-135 212.5t-47.5 284.5q0 170 51 307
t145.5 233t230 148t304.5 52q75 0 136.5 -11.5t108 -27.5t77.5 -35t45 -33q19 -18 26.5 -36t7.5 -44q0 -19 -6.5 -34t-17 -25.5t-26 -16.5t-33.5 -6q-23 0 -47.5 12.5t-62 28.5t-93 29t-141.5 13q-105 0 -192 -34.5t-149 -102t-96 -165.5t-34 -225q0 -129 34 -226.5
t97 -163.5t151.5 -99t197.5 -33q55 0 94.5 5.5t66.5 13.5q31 8 51 19v360h-218zM610 1655q0 29 10.5 53t28.5 42t42.5 28t53.5 10t53 -9.5t41.5 -26.5t27 -40.5t9.5 -52.5q0 -28 -10 -52.5t-28 -42.5t-42.5 -28.5t-53.5 -10.5t-53 9.5t-41.5 26.5t-27.5 41.5t-10 52.5z" />
    <glyph glyph-name="gdotaccent" unicode="&#x121;" horiz-adv-x="1183" 
d="M1021 43q0 -135 -33.5 -235.5t-102.5 -166.5t-173.5 -99.5t-245.5 -33.5q-93 0 -159.5 16t-95.5 44q-11 12 -17.5 25.5t-6.5 34.5q0 39 22.5 58.5t54.5 19.5q17 0 34 -4.5t39.5 -9.5t53.5 -9.5t74 -4.5q88 0 151 19t104 58t60.5 98.5t19.5 139.5q1 33 2 63t5 65h-3
q-30 -40 -73 -70q-37 -26 -93 -48t-133 -22q-93 0 -169 31.5t-130 93.5t-84 155t-30 218q0 131 37.5 233.5t108 173.5t173 108t232.5 37q72 0 130 -9t101.5 -22.5t72 -29t41.5 -27.5q8 -9 14.5 -18t10.5 -20t6 -24.5t2 -32.5v-805zM800 819q-19 10 -46 18q-22 7 -55.5 13
t-78.5 6q-68 0 -123 -23t-95 -68t-61.5 -111.5t-21.5 -155.5q0 -91 17 -155t48 -104.5t75.5 -59t98.5 -18.5q31 0 57 6.5t48.5 18t41 26t34.5 30.5q36 35 61 80v497zM502 1320q0 28 10 52t28.5 42t42.5 28.5t53 10.5t52.5 -10t41 -27t27 -40.5t9.5 -51.5t-10 -52.5
t-27.5 -42.5t-42 -28t-53.5 -10t-52.5 9.5t-41.5 26.5t-27.5 41t-9.5 52z" />
    <glyph glyph-name="Gcommaaccent" unicode="&#x122;" horiz-adv-x="1386" 
d="M807 559q-38 0 -58.5 23.5t-20.5 65.5q0 41 20.5 64.5t58.5 23.5h337q48 0 73.5 -25.5t25.5 -73.5v-430q0 -46 -13 -74.5t-39 -49.5q-21 -16 -56.5 -34.5t-87 -33.5t-119 -24.5t-149.5 -9.5q-158 0 -284 45.5t-213.5 132.5t-135 212.5t-47.5 284.5q0 170 51 307
t145.5 233t230 148t304.5 52q75 0 136.5 -11.5t108 -27.5t77.5 -35t45 -33q19 -18 26.5 -36t7.5 -44q0 -19 -6.5 -34t-17 -25.5t-26 -16.5t-33.5 -6q-23 0 -47.5 12.5t-62 28.5t-93 29t-141.5 13q-105 0 -192 -34.5t-149 -102t-96 -165.5t-34 -225q0 -129 34 -226.5
t97 -163.5t151.5 -99t197.5 -33q55 0 94.5 5.5t66.5 13.5q31 8 51 19v360h-218zM633 -233q0 26 9.5 48t26.5 38.5t40 25.5t49 9q27 0 49 -8.5t37 -25t23.5 -39.5t8.5 -50q0 -40 -16 -74.5t-42.5 -63t-61.5 -51t-71.5 -39t-72.5 -24.5t-65 -8q-42 0 -63.5 16t-21.5 44
q0 23 16 38q13 13 33 21.5t44 18.5t49.5 24.5t50.5 39.5q-10 12 -16 26.5t-6 33.5z" />
    <glyph glyph-name="gcommaaccent" unicode="&#x123;" horiz-adv-x="1183" 
d="M1021 43q0 -135 -33.5 -235.5t-102.5 -166.5t-173.5 -99.5t-245.5 -33.5q-93 0 -159.5 16t-95.5 44q-11 12 -17.5 25.5t-6.5 34.5q0 39 22.5 58.5t54.5 19.5q17 0 34 -4.5t39.5 -9.5t53.5 -9.5t74 -4.5q88 0 151 19t104 58t60.5 98.5t19.5 139.5q1 33 2 63t5 65h-3
q-30 -40 -73 -70q-37 -26 -93 -48t-133 -22q-93 0 -169 31.5t-130 93.5t-84 155t-30 218q0 131 37.5 233.5t108 173.5t173 108t232.5 37q72 0 130 -9t101.5 -22.5t72 -29t41.5 -27.5q8 -9 14.5 -18t10.5 -20t6 -24.5t2 -32.5v-805zM800 819q-19 10 -46 18q-22 7 -55.5 13
t-78.5 6q-68 0 -123 -23t-95 -68t-61.5 -111.5t-21.5 -155.5q0 -91 17 -155t48 -104.5t75.5 -59t98.5 -18.5q31 0 57 6.5t48.5 18t41 26t34.5 30.5q36 35 61 80v497zM475 1265q0 39 16.5 73.5t43 63.5t61.5 51.5t71.5 38.5t72.5 24t65 8q42 0 63.5 -16t21.5 -43
q0 -23 -16 -39q-13 -13 -33.5 -21.5t-44 -18t-49 -24t-50.5 -40.5q10 -11 15.5 -25.5t5.5 -33.5q0 -26 -9.5 -48t-26 -38.5t-39.5 -26t-50 -9.5q-26 0 -48 9t-37.5 25t-24 39t-8.5 51z" />
    <glyph glyph-name="Hcircumflex" unicode="&#x124;" horiz-adv-x="1435" 
d="M408 94q0 -48 -27.5 -74.5t-86.5 -26.5q-57 0 -85 26.5t-28 74.5v1190q0 48 28 74.5t85 26.5q59 0 86.5 -26.5t27.5 -74.5v-486h619v486q0 48 28 74.5t86 26.5q57 0 85 -26.5t28 -74.5v-1190q0 -48 -28 -74.5t-85 -26.5q-58 0 -86 26.5t-28 74.5v519h-619v-519zM526 1509
q-14 -10 -24.5 -14.5t-22.5 -4.5q-15 0 -27.5 6t-22 16t-15 22.5t-5.5 26.5q0 15 6.5 27t25.5 31l189 175q22 20 43.5 31.5t52.5 11.5q29 0 51 -11t43 -32l184 -176q16 -15 21.5 -26t5.5 -24q0 -16 -6 -30t-16.5 -24t-24 -16t-28.5 -6q-12 0 -23 4t-27 15l-190 132z" />
    <glyph glyph-name="hcircumflex" unicode="&#x125;" horiz-adv-x="1211" 
d="M162 1384q0 47 27.5 72.5t83.5 25.5t83.5 -25.5t27.5 -72.5v-349q0 -36 -1.5 -70.5t-6.5 -73.5h3q30 39 74 69q18 13 41.5 25.5t52 23t61.5 16t71 5.5q88 0 158 -26.5t119.5 -79t75.5 -129.5t26 -178v-525q0 -47 -27.5 -73t-83.5 -26t-83.5 26t-27.5 73v496
q0 69 -14 118.5t-41.5 81.5t-67 47.5t-89.5 15.5q-30 0 -56 -7.5t-49 -18.5t-41.5 -25.5t-33.5 -29.5q-36 -36 -60 -80v-598q0 -47 -27.5 -73t-83.5 -26t-83.5 26t-27.5 73v1292zM81 1572q-14 -10 -24.5 -14.5t-22.5 -4.5q-15 0 -27.5 6t-22 16t-15 22.5t-5.5 26.5
q0 15 6.5 27t25.5 31l189 175q22 20 43.5 31.5t52.5 11.5q29 0 51 -11t43 -32l184 -176q16 -15 21.5 -26t5.5 -24q0 -16 -6 -30t-16.5 -24t-24 -16t-28.5 -6q-12 0 -23 4t-27 15l-190 132z" />
    <glyph glyph-name="Hbar" unicode="&#x126;" horiz-adv-x="1499" 
d="M440 94q0 -48 -28 -74.5t-86 -26.5q-57 0 -85 26.5t-28 74.5v870h-98q-33 0 -53 21.5t-20 61.5q0 41 20 62t53 21h98v154q0 48 28 74.5t85 26.5q58 0 86 -26.5t28 -74.5v-154h619v154q0 48 28 74.5t85 26.5q58 0 86 -26.5t28 -74.5v-154h97q34 0 54 -21t20 -61t-20 -62
t-54 -22h-97v-870q0 -48 -28 -74.5t-86 -26.5q-57 0 -85 26.5t-28 74.5v496h-619v-496zM440 772h619v192h-619v-192z" />
    <glyph glyph-name="hbar" unicode="&#x127;" horiz-adv-x="1217" 
d="M78 1160q-32 0 -52 20t-20 57q0 38 20 57.5t52 19.5h89v90q0 20 7.5 35.5t22 26t35.5 16t46 5.5q26 0 46.5 -5.5t35 -16t22 -26t7.5 -35.5v-90h218q33 0 52.5 -19.5t19.5 -57.5q0 -37 -19.5 -57t-52.5 -20h-218v-147q0 -34 -1.5 -65t-5.5 -67h3q30 38 73 69
q19 13 42 25.5t51.5 23t61.5 16t72 5.5q87 0 157.5 -26.5t119.5 -79.5t75.5 -130t26.5 -178v-514q0 -47 -27.5 -73t-83.5 -26t-83.5 26t-27.5 73v485q0 69 -14.5 119t-41.5 82t-66.5 47t-90.5 15q-30 0 -56 -7t-49 -18t-41.5 -26t-33.5 -29q-36 -36 -60 -81v-587
q0 -47 -27.5 -73t-83.5 -26t-83.5 26t-27.5 73v1068h-89z" />
    <glyph glyph-name="Itilde" unicode="&#x128;" horiz-adv-x="589" 
d="M181 1284q0 48 28 74.5t85 26.5q59 0 86.5 -26.5t27.5 -74.5v-1190q0 -48 -27.5 -74.5t-86.5 -26.5q-57 0 -85 26.5t-28 74.5v1190zM147 1618q-31 0 -50 -12.5t-34 -27.5t-30 -27.5t-38 -12.5q-26 0 -45.5 17t-19.5 51q0 26 16.5 57t46 58.5t72 46t95.5 18.5
q50 0 89.5 -15t73 -33.5t64 -33.5t62.5 -15t51 12.5t34 27.5t30 27.5t38 12.5q26 0 45 -17t19 -51q0 -25 -16 -56.5t-46 -59t-72.5 -46t-95.5 -18.5q-50 0 -89.5 15.5t-73 33.5t-64 33t-62.5 15z" />
    <glyph glyph-name="itilde" unicode="&#x129;" horiz-adv-x="545" 
d="M162 920q0 47 27.5 72.5t83.5 25.5t83.5 -25.5t27.5 -72.5v-828q0 -47 -27.5 -73t-83.5 -26t-83.5 26t-27.5 73v828zM149 1286q-26 0 -41 -13.5t-28 -29.5t-27.5 -29t-38.5 -13q-27 0 -45 17.5t-18 50.5q0 29 14.5 61.5t41.5 59.5t65 45t85 18q49 0 84 -16t62.5 -35.5
t51 -35.5t48.5 -16t40 13t28 29t27.5 29.5t39.5 13.5q27 0 45.5 -17.5t18.5 -50.5q0 -29 -15 -61.5t-42 -60t-65 -45.5t-85 -18q-49 0 -84 16.5t-62.5 35.5t-51 35.5t-48.5 16.5z" />
    <glyph glyph-name="Imacron" unicode="&#x12a;" horiz-adv-x="589" 
d="M181 1284q0 48 28 74.5t85 26.5q59 0 86.5 -26.5t27.5 -74.5v-1190q0 -48 -27.5 -74.5t-86.5 -26.5q-57 0 -85 26.5t-28 74.5v1190zM555 1730q37 0 56 -20.5t19 -61.5q0 -40 -19 -60.5t-56 -20.5h-516q-36 0 -55.5 20.5t-19.5 60.5q0 41 19.5 61.5t55.5 20.5h516z" />
    <glyph glyph-name="imacron" unicode="&#x12b;" horiz-adv-x="545" 
d="M162 920q0 47 27.5 72.5t83.5 25.5t83.5 -25.5t27.5 -72.5v-828q0 -47 -27.5 -73t-83.5 -26t-83.5 26t-27.5 73v828zM491 1397q37 0 55.5 -20t18.5 -60t-18.5 -60t-55.5 -20h-434q-37 0 -55.5 20t-18.5 59q0 40 18.5 60.5t55.5 20.5h434z" />
    <glyph glyph-name="Ibreve" unicode="&#x12c;" horiz-adv-x="589" 
d="M181 1284q0 48 28 74.5t85 26.5q59 0 86.5 -26.5t27.5 -74.5v-1190q0 -48 -27.5 -74.5t-86.5 -26.5q-57 0 -85 26.5t-28 74.5v1190zM-5 1755q0 40 21.5 60t56.5 20q31 0 49 -15t23 -44q11 -60 47.5 -90t105.5 -30q67 0 103.5 31.5t46.5 88.5q6 29 23.5 44t48.5 15
q36 0 57 -20t21 -60q0 -55 -24 -102.5t-65.5 -82.5t-97.5 -55t-119 -20q-67 0 -121.5 20t-93.5 55t-60.5 82.5t-21.5 102.5z" />
    <glyph glyph-name="ibreve" unicode="&#x12d;" horiz-adv-x="545" 
d="M162 920q0 47 27.5 72.5t83.5 25.5t83.5 -25.5t27.5 -72.5v-828q0 -47 -27.5 -73t-83.5 -26t-83.5 26t-27.5 73v828zM-6 1411q0 37 21 56.5t56 19.5q28 0 46 -14t23 -43q9 -61 39.5 -97t95.5 -36q33 0 56.5 10t39.5 27.5t25 42t14 53.5q3 29 22 43t46 14q35 0 56 -19.5
t21 -56.5q0 -57 -20 -106t-58 -85.5t-90.5 -57.5t-118.5 -21q-57 0 -107 18t-87 52.5t-58.5 84.5t-21.5 115z" />
    <glyph glyph-name="Iogonek" unicode="&#x12e;" horiz-adv-x="589" 
d="M181 1284q0 48 28 74.5t85 26.5q59 0 86.5 -26.5t27.5 -74.5v-1190q0 -28 -8 -46.5t-30 -40.5q-20 -21 -42 -50t-39.5 -62.5t-29 -70t-11.5 -72.5q0 -48 20 -68.5t58 -20.5q17 0 29 2.5t22.5 5.5t20 5.5t20.5 2.5q26 0 41 -16t15 -42q0 -16 -6 -30t-19 -28
q-23 -23 -69.5 -39t-109.5 -16q-54 0 -95 14t-69.5 39.5t-43 62t-14.5 82.5q0 43 15.5 86.5t39.5 84.5t54.5 76t60.5 60q-7 4 -13 11t-12 16.5t-9 22.5t-3 31v1190z" />
    <glyph glyph-name="iogonek" unicode="&#x12f;" horiz-adv-x="545" 
d="M162 920q0 47 27.5 72.5t83.5 25.5t83.5 -25.5t27.5 -72.5v-828q0 -15 -2 -25.5t-6.5 -20t-11.5 -18.5t-17 -20q-20 -23 -41.5 -52t-39.5 -62.5t-29 -69.5t-11 -72q0 -48 20 -68.5t58 -20.5q17 0 29.5 2.5t22.5 5.5t19.5 5.5t20.5 2.5q26 0 41 -16t15 -42q0 -16 -6 -30
t-19 -28q-23 -23 -69.5 -39t-109.5 -16q-54 0 -95 14t-69 39.5t-42.5 62t-14.5 82.5q0 43 15.5 87t39.5 84.5t54.5 76t60.5 60.5q-16 11 -25.5 29.5t-9.5 48.5v828zM132 1318q0 29 10.5 54.5t29 43.5t45 29t58.5 11q30 0 55.5 -11t44 -28.5t29 -42t10.5 -52.5
q0 -30 -10.5 -55t-29.5 -43.5t-45 -29t-58 -10.5q-30 0 -55.5 10.5t-44 28.5t-29 42t-10.5 53z" />
    <glyph glyph-name="Idotaccent" unicode="&#x130;" horiz-adv-x="589" 
d="M181 1284q0 48 28 74.5t85 26.5q59 0 86.5 -26.5t27.5 -74.5v-1190q0 -48 -27.5 -74.5t-86.5 -26.5q-57 0 -85 26.5t-28 74.5v1190zM165 1655q0 29 10.5 53t28.5 42t42.5 28t53.5 10t53 -9.5t41.5 -26.5t27 -40.5t9.5 -52.5q0 -28 -10 -52.5t-28 -42.5t-42.5 -28.5
t-53.5 -10.5t-53 9.5t-41.5 26.5t-27.5 41.5t-10 52.5z" />
    <glyph glyph-name="dotlessi" unicode="&#x131;" horiz-adv-x="545" 
d="M162 920q0 47 27.5 72.5t83.5 25.5t83.5 -25.5t27.5 -72.5v-828q0 -47 -27.5 -73t-83.5 -26t-83.5 26t-27.5 73v828z" />
    <glyph glyph-name="IJ" unicode="&#x132;" horiz-adv-x="1186" 
d="M181 1284q0 48 28 74.5t85 26.5q59 0 86.5 -26.5t27.5 -74.5v-1190q0 -48 -27.5 -74.5t-86.5 -26.5q-57 0 -85 26.5t-28 74.5v1190zM778 1284q0 48 28 74.5t86 26.5t85.5 -26.5t27.5 -74.5v-1112q0 -90 -8 -158t-24 -121t-41.5 -93.5t-59.5 -74.5q-55 -55 -116.5 -82
t-115.5 -27q-50 0 -74.5 23.5t-24.5 59.5q0 28 12 46.5t35 31.5q42 23 76.5 48.5t60 62t39.5 90.5t14 135v1171z" />
    <glyph glyph-name="ij" unicode="&#x133;" horiz-adv-x="1093" 
d="M162 920q0 47 27.5 72.5t83.5 25.5t83.5 -25.5t27.5 -72.5v-828q0 -47 -27.5 -73t-83.5 -26t-83.5 26t-27.5 73v828zM132 1318q0 29 10.5 54.5t29 43.5t45 29t58.5 11q30 0 55.5 -11t44 -28.5t29 -42t10.5 -52.5q0 -30 -10.5 -55t-29.5 -43.5t-45 -29t-58 -10.5
q-30 0 -55.5 10.5t-44 28.5t-29 42t-10.5 53zM709 920q0 47 27 72.5t83 25.5t83.5 -25.5t27.5 -72.5v-922q0 -73 -10 -132.5t-28 -106t-41.5 -82t-50.5 -61.5q-47 -47 -100 -71.5t-102 -24.5q-22 0 -40 6t-30.5 17t-19.5 26t-7 34q0 24 10 41t30 30q42 27 73 54.5t52 65
t32 90.5t11 131v905zM678 1318q0 29 10.5 54.5t29 43.5t45 29t58.5 11q30 0 56 -11t44.5 -28.5t29 -42t10.5 -52.5q0 -30 -10.5 -55t-29.5 -43.5t-45.5 -29t-58.5 -10.5q-30 0 -55.5 10.5t-44 28.5t-29 42t-10.5 53z" />
    <glyph glyph-name="Jcircumflex" unicode="&#x134;" horiz-adv-x="597" 
d="M189 1284q0 48 28 74.5t86 26.5t85.5 -26.5t27.5 -74.5v-1112q0 -90 -8 -158t-24 -121t-41.5 -93.5t-59.5 -74.5q-55 -55 -116.5 -82t-115.5 -27q-50 0 -74.5 23.5t-24.5 59.5q0 28 12 46.5t35 31.5q42 23 76.5 48.5t60 62t39.5 90.5t14 135v1171zM110 1509
q-14 -10 -24.5 -14.5t-22.5 -4.5q-15 0 -27.5 6t-22 16t-15 22.5t-5.5 26.5q0 15 6.5 27t25.5 31l189 175q22 20 43.5 31.5t52.5 11.5q29 0 51 -11t43 -32l184 -176q16 -15 21.5 -26t5.5 -24q0 -16 -6 -30t-16.5 -24t-24 -16t-28.5 -6q-12 0 -23 4t-27 15l-190 132z" />
    <glyph glyph-name="jcircumflex" unicode="&#x135;" horiz-adv-x="547" 
d="M164 920q0 47 27 72.5t83 25.5t83.5 -25.5t27.5 -72.5v-922q0 -73 -10 -132.5t-28 -106t-41.5 -82t-50.5 -61.5q-47 -47 -100 -71.5t-102 -24.5q-22 0 -40 6t-30.5 17t-19.5 26t-7 34q0 24 10 41t30 30q42 27 73 54.5t52 65t32 90.5t11 131v905zM93 1170
q-15 -12 -25.5 -17t-23.5 -5q-14 0 -26.5 6t-22 15.5t-15.5 22t-6 27.5q0 14 7 25t19 24l190 202q20 21 40.5 32.5t47.5 11.5q26 0 47.5 -11t40.5 -32l182 -197q13 -15 20 -26t7 -24q0 -16 -6.5 -29.5t-17 -23.5t-24 -16t-29.5 -6q-13 0 -24.5 4.5t-27.5 17.5l-176 148z" />
    <glyph glyph-name="Kcommaaccent" unicode="&#x136;" horiz-adv-x="1183" 
d="M910 1320q11 12 18.5 20.5t13.5 14.5q14 14 32 23.5t40 9.5q24 0 45.5 -9t38 -23.5t27 -34t10.5 -41.5q0 -18 -6.5 -34.5t-22.5 -33.5l-457 -490l455 -532q7 -8 14.5 -17.5t13 -20t9 -21.5t3.5 -24q0 -24 -11 -45t-29 -37t-40.5 -25.5t-45.5 -9.5q-22 0 -40.5 8t-31.5 21
q-8 8 -15 16t-19 23l-504 606v-570q0 -48 -27.5 -74.5t-86.5 -26.5q-57 0 -85 26.5t-28 74.5v1190q0 48 28 74.5t85 26.5q59 0 86.5 -26.5t27.5 -74.5v-543zM520 -233q0 26 9.5 48t26.5 38.5t40 25.5t49 9q27 0 49 -8.5t37 -25t23.5 -39.5t8.5 -50q0 -40 -16 -74.5
t-42.5 -63t-61.5 -51t-71.5 -39t-72.5 -24.5t-65 -8q-42 0 -63.5 16t-21.5 44q0 23 16 38q13 13 33 21.5t44 18.5t49.5 24.5t50.5 39.5q-10 12 -16 26.5t-6 33.5z" />
    <glyph glyph-name="kcommaaccent" unicode="&#x137;" horiz-adv-x="1037" 
d="M750 955l22.5 22.5l16.5 16.5q14 13 31 20t38 7q22 0 42 -8.5t35.5 -23t24.5 -33t9 -37.5t-9 -37.5t-30 -38.5l-305 -283l326 -383q17 -19 25 -37t8 -38q0 -24 -10.5 -44.5t-28 -35.5t-39 -23.5t-44.5 -8.5q-20 0 -37 7.5t-31 22.5q-9 9 -16.5 17.5t-17.5 21.5l-376 469
v-436q0 -47 -27.5 -73t-83.5 -26t-83.5 26t-27.5 73v1292q0 47 27.5 72.5t83.5 25.5t83.5 -25.5t27.5 -72.5v-799zM456 -233q0 26 9.5 48t26.5 38.5t40 25.5t49 9q27 0 49 -8.5t37 -25t23.5 -39.5t8.5 -50q0 -40 -16 -74.5t-42.5 -63t-61.5 -51t-71.5 -39t-72.5 -24.5
t-65 -8q-42 0 -63.5 16t-21.5 44q0 23 16 38q13 13 33 21.5t44 18.5t49.5 24.5t50.5 39.5q-10 12 -16 26.5t-6 33.5z" />
    <glyph glyph-name="kgreenlandic" unicode="&#x138;" horiz-adv-x="1030" 
d="M763 967q6 6 10.5 11.5t10.5 11.5q32 31 73 31q21 0 41.5 -8t36 -22.5t24.5 -32.5t9 -38q0 -26 -13 -45.5t-31 -37.5l-302 -307l311 -342q17 -20 31.5 -41t14.5 -47q0 -21 -10 -40.5t-27 -35t-39 -25t-46 -9.5q-22 0 -39 8.5t-34 25.5q-7 6 -14 13.5t-21 24.5l-365 431
v-401q0 -47 -27.5 -73t-83.5 -26t-83.5 26t-27.5 73v828q0 47 27.5 72.5t83.5 25.5t83.5 -25.5t27.5 -72.5v-371z" />
    <glyph glyph-name="Lacute" unicode="&#x139;" horiz-adv-x="998" 
d="M891 186q39 0 61 -23t22 -70t-22 -70t-61 -23h-604q-51 0 -78.5 28t-27.5 78v1178q0 48 28 74.5t85 26.5q59 0 86.5 -26.5t27.5 -74.5v-1098h483zM536 1823q14 12 26.5 18t28.5 6q22 0 41 -11.5t34 -29t24 -39t9 -42.5q0 -23 -12.5 -38t-34.5 -28l-255 -158
q-12 -7 -22.5 -11t-22.5 -4q-17 0 -31 7t-24 18.5t-16 26t-6 29.5q0 16 7 28.5t26 27.5z" />
    <glyph glyph-name="lacute" unicode="&#x13a;" horiz-adv-x="588" 
d="M158 1384q0 47 27.5 72.5t83.5 25.5t83.5 -25.5t27.5 -72.5v-1078q0 -41 5.5 -68.5t16 -43t25 -22t32.5 -6.5q16 0 28 1.5t24 1.5t23 -4.5t18.5 -13t12.5 -21t5 -27.5q0 -24 -7.5 -40t-19.5 -28q-8 -9 -20.5 -17t-30 -14.5t-41 -10.5t-54.5 -4q-117 0 -178 63.5
t-61 193.5v1138zM382 1925q14 12 26.5 18t28.5 6q22 0 41 -11.5t34 -29t24 -39t9 -42.5q0 -23 -12.5 -38t-34.5 -28l-255 -158q-12 -7 -22.5 -11t-22.5 -4q-17 0 -31 7t-24 18.5t-16 26t-6 29.5q0 16 7 28.5t26 27.5z" />
    <glyph glyph-name="Lcommaaccent" unicode="&#x13b;" horiz-adv-x="998" 
d="M891 186q39 0 61 -23t22 -70t-22 -70t-61 -23h-604q-51 0 -78.5 28t-27.5 78v1178q0 48 28 74.5t85 26.5q59 0 86.5 -26.5t27.5 -74.5v-1098h483zM469 -233q0 26 9.5 48t26.5 38.5t40 25.5t49 9q27 0 49 -8.5t37 -25t23.5 -39.5t8.5 -50q0 -40 -16 -74.5t-42.5 -63
t-61.5 -51t-71.5 -39t-72.5 -24.5t-65 -8q-42 0 -63.5 16t-21.5 44q0 23 16 38q13 13 33 21.5t44 18.5t49.5 24.5t50.5 39.5q-10 12 -16 26.5t-6 33.5z" />
    <glyph glyph-name="lcommaaccent" unicode="&#x13c;" horiz-adv-x="588" 
d="M158 1384q0 47 27.5 72.5t83.5 25.5t83.5 -25.5t27.5 -72.5v-1078q0 -41 5.5 -68.5t16 -43t25 -22t32.5 -6.5q16 0 28 1.5t24 1.5t23 -4.5t18.5 -13t12.5 -21t5 -27.5q0 -24 -7.5 -40t-19.5 -28q-8 -9 -20.5 -17t-30 -14.5t-41 -10.5t-54.5 -4q-117 0 -178 63.5
t-61 193.5v1138zM225 -233q0 26 9.5 48t26.5 38.5t40 25.5t49 9q27 0 49 -8.5t37 -25t23.5 -39.5t8.5 -50q0 -40 -16 -74.5t-42.5 -63t-61.5 -51t-71.5 -39t-72.5 -24.5t-65 -8q-42 0 -63.5 16t-21.5 44q0 23 16 38q13 13 33 21.5t44 18.5t49.5 24.5t50.5 39.5
q-10 12 -16 26.5t-6 33.5z" />
    <glyph glyph-name="Lcaron" unicode="&#x13d;" horiz-adv-x="998" 
d="M891 186q39 0 61 -23t22 -70t-22 -70t-61 -23h-604q-51 0 -78.5 28t-27.5 78v1178q0 48 28 74.5t85 26.5q59 0 86.5 -26.5t27.5 -74.5v-1098h483zM489 1822q15 11 25.5 15t22.5 4q14 0 26.5 -5.5t22.5 -16t15.5 -23t5.5 -26.5q0 -15 -7 -27t-26 -30l-188 -175
q-22 -21 -44 -32.5t-52 -11.5t-52 11.5t-43 32.5l-183 175q-16 15 -21.5 26.5t-5.5 24.5q0 16 6 29.5t16.5 24t24 16.5t28.5 6q12 0 23 -4.5t27 -15.5l190 -132z" />
    <glyph glyph-name="lcaron" unicode="&#x13e;" horiz-adv-x="665" 
d="M158 1384q0 47 27.5 72.5t83.5 25.5t83.5 -25.5t27.5 -72.5v-1078q0 -41 5.5 -68.5t16 -43t25 -22t32.5 -6.5q16 0 28 1.5t24 1.5t23 -4.5t18.5 -13t12.5 -21t5 -27.5q0 -24 -7.5 -40t-19.5 -28q-8 -9 -20.5 -17t-30 -14.5t-41 -10.5t-54.5 -4q-117 0 -178 63.5
t-61 193.5v1138zM560 1502q10 38 29 55t55 17q21 0 41.5 -6t36 -17.5t25 -26.5t9.5 -32q0 -10 -3.5 -21.5t-10.5 -26.5l-116 -254q-10 -23 -26.5 -33.5t-39.5 -10.5q-14 0 -28 4t-24.5 12t-17 19t-6.5 26q0 8 1.5 17.5t5.5 24.5z" />
    <glyph glyph-name="Ldot" unicode="&#x13f;" horiz-adv-x="1028" 
d="M891 186q39 0 61 -23t22 -70t-22 -70t-61 -23h-604q-51 0 -78.5 28t-27.5 78v1178q0 48 28 74.5t85 26.5q59 0 86.5 -26.5t27.5 -74.5v-1098h483zM659 760q0 32 11.5 60.5t32 48.5t48 31.5t60.5 11.5q32 0 59 -10.5t46.5 -30t30.5 -47t11 -59.5t-12 -60t-32 -48
t-47.5 -31.5t-59.5 -11.5q-33 0 -60 11t-46.5 30t-30.5 46t-11 59z" />
    <glyph glyph-name="ldot" unicode="&#x140;" horiz-adv-x="872" 
d="M158 1384q0 47 27.5 72.5t83.5 25.5t83.5 -25.5t27.5 -72.5v-1078q0 -41 5.5 -68.5t16 -43t25 -22t32.5 -6.5q16 0 28 1.5t24 1.5t23 -4.5t18.5 -13t12.5 -21t5 -27.5q0 -24 -7.5 -40t-19.5 -28q-8 -9 -20.5 -17t-30 -14.5t-41 -10.5t-54.5 -4q-117 0 -178 63.5
t-61 193.5v1138zM549 707q0 32 11.5 60.5t32 48.5t48 31.5t60.5 11.5q32 0 59 -10.5t46.5 -30t30.5 -47t11 -59.5t-12 -60t-32 -48t-47.5 -31.5t-59.5 -11.5q-33 0 -60 11t-46.5 30t-30.5 46t-11 59z" />
    <glyph glyph-name="Lslash" unicode="&#x141;" horiz-adv-x="1036" 
d="M929 186q38 0 60.5 -23t22.5 -70t-22 -70t-61 -23h-604q-51 0 -78.5 28t-27.5 78v581l-59 -26q-9 -4 -15.5 -6.5t-12 -4t-10 -2.5t-10.5 -1q-19 0 -33.5 9t-25 22.5t-15.5 30t-5 32.5q0 17 4.5 29.5t15.5 22.5q8 9 19 14.5t32 14.5l115 49v413q0 48 28 74.5t85 26.5
q58 0 86 -26.5t28 -74.5v-319l143 64q21 9 31.5 12.5t23.5 3.5q18 0 32.5 -8.5t24.5 -22.5t15.5 -30.5t5.5 -32.5t-4.5 -28.5t-15.5 -23.5q-8 -8 -19 -13.5t-32 -15.5l-205 -89v-595h483z" />
    <glyph glyph-name="lslash" unicode="&#x142;" horiz-adv-x="642" 
d="M126 780q-11 -5 -19.5 -7.5t-17.5 -2.5q-17 0 -31 8.5t-24 21.5t-16 29t-6 33q0 27 13 44t42 29l129 57v392q0 47 27.5 72.5t83.5 25.5t83.5 -25.5t27.5 -72.5v-295l98 44q11 5 19.5 7t16.5 2q17 0 31.5 -8t24.5 -21.5t16 -29.5t6 -33q0 -26 -12.5 -43t-42.5 -30
l-157 -69v-602q0 -41 5.5 -68.5t16 -43t24.5 -22t32 -6.5q17 0 29 1.5t24 1.5t22.5 -4.5t18.5 -13t12.5 -21t4.5 -27.5q0 -24 -7 -40t-19 -28q-8 -9 -20.5 -17t-30 -14.5t-41 -10.5t-54.5 -4q-117 0 -178 63.5t-61 193.5v565z" />
    <glyph glyph-name="Nacute" unicode="&#x143;" horiz-adv-x="1498" 
d="M181 1227q0 79 39.5 118.5t119.5 39.5q36 0 62 -9t47 -25t38.5 -38.5t35.5 -51.5l490 -782q24 -38 44 -75t36 -66q17 -34 33 -65l5 2q-3 35 -6 75q-3 34 -5.5 77.5t-2.5 90.5l-8 773q-2 44 25 69t79 25q53 0 78.5 -25t25.5 -69v-1139q0 -80 -39.5 -119.5t-119.5 -39.5
q-36 0 -62.5 9t-47.5 25t-38.5 38.5t-34.5 51.5l-490 782q-24 38 -44.5 75t-35.5 66q-19 34 -34 65l-4 -2q3 -35 6 -75q3 -34 5 -78t3 -90l8 -773q2 -44 -25 -69t-79 -25q-53 0 -78.5 25t-25.5 69v1140zM916 1823q14 12 26.5 18t28.5 6q22 0 41 -11.5t34 -29t24 -39t9 -42.5
q0 -23 -12.5 -38t-34.5 -28l-255 -158q-12 -7 -22.5 -11t-22.5 -4q-17 0 -31 7t-24 18.5t-16 26t-6 29.5q0 16 7 28.5t26 27.5z" />
    <glyph glyph-name="nacute" unicode="&#x144;" horiz-adv-x="1211" 
d="M162 929q0 44 24 68t68 24q22 0 39 -5.5t29.5 -17t19.5 -27.5t10 -37l9 -61h4q29 44 74 79q19 15 43.5 29t54.5 25t65.5 17.5t76.5 6.5q88 0 158 -26.5t119.5 -79t75.5 -129.5t26 -178v-525q0 -47 -27.5 -73t-83.5 -26t-83.5 26t-27.5 73v496q0 69 -14 118.5t-41.5 81.5
t-67 47.5t-89.5 15.5q-30 0 -56 -7.5t-49 -18.5t-41.5 -25.5t-33.5 -29.5q-36 -36 -60 -80v-598q0 -47 -27.5 -73t-83.5 -26t-83.5 26t-27.5 73v837zM700 1496q16 21 30.5 30.5t35.5 9.5q19 0 39.5 -9.5t37 -24.5t27.5 -35t11 -42q0 -11 -3.5 -20t-9.5 -16.5t-12.5 -14
t-13.5 -12.5l-203 -193q-15 -14 -27.5 -20t-26.5 -6q-17 0 -31 6.5t-25 17.5t-17 24.5t-6 28.5q0 14 7.5 25.5t16.5 23.5z" />
    <glyph glyph-name="Ncommaaccent" unicode="&#x145;" horiz-adv-x="1498" 
d="M181 1227q0 79 39.5 118.5t119.5 39.5q36 0 62 -9t47 -25t38.5 -38.5t35.5 -51.5l490 -782q24 -38 44 -75t36 -66q17 -34 33 -65l5 2q-3 35 -6 75q-3 34 -5.5 77.5t-2.5 90.5l-8 773q-2 44 25 69t79 25q53 0 78.5 -25t25.5 -69v-1139q0 -80 -39.5 -119.5t-119.5 -39.5
q-36 0 -62.5 9t-47.5 25t-38.5 38.5t-34.5 51.5l-490 782q-24 38 -44.5 75t-35.5 66q-19 34 -34 65l-4 -2q3 -35 6 -75q3 -34 5 -78t3 -90l8 -773q2 -44 -25 -69t-79 -25q-53 0 -78.5 25t-25.5 69v1140zM656 -233q0 26 9.5 48t26.5 38.5t40 25.5t49 9q27 0 49 -8.5t37 -25
t23.5 -39.5t8.5 -50q0 -40 -16 -74.5t-42.5 -63t-61.5 -51t-71.5 -39t-72.5 -24.5t-65 -8q-42 0 -63.5 16t-21.5 44q0 23 16 38q13 13 33 21.5t44 18.5t49.5 24.5t50.5 39.5q-10 12 -16 26.5t-6 33.5z" />
    <glyph glyph-name="ncommaaccent" unicode="&#x146;" horiz-adv-x="1211" 
d="M162 929q0 44 24 68t68 24q22 0 39 -5.5t29.5 -17t19.5 -27.5t10 -37l9 -61h4q29 44 74 79q19 15 43.5 29t54.5 25t65.5 17.5t76.5 6.5q88 0 158 -26.5t119.5 -79t75.5 -129.5t26 -178v-525q0 -47 -27.5 -73t-83.5 -26t-83.5 26t-27.5 73v496q0 69 -14 118.5t-41.5 81.5
t-67 47.5t-89.5 15.5q-30 0 -56 -7.5t-49 -18.5t-41.5 -25.5t-33.5 -29.5q-36 -36 -60 -80v-598q0 -47 -27.5 -73t-83.5 -26t-83.5 26t-27.5 73v837zM485 -233q0 26 9.5 48t26.5 38.5t40 25.5t49 9q27 0 49 -8.5t37 -25t23.5 -39.5t8.5 -50q0 -40 -16 -74.5t-42.5 -63
t-61.5 -51t-71.5 -39t-72.5 -24.5t-65 -8q-42 0 -63.5 16t-21.5 44q0 23 16 38q13 13 33 21.5t44 18.5t49.5 24.5t50.5 39.5q-10 12 -16 26.5t-6 33.5z" />
    <glyph glyph-name="Ncaron" unicode="&#x147;" horiz-adv-x="1498" 
d="M181 1227q0 79 39.5 118.5t119.5 39.5q36 0 62 -9t47 -25t38.5 -38.5t35.5 -51.5l490 -782q24 -38 44 -75t36 -66q17 -34 33 -65l5 2q-3 35 -6 75q-3 34 -5.5 77.5t-2.5 90.5l-8 773q-2 44 25 69t79 25q53 0 78.5 -25t25.5 -69v-1139q0 -80 -39.5 -119.5t-119.5 -39.5
q-36 0 -62.5 9t-47.5 25t-38.5 38.5t-34.5 51.5l-490 782q-24 38 -44.5 75t-35.5 66q-19 34 -34 65l-4 -2q3 -35 6 -75q3 -34 5 -78t3 -90l8 -773q2 -44 -25 -69t-79 -25q-53 0 -78.5 25t-25.5 69v1140zM954 1822q15 11 25.5 15t22.5 4q14 0 26.5 -5.5t22.5 -16t15.5 -23
t5.5 -26.5q0 -15 -7 -27t-26 -30l-188 -175q-22 -21 -44 -32.5t-52 -11.5t-52 11.5t-43 32.5l-183 175q-16 15 -21.5 26.5t-5.5 24.5q0 16 6 29.5t16.5 24t24 16.5t28.5 6q12 0 23 -4.5t27 -15.5l190 -132z" />
    <glyph glyph-name="ncaron" unicode="&#x148;" horiz-adv-x="1211" 
d="M162 929q0 44 24 68t68 24q22 0 39 -5.5t29.5 -17t19.5 -27.5t10 -37l9 -61h4q29 44 74 79q19 15 43.5 29t54.5 25t65.5 17.5t76.5 6.5q88 0 158 -26.5t119.5 -79t75.5 -129.5t26 -178v-525q0 -47 -27.5 -73t-83.5 -26t-83.5 26t-27.5 73v496q0 69 -14 118.5t-41.5 81.5
t-67 47.5t-89.5 15.5q-30 0 -56 -7.5t-49 -18.5t-41.5 -25.5t-33.5 -29.5q-36 -36 -60 -80v-598q0 -47 -27.5 -73t-83.5 -26t-83.5 26t-27.5 73v837zM781 1492q15 12 25.5 16.5t22.5 4.5q15 0 27.5 -5.5t22.5 -15.5t15.5 -22.5t5.5 -26.5t-6.5 -25t-19.5 -25l-190 -201
q-20 -22 -41 -33.5t-47 -11.5t-46.5 11.5t-40.5 32.5l-183 197q-13 14 -20 25.5t-7 24.5q0 15 6 28.5t17 24t24.5 16.5t28.5 6q14 0 25.5 -5t27.5 -18l176 -147z" />
    <glyph glyph-name="napostrophe" unicode="&#x149;" horiz-adv-x="1343" 
d="M294 929q0 44 24 68t68 24q22 0 39 -5.5t29.5 -17t19.5 -27.5t10 -37l9 -61h4q29 44 74 79q19 15 43.5 29t54.5 25t65.5 17.5t76.5 6.5q88 0 158 -26.5t119.5 -79t75.5 -129.5t26 -178v-525q0 -47 -27.5 -73t-83.5 -26t-83.5 26t-27.5 73v496q0 69 -14 118.5t-41.5 81.5
t-67 47.5t-89.5 15.5q-30 0 -56 -7.5t-49 -18.5t-41.5 -25.5t-33.5 -29.5q-36 -36 -60 -80v-598q0 -47 -27.5 -73t-83.5 -26t-83.5 26t-27.5 73v837zM63 1460q0 25 9.5 46.5t26.5 37.5t39.5 25t50.5 9q27 0 49 -9.5t38 -26.5t25 -41t9 -55q0 -39 -11 -76.5t-28.5 -72.5
t-41 -66t-48.5 -56q-29 -30 -53 -42.5t-49 -12.5q-24 0 -39.5 12.5t-15.5 35.5q0 20 10.5 35t26 34.5t33.5 48t32 73.5q-24 10 -43.5 35.5t-19.5 65.5z" />
    <glyph glyph-name="Eng" unicode="&#x14a;" horiz-adv-x="1498" 
d="M181 1227q0 79 39.5 118.5t119.5 39.5q36 0 62 -9t47 -25t38.5 -38.5t35.5 -51.5l490 -782q24 -38 44 -75t36 -66q17 -34 33 -65l5 2q-3 35 -6 75q-3 34 -5.5 77.5t-2.5 90.5l-8 773q-2 44 25 69t79 25q53 0 78.5 -25t25.5 -69v-1217q0 -90 -8 -158t-24.5 -121
t-41.5 -93.5t-59 -74.5q-55 -55 -116.5 -82t-116.5 -27q-49 0 -74 23.5t-25 57.5q0 27 12 45t36 32q41 22 77.5 47t63 60.5t42 84.5t15.5 121v12q-18 5 -33 13.5t-29.5 22t-29.5 33.5t-31 47l-490 782q-24 38 -44.5 75t-35.5 66q-19 34 -34 65l-4 -2q3 -35 6 -75
q3 -34 5 -78t3 -90l8 -773q2 -44 -25 -69t-79 -25q-53 0 -78.5 25t-25.5 69v1140z" />
    <glyph glyph-name="eng" unicode="&#x14b;" horiz-adv-x="1204" 
d="M162 929q0 44 24 68t68 24q22 0 39 -5.5t29.5 -17t19.5 -27.5t10 -37l9 -61h4q29 44 74 79q19 15 43.5 29t54.5 25t65.5 17.5t77.5 6.5q104 0 176 -33.5t117 -94t65 -145t20 -185.5v-233q0 -112 -4 -201t-11.5 -158.5t-19.5 -123t-27.5 -94.5t-35 -73t-42.5 -59
q-19 -24 -43 -44t-50 -34.5t-54 -23t-55 -8.5q-22 0 -39 6.5t-28.5 16.5t-17 24.5t-5.5 32.5q0 13 2.5 24t8 20t13.5 16.5t19 13.5q27 16 49.5 33.5t41 44.5t33 68.5t24 105.5t14.5 155t5 218v232q0 74 -9 133t-32.5 100.5t-65 64t-105.5 22.5q-30 0 -56 -7.5t-49 -18.5
t-41.5 -25.5t-33.5 -29.5q-36 -36 -60 -80v-598q0 -47 -27.5 -73t-83.5 -26t-83.5 26t-27.5 73v837z" />
    <glyph glyph-name="Omacron" unicode="&#x14c;" horiz-adv-x="1498" 
d="M99 670q0 172 48.5 307t136 229t209.5 143t269 49q142 0 259.5 -46.5t201.5 -136t130 -217.5t46 -290q0 -171 -48.5 -306t-136 -229t-209 -143t-268.5 -49q-142 0 -259.5 46.5t-201.5 135.5t-130.5 217t-46.5 290zM333 691q0 -127 33 -225.5t89 -165t132.5 -101
t163.5 -34.5t163 34t131.5 100t87.5 163.5t32 224.5q0 128 -32.5 226t-89 164.5t-133 101t-163.5 34.5t-162.5 -34t-131 -99.5t-88 -163.5t-32.5 -225zM1002 1730q37 0 56 -20.5t19 -61.5q0 -40 -19 -60.5t-56 -20.5h-516q-36 0 -55.5 20.5t-19.5 60.5q0 41 19.5 61.5
t55.5 20.5h516z" />
    <glyph glyph-name="omacron" unicode="&#x14d;" horiz-adv-x="1193" 
d="M92 488q0 128 36.5 229t104 170.5t163 106.5t213.5 37q109 0 199 -36t155 -102.5t101 -160.5t36 -208q0 -128 -36.5 -229t-103.5 -171t-162.5 -106.5t-213.5 -36.5q-109 0 -199.5 36t-155.5 102.5t-101 160t-36 208.5zM319 508q0 -86 21.5 -151.5t59.5 -110t89 -67.5
t110 -23q58 0 108.5 22t87.5 66t58 109t21 151q0 85 -22 151t-60 110.5t-88.5 67.5t-108.5 23q-59 0 -109.5 -22.5t-88 -66t-58 -108.5t-20.5 -151zM849 1397q37 0 56 -20t19 -60t-19 -60t-56 -20h-508q-37 0 -56 20t-19 60t19 60t56 20h508z" />
    <glyph glyph-name="Obreve" unicode="&#x14e;" horiz-adv-x="1498" 
d="M99 670q0 172 48.5 307t136 229t209.5 143t269 49q142 0 259.5 -46.5t201.5 -136t130 -217.5t46 -290q0 -171 -48.5 -306t-136 -229t-209 -143t-268.5 -49q-142 0 -259.5 46.5t-201.5 135.5t-130.5 217t-46.5 290zM333 691q0 -127 33 -225.5t89 -165t132.5 -101
t163.5 -34.5t163 34t131.5 100t87.5 163.5t32 224.5q0 128 -32.5 226t-89 164.5t-133 101t-163.5 34.5t-162.5 -34t-131 -99.5t-88 -163.5t-32.5 -225zM446 1755q0 40 21.5 60t56.5 20q31 0 49 -15t23 -44q11 -60 47.5 -90t105.5 -30q67 0 103.5 31.5t46.5 88.5
q6 29 23.5 44t48.5 15q36 0 57 -20t21 -60q0 -55 -24 -102.5t-65.5 -82.5t-97.5 -55t-119 -20q-67 0 -121.5 20t-93.5 55t-60.5 82.5t-21.5 102.5z" />
    <glyph glyph-name="obreve" unicode="&#x14f;" horiz-adv-x="1193" 
d="M92 488q0 128 36.5 229t104 170.5t163 106.5t213.5 37q109 0 199 -36t155 -102.5t101 -160.5t36 -208q0 -128 -36.5 -229t-103.5 -171t-162.5 -106.5t-213.5 -36.5q-109 0 -199.5 36t-155.5 102.5t-101 160t-36 208.5zM319 508q0 -86 21.5 -151.5t59.5 -110t89 -67.5
t110 -23q58 0 108.5 22t87.5 66t58 109t21 151q0 85 -22 151t-60 110.5t-88.5 67.5t-108.5 23q-59 0 -109.5 -22.5t-88 -66t-58 -108.5t-20.5 -151zM303 1411q0 37 21 56.5t56 19.5q28 0 46 -14t23 -43q9 -61 43 -97t103 -36q35 0 60.5 10t42.5 27.5t27 42t15 53.5
q3 29 22 43t47 14q34 0 55.5 -19.5t21.5 -56.5q0 -57 -21.5 -106t-60 -85.5t-93.5 -57.5t-123 -21q-59 0 -111 18t-90.5 52.5t-61 84.5t-22.5 115z" />
    <glyph glyph-name="Ohungarumlaut" unicode="&#x150;" horiz-adv-x="1498" 
d="M99 670q0 172 48.5 307t136 229t209.5 143t269 49q142 0 259.5 -46.5t201.5 -136t130 -217.5t46 -290q0 -171 -48.5 -306t-136 -229t-209 -143t-268.5 -49q-142 0 -259.5 46.5t-201.5 135.5t-130.5 217t-46.5 290zM333 691q0 -127 33 -225.5t89 -165t132.5 -101
t163.5 -34.5t163 34t131.5 100t87.5 163.5t32 224.5q0 128 -32.5 226t-89 164.5t-133 101t-163.5 34.5t-162.5 -34t-131 -99.5t-88 -163.5t-32.5 -225zM671 1805q17 22 32 31t34 9q20 0 40.5 -8.5t36 -23t25.5 -32.5t10 -37q0 -16 -8 -29t-26 -29l-217 -193
q-14 -12 -24.5 -18t-24.5 -6t-27.5 5.5t-24 15.5t-17 23t-6.5 28q0 11 4.5 20.5t15.5 24.5zM1093 1774q18 16 32 23t29 7q20 0 39 -10.5t33.5 -27t23 -37t8.5 -40.5q0 -24 -12 -39t-39 -30l-240 -142q-12 -8 -22 -11.5t-23 -3.5q-14 0 -27 6t-23 17t-16 24.5t-6 27.5
q0 17 7 28t23 25z" />
    <glyph glyph-name="ohungarumlaut" unicode="&#x151;" horiz-adv-x="1193" 
d="M92 488q0 128 36.5 229t104 170.5t163 106.5t213.5 37q109 0 199 -36t155 -102.5t101 -160.5t36 -208q0 -128 -36.5 -229t-103.5 -171t-162.5 -106.5t-213.5 -36.5q-109 0 -199.5 36t-155.5 102.5t-101 160t-36 208.5zM319 508q0 -86 21.5 -151.5t59.5 -110t89 -67.5
t110 -23q58 0 108.5 22t87.5 66t58 109t21 151q0 85 -22 151t-60 110.5t-88.5 67.5t-108.5 23q-59 0 -109.5 -22.5t-88 -66t-58 -108.5t-20.5 -151zM495 1494q15 25 30 36t40 11q20 0 40.5 -8.5t36.5 -22t25.5 -31t9.5 -36.5q0 -14 -7.5 -27t-22.5 -29l-181 -203
q-16 -17 -29.5 -26.5t-32.5 -9.5q-15 0 -28.5 5.5t-24.5 14.5t-17.5 21t-6.5 26q0 11 5 22t13 25zM881 1488q7 8 14 15.5t14.5 11.5t16 6.5t18.5 2.5q21 0 41 -10t36 -25.5t25.5 -35t9.5 -38.5q0 -16 -8.5 -29.5t-28.5 -30.5l-215 -191q-13 -12 -24 -16.5t-24 -4.5
q-14 0 -28 5.5t-24.5 15.5t-17.5 23t-7 29q0 12 5 21.5t15 23.5z" />
    <glyph glyph-name="OE" unicode="&#x152;" horiz-adv-x="1869" 
d="M973 1181q-42 16 -92.5 24.5t-113.5 8.5q-94 0 -173.5 -34t-137.5 -100t-90.5 -164t-32.5 -225t33 -225.5t91.5 -165.5t138.5 -101.5t175 -34.5q63 0 111 7.5t91 19.5v990zM1201 182h503q38 0 59.5 -23t21.5 -68t-21.5 -68t-59.5 -23h-704q-58 -9 -118 -14t-131 -5
q-148 0 -268 46.5t-205.5 135.5t-132 217t-46.5 290q0 172 49 307t137.5 229t213 143t277.5 49q67 0 121.5 -5t109.5 -15h693q38 0 59.5 -23t21.5 -67q0 -45 -21.5 -68.5t-59.5 -23.5h-499v-400h428q38 0 59 -23t21 -67t-21 -67t-59 -23h-428v-434z" />
    <glyph glyph-name="oe" unicode="&#x153;" horiz-adv-x="1867" 
d="M319 508q0 -86 21.5 -151.5t59.5 -110t89 -67.5t110 -23q58 0 108.5 22t87.5 66t58 109t21 151q0 85 -22 151t-60 110.5t-88.5 67.5t-108.5 23q-59 0 -109.5 -22.5t-88 -66t-58 -108.5t-20.5 -151zM1097 470v-5q4 -73 27 -130t63 -96.5t96 -60t125 -20.5q55 0 94 8
t67 16.5t49 16.5t39 8q17 0 29.5 -6t21 -15.5t13.5 -22t5 -27.5q0 -20 -7 -35.5t-23 -31.5q-13 -14 -41 -29.5t-69 -28.5t-95.5 -21.5t-120.5 -8.5q-70 0 -129 13t-108.5 37.5t-88.5 58.5t-69 76q-30 -42 -69 -76t-87.5 -58.5t-107 -37.5t-127.5 -13q-109 0 -199.5 36
t-155.5 102.5t-101 160t-36 208.5q0 128 36.5 229t104 170.5t163 106.5t213.5 37q71 0 130 -15t106 -41.5t82.5 -61t59.5 -74.5q27 40 64 75.5t84 61t104 40.5t124 15q91 0 166 -29.5t128 -85.5t82.5 -136t29.5 -182q0 -65 -29.5 -96.5t-87.5 -31.5h-555zM1562 620
q-14 126 -69 186.5t-154 60.5q-41 0 -79 -14.5t-69 -45t-54 -77t-35 -110.5h460z" />
    <glyph glyph-name="Racute" unicode="&#x154;" horiz-adv-x="1193" 
d="M405 94q0 -48 -27.5 -74.5t-84.5 -26.5q-58 0 -85 26.5t-27 74.5v1178q0 50 27.5 78t78.5 28h285q135 0 233 -28t162 -78.5t94 -120.5t30 -153q0 -73 -22 -135t-62 -111t-96.5 -83t-124.5 -52l291 -441q14 -21 21.5 -37.5t7.5 -35.5q0 -24 -11.5 -44.5t-29.5 -35.5
t-41 -24t-47 -9t-41.5 8.5t-30.5 20.5q-4 5 -8.5 10t-8.5 10.5t-8.5 12.5t-10.5 17l-314 507h-150v-482zM564 754q75 0 131 17t92.5 46.5t54 71.5t17.5 92t-16.5 90.5t-52.5 68.5t-93 43.5t-138 15.5h-154v-445h159zM731 1823q14 12 26.5 18t28.5 6q22 0 41 -11.5t34 -29
t24 -39t9 -42.5q0 -23 -12.5 -38t-34.5 -28l-255 -158q-12 -7 -22.5 -11t-22.5 -4q-17 0 -31 7t-24 18.5t-16 26t-6 29.5q0 16 7 28.5t26 27.5z" />
    <glyph glyph-name="racute" unicode="&#x155;" horiz-adv-x="736" 
d="M162 929q0 44 24 68t68 24q22 0 39 -5.5t29 -17t19.5 -28.5t10.5 -38l13 -84h3q20 39 46 73t57.5 58.5t67 38t74.5 13.5q55 0 84 -28t29 -82q0 -62 -26 -95t-60 -33q-11 0 -19.5 2t-16.5 4t-17 4.5t-20 2.5q-25 0 -50 -12.5t-48 -34t-44.5 -52t-40.5 -66.5v-549
q0 -47 -27.5 -73t-83.5 -26t-83.5 26t-27.5 73v837zM524 1496q16 21 30.5 30.5t35.5 9.5q19 0 39.5 -9.5t37 -24.5t27.5 -35t11 -42q0 -11 -3.5 -20t-9.5 -16.5t-12.5 -14t-13.5 -12.5l-203 -193q-15 -14 -27.5 -20t-26.5 -6q-17 0 -31 6.5t-25 17.5t-17 24.5t-6 28.5
q0 14 7.5 25.5t16.5 23.5z" />
    <glyph glyph-name="Rcommaaccent" unicode="&#x156;" horiz-adv-x="1193" 
d="M405 94q0 -48 -27.5 -74.5t-84.5 -26.5q-58 0 -85 26.5t-27 74.5v1178q0 50 27.5 78t78.5 28h285q135 0 233 -28t162 -78.5t94 -120.5t30 -153q0 -73 -22 -135t-62 -111t-96.5 -83t-124.5 -52l291 -441q14 -21 21.5 -37.5t7.5 -35.5q0 -24 -11.5 -44.5t-29.5 -35.5
t-41 -24t-47 -9t-41.5 8.5t-30.5 20.5q-4 5 -8.5 10t-8.5 10.5t-8.5 12.5t-10.5 17l-314 507h-150v-482zM564 754q75 0 131 17t92.5 46.5t54 71.5t17.5 92t-16.5 90.5t-52.5 68.5t-93 43.5t-138 15.5h-154v-445h159zM501 -233q0 26 9.5 48t26.5 38.5t40 25.5t49 9
q27 0 49 -8.5t37 -25t23.5 -39.5t8.5 -50q0 -40 -16 -74.5t-42.5 -63t-61.5 -51t-71.5 -39t-72.5 -24.5t-65 -8q-42 0 -63.5 16t-21.5 44q0 23 16 38q13 13 33 21.5t44 18.5t49.5 24.5t50.5 39.5q-10 12 -16 26.5t-6 33.5z" />
    <glyph glyph-name="rcommaaccent" unicode="&#x157;" horiz-adv-x="736" 
d="M162 929q0 44 24 68t68 24q22 0 39 -5.5t29 -17t19.5 -28.5t10.5 -38l13 -84h3q20 39 46 73t57.5 58.5t67 38t74.5 13.5q55 0 84 -28t29 -82q0 -62 -26 -95t-60 -33q-11 0 -19.5 2t-16.5 4t-17 4.5t-20 2.5q-25 0 -50 -12.5t-48 -34t-44.5 -52t-40.5 -66.5v-549
q0 -47 -27.5 -73t-83.5 -26t-83.5 26t-27.5 73v837zM215 -233q0 26 9.5 48t26.5 38.5t40 25.5t49 9q27 0 49 -8.5t37 -25t23.5 -39.5t8.5 -50q0 -40 -16 -74.5t-42.5 -63t-61.5 -51t-71.5 -39t-72.5 -24.5t-65 -8q-42 0 -63.5 16t-21.5 44q0 23 16 38q13 13 33 21.5t44 18.5
t49.5 24.5t50.5 39.5q-10 12 -16 26.5t-6 33.5z" />
    <glyph glyph-name="Rcaron" unicode="&#x158;" horiz-adv-x="1193" 
d="M405 94q0 -48 -27.5 -74.5t-84.5 -26.5q-58 0 -85 26.5t-27 74.5v1178q0 50 27.5 78t78.5 28h285q135 0 233 -28t162 -78.5t94 -120.5t30 -153q0 -73 -22 -135t-62 -111t-96.5 -83t-124.5 -52l291 -441q14 -21 21.5 -37.5t7.5 -35.5q0 -24 -11.5 -44.5t-29.5 -35.5
t-41 -24t-47 -9t-41.5 8.5t-30.5 20.5q-4 5 -8.5 10t-8.5 10.5t-8.5 12.5t-10.5 17l-314 507h-150v-482zM564 754q75 0 131 17t92.5 46.5t54 71.5t17.5 92t-16.5 90.5t-52.5 68.5t-93 43.5t-138 15.5h-154v-445h159zM773 1822q15 11 25.5 15t22.5 4q14 0 26.5 -5.5t22.5 -16
t15.5 -23t5.5 -26.5q0 -15 -7 -27t-26 -30l-188 -175q-22 -21 -44 -32.5t-52 -11.5t-52 11.5t-43 32.5l-183 175q-16 15 -21.5 26.5t-5.5 24.5q0 16 6 29.5t16.5 24t24 16.5t28.5 6q12 0 23 -4.5t27 -15.5l190 -132z" />
    <glyph glyph-name="rcaron" unicode="&#x159;" horiz-adv-x="736" 
d="M162 929q0 44 24 68t68 24q22 0 39 -5.5t29 -17t19.5 -28.5t10.5 -38l13 -84h3q20 39 46 73t57.5 58.5t67 38t74.5 13.5q55 0 84 -28t29 -82q0 -62 -26 -95t-60 -33q-11 0 -19.5 2t-16.5 4t-17 4.5t-20 2.5q-25 0 -50 -12.5t-48 -34t-44.5 -52t-40.5 -66.5v-549
q0 -47 -27.5 -73t-83.5 -26t-83.5 26t-27.5 73v837zM590 1492q15 12 25.5 16.5t22.5 4.5q15 0 27.5 -5.5t22.5 -15.5t15.5 -22.5t5.5 -26.5t-6.5 -25t-19.5 -25l-190 -201q-20 -22 -41 -33.5t-47 -11.5t-46.5 11.5t-40.5 32.5l-183 197q-13 14 -20 25.5t-7 24.5q0 15 6 28.5
t17 24t24.5 16.5t28.5 6q14 0 25.5 -5t27.5 -18l176 -147z" />
    <glyph glyph-name="Sacute" unicode="&#x15a;" horiz-adv-x="1106" 
d="M122 1004q0 84 31 156t92 125t151.5 82.5t208.5 29.5q60 0 110 -7.5t88.5 -19.5t66 -27.5t41.5 -29.5q19 -19 25.5 -36.5t6.5 -40.5q0 -38 -23 -59t-59 -21q-23 0 -44.5 9t-51 20.5t-71.5 20.5t-103 9q-62 0 -107 -13.5t-75 -38t-44.5 -58.5t-14.5 -75q0 -55 27.5 -92
t73.5 -63.5t104 -47t118.5 -43t118.5 -51.5t103.5 -73t73 -107t27.5 -154t-32.5 -167.5t-96 -132t-159 -86.5t-220.5 -31q-69 0 -125 8.5t-98 21.5t-70.5 28t-42.5 30q-18 18 -25.5 35.5t-7.5 41.5q0 39 23 61t59 22q23 0 44.5 -10.5t53.5 -22.5t80 -22.5t123 -10.5
q67 0 117 15.5t83 43t49.5 66t16.5 84.5q0 60 -27.5 100t-73 68.5t-103.5 50t-119 44t-119 50t-103.5 69.5t-73 102t-27.5 147zM683 1823q14 12 26.5 18t28.5 6q22 0 41 -11.5t34 -29t24 -39t9 -42.5q0 -23 -12.5 -38t-34.5 -28l-255 -158q-12 -7 -22.5 -11t-22.5 -4
q-17 0 -31 7t-24 18.5t-16 26t-6 29.5q0 16 7 28.5t26 27.5z" />
    <glyph glyph-name="sacute" unicode="&#x15b;" horiz-adv-x="929" 
d="M108 726q0 64 25 119.5t76 96.5t126 64.5t174 23.5q54 0 96 -6t73 -16t52 -21.5t31 -22.5q16 -16 22.5 -32.5t6.5 -38.5q0 -16 -6 -29.5t-15.5 -23t-23 -15t-29.5 -5.5q-18 0 -38.5 6.5t-46 15t-59 15t-77.5 6.5q-45 0 -77 -8.5t-53 -23.5t-30.5 -35t-9.5 -44
q0 -36 22 -60t58 -42t82.5 -32.5t94.5 -31t94 -38t82.5 -54t58.5 -79t22 -112.5q0 -67 -26.5 -125.5t-80 -102t-133 -69t-184.5 -25.5q-63 0 -110.5 7t-81.5 17t-56 23t-34 25q-14 14 -21 30.5t-7 40.5q0 34 20.5 55t53.5 21q17 0 37.5 -8t49.5 -17.5t68 -17.5t95 -8
q50 0 86.5 10t60 26.5t34.5 40t11 50.5q0 38 -22 63.5t-58.5 44t-82.5 33t-94 31.5t-94 38t-82.5 53t-58 77.5t-21.5 109.5zM537 1496q16 21 30.5 30.5t35.5 9.5q19 0 39.5 -9.5t37 -24.5t27.5 -35t11 -42q0 -11 -3.5 -20t-9.5 -16.5t-12.5 -14t-13.5 -12.5l-203 -193
q-15 -14 -27.5 -20t-26.5 -6q-17 0 -31 6.5t-25 17.5t-17 24.5t-6 28.5q0 14 7.5 25.5t16.5 23.5z" />
    <glyph glyph-name="Scircumflex" unicode="&#x15c;" horiz-adv-x="1106" 
d="M122 1004q0 84 31 156t92 125t151.5 82.5t208.5 29.5q60 0 110 -7.5t88.5 -19.5t66 -27.5t41.5 -29.5q19 -19 25.5 -36.5t6.5 -40.5q0 -38 -23 -59t-59 -21q-23 0 -44.5 9t-51 20.5t-71.5 20.5t-103 9q-62 0 -107 -13.5t-75 -38t-44.5 -58.5t-14.5 -75q0 -55 27.5 -92
t73.5 -63.5t104 -47t118.5 -43t118.5 -51.5t103.5 -73t73 -107t27.5 -154t-32.5 -167.5t-96 -132t-159 -86.5t-220.5 -31q-69 0 -125 8.5t-98 21.5t-70.5 28t-42.5 30q-18 18 -25.5 35.5t-7.5 41.5q0 39 23 61t59 22q23 0 44.5 -10.5t53.5 -22.5t80 -22.5t123 -10.5
q67 0 117 15.5t83 43t49.5 66t16.5 84.5q0 60 -27.5 100t-73 68.5t-103.5 50t-119 44t-119 50t-103.5 69.5t-73 102t-27.5 147zM369 1509q-14 -10 -24.5 -14.5t-22.5 -4.5q-15 0 -27.5 6t-22 16t-15 22.5t-5.5 26.5q0 15 6.5 27t25.5 31l189 175q22 20 43.5 31.5t52.5 11.5
q29 0 51 -11t43 -32l184 -176q16 -15 21.5 -26t5.5 -24q0 -16 -6 -30t-16.5 -24t-24 -16t-28.5 -6q-12 0 -23 4t-27 15l-190 132z" />
    <glyph glyph-name="scircumflex" unicode="&#x15d;" horiz-adv-x="929" 
d="M108 726q0 64 25 119.5t76 96.5t126 64.5t174 23.5q54 0 96 -6t73 -16t52 -21.5t31 -22.5q16 -16 22.5 -32.5t6.5 -38.5q0 -16 -6 -29.5t-15.5 -23t-23 -15t-29.5 -5.5q-18 0 -38.5 6.5t-46 15t-59 15t-77.5 6.5q-45 0 -77 -8.5t-53 -23.5t-30.5 -35t-9.5 -44
q0 -36 22 -60t58 -42t82.5 -32.5t94.5 -31t94 -38t82.5 -54t58.5 -79t22 -112.5q0 -67 -26.5 -125.5t-80 -102t-133 -69t-184.5 -25.5q-63 0 -110.5 7t-81.5 17t-56 23t-34 25q-14 14 -21 30.5t-7 40.5q0 34 20.5 55t53.5 21q17 0 37.5 -8t49.5 -17.5t68 -17.5t95 -8
q50 0 86.5 10t60 26.5t34.5 40t11 50.5q0 38 -22 63.5t-58.5 44t-82.5 33t-94 31.5t-94 38t-82.5 53t-58 77.5t-21.5 109.5zM288 1170q-15 -12 -25.5 -17t-23.5 -5q-14 0 -26.5 6t-22 15.5t-15.5 22t-6 27.5q0 14 7 25t19 24l190 202q20 21 40.5 32.5t47.5 11.5
q26 0 47.5 -11t40.5 -32l182 -197q13 -15 20 -26t7 -24q0 -16 -6.5 -29.5t-17 -23.5t-24 -16t-29.5 -6q-13 0 -24.5 4.5t-27.5 17.5l-176 148z" />
    <glyph glyph-name="Scedilla" unicode="&#x15e;" horiz-adv-x="1106" 
d="M451 -17q-61 2 -110 10.5t-86.5 21t-63 26.5t-39.5 29q-18 17 -25.5 35t-7.5 42q0 39 23 61t59 22q23 0 44.5 -10.5t53.5 -22.5t80 -22.5t123 -10.5q67 0 117 15.5t83 43t49.5 66t16.5 84.5q0 60 -27.5 100t-73 68.5t-103.5 50t-119 44t-119 50t-103.5 69.5t-73 102
t-27.5 147q0 84 31 156t92 125t151.5 82.5t208.5 29.5q60 0 110 -7.5t88.5 -19.5t66 -27.5t41.5 -29.5q19 -19 25.5 -36.5t6.5 -40.5q0 -38 -23 -59t-59 -21q-23 0 -44.5 9t-51 20.5t-71.5 20.5t-103 9q-62 0 -107 -13.5t-75 -38t-44.5 -58.5t-14.5 -75q0 -55 27.5 -92
t73.5 -63.5t104 -47t118.5 -43t118.5 -51.5t103.5 -73t73 -107t27.5 -154q0 -82 -26 -152t-77 -124t-127.5 -89t-177.5 -46l-22 -86q38 -4 69.5 -16.5t54 -34t35 -51t12.5 -68.5q0 -46 -18.5 -86.5t-56 -71.5t-91.5 -48.5t-125 -17.5q-38 0 -64.5 6.5t-42.5 17t-22.5 24
t-6.5 28.5q0 24 14.5 39.5t41.5 15.5q13 0 28 -1t30 -1q38 0 63 6t40 17t21.5 26t6.5 31q0 29 -19 46t-64 17h-18q-25 0 -35.5 15t-2.5 44z" />
    <glyph glyph-name="scedilla" unicode="&#x15f;" horiz-adv-x="929" 
d="M374 -17q-52 2 -91.5 9t-69 16.5t-49.5 21.5t-31 23q-14 14 -21 30.5t-7 40.5q0 34 20.5 55t53.5 21q17 0 37.5 -8t49.5 -17.5t68 -17.5t95 -8q50 0 86.5 10t60 26.5t34.5 40t11 50.5q0 38 -22 63.5t-58.5 44t-82.5 33t-94 31.5t-94 38t-82.5 53t-58 77.5t-21.5 109.5
t25 119.5t76 96.5t126 64.5t174 23.5q54 0 96 -6t73 -16t52 -21.5t31 -22.5q16 -16 22.5 -32.5t6.5 -38.5q0 -16 -6 -29.5t-15.5 -23t-23 -15t-29.5 -5.5q-18 0 -38.5 6.5t-46 15t-59 15t-77.5 6.5q-45 0 -77 -8.5t-53 -23.5t-30.5 -35t-9.5 -44q0 -36 22 -60t58 -42
t82.5 -32.5t94.5 -31t94 -38t82.5 -54t58.5 -79t22 -112.5q0 -59 -21 -111t-62 -94t-102 -70.5t-142 -39.5l-23 -86q38 -4 70 -16.5t54.5 -34t35 -51t12.5 -68.5q0 -46 -19 -86.5t-56 -71.5t-91.5 -48.5t-124.5 -17.5q-39 0 -65 6.5t-42 17t-22.5 24t-6.5 28.5q0 24 14 39.5
t42 15.5q13 0 27.5 -1t30.5 -1q38 0 62.5 6t40 17t21.5 26t6 31q0 29 -18.5 46t-63.5 17h-19q-24 0 -34.5 15t-3.5 44z" />
    <glyph glyph-name="Scaron" unicode="&#x160;" horiz-adv-x="1106" 
d="M122 1004q0 84 31 156t92 125t151.5 82.5t208.5 29.5q60 0 110 -7.5t88.5 -19.5t66 -27.5t41.5 -29.5q19 -19 25.5 -36.5t6.5 -40.5q0 -38 -23 -59t-59 -21q-23 0 -44.5 9t-51 20.5t-71.5 20.5t-103 9q-62 0 -107 -13.5t-75 -38t-44.5 -58.5t-14.5 -75q0 -55 27.5 -92
t73.5 -63.5t104 -47t118.5 -43t118.5 -51.5t103.5 -73t73 -107t27.5 -154t-32.5 -167.5t-96 -132t-159 -86.5t-220.5 -31q-69 0 -125 8.5t-98 21.5t-70.5 28t-42.5 30q-18 18 -25.5 35.5t-7.5 41.5q0 39 23 61t59 22q23 0 44.5 -10.5t53.5 -22.5t80 -22.5t123 -10.5
q67 0 117 15.5t83 43t49.5 66t16.5 84.5q0 60 -27.5 100t-73 68.5t-103.5 50t-119 44t-119 50t-103.5 69.5t-73 102t-27.5 147zM745 1822q15 11 25.5 15t22.5 4q14 0 26.5 -5.5t22.5 -16t15.5 -23t5.5 -26.5q0 -15 -7 -27t-26 -30l-188 -175q-22 -21 -44 -32.5t-52 -11.5
t-52 11.5t-43 32.5l-183 175q-16 15 -21.5 26.5t-5.5 24.5q0 16 6 29.5t16.5 24t24 16.5t28.5 6q12 0 23 -4.5t27 -15.5l190 -132z" />
    <glyph glyph-name="scaron" unicode="&#x161;" horiz-adv-x="929" 
d="M108 726q0 64 25 119.5t76 96.5t126 64.5t174 23.5q54 0 96 -6t73 -16t52 -21.5t31 -22.5q16 -16 22.5 -32.5t6.5 -38.5q0 -16 -6 -29.5t-15.5 -23t-23 -15t-29.5 -5.5q-18 0 -38.5 6.5t-46 15t-59 15t-77.5 6.5q-45 0 -77 -8.5t-53 -23.5t-30.5 -35t-9.5 -44
q0 -36 22 -60t58 -42t82.5 -32.5t94.5 -31t94 -38t82.5 -54t58.5 -79t22 -112.5q0 -67 -26.5 -125.5t-80 -102t-133 -69t-184.5 -25.5q-63 0 -110.5 7t-81.5 17t-56 23t-34 25q-14 14 -21 30.5t-7 40.5q0 34 20.5 55t53.5 21q17 0 37.5 -8t49.5 -17.5t68 -17.5t95 -8
q50 0 86.5 10t60 26.5t34.5 40t11 50.5q0 38 -22 63.5t-58.5 44t-82.5 33t-94 31.5t-94 38t-82.5 53t-58 77.5t-21.5 109.5zM644 1492q15 12 25.5 16.5t22.5 4.5q15 0 27.5 -5.5t22.5 -15.5t15.5 -22.5t5.5 -26.5t-6.5 -25t-19.5 -25l-190 -201q-20 -22 -41 -33.5t-47 -11.5
t-46.5 11.5t-40.5 32.5l-183 197q-13 14 -20 25.5t-7 24.5q0 15 6 28.5t17 24t24.5 16.5t28.5 6q14 0 25.5 -5t27.5 -18l176 -147z" />
    <glyph glyph-name="uni0162" unicode="&#x162;" horiz-adv-x="1128" 
d="M107 1192q-38 0 -60 23t-22 70t22 70t60 23h914q38 0 60 -23t22 -70t-22 -70t-60 -23h-344v-1098q0 -39 -16.5 -61t-45.5 -31l-26 -100q38 -4 69.5 -16.5t54 -34t35 -51t12.5 -68.5q0 -46 -18.5 -86.5t-56 -71.5t-91.5 -48.5t-125 -17.5q-38 0 -64.5 6.5t-42.5 17
t-22.5 24t-6.5 28.5q0 24 14.5 39.5t41.5 15.5q13 0 27.5 -1t30.5 -1q38 0 63 6t40 17t21.5 26t6.5 31q0 29 -19 46t-64 17h-19q-24 0 -34.5 15t-2.5 44l43 179q-14 10 -23 28.5t-9 47.5v1098h-343z" />
    <glyph glyph-name="uni0163" unicode="&#x163;" horiz-adv-x="725" 
d="M104 841q-35 0 -55.5 22t-20.5 64q0 41 20.5 63t55.5 22h102l28 180q8 49 33.5 73t67.5 24t64.5 -23.5t22.5 -67.5v-186h191q35 0 56.5 -22t21.5 -63q0 -42 -21 -64t-56 -22h-192v-534q0 -77 27 -109t82 -32q21 0 36 2.5t27 6t21.5 6t19.5 2.5q15 0 26.5 -5t19.5 -14
t13 -21.5t5 -27.5q0 -24 -8 -39.5t-22 -29.5q-8 -8 -23 -18t-39 -18.5t-57 -14t-76 -5.5l-23 -88q38 -4 69.5 -16.5t54 -34t35 -51t12.5 -68.5q0 -46 -18.5 -86.5t-56 -71.5t-91.5 -48.5t-125 -17.5q-39 0 -65 6.5t-42 17t-22.5 24t-6.5 28.5q0 24 14.5 39.5t41.5 15.5
q13 0 27.5 -1t30.5 -1q38 0 63 6t40 17t21.5 26t6.5 31q0 29 -19 46t-64 17h-19q-24 0 -34.5 15t-3.5 44l42 171q-67 25 -104 85.5t-37 164.5v581h-97z" />
    <glyph glyph-name="Tcaron" unicode="&#x164;" horiz-adv-x="1128" 
d="M107 1192q-38 0 -60 23t-22 70t22 70t60 23h914q38 0 60 -23t22 -70t-22 -70t-60 -23h-344v-1098q0 -48 -27.5 -74.5t-85.5 -26.5t-86 26.5t-28 74.5v1098h-343zM759 1822q15 11 25.5 15t22.5 4q14 0 26.5 -5.5t22.5 -16t15.5 -23t5.5 -26.5q0 -15 -7 -27t-26 -30
l-188 -175q-22 -21 -44 -32.5t-52 -11.5t-52 11.5t-43 32.5l-183 175q-16 15 -21.5 26.5t-5.5 24.5q0 16 6 29.5t16.5 24t24 16.5t28.5 6q12 0 23 -4.5t27 -15.5l190 -132z" />
    <glyph glyph-name="tcaron" unicode="&#x165;" horiz-adv-x="746" 
d="M104 841q-35 0 -55.5 22t-20.5 64q0 41 20.5 63t55.5 22h102l28 180q8 49 33.5 73t67.5 24t64.5 -23.5t22.5 -67.5v-186h192q35 0 56 -22t21 -63q0 -42 -21 -64t-56 -22h-192v-534q0 -77 27 -109t82 -32q21 0 36 2.5t27 6t21.5 6t19.5 2.5q15 0 26.5 -5t19.5 -14
t13 -21.5t5 -27.5q0 -24 -8 -39.5t-22 -29.5q-8 -9 -23.5 -18.5t-39.5 -18t-56 -14.5t-74 -6q-141 0 -208 67.5t-67 203.5v581h-97zM596 1502q10 38 29 55t55 17q21 0 41.5 -6t36 -17.5t25 -26.5t9.5 -32q0 -10 -3.5 -21.5t-10.5 -26.5l-116 -254q-10 -23 -26.5 -33.5
t-39.5 -10.5q-14 0 -28 4t-24.5 12t-17 19t-6.5 26q0 8 1.5 17.5t5.5 24.5z" />
    <glyph glyph-name="Tbar" unicode="&#x166;" horiz-adv-x="1128" 
d="M107 1192q-38 0 -60 23t-22 70t22 70t60 23h914q38 0 60 -23t22 -70t-22 -70t-60 -23h-344v-408h219q35 0 55 -21.5t20 -61.5q0 -41 -20 -62.5t-55 -21.5h-219v-523q0 -48 -27.5 -74.5t-85.5 -26.5t-86 26.5t-28 74.5v523h-219q-34 0 -54.5 21.5t-20.5 62.5
q0 40 20.5 61.5t54.5 21.5h219v408h-343z" />
    <glyph glyph-name="tbar" unicode="&#x167;" horiz-adv-x="788" 
d="M137 841q-35 0 -55.5 22t-20.5 64q0 41 20.5 63t55.5 22h102l28 180q8 49 33.5 73t67.5 24t64.5 -23.5t22.5 -67.5v-186h193q34 0 54.5 -22t20.5 -63q0 -42 -20.5 -64t-54.5 -22h-193v-183h182q34 0 54.5 -20.5t20.5 -59.5t-20.5 -60.5t-54.5 -21.5h-182v-189
q0 -77 27 -109t82 -32q21 0 36 2.5t27 6t21.5 6t19.5 2.5q15 0 26.5 -5t19.5 -14t12.5 -21.5t4.5 -27.5q0 -24 -7.5 -39.5t-21.5 -29.5q-8 -9 -23.5 -18.5t-39.5 -18t-56 -14.5t-74 -6q-141 0 -208.5 67.5t-67.5 203.5v236h-96q-34 0 -54 21.5t-20 60.5t20 59.5t54 20.5h96
v183h-96z" />
    <glyph glyph-name="Utilde" unicode="&#x168;" horiz-adv-x="1423" 
d="M168 1284q0 48 28.5 74.5t85.5 26.5q58 0 86 -26.5t28 -74.5v-715q0 -107 23.5 -183t66.5 -124.5t102 -71.5t130 -23q67 0 123.5 22t97.5 68t64.5 116t23.5 167v744q0 48 27.5 74.5t85.5 26.5t86 -26.5t28 -74.5v-718q0 -147 -38 -256.5t-109 -182.5t-173 -109.5
t-230 -36.5q-130 0 -229.5 35t-167.5 104.5t-103.5 174t-35.5 242.5v747zM563 1618q-31 0 -50 -12.5t-34 -27.5t-30 -27.5t-38 -12.5q-26 0 -45.5 17t-19.5 51q0 26 16.5 57t46 58.5t72 46t95.5 18.5q50 0 89.5 -15t73 -33.5t64 -33.5t62.5 -15t51 12.5t34 27.5t30 27.5
t38 12.5q26 0 45 -17t19 -51q0 -25 -16 -56.5t-46 -59t-72.5 -46t-95.5 -18.5q-50 0 -89.5 15.5t-73 33.5t-64 33t-62.5 15z" />
    <glyph glyph-name="utilde" unicode="&#x169;" horiz-adv-x="1205" 
d="M153 920q0 47 27 72.5t84 25.5t84 -25.5t27 -72.5v-496q0 -138 55 -200.5t151 -62.5q31 0 57 6.5t48 18t41 26t35 30.5q35 35 59 80v598q0 47 27.5 72.5t83.5 25.5q57 0 84 -25.5t27 -72.5v-837q0 -44 -24 -68t-68 -24q-22 0 -39 5.5t-29 16.5t-19 27.5t-11 38.5l-9 60
h-3q-30 -44 -75 -79q-19 -15 -43.5 -29t-54.5 -25t-65.5 -18t-76.5 -7q-86 0 -154.5 27t-117.5 79.5t-75 129.5t-26 178v525zM460 1286q-31 0 -50 -13.5t-34.5 -29.5t-31 -29t-40.5 -13q-13 0 -25 4.5t-21.5 13.5t-14.5 21.5t-5 28.5q0 29 17 61.5t47.5 59.5t73.5 45t95 18
q51 0 88.5 -16t68.5 -35.5t57.5 -35.5t55.5 -16q31 0 50 13t34 29t31 29.5t40 13.5q14 0 26 -5t21 -13.5t14.5 -21t5.5 -28.5q0 -29 -17 -61.5t-48 -60t-74 -45.5t-95 -18q-51 0 -88.5 16.5t-68.5 35.5t-57.5 35.5t-54.5 16.5z" />
    <glyph glyph-name="Umacron" unicode="&#x16a;" horiz-adv-x="1423" 
d="M168 1284q0 48 28.5 74.5t85.5 26.5q58 0 86 -26.5t28 -74.5v-715q0 -107 23.5 -183t66.5 -124.5t102 -71.5t130 -23q67 0 123.5 22t97.5 68t64.5 116t23.5 167v744q0 48 27.5 74.5t85.5 26.5t86 -26.5t28 -74.5v-718q0 -147 -38 -256.5t-109 -182.5t-173 -109.5
t-230 -36.5q-130 0 -229.5 35t-167.5 104.5t-103.5 174t-35.5 242.5v747zM971 1730q37 0 56 -20.5t19 -61.5q0 -40 -19 -60.5t-56 -20.5h-516q-36 0 -55.5 20.5t-19.5 60.5q0 41 19.5 61.5t55.5 20.5h516z" />
    <glyph glyph-name="umacron" unicode="&#x16b;" horiz-adv-x="1205" 
d="M153 920q0 47 27 72.5t84 25.5t84 -25.5t27 -72.5v-496q0 -138 55 -200.5t151 -62.5q31 0 57 6.5t48 18t41 26t35 30.5q35 35 59 80v598q0 47 27.5 72.5t83.5 25.5q57 0 84 -25.5t27 -72.5v-837q0 -44 -24 -68t-68 -24q-22 0 -39 5.5t-29 16.5t-19 27.5t-11 38.5l-9 60
h-3q-30 -44 -75 -79q-19 -15 -43.5 -29t-54.5 -25t-65.5 -18t-76.5 -7q-86 0 -154.5 27t-117.5 79.5t-75 129.5t-26 178v525zM853 1397q37 0 56 -20t19 -60t-19 -60t-56 -20h-508q-37 0 -56 20t-19 60t19 60t56 20h508z" />
    <glyph glyph-name="Ubreve" unicode="&#x16c;" horiz-adv-x="1423" 
d="M168 1284q0 48 28.5 74.5t85.5 26.5q58 0 86 -26.5t28 -74.5v-715q0 -107 23.5 -183t66.5 -124.5t102 -71.5t130 -23q67 0 123.5 22t97.5 68t64.5 116t23.5 167v744q0 48 27.5 74.5t85.5 26.5t86 -26.5t28 -74.5v-718q0 -147 -38 -256.5t-109 -182.5t-173 -109.5
t-230 -36.5q-130 0 -229.5 35t-167.5 104.5t-103.5 174t-35.5 242.5v747zM417 1755q0 40 21.5 60t56.5 20q31 0 49 -15t23 -44q11 -60 47.5 -90t105.5 -30q67 0 103.5 31.5t46.5 88.5q6 29 23.5 44t48.5 15q36 0 57 -20t21 -60q0 -55 -24 -102.5t-65.5 -82.5t-97.5 -55
t-119 -20q-67 0 -121.5 20t-93.5 55t-60.5 82.5t-21.5 102.5z" />
    </font>
</defs>
</svg>
