<?xml version="1.0" standalone="no"?>
<!DOCTYPE svg PUBLIC "-//W3C//DTD SVG 1.1//EN" "http://www.w3.org/Graphics/SVG/1.1/DTD/svg11.dtd" >
<svg xmlns="http://www.w3.org/2000/svg" xmlns:xlink="http://www.w3.org/1999/xlink" version="1.1">
<metadata>
Created by FontForge 20170731 at Mon Jan 20 14:05:44 2014
 By Aleksey,,,
Copyright (c) 2012-2014 by Jan Fromm. All rights reserved.
</metadata>
<defs>
<font id="RooneySans-RegularItalic" horiz-adv-x="1024" >
  <font-face 
    font-family="RooneySans-RegularItalic"
    font-weight="400"
    font-style="italic"
    font-stretch="normal"
    units-per-em="2048"
    panose-1="2 11 5 3 4 3 2 13 2 4"
    ascent="1536"
    descent="-512"
    x-height="1008"
    cap-height="1384"
    bbox="-322 -512 2583 2048"
    underline-thickness="102"
    underline-position="-307"
    slope="-10"
    unicode-range="U+000D-FB02"
  />
<missing-glyph 
d="M398 440q0 -65 -51 -65q-23 0 -31.5 4t-15.5 4q-16 0 -16 -21q0 -13 10 -18q11 -5 24 -6.5t25 -1.5q56 0 81.5 26t25.5 78v246q0 33 -33 33h-92q-17 0 -17 -21q0 -20 17 -20h73v-238zM529 360q0 -9 7 -14.5t18 -5.5t19 5.5t8 14.5v152h141q14 0 14 20q0 21 -14 21h-141
v125h157q17 0 17 20q0 21 -17 21h-174q-35 0 -35 -33v-326zM165 539q0 74 26 138t72.5 110.5t109.5 73t138 26.5t138.5 -26.5t110 -73t73 -110.5t26.5 -138q0 -75 -26.5 -138t-73 -109.5t-110 -72.5t-138.5 -26t-138 26t-109.5 72.5t-72.5 109.5t-26 138z" />
    <glyph glyph-name="f_i" unicode="fi" horiz-adv-x="1177" 
d="M167 864q-29 0 -44 15t-15 46q0 19 5.5 34.5t16 26t24.5 16.5t31 6h111l18 105q17 92 55 162t99 118.5t145 73.5t190 25q57 0 102.5 -6.5t78.5 -16t55.5 -20.5t32.5 -22q23 -22 23 -52q0 -32 -19.5 -51t-49.5 -19q-17 0 -35.5 6t-45 13.5t-66 14t-97.5 6.5
q-127 0 -199 -61t-92 -178l-16 -98h533q43 0 61 -21.5t11 -64.5l-147 -846q-6 -40 -30 -61t-70 -21q-44 0 -65 21t-14 61l136 788h-440l-172 -991q-18 -102 -54 -171.5t-86 -111.5t-111.5 -60.5t-129.5 -18.5q-66 0 -104 14t-55 31q-11 10 -16.5 23t-5.5 29t5.5 29
t14.5 22.5t21.5 14t27.5 4.5q13 0 24.5 -3t24.5 -6.5t29.5 -7t40.5 -3.5q33 0 64 11t57 38t46 71t31 111l169 975h-104z" />
    <glyph glyph-name="f_l" unicode="fl" horiz-adv-x="1200" 
d="M167 863q-29 0 -44 15t-15 46q0 20 5.5 35.5t16 26t24.5 16.5t31 6h111l20 112q15 87 53.5 156t101 117.5t150.5 75t203 26.5q54 0 101.5 -5.5t84.5 -14.5t63.5 -21t40.5 -26q10 -10 16 -22.5t6 -31.5q0 -6 -0.5 -14t-2.5 -17l-185 -1069q-8 -42 -6.5 -68t9 -41t21 -20.5
t30.5 -5.5q20 0 31 2.5t25 2.5q23 0 35.5 -15.5t12.5 -38.5q0 -19 -6 -33.5t-19 -26.5q-7 -8 -19 -15t-29 -12.5t-39 -9t-49 -3.5q-93 0 -140 47.5t-47 139.5q0 24 2.5 46.5t7.5 51.5l182 1049q-17 7 -40 13q-20 4 -50 8.5t-73 4.5q-67 0 -117.5 -16t-86.5 -46t-58 -72.5
t-31 -95.5l-19 -112h159q29 0 44 -15.5t15 -46.5q0 -20 -5.5 -35.5t-16 -26t-24.5 -16t-31 -5.5h-166l-172 -990q-18 -102 -54 -171.5t-86 -111.5t-111.5 -60.5t-129.5 -18.5q-66 0 -104 14t-55 31q-11 10 -16.5 23t-5.5 29t5.5 29t14.5 22.5t21.5 14t27.5 4.5q13 0 24.5 -3
t24.5 -6.5t29.5 -7t40.5 -3.5q33 0 64 11t57 38t46 71t31 111l169 974h-104z" />
    <glyph glyph-name=".notdef" 
d="M398 440q0 -65 -51 -65q-23 0 -31.5 4t-15.5 4q-16 0 -16 -21q0 -13 10 -18q11 -5 24 -6.5t25 -1.5q56 0 81.5 26t25.5 78v246q0 33 -33 33h-92q-17 0 -17 -21q0 -20 17 -20h73v-238zM529 360q0 -9 7 -14.5t18 -5.5t19 5.5t8 14.5v152h141q14 0 14 20q0 21 -14 21h-141
v125h157q17 0 17 20q0 21 -17 21h-174q-35 0 -35 -33v-326zM165 539q0 74 26 138t72.5 110.5t109.5 73t138 26.5t138.5 -26.5t110 -73t73 -110.5t26.5 -138q0 -75 -26.5 -138t-73 -109.5t-110 -72.5t-138.5 -26t-138 26t-109.5 72.5t-72.5 109.5t-26 138z" />
    <glyph glyph-name=".null" horiz-adv-x="0" 
 />
    <glyph glyph-name=".null" horiz-adv-x="0" 
 />
    <glyph glyph-name="nonmarkingreturn" unicode="&#xd;" horiz-adv-x="0" 
 />
    <glyph glyph-name="space" unicode=" " horiz-adv-x="534" 
 />
    <glyph glyph-name="exclam" unicode="!" horiz-adv-x="670" 
d="M388 1375q2 15 4 27t4.5 22t7 18.5t11.5 16.5q15 15 35.5 21t47.5 6q25 0 42.5 -4.5t28.5 -12.5t16.5 -20t5.5 -26q0 -4 -0.5 -8t-1.5 -10t-2.5 -16t-5.5 -26l-172 -907q-6 -34 -29 -52.5t-62 -18.5q-40 0 -58.5 19t-13.5 53zM135 104q0 29 11 54.5t29.5 44t44 29
t54.5 10.5t52 -9t39.5 -25.5t25.5 -39.5t9 -50q0 -29 -10.5 -54t-29 -43.5t-44 -29t-55.5 -10.5q-28 0 -51 9t-39.5 25.5t-26 39t-9.5 49.5z" />
    <glyph glyph-name="quotedbl" unicode="&#x22;" horiz-adv-x="768" 
d="M290 1436q2 15 10 26t20 18t27 10.5t32 3.5q18 0 33.5 -4t27 -11.5t17.5 -17.5t6 -23q0 -5 -1 -11.5t-4 -22.5l-83 -365q-8 -29 -26.5 -42t-45.5 -13q-25 0 -41.5 11.5t-16.5 36.5q0 7 1 15t3 27zM624 1436q1 15 9 26t20.5 18t27.5 10.5t31 3.5q19 0 34.5 -4t26.5 -11.5
t17.5 -17.5t6.5 -23q0 -5 -1 -11.5t-5 -22.5l-83 -365q-7 -29 -25.5 -42t-45.5 -13q-25 0 -42 11.5t-17 36.5q0 7 1 15t3 27z" />
    <glyph glyph-name="numbersign" unicode="#" horiz-adv-x="1437" 
d="M537 888h-182q-26 0 -39.5 14t-13.5 41q0 33 18.5 53t54.5 20h224l164 332q13 26 30.5 37t41.5 11q14 0 26 -5t21 -13.5t14 -20t5 -24.5q0 -9 -2.5 -18.5t-6.5 -16.5l-140 -282h318l164 332q13 26 30.5 37t41.5 11q14 0 26 -5t20.5 -13.5t14 -20t5.5 -24.5q0 -9 -3 -18.5
t-6 -16.5l-140 -282h184q26 0 39.5 -14t13.5 -40q0 -34 -19.5 -54t-54.5 -20h-225l-197 -400h182q26 0 39.5 -13.5t13.5 -40.5q0 -34 -19 -54t-55 -20h-224l-164 -332q-12 -26 -30 -36.5t-42 -10.5q-13 0 -25.5 5t-21 13t-14 19.5t-5.5 24.5q0 9 3 18.5t6 16.5l139 282h-316
l-164 -332q-13 -26 -30.5 -36.5t-41.5 -10.5q-14 0 -26 5t-21 13t-14 19.5t-5 24.5q0 9 2.5 18.5t6.5 16.5l139 282h-183q-26 0 -39.5 14t-13.5 41q0 33 18.5 53t54.5 20h225zM493 488h317l197 400h-316z" />
    <glyph glyph-name="dollar" unicode="$" horiz-adv-x="1048" 
d="M382 3q-52 2 -95.5 10.5t-78 20t-59.5 25.5t-39 28q-13 13 -18.5 26t-5.5 30q0 15 5.5 27.5t14.5 22t23 15.5t31 6q20 0 41 -9.5t52 -21t77 -21t117 -9.5t123.5 16t87 45t51.5 69t17 88q0 50 -23 87t-61 66.5t-86 53.5t-97.5 49t-97.5 53.5t-86 66.5t-61 87.5t-23 118.5
q0 70 23.5 130.5t71 107t118 77.5t164.5 40l38 223q6 35 24.5 51t52.5 16q33 0 50 -16t11 -51l-38 -220q37 -3 71 -9.5t63 -16.5t51 -22t36 -25q13 -14 18 -27t5 -30q0 -15 -5 -27.5t-14.5 -22t-23.5 -15t-30 -5.5q-21 0 -41.5 8t-49 17.5t-68 17.5t-96.5 8
q-64 0 -110 -13.5t-76 -37.5t-45 -57t-15 -72q0 -47 23 -81.5t61 -61.5t86 -51t98 -48.5t98 -54t85.5 -69t60.5 -92.5t23 -124q0 -77 -25 -143.5t-74 -118t-122 -85.5t-170 -45l-39 -230q-6 -34 -25 -50.5t-52 -16.5q-34 0 -50.5 16.5t-10.5 50.5z" />
    <glyph glyph-name="percent" unicode="%" horiz-adv-x="1885" 
d="M1406 1367q13 16 24 23t27 7q15 0 28 -5.5t23 -14.5t15.5 -20t5.5 -24q0 -12 -5 -21.5t-14 -21.5l-966 -1277q-12 -16 -23 -23.5t-28 -7.5q-14 0 -27 5.5t-23 14.5t-16 20.5t-6 23.5t5.5 22t14.5 22zM180 895q0 101 27 192t78.5 159.5t127.5 108.5t173 40q65 0 116 -19
t86.5 -55.5t54.5 -89t19 -119.5q0 -101 -27 -191.5t-78.5 -159.5t-127.5 -109t-172 -40q-66 0 -117 19t-86.5 55t-54.5 88.5t-19 120.5zM343 909q0 -90 36.5 -131.5t98.5 -41.5q49 0 90.5 27.5t70 76t45 114.5t16.5 144q0 90 -37.5 132t-98.5 42q-50 0 -91 -27.5t-69.5 -76
t-44.5 -115t-16 -144.5zM1088 267q0 101 27 192t78.5 159.5t127.5 108.5t173 40q65 0 116 -19t86.5 -55.5t54.5 -89t19 -119.5q0 -101 -27 -191.5t-78.5 -159.5t-127.5 -109t-172 -40q-66 0 -117 19t-86.5 55t-54.5 88.5t-19 120.5zM1251 281q0 -90 36.5 -131.5t98.5 -41.5
q49 0 90.5 27.5t70 76t45 114.5t16.5 144q0 90 -37.5 132t-98.5 42q-50 0 -91 -27.5t-69.5 -76t-44.5 -115t-16 -144.5z" />
    <glyph glyph-name="ampersand" unicode="&#x26;" horiz-adv-x="1658" 
d="M97 349q0 97 36.5 172t97.5 134.5t139.5 105.5t161.5 86q-13 59 -19.5 115t-6.5 109q0 99 29.5 177.5t84 133.5t130.5 84t170 29q71 0 126.5 -19.5t93.5 -53.5t57.5 -81.5t19.5 -104.5q0 -90 -41.5 -156.5t-109.5 -119.5t-155.5 -95.5t-177.5 -81.5q20 -71 50 -145
t68.5 -146t85 -137.5t101.5 -120.5q22 -23 44.5 -41t44.5 -30.5t44.5 -19.5t48.5 -7q31 0 58.5 11t47.5 35t31 62.5t11 93.5q0 65 -21 125t-57.5 105t-84.5 71.5t-102 26.5q-25 0 -41.5 -2t-29.5 -2q-10 0 -18.5 3.5t-15 10.5t-10.5 18.5t-4 27.5q0 38 36 65t114 27
q97 0 173.5 -37t129.5 -99.5t81.5 -143.5t28.5 -168q0 -63 -17 -129.5t-57.5 -122.5t-106.5 -92t-164 -36q-88 0 -160 34t-141 103q-25 -21 -62.5 -45.5t-87 -45.5t-111 -35.5t-134.5 -14.5q-97 0 -173 27t-128 75t-80 115.5t-28 149.5zM279 373q0 -115 65 -178.5t190 -63.5
q49 0 91 9.5t76.5 24t61 32.5t45.5 33q-76 104 -135 225.5t-102 254.5q-61 -30 -114 -64t-93 -74.5t-62.5 -89.5t-22.5 -109zM684 1091q0 -45 4 -86.5t11 -85.5q70 31 131 62.5t106.5 67t72 77t26.5 92.5q0 64 -35.5 98.5t-104.5 34.5q-45 0 -84 -16.5t-67 -49.5t-44 -81.5
t-16 -112.5z" />
    <glyph glyph-name="quotesingle" unicode="'" horiz-adv-x="434" 
d="M290 1436q2 15 10 26t20 18t27 10.5t32 3.5q18 0 33.5 -4t27 -11.5t17.5 -17.5t6 -23q0 -5 -1 -11.5t-4 -22.5l-83 -365q-8 -29 -26.5 -42t-45.5 -13q-25 0 -41.5 11.5t-16.5 36.5q0 7 1 15t3 27z" />
    <glyph glyph-name="parenleft" unicode="(" horiz-adv-x="637" 
d="M124 338q0 179 35.5 344.5t102 316t161 285t213.5 251.5q20 20 49 20q15 0 28.5 -5.5t23.5 -14.5t16 -21t6 -26q0 -10 -3.5 -19t-11.5 -19q-99 -111 -180 -234t-139 -261.5t-90 -291.5t-32 -325q0 -91 9 -180t25.5 -170.5t41.5 -154.5t57 -133q3 -7 4.5 -12.5t1.5 -14.5
q0 -15 -6.5 -27t-17.5 -21t-25 -14t-28 -5q-16 0 -30.5 6.5t-23.5 21.5q-45 63 -80 143t-58.5 170t-36 189.5t-12.5 201.5z" />
    <glyph glyph-name="parenright" unicode=")" horiz-adv-x="637" 
d="M360 822q0 91 -8.5 180t-25.5 170.5t-42 154.5t-56 133q-4 7 -5.5 13t-1.5 14q0 15 7 27t17.5 20.5t24.5 14t29 5.5q16 0 30 -7t24 -21q44 -63 79 -143t59 -170t36 -189.5t12 -201.5q0 -179 -35.5 -344.5t-102 -316t-161 -285t-212.5 -251.5q-20 -20 -49 -20
q-15 0 -28.5 5.5t-23.5 14.5t-16.5 21t-6.5 25q0 11 3.5 20t12.5 19q98 111 179.5 234t139.5 261t89.5 291.5t31.5 325.5z" />
    <glyph glyph-name="asterisk" unicode="*" horiz-adv-x="838" 
d="M298 953q-14 -9 -22.5 -12.5t-17.5 -3.5q-13 0 -24 6t-19 16t-13 23t-5 26q0 17 8 29.5t24 19.5l199 88l-169 97q-12 8 -18 18t-6 24q0 13 6 27.5t16 25.5t23 18.5t26 7.5q11 0 19 -4t21 -15l147 -109l24 214q1 11 6.5 19.5t14 14.5t19.5 8.5t23 2.5t23.5 -2.5t21 -8.5
t15.5 -15t6 -20q0 -5 -1.5 -11l-4.5 -18l-43 -187l163 96q13 9 22 12.5t18 3.5q12 0 23 -6t19.5 -16t13 -23t4.5 -26q0 -17 -7.5 -29.5t-23.5 -19.5l-199 -88l169 -97q12 -7 18 -17.5t6 -24.5q0 -13 -6 -27.5t-16 -25.5t-23 -18.5t-27 -7.5q-10 0 -18 4t-22 15l-146 109
l-25 -214q-1 -11 -6.5 -19.5t-14 -14.5t-19.5 -8.5t-23 -2.5q-11 0 -22.5 2.5t-21 8.5t-15.5 14.5t-6 20.5q0 5 1.5 11.5t3.5 17.5l44 187z" />
    <glyph glyph-name="plus" unicode="+" horiz-adv-x="1168" 
d="M236 510q-33 0 -49.5 16t-16.5 44q0 18 6 34t17 27t27 17t35 6h284l49 288q7 43 30 64.5t60 21.5t53 -21.5t9 -64.5l-49 -288h272q32 0 49 -15t17 -45q0 -19 -6 -34.5t-17.5 -26.5t-27.5 -17t-35 -6h-277l-49 -288q-8 -43 -32 -64.5t-60 -21.5q-37 0 -53.5 21.5
t-8.5 64.5l49 288h-276z" />
    <glyph glyph-name="comma" unicode="," horiz-adv-x="561" 
d="M81 109q0 29 10 54t28.5 43.5t43.5 29.5t55 11q58 0 91.5 -36.5t33.5 -103.5q0 -46 -16 -93t-42.5 -92.5t-60.5 -87t-71 -75.5q-23 -20 -42.5 -34.5t-37 -23.5t-33.5 -13t-31 -4q-29 0 -45 15t-16 39q0 15 7.5 27t21 25t31 28.5t38 39.5t43 58t44.5 83q-11 8 -20.5 19
t-16.5 24t-11 30t-4 37z" />
    <glyph glyph-name="hyphen" unicode="-" horiz-adv-x="942" 
d="M220 465q-28 0 -43 15t-15 46q0 20 5.5 36t15.5 27t24 17t31 6h498q28 0 43.5 -15t15.5 -46q0 -20 -5.5 -36t-16 -27t-24.5 -17t-31 -6h-498z" />
    <glyph glyph-name="period" unicode="." horiz-adv-x="561" 
d="M81 109q0 29 10.5 54.5t28.5 44t43 29t55 10.5q28 0 51.5 -9.5t40.5 -26.5t26.5 -41t9.5 -52q0 -29 -10.5 -54t-29 -43.5t-43.5 -29t-54 -10.5q-28 0 -52 9.5t-40.5 26.5t-26 40.5t-9.5 51.5z" />
    <glyph glyph-name="slash" unicode="/" horiz-adv-x="825" 
d="M766 1445q12 24 28.5 35.5t40.5 11.5q12 0 28 -5t28.5 -14.5t21.5 -23.5t9 -32q0 -12 -4.5 -22.5t-10.5 -22.5l-883 -1663q-12 -24 -28.5 -35.5t-39.5 -11.5q-14 0 -29.5 5t-28 14.5t-21.5 23.5t-9 32q0 12 4.5 22.5t10.5 22.5z" />
    <glyph glyph-name="zero" unicode="0" horiz-adv-x="1241" 
d="M94 430q0 145 46.5 264t128.5 205t193.5 133t241.5 47q106 0 190 -31t142 -89t89 -141t31 -187q0 -145 -46.5 -264.5t-128 -205t-193.5 -133t-242 -47.5q-105 0 -189 31t-142.5 89t-89.5 141.5t-31 187.5zM280 451q0 -80 20 -139.5t57.5 -99.5t91 -60.5t121.5 -20.5
q81 0 153.5 33.5t127.5 95t87 150.5t32 200q0 79 -20 139t-57.5 100t-91 60.5t-120.5 20.5q-82 0 -154.5 -33.5t-127.5 -95.5t-87 -151t-32 -199z" />
    <glyph glyph-name="one" unicode="1" horiz-adv-x="672" 
d="M205 817q-18 -5 -31 -7.5t-25 -2.5q-26 0 -42 16.5t-16 42.5q0 16 4.5 27.5t17.5 24.5q9 9 24 19t38 21.5t53.5 25t70.5 30.5q39 16 67 27t49.5 17.5t38.5 9.5t33 3q21 0 37 -7t26 -20t13.5 -31t-0.5 -40l-155 -897q-6 -40 -30 -61t-69 -21t-65.5 21t-14.5 61l137 789z
" />
    <glyph glyph-name="two" unicode="2" horiz-adv-x="919" 
d="M712 156q30 0 45.5 -16.5t15.5 -49.5q0 -22 -6 -38.5t-17 -28t-26.5 -17.5t-34.5 -6h-605q-46 0 -71 25t-25 65q0 17 3.5 31.5t13 29t26 30t41.5 34.5l263 199q73 56 132 103.5t100.5 91.5t64 87.5t22.5 90.5q0 66 -44 104.5t-141 38.5q-50 0 -87 -7.5t-65 -16t-48.5 -16
t-37.5 -7.5q-26 0 -41.5 16.5t-15.5 43.5q0 15 5.5 28.5t16.5 23.5q16 16 45.5 31t70 27t90.5 19t105 7q85 0 148.5 -19t105 -54t62 -84t20.5 -108q0 -68 -26.5 -128.5t-76 -119t-121.5 -118.5t-163 -126l-223 -166h479z" />
    <glyph glyph-name="three" unicode="3" horiz-adv-x="940" 
d="M254 -193q78 0 140.5 22.5t106 62.5t67 94t23.5 117q0 52 -18 94.5t-59 72t-107.5 45.5t-163.5 16q-35 0 -51 16q-8 9 -11.5 23.5t-2 31t7.5 32t16 25.5q8 9 22 13t36 4q107 0 183 20t124 56.5t70.5 87t22.5 111.5q0 83 -51 131.5t-149 48.5q-51 0 -88 -7.5t-65 -16
t-48.5 -16t-36.5 -7.5q-26 0 -41.5 16.5t-15.5 43.5q0 15 6 28t16 23q16 16 45.5 31t70 27t90.5 19t105 7q86 0 151.5 -21.5t109.5 -60t66 -93t22 -121.5q0 -68 -20.5 -127.5t-59 -107t-93.5 -81.5t-123 -53v-2q51 -9 93 -36t72 -66.5t46.5 -87.5t16.5 -99
q0 -95 -37.5 -178.5t-107 -146.5t-168.5 -99t-222 -36q-60 0 -107 7t-82 17t-57.5 21.5t-34.5 23.5q-11 11 -16.5 23.5t-5.5 29.5q0 31 18.5 50t48.5 19q17 0 35.5 -7.5t45.5 -16.5t66.5 -16t98.5 -7z" />
    <glyph glyph-name="four" unicode="4" horiz-adv-x="1052" 
d="M88 81q-46 0 -71 25.5t-25 68.5q0 15 3.5 29.5t10 29t17 29.5t24.5 32l555 680q19 25 38.5 43t41 29.5t46.5 18t55 6.5q29 0 51.5 -8.5t36.5 -23.5t19 -35.5t0 -46.5l-124 -726h151q59 0 59 -64q0 -21 -6 -37t-16.5 -27t-26 -17t-33.5 -6h-154l-56 -326q-7 -39 -30.5 -60
t-67.5 -21t-64.5 21.5t-14.5 60.5l56 325h-475zM700 867l-516 -635h405z" />
    <glyph glyph-name="five" unicode="5" horiz-adv-x="957" 
d="M306 538q118 -3 212 -30t159 -76.5t99.5 -120.5t34.5 -162q0 -105 -38 -194t-110 -154t-176 -101.5t-238 -36.5q-56 0 -102.5 7t-81 17t-57.5 21.5t-34 23.5q-12 11 -17.5 23.5t-5.5 29.5q0 31 19 50t49 19q17 0 35.5 -7t46 -16t65.5 -16.5t94 -7.5q84 0 151.5 24
t114.5 66.5t71.5 99.5t24.5 123q0 60 -21 108.5t-71 83.5t-131 54t-200 19q-40 0 -56.5 22.5t-8.5 64.5l112 506q10 43 34.5 62.5t70.5 19.5h506q30 0 46 -16.5t16 -49.5q0 -22 -6 -38t-16.5 -28t-25.5 -18t-32 -6h-453z" />
    <glyph glyph-name="six" unicode="6" horiz-adv-x="1089" 
d="M839 1250q-93 0 -173 -36t-145 -99.5t-113 -153t-78 -194.5q35 24 80 43q38 16 91.5 29.5t119.5 13.5q90 0 159 -25t116 -71.5t71.5 -112t24.5 -145.5q0 -118 -38 -213.5t-105.5 -162.5t-158 -104.5t-196.5 -37.5q-194 0 -292 112t-98 322q0 116 20.5 233.5t62 227
t104 204.5t146.5 166t190 111.5t235 40.5q54 0 90.5 -7.5t58 -20t31 -28.5t9.5 -35q0 -15 -5.5 -27.5t-14 -22t-21.5 -15t-27 -5.5q-12 0 -24.5 2t-29 4.5t-38 4.5t-52.5 2zM573 707q-63 0 -113.5 -17t-86.5 -37q-43 -24 -76 -53q-6 -43 -9 -85.5t-3 -87.5
q0 -79 15.5 -135.5t44.5 -93t71.5 -53.5t95.5 -17q59 0 112 22t93.5 66t64 108.5t23.5 149.5q0 53 -15 96.5t-44.5 73.5t-73 46.5t-99.5 16.5z" />
    <glyph glyph-name="seven" unicode="7" horiz-adv-x="907" 
d="M175 903q-30 0 -45.5 16.5t-15.5 50.5q0 22 6 38.5t17 28t26.5 17.5t35.5 6h644q22 0 38.5 -5t27.5 -15t16.5 -23.5t5.5 -30.5q0 -13 -2.5 -25.5t-7 -25.5t-12.5 -28t-20 -33q-103 -153 -195.5 -305.5t-173 -299.5t-148.5 -285.5t-121 -262.5q-11 -26 -29.5 -36.5
t-44.5 -10.5q-17 0 -32.5 5t-27 14t-18.5 22t-7 28q0 14 5 29t15 41q46 113 109.5 243t140 269t163.5 285.5t182 292.5h-532z" />
    <glyph glyph-name="eight" unicode="8" horiz-adv-x="1064" 
d="M60 294q0 82 28.5 146t76.5 115t111 92t132 77q-39 23 -73.5 52t-60.5 65.5t-40.5 80.5t-14.5 96q0 77 32 145.5t92 120.5t146.5 83t194.5 31q85 0 150 -22.5t110 -60.5t67.5 -90t22.5 -110q0 -73 -24.5 -129t-65.5 -101t-97 -81.5t-118 -69.5q43 -24 83 -58t70.5 -75
t49 -90.5t18.5 -105.5q0 -90 -33.5 -167.5t-97.5 -134.5t-157.5 -89.5t-214.5 -32.5q-94 0 -166 24t-121.5 66.5t-74.5 99.5t-25 123zM243 320q0 -44 14.5 -80t43.5 -61.5t72.5 -39.5t100.5 -14q68 0 122 19t91.5 53t57 81t19.5 102q0 47 -17 85.5t-46.5 71.5t-70.5 60
t-87 50q-65 -34 -119.5 -66.5t-95.5 -70.5t-63 -84t-22 -106zM403 1039q0 -41 14 -73t39.5 -59.5t60.5 -51t76 -44.5q58 30 106 59t81.5 61.5t52.5 70t19 86.5q0 73 -50.5 119t-149.5 46q-57 0 -103.5 -16.5t-79 -45.5t-49.5 -68t-17 -84z" />
    <glyph glyph-name="nine" unicode="9" horiz-adv-x="1090" 
d="M296 586q0 -53 15 -96t44.5 -73t73 -46.5t98.5 -16.5q62 0 113 16t88 37q43 23 76 53q6 43 8.5 87t2.5 89q0 79 -15.5 135t-44.5 92t-71 53t-95 17q-59 0 -112.5 -22.5t-93.5 -66t-63.5 -108.5t-23.5 -150zM109 562q0 117 38 212.5t105 163t158 104.5t197 37
q193 0 291.5 -112t98.5 -322q0 -115 -20.5 -233t-62 -227.5t-104.5 -204.5t-147 -165.5t-190 -111t-234 -40.5q-83 0 -135.5 14.5t-73.5 34.5q-9 9 -14.5 20.5t-5.5 28.5q0 15 5 27.5t14 21.5t21.5 14.5t27.5 5.5t30 -3l35 -7t46 -7t64 -3q102 0 185.5 38.5t147.5 103.5
t110 153t75 188q-35 -25 -80 -43q-39 -17 -92.5 -30t-119.5 -13q-89 0 -158 25t-116.5 71.5t-71.5 112.5t-24 146z" />
    <glyph glyph-name="colon" unicode=":" horiz-adv-x="561" 
d="M81 109q0 29 10.5 54.5t28.5 44t43 29t55 10.5q28 0 51.5 -9.5t40.5 -26.5t26.5 -41t9.5 -52q0 -29 -10.5 -54t-29 -43.5t-43.5 -29t-54 -10.5q-28 0 -52 9.5t-40.5 26.5t-26 40.5t-9.5 51.5zM186 722q0 29 10 54t28.5 43.5t43.5 29t55 10.5q28 0 51.5 -9.5t40.5 -26
t26.5 -40.5t9.5 -52q0 -29 -10.5 -54t-29 -43.5t-43.5 -29t-54 -10.5t-52.5 9.5t-40.5 26t-26 40t-9 52.5z" />
    <glyph glyph-name="semicolon" unicode=";" horiz-adv-x="561" 
d="M186 722q0 29 10 54t28.5 43.5t43.5 29t55 10.5q28 0 51.5 -9.5t40.5 -26t26.5 -40.5t9.5 -52q0 -29 -10.5 -54t-29 -43.5t-43.5 -29t-54 -10.5t-52.5 9.5t-40.5 26t-26 40t-9 52.5zM81 109q0 29 10 54t28.5 43.5t43.5 29.5t55 11q58 0 91.5 -36.5t33.5 -103.5
q0 -46 -16 -93t-42.5 -92.5t-60.5 -87t-71 -75.5q-23 -20 -42.5 -34.5t-37 -23.5t-33.5 -13t-31 -4q-29 0 -45 15t-16 39q0 15 7.5 27t21 25t31 28.5t38 39.5t43 58t44.5 83q-11 8 -20.5 19t-16.5 24t-11 30t-4 37z" />
    <glyph glyph-name="less" unicode="&#x3c;" horiz-adv-x="1168" 
d="M819 288q23 -17 30.5 -32.5t7.5 -33.5q0 -16 -6.5 -30.5t-18 -26t-27 -18.5t-33.5 -7q-14 0 -28 5.5t-30 16.5l-445 336q-20 16 -29 33.5t-9 40.5q0 27 14.5 50t52.5 45l567 340q14 8 26 11t25 3q14 0 27 -6t22.5 -16t15 -23t5.5 -27q0 -21 -10.5 -37.5t-33.5 -29.5
l-505 -303z" />
    <glyph glyph-name="equal" unicode="=" horiz-adv-x="1168" 
d="M976 843q66 0 66 -60q0 -19 -6 -34.5t-17 -26.5t-27.5 -17t-35.5 -6h-669q-67 0 -67 60q0 19 6 34.5t18 26.5t27.5 17t35.5 6h669zM912 466q33 0 50 -15.5t17 -43.5q0 -19 -6.5 -35t-17.5 -27.5t-27.5 -17.5t-36.5 -6h-669q-33 0 -48.5 16t-15.5 44q0 19 6 34.5t17 27
t26.5 17.5t34.5 6h670z" />
    <glyph glyph-name="greater" unicode="&#x3e;" horiz-adv-x="1168" 
d="M374 881q-21 16 -29 31.5t-8 33.5q0 15 6.5 30t17.5 26.5t27 18.5t33 7q15 0 28.5 -4.5t29.5 -17.5l446 -337q20 -16 28.5 -33t8.5 -40q0 -27 -14.5 -50t-53.5 -46l-565 -339q-13 -8 -25.5 -11t-25.5 -3q-15 0 -27.5 6t-22 16t-15 22.5t-5.5 26.5q0 22 9.5 38.5
t32.5 29.5l506 303z" />
    <glyph glyph-name="question" unicode="?" horiz-adv-x="796" 
d="M239 507q0 70 18.5 124t48.5 98.5t68.5 80.5t78.5 69.5t78 65.5t68 67.5t48.5 77t18.5 93.5q0 76 -48 119.5t-146 43.5q-48 0 -80.5 -6.5t-56 -14.5t-40 -14.5t-33.5 -6.5q-24 0 -38.5 16t-14.5 40q0 16 5 28.5t20 27.5q14 14 40 28t62 25.5t81 18.5t96 7q85 0 149.5 -19
t108.5 -55.5t66.5 -89.5t22.5 -120q0 -69 -19 -123t-50 -98t-70.5 -81t-80.5 -70.5t-81 -66.5t-70.5 -70.5t-49.5 -81t-19 -97.5q0 -24 1.5 -37t1.5 -24q0 -34 -23.5 -55.5t-64.5 -21.5q-44 0 -70 28.5t-26 93.5zM154 104q0 29 11 54.5t29.5 44t44 29t55.5 10.5q28 0 51 -9
t39.5 -25.5t25.5 -39.5t9 -50q0 -29 -10.5 -54t-29.5 -43.5t-44 -29t-55 -10.5q-28 0 -51 9t-39.5 25.5t-26 39t-9.5 49.5z" />
    <glyph glyph-name="at" unicode="@" horiz-adv-x="2074" 
d="M1377 431q-12 -46 -13 -77.5t8 -50.5t29 -27.5t50 -8.5q38 0 81 15t84.5 46.5t80 81t67 117.5t46 155.5t17.5 196.5q0 111 -34 199.5t-103 149.5t-174 94t-247 33t-270 -32.5t-235.5 -93t-194.5 -146.5t-148 -193t-93.5 -232.5t-32.5 -264.5q0 -142 38 -250.5t114.5 -182
t190.5 -111.5t267 -38q97 0 160 11t105 24t67.5 24t46.5 11q28 0 43 -17.5t15 -41.5q0 -18 -7 -34t-26 -31q-18 -14 -54 -30.5t-90 -30.5t-125 -23.5t-159 -9.5q-185 0 -327.5 49t-239 140t-145.5 222.5t-49 298.5q0 164 38.5 311.5t110.5 273t176 226.5t234 172t285 109.5
t331 38.5q172 0 303 -44t220.5 -123.5t134.5 -190t45 -243.5q0 -118 -21 -221.5t-59.5 -189.5t-92 -153.5t-117.5 -114t-136.5 -71t-148.5 -24.5q-51 0 -88 10.5t-62 30t-38.5 46.5t-18.5 60l-4 2q-35 -42 -81 -75q-38 -28 -94.5 -51t-127.5 -23q-67 0 -121 22t-93.5 64
t-61 102.5t-21.5 137.5q0 125 43 230.5t120 181.5t185 118.5t238 42.5q51 0 95.5 -6.5t79.5 -16t59.5 -22t37.5 -22.5q20 -20 24 -39.5t-4 -51.5zM1315 846q-14 10 -37 18q-19 8 -48.5 14t-69.5 6q-77 0 -144.5 -29.5t-117 -82.5t-78 -128t-28.5 -166q0 -108 42 -155.5
t118 -47.5q28 0 54.5 6.5t49.5 17.5t43.5 25t37.5 28q40 34 72 78z" />
    <glyph glyph-name="A" unicode="A" horiz-adv-x="1219" 
d="M161 58q-9 -18 -14 -27.5t-13 -17.5q-10 -10 -24 -16t-34 -6q-18 0 -35 5.5t-30.5 16t-21.5 25t-8 31.5q0 13 4.5 25.5t15.5 34.5l589 1125q8 16 15.5 28.5t14 23.5t14 20.5t17.5 19.5q19 18 44.5 28t60.5 10q33 0 55 -7.5t38 -23.5q17 -17 24.5 -42.5t13.5 -60.5
l203 -1129q4 -23 5 -32.5t1 -17.5q0 -18 -8 -32.5t-22 -25t-33 -16.5t-39 -6q-21 0 -37 6t-28 18q-11 11 -15.5 28t-8.5 37l-48 286h-541zM833 517l-78 474q-8 41 -13 77t-8 64q-4 32 -7 59h-4q-12 -27 -27 -60q-14 -28 -31.5 -63.5t-37.5 -76.5l-237 -474h443z" />
    <glyph glyph-name="B" unicode="B" horiz-adv-x="1184" 
d="M478 151q103 0 178 21.5t124 60t72 91t23 114.5q0 46 -15.5 82.5t-51.5 62.5t-94 40t-144 14h-175l-84 -486h167zM579 787q90 0 156.5 20t110.5 55t65 83t21 105q0 40 -14 73t-44.5 56t-81 35.5t-122.5 12.5h-173l-76 -440h158zM326 1294q7 42 31 63t67 21h276
q111 0 191.5 -22.5t132 -62t76 -94.5t24.5 -119q0 -69 -21 -126t-58.5 -101t-88.5 -76t-111 -52v-2q54 -11 95 -33.5t69.5 -56t43.5 -77t15 -94.5q0 -96 -38.5 -180.5t-116 -147t-194 -98.5t-273.5 -36h-251q-46 0 -65 23.5t-11 70.5z" />
    <glyph glyph-name="C" unicode="C" horiz-adv-x="1169" 
d="M116 514q0 134 27.5 252t77 216t119 174.5t153.5 129.5t180.5 81t200.5 28q59 0 109 -7t89 -19t67 -27.5t44 -31.5q13 -14 19 -27.5t6 -31.5q0 -31 -20 -52.5t-55 -21.5q-21 0 -42.5 9.5t-52 21t-75.5 21t-112 9.5q-105 0 -203 -48t-173.5 -138t-121 -220t-45.5 -294
q0 -96 25.5 -170t72.5 -124t114 -76t149 -26q67 0 115.5 10.5t83 22t58 22t42.5 10.5q28 0 43 -17t15 -42q0 -19 -6 -35t-20 -30q-22 -21 -58 -39t-83.5 -31.5t-104.5 -21t-118 -7.5q-121 0 -217.5 36t-164 104.5t-103 166.5t-35.5 223z" />
    <glyph glyph-name="D" unicode="D" horiz-adv-x="1366" 
d="M326 1294q7 42 31 63t67 21h316q144 0 252 -36t180.5 -104t108.5 -166t36 -224q0 -191 -60.5 -347t-170.5 -267.5t-263.5 -172.5t-338.5 -61h-289q-46 0 -65 23.5t-11 70.5zM515 154q134 0 246 46t193 132.5t126 211t45 281.5q0 197 -103 298t-314 101h-210l-185 -1070
h202z" />
    <glyph glyph-name="E" unicode="E" horiz-adv-x="1049" 
d="M313 155h514q30 0 46 -17t16 -50q0 -20 -5.5 -36.5t-16.5 -28t-26 -17.5t-32 -6h-614q-39 0 -58.5 17t-19.5 51q0 9 1 18t3 19l205 1189q7 42 31 63t67 21h611q30 0 46 -16.5t16 -49.5q0 -21 -6 -37.5t-16.5 -28t-25.5 -17.5t-32 -6h-519l-76 -438h440q30 0 46 -16.5
t16 -49.5q0 -20 -5.5 -36.5t-16.5 -28t-25.5 -17.5t-32.5 -6h-449z" />
    <glyph glyph-name="F" unicode="F" horiz-adv-x="991" 
d="M300 77q-7 -40 -31 -61.5t-71 -21.5q-84 0 -84 65q0 7 1.5 16.5t4.5 24.5l206 1194q7 42 31 63t67 21h602q30 0 46 -16.5t16 -49.5q0 -21 -6 -37.5t-16.5 -28t-25.5 -17.5t-33 -6h-509l-80 -460h421q29 0 45 -16.5t16 -49.5q0 -21 -5.5 -37.5t-16 -27.5t-25.5 -17t-33 -6
h-429z" />
    <glyph glyph-name="G" unicode="G" horiz-adv-x="1348" 
d="M800 571q-29 0 -45 16.5t-16 48.5q0 20 5.5 36.5t16 27.5t25.5 17t32 6h331q43 0 61.5 -23t10.5 -67l-76 -442q-6 -32 -16.5 -55t-27.5 -41q-21 -20 -60 -40t-93 -36.5t-121.5 -27t-145.5 -10.5q-136 0 -241 37t-176.5 106.5t-108.5 170.5t-37 230t28.5 243.5t81 211.5
t126.5 174t166.5 130.5t200.5 82t227 28.5q64 0 119 -8.5t98.5 -22.5t75.5 -31t50 -36q14 -13 19.5 -27t5.5 -31q0 -32 -20 -53.5t-55 -21.5q-22 0 -45 11.5t-57.5 25.5t-87 25.5t-133.5 11.5q-127 0 -237.5 -49t-193 -138.5t-130 -217t-47.5 -283.5q0 -202 106 -308
t309 -106q60 0 104.5 6t74.5 15q35 9 60 21l67 393h-231z" />
    <glyph glyph-name="H" unicode="H" horiz-adv-x="1401" 
d="M300 77q-7 -40 -31 -61.5t-71 -21.5q-84 0 -84 65q0 7 1.5 16.5t4.5 24.5l207 1201q7 40 31 61.5t71 21.5t68 -21t14 -62l-89 -515h655l89 515q6 40 30.5 61.5t70.5 21.5q84 0 84 -65q0 -7 -1.5 -16.5t-3.5 -24.5l-208 -1201q-7 -40 -31 -61.5t-71 -21.5t-68 21t-14 62
l95 554h-654z" />
    <glyph glyph-name="I" unicode="I" horiz-adv-x="563" 
d="M327 1302q7 40 31 61t71 21q84 0 84 -65q0 -7 -2 -16.5t-4 -24.5l-207 -1201q-7 -40 -31 -61.5t-71 -21.5q-84 0 -84 65q0 7 1.5 16.5t4.5 24.5z" />
    <glyph glyph-name="J" unicode="J" horiz-adv-x="570" 
d="M335 1302q7 40 31 61t71 21q84 0 84 -65q0 -7 -2 -16.5t-4 -24.5l-201 -1162q-14 -80 -31.5 -138.5t-39 -102t-46.5 -76t-53 -60.5q-29 -29 -60.5 -52t-62.5 -39t-61 -24.5t-57 -8.5q-40 0 -60.5 18.5t-20.5 48.5q0 24 12.5 40.5t40.5 28.5q50 25 91 53.5t73 70.5
t55 101.5t38 147.5z" />
    <glyph glyph-name="K" unicode="K" horiz-adv-x="1126" 
d="M1033 1341q7 7 11.5 11t8.5 7.5t6.5 5.5t6.5 5q11 8 23 12.5t25 4.5q19 0 35.5 -7t30 -19.5t21.5 -28.5t8 -34q0 -13 -4.5 -24t-11.5 -20.5t-15.5 -17.5t-16.5 -15l-557 -500l383 -563q14 -19 22.5 -36t8.5 -36q0 -20 -9.5 -37.5t-24 -30.5t-33.5 -20t-38 -7
q-20 0 -35 6.5t-26 17.5q-7 8 -13.5 16t-17.5 27l-414 636l-107 -617q-7 -40 -31 -61.5t-71 -21.5q-84 0 -84 65q0 7 1.5 16.5t4.5 24.5l207 1202q7 40 31 61t71 21t68 -21t14 -62l-93 -539z" />
    <glyph glyph-name="L" unicode="L" horiz-adv-x="971" 
d="M811 157q30 0 46.5 -17t16.5 -51q0 -20 -6 -37t-16.5 -28.5t-26 -17.5t-32.5 -6h-598q-39 0 -58.5 17t-19.5 51q0 9 1 18t3 19l206 1197q7 40 31 61t71 21t68 -21t14 -62l-198 -1144h498z" />
    <glyph glyph-name="M" unicode="M" horiz-adv-x="1760" 
d="M383 1264q9 31 22 54t32 37.5t44.5 21.5t59.5 7q32 0 55 -7.5t38.5 -21.5t24 -35.5t12.5 -50.5l133 -880q6 -38 10 -72.5t7 -60.5q4 -31 5 -57h4q11 26 24 57q12 26 27.5 60.5t34.5 72.5l436 877q15 30 31 52.5t35.5 37t43.5 21.5t56 7q34 0 57.5 -7.5t39.5 -23.5
q25 -25 25 -74v-6v-8t-0.5 -13t-1.5 -20l-81 -1141q-1 -15 -2.5 -26t-4 -19.5t-6 -15t-10.5 -13.5q-12 -12 -31.5 -19t-41.5 -7q-36 0 -63 17t-27 53q0 11 0.5 21.5t1.5 22.5l74 854q3 42 8 80.5t10 67.5q5 34 11 65h-4l-513 -1035q-17 -36 -33 -64.5t-31 -43.5
q-8 -8 -17.5 -14.5t-21.5 -11t-26.5 -7t-33.5 -2.5q-28 0 -48 7t-34 22q-17 16 -24 46t-12 70l-155 1033h-4q-6 -30 -14 -64q-6 -29 -14.5 -67t-19.5 -80l-232 -886q-6 -24 -11 -36.5t-15 -22.5t-26.5 -17.5t-40.5 -7.5q-38 0 -64 18.5t-26 52.5q0 8 1.5 16t6.5 26z" />
    <glyph glyph-name="N" unicode="N" horiz-adv-x="1460" 
d="M319 1263q5 31 16.5 54.5t28.5 38t41 21.5t54 7q33 0 55.5 -8t39.5 -25q19 -19 35.5 -52.5t39.5 -83.5l350 -779q17 -38 32 -75.5t26 -66.5q13 -34 24 -65l4 2q3 35 7 75q3 34 8.5 77.5t13.5 89.5l139 831q6 40 30 60t67 20q38 0 59 -16.5t21 -48.5q0 -8 -1.5 -17
t-3.5 -24l-200 -1163q-6 -31 -17 -54.5t-28 -38t-40.5 -21.5t-54.5 -7q-33 0 -55.5 8t-38.5 25q-20 19 -36.5 52.5t-38.5 83.5l-351 779q-17 38 -32 75.5t-26 66.5q-12 34 -23 65l-5 -2q-3 -35 -7 -75q-3 -34 -8.5 -77.5t-12.5 -89.5l-139 -831q-7 -40 -30.5 -60t-66.5 -20
q-38 0 -59.5 16.5t-21.5 48.5q0 7 1.5 16.5t4.5 24.5z" />
    <glyph glyph-name="O" unicode="O" horiz-adv-x="1453" 
d="M118 517q0 135 27.5 253t77 215.5t118.5 174.5t153 129.5t180.5 80.5t200.5 28q121 0 218 -37.5t165 -107t104.5 -168.5t36.5 -223q0 -135 -27 -253t-76.5 -215.5t-119 -174.5t-153.5 -129.5t-180.5 -80.5t-200.5 -28q-120 0 -217 37t-165.5 106.5t-105 168.5t-36.5 224z
M310 541q0 -98 26 -173t73 -126t113 -77.5t146 -26.5q104 0 201.5 47.5t172.5 138t120 220.5t45 294q0 98 -26 173t-72.5 126t-113 77.5t-146.5 26.5q-104 0 -201 -48t-172 -138t-120.5 -220t-45.5 -294z" />
    <glyph glyph-name="P" unicode="P" horiz-adv-x="1097" 
d="M379 540q-20 -116 -39.5 -231.5t-40.5 -231.5q-6 -40 -30.5 -61.5t-71.5 -21.5q-44 0 -66.5 21t-14.5 62l210 1217q7 42 31 63t67 21h269q108 0 186.5 -24t130.5 -68t77.5 -105.5t25.5 -136.5q0 -109 -39.5 -201t-113.5 -159.5t-181.5 -105.5t-244.5 -38h-155zM565 692
q84 0 149.5 24t111.5 67t70 103t24 132q0 50 -14 88.5t-45 65t-80 40t-118 13.5h-166l-92 -533h160z" />
    <glyph glyph-name="Q" unicode="Q" horiz-adv-x="1453" 
d="M118 517q0 135 27.5 253t77 215.5t118.5 174.5t153 129.5t180.5 80.5t200.5 28q121 0 218 -37.5t165 -107t104.5 -168.5t36.5 -223q0 -177 -46.5 -324.5t-128.5 -259.5t-194 -184.5t-244 -97.5q27 -60 70 -103.5t98.5 -73.5t120.5 -47.5t137 -24.5q37 -3 54.5 -20.5
t17.5 -45.5q0 -19 -9 -37t-27 -31t-47 -21t-70 -8q-77 0 -157.5 26.5t-150.5 77t-124.5 124.5t-79.5 170q-114 3 -206.5 40.5t-157.5 106.5t-101 166.5t-36 221.5zM310 541q0 -99 26 -174.5t73 -127t113 -77.5t146 -26q104 0 201.5 47.5t172.5 138t120 221t45 295.5
q0 98 -26 173t-72.5 126t-113 77.5t-146.5 26.5q-104 0 -201 -48t-172 -138t-120.5 -220t-45.5 -294z" />
    <glyph glyph-name="R" unicode="R" horiz-adv-x="1152" 
d="M298 77q-6 -40 -30 -61.5t-71 -21.5t-67.5 21t-13.5 62l210 1217q7 42 31 63t67 21h273q113 0 195.5 -24t136.5 -67t80 -102.5t26 -129.5q0 -88 -31 -161.5t-85 -129t-126 -92.5t-155 -54l224 -473q10 -21 15 -35t5 -29q0 -19 -8.5 -35.5t-23 -28.5t-33 -19t-37.5 -7
t-34.5 6.5t-26.5 17.5q-10 10 -17 22.5t-15 30.5l-234 527h-165zM579 747q90 0 158 22t113.5 59.5t68.5 89t23 110.5q0 45 -15 82t-47.5 62.5t-84.5 39t-127 13.5h-171l-83 -478h165z" />
    <glyph glyph-name="S" unicode="S" horiz-adv-x="1059" 
d="M211 999q0 85 31.5 158t94 126t154.5 83.5t212 30.5q53 0 97 -6.5t80 -17.5t62.5 -25.5t41.5 -29.5q14 -14 19.5 -27.5t5.5 -30.5q0 -31 -20 -52.5t-55 -21.5q-21 0 -41.5 9t-49 19.5t-69 19t-99.5 8.5q-73 0 -125 -16t-85 -44.5t-48.5 -67.5t-15.5 -86q0 -49 23 -85.5
t60 -67t85 -56.5t97.5 -54t97.5 -60t85 -73.5t60 -96t23 -126.5q0 -94 -33 -172.5t-99 -135t-164.5 -88t-227.5 -31.5q-65 0 -117.5 8t-92.5 21t-68.5 29.5t-43.5 31.5q-14 14 -19.5 27.5t-5.5 30.5q0 31 20 52.5t55 21.5q22 0 44.5 -10.5t55.5 -23t81 -23t120 -10.5
q77 0 134.5 17.5t95 49.5t56 77t18.5 99q0 50 -22.5 88.5t-60 69.5t-85 58t-97.5 54.5t-97.5 59t-85 72.5t-60 94t-22.5 123z" />
    <glyph glyph-name="T" unicode="T" horiz-adv-x="1093" 
d="M227 1221q-31 0 -47.5 17t-16.5 51q0 20 6 37t17 28.5t26 17.5t33 6h898q30 0 46.5 -16.5t16.5 -50.5q0 -21 -6 -38t-17 -28.5t-26 -17.5t-33 -6h-362l-198 -1144q-6 -40 -30.5 -61.5t-70.5 -21.5q-47 0 -68 21t-15 62l198 1144h-351z" />
    <glyph glyph-name="U" unicode="U" horiz-adv-x="1393" 
d="M315 1301q7 40 31 61.5t71 21.5t68 -21t14 -62l-117 -678q-5 -29 -9 -55.5t-7 -50.5t-5 -46t-2 -43q0 -77 21 -132t58.5 -90t87.5 -51.5t110 -16.5q71 0 136.5 24.5t119 74t92 126.5t56.5 182l130 756q7 40 31 61.5t71 21.5t68 -21t14 -62l-129 -748q-26 -146 -80 -253.5
t-132.5 -178t-179.5 -105.5t-222 -35q-106 0 -187 27t-137 79.5t-85 131t-29 181.5q0 56 8 114.5t19 119.5z" />
    <glyph glyph-name="V" unicode="V" horiz-adv-x="1183" 
d="M194 1250q-4 24 -5.5 37t-1.5 20q0 18 8.5 33.5t22 25.5t31.5 15.5t37 5.5q22 0 37.5 -6.5t25.5 -15.5q5 -6 8 -12t6 -15.5t6 -23.5t6 -35l135 -885q7 -41 11 -77.5t7 -63.5q3 -32 5 -60h4q11 27 25 60q12 27 29 63.5t37 77.5l443 901q9 18 14.5 29.5t10 19.5t8.5 13t8 9
q10 11 24.5 16t29.5 5q19 0 36.5 -6t31.5 -17t22.5 -25.5t8.5 -30.5q0 -8 -2 -14.5t-5 -15t-8.5 -19.5t-13.5 -28l-565 -1105q-16 -32 -29.5 -55t-31.5 -41t-43.5 -27t-60.5 -9q-31 0 -52 7t-38 23q-16 17 -23.5 41t-13.5 61z" />
    <glyph glyph-name="W" unicode="W" horiz-adv-x="1864" 
d="M212 1256q-2 25 -2.5 35t-0.5 18q0 18 8 32.5t22 24.5t31.5 15.5t36.5 5.5q21 0 38 -6t28 -17q7 -7 11 -15.5t6 -19t3 -24.5t3 -34l68 -879q3 -42 4.5 -78.5t2.5 -64.5v-59h4q9 25 20 58q11 27 24.5 63.5t32.5 80.5l380 882q13 32 28.5 54t33 35t39 18.5t47.5 5.5
q51 0 83 -24t37 -89l74 -878q3 -41 4.5 -77.5t3.5 -65.5q0 -33 1 -63h4q10 30 23 63q10 29 24.5 65.5t30.5 75.5l374 902q7 17 12 28.5t9.5 19.5t8 13t7.5 9q10 10 24.5 15.5t32.5 5.5q15 0 32.5 -4.5t31 -14.5t22.5 -24t9 -33q0 -5 -1 -11t-3 -13.5t-6 -17.5t-11 -25
l-480 -1105q-9 -19 -15.5 -34.5t-13.5 -28.5t-15 -24t-16 -20q-10 -9 -20.5 -15.5t-23.5 -12t-29 -8t-35 -2.5q-31 0 -53 7t-39 24q-10 9 -16 21t-9.5 26.5t-6 31t-3.5 37.5l-71 840q-4 37 -5.5 72.5t-3.5 64.5q-1 33 -2 62h-4q-10 -30 -22 -63q-11 -28 -24.5 -63.5
t-30.5 -72.5l-363 -844q-8 -19 -14.5 -34t-14 -28t-15 -23.5t-15.5 -19.5q-20 -19 -45 -28.5t-62 -9.5q-33 0 -55 7t-38 24q-10 9 -16 20.5t-9.5 26t-6 31.5t-3.5 38z" />
    <glyph glyph-name="X" unicode="X" horiz-adv-x="1175" 
d="M231 1224q-5 9 -9 17t-7.5 16t-5 16t-1.5 17q0 21 9.5 39.5t25 31t34 19.5t37.5 7q18 0 31.5 -5.5t23.5 -15.5q9 -9 15 -18.5t13 -22.5l248 -484l413 509q16 21 33 29t35 8q19 0 36 -7.5t30.5 -19.5t22 -28t8.5 -34q0 -11 -3.5 -21t-9 -19t-13 -17.5t-14.5 -16.5
l-452 -522l298 -552q5 -10 9.5 -18t7.5 -16t5 -15.5t2 -16.5q0 -21 -10 -38t-25.5 -29.5t-34.5 -19t-36 -6.5q-21 0 -35 6.5t-24 16.5q-8 9 -14 17.5t-12 22.5l-265 515l-436 -541q-16 -20 -32 -28.5t-35 -8.5q-18 0 -35.5 7.5t-31.5 19.5t-22.5 28t-8.5 34q0 11 3.5 21
t9 19t13 17.5t14.5 16.5l476 553z" />
    <glyph glyph-name="Y" unicode="Y" horiz-adv-x="1088" 
d="M185 1232q-10 24 -14.5 37t-4.5 27q0 20 8.5 36.5t23.5 28.5t33.5 19t39.5 7q18 0 32 -5.5t24 -15.5q9 -9 14.5 -20.5t16.5 -38.5l184 -460q8 -21 15 -40t12 -35q5 -18 10 -34h4q11 17 23 35q11 16 25 36.5t30 42.5l346 477q9 13 15.5 21.5t13.5 14.5q10 11 25 16.5
t30 5.5q18 0 35 -6.5t30.5 -18.5t21.5 -27.5t8 -33.5q0 -8 -2 -15.5t-5.5 -14.5t-8.5 -14.5t-11 -15.5l-513 -667l-86 -497q-7 -40 -31 -61.5t-71 -21.5t-68 21t-14 62l86 499z" />
    <glyph glyph-name="Z" unicode="Z" horiz-adv-x="1023" 
d="M303 1221q-31 0 -47 17t-16 51q0 20 6 37t16.5 28.5t26 17.5t32.5 6h651q23 0 41 -6.5t30 -18t18.5 -28.5t6.5 -37q0 -14 -3 -26.5t-9.5 -26t-17 -29t-24.5 -34.5l-764 -1015h570q31 0 47 -17t16 -51q0 -20 -6 -37t-16.5 -28.5t-26 -17.5t-32.5 -6h-690q-23 0 -41 6.5
t-30.5 18t-18.5 28t-6 37.5q0 14 3 26t9 26t17 29t25 35l763 1015h-530z" />
    <glyph glyph-name="bracketleft" unicode="[" horiz-adv-x="626" 
d="M370 -219q28 0 42.5 -15t14.5 -45q0 -19 -5 -34t-15 -25.5t-24 -16t-30 -5.5h-241q-34 0 -51.5 16t-17.5 46q0 8 0.5 15t2.5 16l297 1711q6 39 27.5 57.5t60.5 18.5h240q28 0 42.5 -15.5t14.5 -44.5q0 -19 -5 -34.5t-15 -26t-24 -16t-30 -5.5h-154l-277 -1597h147z" />
    <glyph glyph-name="backslash" unicode="\" horiz-adv-x="826" 
d="M228 1372q-3 18 -4.5 26t-1.5 15q0 19 8.5 33t21.5 24t29 15t31 5q33 0 50 -17t22 -44l304 -1648l4.5 -25.5t1.5 -14.5q0 -19 -8 -33.5t-21.5 -24.5t-29.5 -14.5t-30 -4.5q-34 0 -51 16.5t-22 43.5z" />
    <glyph glyph-name="bracketright" unicode="]" horiz-adv-x="626" 
d="M429 1378h-147q-28 0 -42.5 15t-14.5 45q0 19 5 34t15 26t24 16.5t30 5.5h241q34 0 51.5 -16.5t17.5 -46.5q0 -8 -0.5 -15t-2.5 -16l-297 -1710q-6 -40 -27.5 -58t-60.5 -18h-240q-28 0 -42.5 15t-14.5 44q0 20 5 35t15 25.5t24 16t30 5.5h155z" />
    <glyph glyph-name="asciicircum" unicode="^" horiz-adv-x="1168" 
d="M340 742q-16 -19 -33 -27t-36 -8q-14 0 -26.5 4.5t-22 13t-15.5 20.5t-6 27q0 13 4 25.5t15 28.5l400 509q13 17 24.5 28.5t24 19.5t25 11.5t25.5 3.5q30 0 50.5 -14.5t35.5 -48.5l226 -522q4 -12 6 -20t2 -17q0 -17 -7 -31t-17.5 -24t-25 -16t-30.5 -6q-23 0 -41 11
t-31 37l-195 447z" />
    <glyph glyph-name="underscore" unicode="_" horiz-adv-x="1168" 
d="M-107 -512q-28 0 -43.5 14t-15.5 44q0 19 5 35.5t15.5 27.5t24.5 17t31 6h1036q28 0 43.5 -14t15.5 -44q0 -20 -5.5 -36t-15.5 -27t-24 -17t-31 -6h-1036z" />
    <glyph glyph-name="grave" unicode="`" 
d="M516 1387q-8 10 -14 20t-6 23q0 18 9.5 34.5t24.5 29.5t33 21t36 8t30 -7.5t21 -22.5l137 -248q6 -10 8 -17.5t2 -16.5q0 -13 -6 -25t-16 -20.5t-23.5 -14t-27.5 -5.5q-15 0 -25.5 6t-20.5 18z" />
    <glyph glyph-name="a" unicode="a" horiz-adv-x="1134" 
d="M932 322q-7 -38 -11.5 -69t-8 -57t-5 -46.5t-1.5 -36.5t1 -27t1 -25q0 -30 -19.5 -49t-54.5 -19q-28 0 -46 11.5t-28.5 32t-14.5 49.5t-1 64h-3q-35 -47 -83 -84q-21 -16 -46.5 -31.5t-56 -27t-65.5 -18.5t-74 -7q-74 0 -135 25t-105 74t-68 121.5t-24 167.5
q0 155 44.5 276.5t125.5 206t194 129t250 44.5q65 0 117 -8.5t90.5 -21t64 -26.5t36.5 -25q7 -6 11.5 -14t7.5 -18t3 -23t-3 -31zM842 837q-19 11 -44 21q-21 7 -54 14t-78 7q-83 0 -155 -31.5t-125 -93t-84 -151.5t-31 -208q0 -69 13.5 -119t39 -82t61 -46.5t79.5 -14.5
q32 0 61.5 8.5t56.5 22t50 31.5t42 36q45 44 80 100z" />
    <glyph glyph-name="b" unicode="b" horiz-adv-x="1134" 
d="M325 1401q6 39 30 60.5t69 21.5q46 0 66.5 -21.5t13.5 -60.5l-66 -385q-6 -35 -13 -68t-17 -70h3q33 41 79 74q20 14 44 27t52.5 24t61 17t70.5 6q74 0 135 -25t105 -74t68 -122t24 -167q0 -155 -45 -277t-125.5 -206t-193.5 -129t-250 -45q-63 0 -115 9t-91.5 21.5
t-65.5 26t-36 25.5q-7 6 -12 13.5t-7.5 17.5t-2.5 23t3 31zM291 170q18 -12 44 -21q22 -8 55 -14.5t77 -6.5q83 0 155 31t125.5 92.5t84.5 151.5t31 209q0 70 -14 119.5t-39 81.5t-61 47t-79 15q-33 0 -63 -8.5t-56.5 -22.5t-49 -32t-41.5 -37q-45 -43 -80 -98z" />
    <glyph glyph-name="c" unicode="c" horiz-adv-x="905" 
d="M81 389q0 141 45.5 258t124.5 201.5t184.5 131t226.5 46.5q78 0 132.5 -19t79.5 -45q13 -12 18.5 -26t5.5 -29t-5 -28t-14 -22.5t-22.5 -15t-29.5 -5.5q-19 0 -34 6.5t-35.5 14t-49 14.5t-72.5 7q-70 0 -136 -33t-117.5 -93.5t-83 -146.5t-31.5 -192q0 -138 68.5 -209
t188.5 -71q43 0 73.5 6t53.5 13.5t40 13.5t32 6q25 0 40 -16t15 -40q0 -19 -6 -33t-20 -28q-27 -27 -94 -50.5t-169 -23.5q-95 0 -170.5 28.5t-129 81.5t-81.5 128.5t-28 169.5z" />
    <glyph glyph-name="d" unicode="d" horiz-adv-x="1134" 
d="M939 1401q7 39 31 60.5t69 21.5t65.5 -21.5t13.5 -60.5l-186 -1079q-7 -38 -11.5 -69t-8 -57t-5 -46.5t-1.5 -36.5t1 -27t1 -25q0 -30 -19.5 -49t-54.5 -19q-28 0 -46 11.5t-28.5 32t-14.5 49.5t-1 64h-3q-35 -47 -83 -84q-21 -16 -46.5 -31.5t-56 -27t-65.5 -18.5
t-74 -7q-74 0 -135 25t-105 74t-68 121.5t-24 167.5q0 155 44.5 276.5t125.5 206t194 129t250 44.5q38 0 69.5 -4t53.5 -8q27 -6 49 -12l3 1q4 31 9 63t10 66zM842 837q-19 11 -44 21q-21 7 -54 14t-78 7q-83 0 -155 -31.5t-125 -93t-84 -151.5t-31 -208q0 -69 13.5 -119
t39 -82t61 -46.5t79.5 -14.5q32 0 62 8.5t56.5 22t49.5 31.5t42 36q45 44 80 100z" />
    <glyph glyph-name="e" unicode="e" 
d="M81 375q0 150 44 270.5t120.5 205t179.5 130t221 45.5q77 0 135.5 -19t97.5 -52t59 -78.5t20 -97.5q0 -89 -42 -157.5t-128 -113.5t-216 -66.5t-305 -17.5q-4 -67 11 -120.5t49 -91.5t87 -59t124 -21q55 0 94 8t67 17t47.5 17t37.5 8q26 0 40.5 -15.5t14.5 -39.5
q0 -19 -6 -33.5t-18 -27.5q-15 -15 -44.5 -30t-69 -27.5t-89.5 -20t-106 -7.5q-105 0 -184.5 28.5t-133 80.5t-80.5 124.5t-27 160.5zM283 559q127 -5 220 7t154 38.5t90.5 65.5t29.5 88q0 58 -37 91.5t-118 33.5q-57 0 -110 -20.5t-98 -61.5t-79 -102t-52 -140z" />
    <glyph glyph-name="f" unicode="f" horiz-adv-x="641" 
d="M167 863q-29 0 -44 15t-15 46q0 20 5.5 35.5t16 26t24.5 16.5t31 6h111l21 120q16 92 49 160.5t81.5 113.5t112 67.5t138.5 22.5q66 0 104.5 -14.5t55.5 -30.5q10 -10 16 -23t6 -29q0 -17 -5 -29.5t-15 -22t-22.5 -14.5t-26.5 -5t-25 3.5t-24.5 7t-31 7t-41.5 3.5
q-76 0 -126 -55t-69 -170l-19 -112h167q29 0 44 -15.5t15 -46.5q0 -20 -5.5 -35.5t-16 -26t-24.5 -16t-31 -5.5h-174l-172 -990q-18 -102 -54 -171.5t-86 -111.5t-111.5 -60.5t-129.5 -18.5q-66 0 -104 14t-55 31q-11 10 -16.5 23t-5.5 29t5.5 29t14.5 22.5t21.5 14
t27.5 4.5q13 0 24.5 -3t24.5 -6.5t29.5 -7t40.5 -3.5q33 0 64 11t57 38t46 71t31 111l169 974h-104z" />
    <glyph glyph-name="g" unicode="g" horiz-adv-x="1134" 
d="M883 35q-26 -146 -73.5 -247t-117 -163t-162 -89.5t-207.5 -27.5q-107 0 -176.5 21t-93.5 46q-13 12 -18.5 25.5t-5.5 30.5q0 16 5 28.5t13.5 22t21.5 14.5t28 5q17 0 37.5 -7t48.5 -15t66.5 -15t91.5 -7q76 0 136 20.5t104 64.5t74 113t47 166q3 17 5.5 30.5t5.5 25.5
t5.5 25t7.5 28h-3q-34 -42 -80 -75q-40 -28 -96.5 -50.5t-130.5 -22.5t-135 25t-105 74t-68 121.5t-24 167.5q0 155 44.5 276.5t125.5 206t194 129t250 44.5q64 0 116 -8.5t91 -21t64.5 -26.5t36.5 -25q7 -6 11.5 -14t7.5 -18t3 -23t-3 -31zM842 837q-19 11 -44 21
q-21 7 -53.5 14t-77.5 7q-83 0 -155.5 -31.5t-125.5 -93t-84 -151.5t-31 -208q0 -69 13.5 -119t39 -82t61 -46.5t79.5 -14.5q32 0 61.5 8.5t56.5 22t50 31.5t42 36q45 44 80 100z" />
    <glyph glyph-name="h" unicode="h" horiz-adv-x="1176" 
d="M326 1401q6 39 30 60.5t69 21.5t66 -21.5t14 -60.5l-66 -385q-7 -35 -13.5 -68t-16.5 -70h3q33 41 80 74q20 14 45 27t54.5 24t63.5 17t73 6q75 0 134 -20.5t99.5 -60t62 -96.5t21.5 -130q0 -39 -6.5 -89.5t-17 -106t-22 -114t-22 -113t-17 -102t-6.5 -81.5q0 -16 1 -27
t1 -25q0 -30 -20.5 -48.5t-60.5 -18.5q-48 0 -74.5 27t-26.5 80q0 32 6.5 78.5t16 100t21 111t21.5 112t16.5 104t6.5 85.5q0 93 -46 138t-137 45q-35 0 -66 -8.5t-58.5 -22.5t-51 -32t-42.5 -37q-45 -43 -80 -98l-105 -601q-6 -40 -30 -61t-70 -21q-45 0 -65.5 21t-13.5 61
z" />
    <glyph glyph-name="i" unicode="i" horiz-adv-x="520" 
d="M245 932q6 40 30 61t69 21t65.5 -21t14.5 -61l-149 -856q-6 -40 -30 -61t-69 -21t-65.5 21t-14.5 61zM277 1314q0 28 10 51t27 40.5t41 27t53 9.5q25 0 47 -8.5t37.5 -23.5t24 -36.5t8.5 -46.5q0 -28 -10 -51.5t-27 -40.5t-41 -26.5t-53 -9.5q-26 0 -47.5 8.5t-37 23.5
t-24 36.5t-8.5 46.5z" />
    <glyph glyph-name="j" unicode="j" horiz-adv-x="520" 
d="M245 932q7 40 31 61t69 21t65.5 -21t14.5 -61l-163 -937q-14 -80 -30.5 -139.5t-36 -103t-41.5 -74.5t-48 -56q-49 -49 -108.5 -79t-117.5 -30q-45 0 -66 19t-21 48q0 25 12 41t38 28q54 22 93.5 49.5t67.5 68t47.5 100t34.5 146.5zM278 1314q0 28 9.5 51t27 40.5
t41.5 27t53 9.5q25 0 47 -8.5t37.5 -23.5t24 -36.5t8.5 -46.5q0 -28 -10 -51.5t-27.5 -40.5t-41.5 -26.5t-52 -9.5q-26 0 -47.5 8.5t-37 23.5t-24 36.5t-8.5 46.5z" />
    <glyph glyph-name="k" unicode="k" horiz-adv-x="1057" 
d="M325 1401q6 39 30 60.5t69 21.5t66 -21.5t14 -60.5l-66 -385q-7 -35 -13.5 -68t-16.5 -70h3q34 41 81 74q20 14 45.5 27t56 24t66 17t76.5 6q61 0 108.5 -16t80 -45.5t49.5 -71t17 -91.5q0 -67 -24.5 -122t-70.5 -98t-113.5 -73.5t-153.5 -48.5l234 -305q8 -10 14 -19.5
t11 -18.5t7.5 -18t2.5 -20q0 -19 -8.5 -35.5t-22.5 -28t-31 -18t-34 -6.5q-18 0 -32 6t-24 17q-7 7 -13.5 15t-21.5 28l-239 327q-22 31 -35.5 56t-13.5 53q0 27 17.5 49.5t54.5 25.5q154 12 232.5 63.5t78.5 138.5q0 49 -30.5 77.5t-93.5 28.5q-36 0 -67.5 -8.5t-59 -22.5
t-51 -32t-43.5 -37q-46 -44 -81 -99l-105 -601q-4 -21 -11 -36.5t-19 -25.5t-29.5 -15.5t-40.5 -5.5q-45 0 -65 22t-14 63z" />
    <glyph glyph-name="l" unicode="l" horiz-adv-x="558" 
d="M321 1401q6 39 30.5 60.5t69.5 21.5q40 0 60.5 -16.5t20.5 -47.5q0 -8 -1.5 -16.5t-5.5 -30.5l-188 -1095q-8 -43 -7 -70t9 -42t21.5 -20.5t30.5 -5.5q20 0 31.5 2.5t24.5 2.5q23 0 35.5 -15.5t12.5 -38.5q0 -19 -6 -33.5t-19 -26.5q-7 -8 -19 -15t-28.5 -12.5t-38.5 -9
t-50 -3.5q-93 0 -140 47.5t-47 139.5q0 24 2.5 46.5t7.5 51.5z" />
    <glyph glyph-name="m" unicode="m" horiz-adv-x="1804" 
d="M247 946q6 36 25.5 53t53.5 17t53 -21t19 -65q0 -13 -1.5 -25t-2.5 -22q-2 -13 -4 -25h4q34 47 81 84q21 16 46.5 31t56 26.5t65.5 19t76 7.5q59 0 106.5 -14t83.5 -39t61 -59.5t37 -76.5q41 53 95 94q23 18 51.5 35t61.5 30.5t71 21.5t80 8q71 0 128 -20.5t96.5 -60
t60.5 -96.5t21 -130q0 -39 -6.5 -89.5t-16.5 -106t-22 -114t-22 -113t-16.5 -102t-6.5 -81.5q0 -16 1 -27t1 -25q0 -30 -21 -48.5t-60 -18.5q-48 0 -75 27t-27 80q0 32 7 78.5t16.5 100t21 111t21 112t16.5 104t7 85.5q0 93 -45 138t-129 45q-34 0 -64 -9t-57 -23.5
t-50 -32.5t-43 -38q-45 -45 -79 -102q-1 -3 -2.5 -20.5t-6.5 -48.5l-91 -525q-6 -39 -31.5 -60.5t-70.5 -21.5t-64 21.5t-13 60.5l88 512q5 29 8 55t3 49q0 93 -45 138t-130 45q-32 0 -62 -8.5t-56.5 -22.5t-49.5 -32t-41 -37q-45 -44 -79 -98l-105 -601q-6 -40 -30 -61
t-69 -21t-65.5 21t-14.5 61z" />
    <glyph glyph-name="n" unicode="n" horiz-adv-x="1176" 
d="M247 946q6 36 25.5 53t53.5 17t53 -21t19 -65q0 -13 -1.5 -25t-2.5 -22q-2 -13 -4 -25h4q34 47 83 84q21 16 47 31t57.5 26.5t68 19t78.5 7.5q75 0 133.5 -20.5t99 -60t62 -96.5t21.5 -130q0 -39 -6.5 -89.5t-17 -106t-22 -114t-21.5 -113t-17 -102t-7 -81.5q0 -16 1 -27
t1 -25q0 -30 -20.5 -48.5t-60.5 -18.5q-48 0 -74.5 27t-26.5 80q0 32 6.5 78.5t16.5 100t21.5 111t21 112t16 104t6.5 85.5q0 93 -46 138t-137 45q-35 0 -66 -8.5t-58 -22.5t-50.5 -32t-43.5 -37q-45 -44 -80 -98l-105 -601q-6 -40 -30 -61t-69 -21t-65.5 21t-14.5 61z" />
    <glyph glyph-name="o" unicode="o" horiz-adv-x="1138" 
d="M84 384q0 147 44 265.5t120.5 202.5t180.5 129t224 45q91 0 165.5 -28t126.5 -81t80.5 -127.5t28.5 -165.5q0 -147 -44 -266t-120.5 -202.5t-180.5 -129t-224 -45.5q-92 0 -166 28.5t-126.5 81.5t-80.5 127t-28 166zM271 405q0 -68 16.5 -119.5t48.5 -85.5t76 -52t98 -18
q70 0 134.5 31.5t114.5 92t79.5 148.5t29.5 201q0 67 -17 119t-48.5 86t-75.5 52t-99 18q-70 0 -134.5 -32t-114 -92.5t-79 -148t-29.5 -200.5z" />
    <glyph glyph-name="p" unicode="p" horiz-adv-x="1134" 
d="M247 946q6 36 25.5 53t53.5 17t53 -21t19 -65q0 -13 -1.5 -25t-2.5 -22q-2 -13 -4 -25h4q34 47 82 84q21 16 46 31t55.5 26.5t65.5 19t75 7.5q74 0 135 -25t105 -74t68 -122t24 -167q0 -155 -45 -277t-125.5 -206t-193.5 -129t-250 -45q-38 0 -70 4t-54 8q-27 5 -48 12
q-1 0 -1.5 -0.5t-1.5 -0.5q-5 -30 -9.5 -62t-9.5 -66l-48 -273q-6 -39 -30 -60.5t-70 -21.5q-45 0 -65.5 21.5t-13.5 60.5zM291 168q18 -13 44 -22q22 -7 54.5 -13.5t77.5 -6.5q83 0 155 31t125.5 92.5t84.5 152.5t31 210q0 70 -14 119.5t-39 81.5t-61 47t-79 15
q-33 0 -63 -8.5t-56.5 -22.5t-49.5 -32t-42 -37q-45 -43 -79 -98z" />
    <glyph glyph-name="q" unicode="q" horiz-adv-x="1132" 
d="M696 -8q6 34 13 67t17 71h-3q-34 -42 -80 -75q-40 -28 -96.5 -50.5t-130.5 -22.5t-135 25t-105 74t-68 121.5t-24 167.5q0 155 44.5 276.5t125.5 206t194 129t250 44.5q64 0 116 -8.5t91 -21t64.5 -26.5t36.5 -25q7 -6 11.5 -14t7.5 -18t3 -23t-3 -31l-217 -1256
q-6 -39 -30 -60.5t-69 -21.5t-66 21.5t-14 60.5zM842 837q-19 11 -44 21q-21 7 -54 14t-78 7q-83 0 -155 -31.5t-125 -93t-84 -151.5t-31 -208q0 -69 13.5 -119t39 -82t61 -46.5t79.5 -14.5q32 0 61.5 8.5t56.5 22t50 31.5t42 36q45 44 80 100z" />
    <glyph glyph-name="r" unicode="r" horiz-adv-x="701" 
d="M247 946q6 36 25.5 53t53.5 17t53 -21t19 -65q0 -15 -1.5 -30t-3.5 -28q-3 -15 -5 -31h2q27 40 59 74.5t67 59t71.5 38t73.5 13.5q51 0 76.5 -23.5t25.5 -64.5q0 -23 -6.5 -44t-18.5 -36t-28 -23.5t-35 -8.5q-11 0 -19.5 1.5t-16.5 3.5t-16.5 3.5t-18.5 1.5
q-25 0 -52.5 -12t-57 -35.5t-59.5 -57.5t-59 -77l-101 -578q-6 -40 -30 -61t-69 -21q-40 0 -60.5 16t-20.5 48q0 7 1 16t5 30z" />
    <glyph glyph-name="s" unicode="s" horiz-adv-x="852" 
d="M149 720q0 66 24.5 122t72.5 97t120.5 64t167.5 23q83 0 139.5 -18t81.5 -43q12 -13 18 -26t6 -29q0 -28 -18.5 -48t-51.5 -20q-18 0 -34 6.5t-37 14t-51 14t-75 6.5q-96 0 -138.5 -37.5t-42.5 -98.5q0 -45 29.5 -75.5t74 -54.5t95.5 -47.5t95.5 -57.5t74 -83t29.5 -123
q0 -68 -26.5 -127t-77 -103t-124 -69t-168.5 -25q-56 0 -100.5 6.5t-78 16.5t-56.5 22.5t-35 24.5q-13 13 -18.5 26.5t-5.5 28.5q0 28 18.5 48t51.5 20q18 0 37.5 -8t46 -17.5t65 -17t97.5 -7.5q48 0 83.5 11.5t59.5 32.5t36.5 49t12.5 61q0 36 -17 62.5t-45 47t-64 38.5
t-73.5 37t-73 41t-63.5 52t-45 69.5t-17 93.5z" />
    <glyph glyph-name="t" unicode="t" horiz-adv-x="691" 
d="M163 863q-29 0 -44 15t-15 46q0 20 5.5 35.5t16 26t24.5 16.5t31 6h113l58 195q5 19 14.5 33.5t21 24.5t25.5 15.5t32 5.5q34 0 50 -19.5t9 -55.5l-34 -199h202q29 0 44 -15.5t15 -46.5q0 -20 -5.5 -35.5t-16 -26t-24.5 -16t-31 -5.5h-208l-101 -586q-13 -74 11.5 -106
t77.5 -32q21 0 37 2t28 5.5t22.5 5.5t19.5 2q25 0 39 -14.5t14 -37.5q0 -19 -6 -34t-20 -28q-22 -22 -69 -36t-109 -14q-136 0 -192.5 70.5t-32.5 211.5l102 591h-104z" />
    <glyph glyph-name="u" unicode="u" horiz-adv-x="1169" 
d="M235 932q7 40 31 61t69 21t65.5 -21t13.5 -61l-88 -512q-6 -32 -8.5 -55.5t-2.5 -49.5q0 -93 45.5 -137.5t131.5 -44.5q35 0 65.5 8.5t58 22t51 31.5t42.5 36q45 44 81 100l104 601q7 40 31 61t69 21t65.5 -21t14.5 -61l-106 -610q-6 -38 -11 -69t-8.5 -57t-5 -46.5
t-1.5 -36.5t1 -27t1 -25q0 -30 -19.5 -49t-53.5 -19q-56 0 -76.5 42.5t-14.5 113.5h-4q-35 -47 -83 -83q-21 -16 -47 -31.5t-57.5 -27t-68 -18.5t-78.5 -7q-72 0 -129 20.5t-97.5 60t-61.5 96.5t-21 130q0 28 3.5 62t8.5 66z" />
    <glyph glyph-name="v" unicode="v" horiz-adv-x="974" 
d="M422 189q44 63 91.5 138t96 166.5t95 200.5t87.5 240q7 23 12 37.5t17 26.5q10 9 25.5 15t32.5 6q16 0 32 -5t29 -14t20.5 -23t7.5 -31q0 -8 -2 -19.5t-10 -36.5q-27 -94 -67.5 -189t-87 -184.5t-94.5 -169.5t-91 -143.5t-76.5 -107.5t-50.5 -60q-8 -8 -18 -16t-23 -13.5
t-28.5 -9t-35.5 -3.5q-29 0 -49 6.5t-33 20t-21 35t-13 50.5q-33 207 -75 407.5t-87 382.5q-2 11 -5 23t-3 20q0 20 9 34.5t23.5 24.5t32 15.5t35.5 5.5q19 0 35 -6t26 -16t14.5 -23t9.5 -35q21 -92 41 -188.5t37 -193t32 -190t26 -178.5h3z" />
    <glyph glyph-name="w" unicode="w" horiz-adv-x="1558" 
d="M389 181q37 76 71 148.5t72 156.5t83 185.5t103 233.5q6 13 11 24.5t10.5 21.5t11.5 18t13 16q15 14 36.5 23t54.5 9q28 0 47.5 -6.5t33.5 -20.5q17 -17 21.5 -38.5t9.5 -51.5q16 -128 29 -227.5t22 -183.5t15.5 -158t11.5 -150h3q42 73 84 159.5t81 183t74.5 200.5
t66.5 212q6 22 11.5 36.5t15.5 24.5t24.5 16t32.5 6q17 0 33 -5.5t28.5 -15t19.5 -23t7 -29.5q0 -10 -2 -19t-8 -31q-22 -80 -54.5 -168.5t-70 -176.5t-76.5 -170t-74.5 -149.5t-64 -115t-44.5 -66.5q-11 -15 -23 -25t-25.5 -17t-30 -10.5t-37.5 -3.5q-29 0 -49 7t-33 20
t-20 34t-10 48q-10 90 -18 173t-16.5 167t-19 173.5t-23.5 190.5h-4q-48 -111 -88.5 -202t-78 -173t-75 -161.5t-80.5 -167.5q-12 -27 -22.5 -44t-24.5 -30q-17 -17 -41.5 -26t-62.5 -9q-28 0 -49 6.5t-35.5 20t-23 35t-11.5 50.5q-12 112 -22.5 208t-22 188.5t-25.5 187.5
t-32 205q-4 23 -4.5 30t-0.5 12q0 19 8 34t21.5 25.5t31 16.5t37.5 6t35.5 -6.5t25.5 -16.5q12 -11 16 -26.5t8 -44.5q17 -108 29 -201.5t21 -182.5t15.5 -176.5t13.5 -183.5h3z" />
    <glyph glyph-name="x" unicode="x" horiz-adv-x="1014" 
d="M484 402q-45 -43 -84 -83.5t-76.5 -82.5t-75 -88t-79.5 -102q-12 -17 -18 -23.5t-12 -12.5q-9 -9 -22 -14t-30 -5q-14 0 -30 5.5t-28.5 15.5t-21.5 25t-9 34q0 10 4 21t18 32q7 12 23.5 32.5t38.5 45t47.5 52.5t51.5 55l51 51t54 52.5t57.5 54t62.5 55.5l-219 340
q-6 8 -11 15.5t-8.5 15.5t-5.5 16t-2 18q0 20 9 37t24 29t32.5 19t34.5 7q19 0 31.5 -6t23.5 -17q7 -7 12.5 -14.5t15.5 -23.5l199 -330q36 34 70.5 69.5t70.5 76t73.5 87.5t79.5 103q12 16 18 22.5t13 13.5q8 8 20.5 13.5t30.5 5.5q14 0 29.5 -5.5t29 -16t21.5 -25.5t8 -33
q0 -10 -3.5 -21.5t-17.5 -32.5q-8 -12 -24.5 -32t-38 -45t-47 -52.5t-52.5 -54.5l-47 -47t-45.5 -44.5t-50 -47t-60.5 -55.5l232 -359q5 -9 10.5 -17t9 -16t6 -16.5t2.5 -17.5q0 -20 -9 -36.5t-23.5 -28.5t-32.5 -18.5t-36 -6.5t-31.5 6t-24.5 17q-6 7 -12 15t-16 25z" />
    <glyph glyph-name="y" unicode="y" horiz-adv-x="979" 
d="M442 116q46 75 91 157.5t89.5 181.5t89 217t89.5 262q7 23 12 37.5t17 26.5q10 9 25 15t33 6q16 0 32 -5t29 -14t20.5 -23t7.5 -31q0 -8 -2 -19.5t-10 -36.5q-44 -149 -99.5 -287.5t-121.5 -268t-141.5 -247.5t-158.5 -223q-77 -97 -146.5 -163t-134 -107.5t-125.5 -59
t-119 -17.5q-42 0 -69.5 9t-43.5 23q-13 12 -19 25.5t-6 30.5q0 16 5 28.5t14 22t21.5 14.5t27.5 5q21 0 37 -3.5t43 -3.5q39 0 79.5 12t86 42.5t96.5 82.5t112 131q-25 160 -48.5 294.5t-47 251t-46.5 218t-46 196.5q-2 11 -5 23t-3 20q0 20 9 34.5t23.5 24.5t32 15.5
t34.5 5.5q20 0 36 -6.5t26 -15.5q9 -10 14 -23t10 -35q42 -184 79 -388t68 -435h3z" />
    <glyph glyph-name="z" unicode="z" horiz-adv-x="922" 
d="M245 863q-29 0 -44 15t-15 46q0 20 5.5 35.5t15.5 26t24 16.5t31 6h533q23 0 41 -7t30 -18.5t18.5 -28t6.5 -36.5q0 -14 -3 -26.5t-9 -25t-15.5 -25t-22.5 -27.5l-589 -677q20 2 47.5 3.5t60 2.5t69 1.5t73.5 0.5q86 0 148.5 -4t91.5 -11q30 -7 42.5 -24t12.5 -40
q0 -18 -5.5 -31.5t-16 -23.5t-25 -15t-33.5 -5q-18 0 -39 1.5t-50.5 3t-71 3t-100.5 1.5q-101 0 -181.5 -4.5t-145.5 -4.5q-28 0 -47.5 6.5t-33 18.5t-20 29t-6.5 37q0 14 3 26.5t9 24.5t15.5 25t22.5 28l589 677h-416z" />
    <glyph glyph-name="braceleft" unicode="{" horiz-adv-x="665" 
d="M201 237q7 40 12 77.5t5 71t-6.5 60t-22.5 42.5q-14 14 -27.5 21.5t-25 12.5t-21.5 9.5t-19 12.5q-8 9 -12 20t-4 29q0 21 5.5 35.5t14.5 24.5q11 10 25.5 14.5t32.5 10.5t39.5 17t43.5 33q15 16 28 41t24 57t19.5 68.5t14.5 74.5l41 235q15 87 41 148t63 99.5t82 56.5
t101 18h4q27 0 47.5 -5.5t33 -15t19 -22.5t6.5 -29q0 -30 -19 -48t-60 -18h-8q-29 0 -51 -8t-38.5 -28.5t-28.5 -55t-21 -87.5l-41 -235q-16 -93 -35 -155.5t-43.5 -105t-55 -69t-70.5 -46.5l-1 -2q33 -20 55 -46.5t32 -67.5t8 -100.5t-17 -146.5l-50 -283
q-10 -58 -9.5 -93.5t10 -55t28 -26.5t45.5 -7h7q30 0 45.5 -15t15.5 -41q0 -17 -7 -32t-22 -26t-38 -17t-54 -6h-4q-58 0 -99.5 18t-65.5 56.5t-30 97.5t8 142z" />
    <glyph glyph-name="bar" unicode="|" horiz-adv-x="606" 
d="M384 1421q7 36 29.5 55t59.5 19q33 0 51 -15.5t18 -45.5q0 -7 -1 -14t-3 -16l-316 -1822q-6 -36 -28.5 -55t-60.5 -19q-32 0 -50 15.5t-18 45.5q0 7 0.5 14t2.5 16z" />
    <glyph glyph-name="braceright" unicode="}" horiz-adv-x="665" 
d="M201 225q16 93 35 155.5t43.5 105t55 69t70.5 46.5l1 2q-32 20 -54 46t-32.5 67.5t-8.5 101t17 145.5l43 244q9 56 9.5 91.5t-9 55.5t-28 27t-46.5 7h-7q-29 0 -45 15t-16 41q0 18 7 32.5t22 25.5t38 17.5t55 6.5h4q57 0 98.5 -18.5t66 -57t30 -97.5t-8.5 -141l-43 -250
q-7 -40 -11.5 -77.5t-5 -71t6 -60t22.5 -42.5q14 -14 27.5 -21.5t25 -12.5t22 -9.5t19.5 -12.5q8 -8 12 -19.5t4 -29.5q0 -22 -5.5 -36t-15.5 -24t-25 -15t-33 -10.5t-39 -16.5t-44 -33q-15 -15 -28 -41t-23.5 -57.5t-19 -68t-15.5 -74.5l-48 -276q-15 -87 -41 -148
t-62.5 -99.5t-82.5 -56t-100 -17.5h-4q-28 0 -48 5t-33 14.5t-19 23t-6 29.5q0 29 18.5 47t59.5 18h8q29 0 51 8t38.5 28.5t28.5 55t21 87.5z" />
    <glyph glyph-name="asciitilde" unicode="~" horiz-adv-x="1168" 
d="M458 729q42 0 73 -10t56 -26t46.5 -34t42.5 -33.5t43.5 -26t51.5 -10.5q22 0 44 8.5t42.5 23t40.5 34.5t37 41q12 16 24.5 21.5t25.5 5.5q26 0 42.5 -17t16.5 -46q0 -9 -2.5 -19.5t-9.5 -23.5q-22 -38 -53.5 -70.5t-69.5 -56t-81.5 -37t-87.5 -13.5q-41 0 -72 10t-56 26
t-46 34t-42 33.5t-44 26t-52 10.5q-22 0 -44 -9t-43 -23.5t-40.5 -34t-36.5 -41.5q-12 -15 -24.5 -20.5t-25.5 -5.5q-26 0 -42.5 17t-16.5 46q0 9 2.5 20t9.5 23q22 38 53.5 70.5t69.5 56t81 37t87 13.5z" />
    <glyph glyph-name="uni00A0" unicode="&#xa0;" horiz-adv-x="534" 
 />
    <glyph glyph-name="exclamdown" unicode="&#xa1;" horiz-adv-x="605" 
d="M239 604q7 35 29.5 53.5t61.5 18.5t58 -19t14 -54l-141 -917q-3 -15 -4.5 -27t-4 -22.5t-7.5 -19t-12 -15.5q-15 -15 -35.5 -21.5t-47.5 -6.5q-24 0 -41.5 5t-28.5 13t-16.5 19.5t-5.5 25.5q0 5 0.5 9t1 10t2.5 15.5t5 26.5zM248 943q0 29 11 53.5t29.5 43t44 29
t54.5 10.5q28 0 51.5 -9t39.5 -25t25.5 -39t9.5 -50q0 -29 -11 -54t-29.5 -43.5t-44 -29t-54.5 -10.5q-28 0 -51.5 9t-39.5 25.5t-25.5 39t-9.5 50.5z" />
    <glyph glyph-name="cent" unicode="&#xa2;" horiz-adv-x="993" 
d="M435 137q-79 14 -138 47.5t-98 84t-58 116t-19 143.5q0 108 33.5 203.5t96 171t151 126.5t199.5 70l40 232q6 34 24.5 50.5t52.5 16.5q33 0 50 -16.5t11 -50.5l-38 -223q73 -2 125.5 -20t74.5 -40q13 -13 18.5 -26.5t5.5 -28.5t-5 -28t-13.5 -22t-22 -14.5t-28.5 -5.5
q-18 0 -34 5.5t-38 13t-52.5 13t-76.5 5.5q-83 0 -154 -29t-122.5 -83t-81 -130t-29.5 -168q0 -132 70 -202t204 -70q49 0 84 7t60.5 15.5t43 15.5t32.5 7q25 0 40 -16t15 -40q0 -19 -6 -33t-20 -28q-12 -12 -36 -25.5t-57.5 -24.5t-75.5 -18.5t-91 -9.5l-39 -224
q-6 -35 -25 -51t-52 -16t-50 16t-11 51z" />
    <glyph glyph-name="sterling" unicode="&#xa3;" horiz-adv-x="1038" 
d="M484 634q-4 -77 -20 -143.5t-43 -125.5t-64 -110.5t-81 -96.5l1 -2h557q29 0 44.5 -16.5t15.5 -50.5q0 -21 -6 -37.5t-17 -28t-26.5 -17.5t-34.5 -6h-651q-48 0 -73.5 26t-25.5 73q0 17 3 32t11 29.5t20.5 30.5t30.5 36q32 35 63 76.5t55.5 91t40 108.5t17.5 131h-100
q-29 0 -44 15.5t-15 46.5q0 20 5.5 35.5t16 26t24.5 16.5t31 6h74q-4 38 -7.5 74.5t-3.5 77.5q0 103 33.5 187.5t98 144.5t157.5 92.5t211 32.5q81 0 139 -15.5t82 -39.5q13 -13 18.5 -26.5t5.5 -29.5q0 -14 -5 -27.5t-14 -22.5t-22.5 -15t-29.5 -6q-17 0 -34.5 5.5
t-40 11.5t-53 11.5t-72.5 5.5q-66 0 -120 -19t-91.5 -55.5t-58.5 -91.5t-21 -126q0 -46 4.5 -86.5t8.5 -82.5h338q28 0 43.5 -15.5t15.5 -46.5q0 -20 -5.5 -35.5t-16 -26t-24.5 -16.5t-31 -6h-314z" />
    <glyph glyph-name="currency" unicode="&#xa4;" horiz-adv-x="1022" 
d="M222 468q-22 36 -33.5 79.5t-11.5 95.5q0 100 34 182t94 141l-86 118q-6 10 -9.5 18t-3.5 18q0 15 7 28t18.5 23.5t26 16.5t29.5 6q34 0 50 -29l70 -130q42 22 89.5 33t100.5 11q58 0 105.5 -12.5t85.5 -36.5l99 113q12 14 23.5 21t27.5 7q13 0 26.5 -5.5t24 -15.5
t17 -23t6.5 -27q0 -17 -8.5 -28.5t-22.5 -25.5l-110 -99q45 -72 45 -174q0 -100 -34 -182t-95 -141l86 -118q6 -10 9.5 -18t3.5 -18q0 -15 -7 -28t-18.5 -23.5t-26 -16.5t-29.5 -6q-33 0 -49 30l-70 128q-86 -43 -191 -43q-115 0 -190 50l-100 -114q-12 -14 -23.5 -21
t-27.5 -7q-13 0 -26.5 5.5t-24 15.5t-17 23t-6.5 27q0 17 8.5 29.5t23.5 24.5zM327 658q0 -95 49 -147.5t138 -52.5q52 0 98 20.5t80 59.5t54 94.5t20 125.5q0 96 -49 148t-139 52q-51 0 -96.5 -20.5t-80 -59.5t-54.5 -94.5t-20 -125.5z" />
    <glyph glyph-name="yen" unicode="&#xa5;" horiz-adv-x="1199" 
d="M265 512q-51 0 -51 54q0 32 17.5 53t53.5 21h226l-262 619q-5 11 -7.5 20.5t-2.5 19.5q0 20 9.5 36.5t24.5 28t32.5 17.5t33.5 6q30 0 47 -15t26 -39l187 -468q7 -21 14.5 -41t12.5 -35q5 -18 10 -33h4q10 16 22 34q11 16 25 36.5t30 42.5l345 475q15 21 31 32t40 11
q16 0 32.5 -6t29.5 -17.5t21 -26.5t8 -33q0 -16 -5.5 -28t-17.5 -26l-470 -610h224q26 0 39 -14.5t13 -39.5q0 -33 -18 -53.5t-54 -20.5h-246l-26 -151h244q26 0 39 -14.5t13 -39.5q0 -33 -18.5 -53.5t-53.5 -20.5h-245l-28 -157q-6 -39 -30 -60.5t-70 -21.5t-66.5 21
t-14.5 61l28 157h-244q-52 0 -52 54q0 33 18 53.5t54 20.5h246l26 151h-244z" />
    <glyph glyph-name="brokenbar" unicode="&#xa6;" horiz-adv-x="606" 
d="M384 1421q7 36 29.5 55t59.5 19q33 0 51 -15.5t18 -45.5q0 -7 -1 -14t-3 -16l-117 -674q-6 -36 -28.5 -55t-60.5 -19t-55.5 21t-11.5 59zM187 289q7 36 29.5 55t60.5 19t55.5 -21t11.5 -58l-122 -702q-6 -36 -28.5 -55t-60.5 -19q-32 0 -50 15.5t-18 45.5q0 7 0.5 14
t2.5 16z" />
    <glyph glyph-name="section" unicode="&#xa7;" horiz-adv-x="1087" 
d="M132 504q0 69 19.5 125.5t55.5 102t85.5 81.5t108.5 64q-35 35 -56 80t-21 106q0 70 27.5 131t80.5 106t131 71.5t179 26.5q49 0 87 -6t66 -15.5t46.5 -20.5t28.5 -21q13 -13 18.5 -26.5t5.5 -28.5t-5 -27t-14 -21t-21.5 -14.5t-29.5 -5.5q-19 0 -36 6.5t-38.5 15t-53 15
t-79.5 6.5q-54 0 -94 -12.5t-66 -34.5t-38.5 -52t-12.5 -66q0 -40 19.5 -70.5t52 -56.5t73.5 -49.5t84 -48t84 -53.5t73.5 -65t52 -82.5t19.5 -107.5q0 -69 -20 -125.5t-55.5 -102t-85.5 -81.5t-109 -64q34 -35 55.5 -80t21.5 -106q0 -70 -27 -130.5t-80 -105.5t-131 -71.5
t-180 -26.5q-49 0 -87 6t-65.5 15.5t-46 20.5t-28.5 21q-13 13 -18.5 26t-5.5 29q0 14 4.5 26t14 21.5t22 15t28.5 5.5q20 0 36 -6.5t38.5 -15t54 -15t79.5 -6.5q54 0 93.5 12.5t65.5 34t39 51.5t13 67q0 40 -20 70.5t-52 56t-73 49.5t-84 48.5t-84.5 53t-73.5 65t-51.5 83
t-19.5 106.5zM319 532q0 -48 21 -84t56 -65.5t79.5 -54.5t92.5 -51q55 25 94.5 51t65 56.5t37.5 66t12 78.5q0 46 -21 82t-56.5 65.5t-80.5 55.5t-92 52q-55 -25 -94.5 -51t-64.5 -56.5t-37 -66t-12 -78.5z" />
    <glyph glyph-name="dieresis" unicode="&#xa8;" 
d="M327 1311q0 27 9.5 50t27 40t41 26.5t50.5 9.5q24 0 44 -8t34.5 -22.5t23 -34.5t8.5 -43q0 -27 -9.5 -50.5t-26 -40.5t-40 -27t-50.5 -10q-24 0 -44.5 8.5t-35.5 23t-23.5 34.5t-8.5 44zM721 1311q0 27 9.5 50t26.5 40t40.5 26.5t51.5 9.5q23 0 43.5 -8t35 -22.5
t22.5 -34.5t8 -43q0 -27 -9 -50.5t-26 -40.5t-40 -27t-51 -10q-23 0 -44 8.5t-35.5 23t-23 34.5t-8.5 44z" />
    <glyph glyph-name="copyright" unicode="&#xa9;" horiz-adv-x="1576" 
d="M467 596q0 115 35 208t95.5 159t142 101.5t173.5 35.5q37 0 67 -5t53 -12.5t40 -17.5t26 -19q18 -17 18 -43q0 -22 -14.5 -38t-38.5 -16q-12 0 -25 5.5t-31 12t-42.5 12.5t-61.5 6q-56 0 -108.5 -25.5t-92.5 -73t-64.5 -116.5t-24.5 -156q0 -102 52 -154t141 -52
q35 0 61.5 5.5t46.5 12.5t34.5 13t26.5 6q20 0 30.5 -12t10.5 -31q0 -14 -4.5 -25.5t-15.5 -22.5q-13 -12 -34.5 -23.5t-50.5 -20.5t-63 -14.5t-70 -5.5q-74 0 -131.5 21t-98 60t-61.5 96t-21 129zM122 644q0 165 55.5 303.5t154.5 238.5t234 156t295 56q147 0 268 -47.5
t207.5 -134.5t133.5 -209.5t47 -271.5q0 -110 -25 -209t-71.5 -182.5t-113 -150.5t-148.5 -114t-178 -72.5t-203 -25.5q-147 0 -268 47.5t-207 134.5t-133.5 209.5t-47.5 271.5zM257 659q0 -131 38 -235.5t108.5 -176.5t170.5 -110.5t225 -38.5q127 0 234 44.5t185 125.5
t121.5 196t43.5 256q0 131 -38 235.5t-108.5 176.5t-170.5 110.5t-224 38.5q-127 0 -235 -44.5t-185.5 -125.5t-121 -196t-43.5 -256z" />
    <glyph glyph-name="ordfeminine" unicode="&#xaa;" horiz-adv-x="820" 
d="M744 927q-5 -27 -8 -48.5t-5 -38.5t-3 -31t-1 -24q0 -11 0.5 -18.5t0.5 -17.5q0 -24 -15.5 -39t-43.5 -15q-41 0 -56.5 28.5t-13.5 74.5h-2q-22 -30 -54 -55q-28 -21 -68.5 -38t-94.5 -17q-50 0 -91 16.5t-70.5 49.5t-46 82t-16.5 113q0 104 30 185.5t85 138t132 86.5
t172 30q46 0 82.5 -6t63.5 -14t44 -18t24 -17q4 -5 8 -10.5t6.5 -13t2.5 -17.5t-2 -24zM659 1250q-11 7 -27 13q-13 4 -33.5 8.5t-47.5 4.5q-52 0 -97 -20t-78.5 -58.5t-53 -96.5t-19.5 -133q0 -86 32.5 -124.5t86.5 -38.5q41 0 74 19t57 43q27 28 50 63zM688 573
q24 0 37.5 -13.5t13.5 -37.5q0 -31 -17.5 -48.5t-49.5 -17.5h-545q-24 0 -37.5 14t-13.5 38q0 30 17.5 47.5t49.5 17.5h545z" />
    <glyph glyph-name="guillemotleft" unicode="&#xab;" horiz-adv-x="1154" 
d="M947 198q12 -19 12 -39q0 -16 -7 -29.5t-19 -24.5t-27 -17t-31 -6q-15 0 -30 7t-26 23l-227 313q-11 15 -18 31t-7 36q0 28 13 48.5t37 41.5l396 332q10 8 20.5 12t21.5 4q15 0 28.5 -6t23.5 -16.5t16 -23.5t6 -28q0 -13 -5.5 -25t-17.5 -23l-353 -317zM510 180
q5 -10 8.5 -19t3.5 -21q0 -17 -8 -31t-20 -24.5t-27.5 -16.5t-30.5 -6q-17 0 -31.5 7t-26.5 23l-255 353q-11 15 -17.5 31t-6.5 36q0 28 13 48.5t37 41.5l395 332q19 16 42 16q16 0 30 -6.5t24 -17t16 -24t6 -27.5q0 -13 -5.5 -25t-17.5 -24l-351 -315z" />
    <glyph glyph-name="logicalnot" unicode="&#xac;" horiz-adv-x="1168" 
d="M252 510q-34 0 -50 16t-16 44q0 38 23 61t61 23h654q78 0 78 -64q0 -10 -1 -20t-3 -20l-49 -276q-8 -42 -31.5 -63.5t-60.5 -21.5q-36 0 -51.5 21.5t-8.5 63.5l42 236h-587z" />
    <glyph glyph-name="uni00AD" unicode="&#xad;" horiz-adv-x="942" 
d="M220 465q-28 0 -43 15t-15 46q0 20 5.5 36t15.5 27t24 17t31 6h498q28 0 43.5 -15t15.5 -46q0 -20 -5.5 -36t-16 -27t-24.5 -17t-31 -6h-498z" />
    <glyph glyph-name="registered" unicode="&#xae;" horiz-adv-x="965" 
d="M492 912q-3 -19 -14 -28.5t-31 -9.5q-21 0 -30.5 9.5t-6.5 28.5l62 354q3 18 13 27t29 9h103q39 0 66 -8t45 -22.5t26.5 -35t8.5 -45.5q0 -51 -31.5 -86t-78.5 -47q9 -36 18.5 -58.5t19.5 -36.5t19 -21.5t15 -13.5q4 -4 6.5 -9t2.5 -12q0 -15 -12 -24.5t-33 -9.5
q-16 0 -30 6t-28 20q-17 18 -33.5 56t-24.5 92h-57zM588 1114q48 0 69 20t21 49q0 25 -17 37.5t-57 12.5h-58l-20 -119h62zM167 1064q0 96 31.5 175t88.5 136t137.5 88.5t176.5 31.5q90 0 163.5 -28.5t126 -79.5t81 -122t28.5 -155q0 -95 -31.5 -174t-88.5 -136
t-137.5 -88.5t-177.5 -31.5q-90 0 -163 28.5t-125.5 79.5t-81 121.5t-28.5 154.5zM256 1071q0 -70 22.5 -127.5t64.5 -98.5t100.5 -64t130.5 -23q76 0 137.5 24.5t106 70t69 109t24.5 142.5q0 69 -23 126.5t-64.5 99t-100.5 64t-130 22.5q-76 0 -137.5 -24.5t-106 -69.5
t-69 -109t-24.5 -142z" />
    <glyph glyph-name="macron" unicode="&#xaf;" 
d="M897 1387q28 0 42.5 -15t14.5 -43q0 -18 -5.5 -33t-15.5 -25t-23.5 -16t-30.5 -6h-490q-28 0 -42.5 15t-14.5 43q0 18 5.5 33t15 25t23.5 16t31 6h490z" />
    <glyph glyph-name="degree" unicode="&#xb0;" horiz-adv-x="820" 
d="M233 1200q0 60 24 114t66 94.5t99.5 63.5t125.5 23q67 0 120.5 -19t90 -55t56.5 -85.5t20 -110.5q0 -60 -24 -113.5t-66 -93.5t-99.5 -63t-125.5 -23q-67 0 -120.5 19.5t-90 54.5t-56.5 84.5t-20 109.5zM378 1211q0 -36 11 -65.5t31.5 -50.5t49 -32.5t63.5 -11.5
q34 0 63 12t49.5 33.5t32.5 51.5t12 67q0 73 -42.5 117t-112.5 44q-34 0 -63 -12t-50 -33.5t-32.5 -52t-11.5 -67.5z" />
    <glyph glyph-name="plusminus" unicode="&#xb1;" horiz-adv-x="1168" 
d="M270 659q-33 0 -49.5 16t-16.5 45q0 19 6 34.5t17.5 26.5t27.5 17t36 6h267l47 278q7 42 31 64t61 22t52.5 -21.5t7.5 -64.5l-45 -278h264q32 0 48 -16t16 -44q0 -19 -6 -34.5t-17 -27t-27.5 -17.5t-36.5 -6h-267l-47 -278q-8 -42 -31.5 -63.5t-60.5 -21.5
q-35 0 -52.5 21.5t-9.5 63.5l49 278h-264zM860 144q33 0 49 -15.5t16 -43.5q0 -19 -6 -35t-17.5 -27t-27 -17t-35.5 -6h-684q-32 0 -49.5 16t-17.5 44q0 19 6 34.5t18 26.5t27.5 17t35.5 6h685z" />
    <glyph glyph-name="two.superior" unicode="&#xb2;" horiz-adv-x="673" 
d="M582 756q48 0 48 -54q0 -31 -17.5 -52t-46.5 -21h-393q-37 0 -58 20t-21 54q0 27 10.5 48.5t37.5 43.5l165 134q62 50 103 86t66 64t35 52.5t10 53.5q0 39 -23.5 61t-73.5 22q-29 0 -51.5 -4.5t-40.5 -9.5t-33 -10t-28 -5q-20 0 -31.5 13t-11.5 34q0 12 4 22.5t16 22.5
q11 12 32 22.5t49 19t62 13.5t71 5q59 0 103 -13t72.5 -36.5t42.5 -56.5t14 -74q0 -45 -14 -83.5t-46.5 -79t-87.5 -87.5t-137 -109l-124 -96h297z" />
    <glyph glyph-name="three.superior" unicode="&#xb3;" horiz-adv-x="683" 
d="M328 733q39 0 69 10t51 27t31.5 40t10.5 48q0 23 -9 41.5t-31 31.5t-58.5 19.5t-92.5 6.5q-21 0 -30 9q-7 8 -10 20.5t-2.5 26.5t5.5 27.5t14 22.5q7 6 14.5 9t22.5 3q60 0 100 9.5t64.5 26t35 38.5t10.5 47q0 34 -23.5 54t-75.5 20q-25 0 -45.5 -4.5t-36.5 -9.5
t-30 -9.5t-26 -4.5q-21 0 -32.5 13t-11.5 33q0 15 6 27t18 23q13 11 33.5 20.5t46 17t55.5 11.5t62 4q59 0 101.5 -13t70 -36t41 -54t13.5 -67q0 -69 -42 -117.5t-109 -74.5l-1 -1q55 -12 87.5 -51.5t32.5 -101.5q0 -54 -23 -101.5t-66.5 -82.5t-106.5 -55t-143 -20
q-71 0 -113 13t-60 28q-23 19 -23 45t15 41.5t39 15.5q13 0 25 -4t28.5 -9t40 -9t58.5 -4z" />
    <glyph glyph-name="acute" unicode="&#xb4;" 
d="M683 1499q19 21 45 21q17 0 34 -8.5t30 -22t21.5 -30.5t8.5 -34q0 -15 -6 -26t-17 -21l-242 -213q-9 -6 -18 -9.5t-19 -3.5q-13 0 -25 5.5t-21.5 14t-15 20t-5.5 23.5q0 11 4.5 20.5t13.5 21.5z" />
    <glyph glyph-name="mu" unicode="&#xb5;" horiz-adv-x="1178" 
d="M245 932q6 40 30 61t69 21t65.5 -21t14.5 -61l-89 -512q-5 -31 -7.5 -55t-2.5 -50q0 -93 44.5 -137.5t131.5 -44.5q34 0 65 8.5t58.5 22t51 31.5t43.5 36q45 44 80 100l105 602q7 39 31 60t69 21q40 0 60.5 -16.5t20.5 -47.5q0 -7 -1.5 -16t-5.5 -31l-101 -581
q-6 -38 -10.5 -69t-8 -57t-5 -46.5t-1.5 -36.5t1 -27t1 -25q0 -30 -19.5 -49t-54.5 -19q-55 0 -76 42.5t-15 113.5h-3q-36 -47 -83 -83q-21 -16 -46 -31.5t-55 -27t-65 -18.5t-75 -7q-55 0 -93.5 11t-63.5 25q-29 15 -48 36l-3 -2l-48 -367q-3 -21 -5.5 -40.5t-6.5 -38.5
q-9 -45 -35.5 -65t-67.5 -20q-40 0 -58.5 16.5t-18.5 47.5q0 7 0.5 14.5t2.5 17.5z" />
    <glyph glyph-name="mu" unicode="&#x3bc;" horiz-adv-x="1178" 
d="M245 932q6 40 30 61t69 21t65.5 -21t14.5 -61l-89 -512q-5 -31 -7.5 -55t-2.5 -50q0 -93 44.5 -137.5t131.5 -44.5q34 0 65 8.5t58.5 22t51 31.5t43.5 36q45 44 80 100l105 602q7 39 31 60t69 21q40 0 60.5 -16.5t20.5 -47.5q0 -7 -1.5 -16t-5.5 -31l-101 -581
q-6 -38 -10.5 -69t-8 -57t-5 -46.5t-1.5 -36.5t1 -27t1 -25q0 -30 -19.5 -49t-54.5 -19q-55 0 -76 42.5t-15 113.5h-3q-36 -47 -83 -83q-21 -16 -46 -31.5t-55 -27t-65 -18.5t-75 -7q-55 0 -93.5 11t-63.5 25q-29 15 -48 36l-3 -2l-48 -367q-3 -21 -5.5 -40.5t-6.5 -38.5
q-9 -45 -35.5 -65t-67.5 -20q-40 0 -58.5 16.5t-18.5 47.5q0 7 0.5 14.5t2.5 17.5z" />
    <glyph glyph-name="paragraph" unicode="&#xb6;" horiz-adv-x="1256" 
d="M591 -254q-13 -70 -83 -70q-38 0 -54 18t-11 52l130 752q-90 1 -161.5 26t-121.5 71t-76 113.5t-26 154.5q0 117 35.5 212.5t110 162.5t190 103.5t276.5 36.5h319q38 0 57.5 -17t19.5 -51q0 -9 -1 -18t-3 -19l-263 -1527q-13 -70 -83 -70q-38 0 -54.5 18t-10.5 52
l257 1486h-191z" />
    <glyph glyph-name="periodcentered" unicode="&#xb7;" horiz-adv-x="562" 
d="M154 534q0 29 10.5 54.5t29 43.5t43.5 29t54 11q28 0 52 -9.5t41 -26.5t26.5 -41t9.5 -52q0 -29 -10.5 -54t-29 -43.5t-43.5 -29t-53 -10.5q-29 0 -52.5 9.5t-41 26.5t-27 40.5t-9.5 51.5z" />
    <glyph glyph-name="cedilla" unicode="&#xb8;" 
d="M501 0l-44 -106q31 -6 56 -17.5t42 -30.5t26 -44.5t9 -58.5q0 -49 -21 -92t-60.5 -74.5t-96.5 -50t-129 -18.5q-34 0 -57.5 5t-38 14t-20 21t-5.5 27q0 24 14.5 39t37.5 15q13 0 25.5 -1.5t31.5 -1.5q41 0 70.5 7t48.5 19.5t28 30t9 38.5q0 27 -17.5 44t-57.5 17h-9
q-24 0 -33.5 15.5t3.5 47.5l64 155h124z" />
    <glyph glyph-name="one.superior" unicode="&#xb9;" horiz-adv-x="541" 
d="M268 1182q-15 -5 -29 -8.5t-26 -3.5q-23 0 -35.5 15t-12.5 36q0 15 4 25.5t15 21.5q15 15 55.5 35.5t91.5 41.5q53 22 83.5 31.5t56.5 9.5q33 0 48.5 -17.5t15.5 -44.5q0 -6 -0.5 -13t-2.5 -17l-104 -600q-5 -34 -27 -52.5t-63 -18.5q-40 0 -57.5 19t-11.5 52l90 517z
" />
    <glyph glyph-name="ordmasculine" unicode="&#xba;" horiz-adv-x="877" 
d="M194 959q0 99 29.5 178.5t82 135.5t124.5 86.5t157 30.5q66 0 118 -19t88 -54.5t55.5 -86t19.5 -111.5q0 -99 -30 -178.5t-82.5 -135.5t-125 -86.5t-156.5 -30.5q-66 0 -117.5 19t-88 54.5t-55.5 85.5t-19 112zM340 975q0 -87 41.5 -130t111.5 -43q46 0 87 20t72.5 58.5
t50 94.5t18.5 128q0 86 -41 129.5t-112 43.5q-45 0 -86.5 -20t-73 -58t-50 -94.5t-18.5 -128.5zM726 573q24 0 38 -13.5t14 -37.5q0 -31 -18 -48.5t-50 -17.5h-556q-24 0 -38 14t-14 38q0 30 18 47.5t50 17.5h556z" />
    <glyph glyph-name="guillemotright" unicode="&#xbb;" horiz-adv-x="1154" 
d="M207 809q-12 19 -12 39q0 16 7 30t19 24.5t27 16.5t31 6t30.5 -7t25.5 -23l228 -312q10 -16 17 -32t7 -36q0 -27 -13 -47.5t-37 -41.5l-396 -333q-10 -8 -20.5 -12t-22.5 -4q-14 0 -27.5 6t-23.5 16.5t-16 23.5t-6 28q0 13 5.5 25t17.5 23l353 317zM644 827
q-5 10 -8.5 19t-3.5 21q0 16 8 30.5t20 24.5t27.5 16.5t30.5 6.5q17 0 31.5 -7t26.5 -23l255 -352q11 -16 17.5 -32t6.5 -36q0 -27 -13 -47.5t-37 -41.5l-394 -333q-20 -16 -43 -16q-16 0 -30 6.5t-24 17t-16 24t-6 27.5t5.5 25.5t17.5 23.5l351 315z" />
    <glyph glyph-name="onequarter" unicode="&#xbc;" horiz-adv-x="1514" 
d="M1163 1367q13 16 24 23t27 7q15 0 28 -5.5t23 -14.5t15.5 -20t5.5 -24q0 -12 -5 -21.5t-14 -21.5l-966 -1277q-12 -16 -23 -23.5t-28 -7.5q-14 0 -27 5.5t-23 14.5t-16 20.5t-6 23.5t5.5 22t14.5 22zM268 1182q-15 -5 -29 -8.5t-26 -3.5q-23 0 -35.5 15t-12.5 36
q0 15 4 25.5t15 21.5q15 15 55.5 35.5t91.5 41.5q53 22 83.5 31.5t56.5 9.5q33 0 48.5 -17.5t15.5 -44.5q0 -6 -0.5 -13t-2.5 -17l-104 -600q-5 -34 -27 -52.5t-63 -18.5q-40 0 -57.5 19t-11.5 52l90 517zM863 197q-40 0 -62 21.5t-22 58.5q0 27 11 48t34 47l292 319
q18 20 34.5 33t33.5 21t36 11.5t43 3.5q26 0 44.5 -6t30 -17.5t15 -28t0.5 -37.5l-62 -353h74q20 0 31 -12.5t11 -35.5q0 -34 -16.5 -53.5t-42.5 -19.5h-77l-24 -132q-5 -35 -26.5 -52.5t-60.5 -17.5q-37 0 -54 19t-11 51l22 132h-254zM1188 607l-264 -289h214z" />
    <glyph glyph-name="onehalf" unicode="&#xbd;" horiz-adv-x="1550" 
d="M1163 1367q13 16 24 23t27 7q15 0 28 -5.5t23 -14.5t15.5 -20t5.5 -24q0 -12 -5 -21.5t-14 -21.5l-966 -1277q-12 -16 -23 -23.5t-28 -7.5q-14 0 -27 5.5t-23 14.5t-16 20.5t-6 23.5t5.5 22t14.5 22zM268 1182q-15 -5 -29 -8.5t-26 -3.5q-23 0 -35.5 15t-12.5 36
q0 15 4 25.5t15 21.5q15 15 55.5 35.5t91.5 41.5q53 22 83.5 31.5t56.5 9.5q33 0 48.5 -17.5t15.5 -44.5q0 -6 -0.5 -13t-2.5 -17l-104 -600q-5 -34 -27 -52.5t-63 -18.5q-40 0 -57.5 19t-11.5 52l90 517zM1350 128q48 0 48 -54q0 -31 -17.5 -52t-46.5 -21h-393
q-37 0 -58 20t-21 54q0 27 10.5 48.5t37.5 43.5l165 134q62 50 103 86t66 64t35 52.5t10 53.5q0 39 -23.5 61t-73.5 22q-29 0 -51.5 -4.5t-40.5 -9.5t-33 -10t-28 -5q-20 0 -31.5 13t-11.5 34q0 12 4 22.5t16 22.5q11 12 32 22.5t49 19t62 13.5t71 5q59 0 103 -13
t72.5 -36.5t42.5 -56.5t14 -74q0 -45 -14 -83.5t-46.5 -79t-87.5 -87.5t-137 -109l-124 -96h297z" />
    <glyph glyph-name="threequarters" unicode="&#xbe;" horiz-adv-x="1623" 
d="M1274 1367q13 16 24 23t27 7q15 0 28 -5.5t23 -14.5t15.5 -20t5.5 -24q0 -12 -5 -21.5t-14 -21.5l-966 -1277q-12 -16 -23 -23.5t-28 -7.5q-14 0 -27 5.5t-23 14.5t-16 20.5t-6 23.5t5.5 22t14.5 22zM972 197q-40 0 -62 21.5t-22 58.5q0 27 11 48t34 47l292 319
q18 20 34.5 33t33.5 21t36 11.5t43 3.5q26 0 44.5 -6t30 -17.5t15 -28t0.5 -37.5l-62 -353h74q20 0 31 -12.5t11 -35.5q0 -34 -16.5 -53.5t-42.5 -19.5h-77l-24 -132q-5 -35 -26.5 -52.5t-60.5 -17.5q-37 0 -54 19t-11 51l22 132h-254zM1297 607l-264 -289h214zM325 733
q39 0 69 10t51 27t31.5 40t10.5 48q0 23 -9 41.5t-31 31.5t-58.5 19.5t-92.5 6.5q-21 0 -30 9q-7 8 -10 20.5t-2.5 26.5t5.5 27.5t14 22.5q7 6 14.5 9t22.5 3q60 0 100 9.5t64.5 26t35 38.5t10.5 47q0 34 -23.5 54t-75.5 20q-25 0 -45.5 -4.5t-36.5 -9.5t-30 -9.5t-26 -4.5
q-21 0 -32.5 13t-11.5 33q0 15 6 27t18 23q13 11 33.5 20.5t46 17t55.5 11.5t62 4q59 0 101.5 -13t70 -36t41 -54t13.5 -67q0 -69 -42 -117.5t-109 -74.5l-1 -1q55 -12 87.5 -51.5t32.5 -101.5q0 -54 -23 -101.5t-66.5 -82.5t-106.5 -55t-143 -20q-71 0 -113 13t-60 28
q-23 19 -23 45t15 41.5t39 15.5q13 0 25 -4t28.5 -9t40 -9t58.5 -4z" />
    <glyph glyph-name="questiondown" unicode="&#xbf;" horiz-adv-x="755" 
d="M-61 -151q0 69 18.5 123t49.5 98.5t71 81t81 70t80.5 66.5t70.5 70.5t49.5 81t18.5 98.5q0 23 -1.5 36t-1.5 24q0 35 23.5 56.5t65.5 21.5q44 0 69.5 -28.5t25.5 -94.5q0 -92 -31.5 -158.5t-79 -118.5t-102.5 -95t-102.5 -87.5t-79 -96t-31.5 -120.5q0 -76 47.5 -119
t145.5 -43q48 0 81 6t56 14t40 14.5t34 6.5q23 0 37.5 -16t14.5 -40q0 -15 -4.5 -28t-19.5 -28q-15 -14 -41 -28t-61.5 -25t-81 -18.5t-96.5 -7.5q-84 0 -149 19t-109 55.5t-66 89.5t-22 120zM380 943q0 29 10.5 53.5t29 43t44 29t55.5 10.5q28 0 51 -9t39.5 -25t25.5 -39
t9 -50q0 -29 -10.5 -54t-29 -43.5t-44 -29t-55.5 -10.5q-28 0 -51 9t-39.5 25t-25.5 39t-9 51z" />
    <glyph glyph-name="Agrave" unicode="&#xc0;" horiz-adv-x="1219" 
d="M161 58q-9 -18 -14 -27.5t-13 -17.5q-10 -10 -24 -16t-34 -6q-18 0 -35 5.5t-30.5 16t-21.5 25t-8 31.5q0 13 4.5 25.5t15.5 34.5l589 1125q8 16 15.5 28.5t14 23.5t14 20.5t17.5 19.5q19 18 44.5 28t60.5 10q33 0 55 -7.5t38 -23.5q17 -17 24.5 -42.5t13.5 -60.5
l203 -1129q4 -23 5 -32.5t1 -17.5q0 -18 -8 -32.5t-22 -25t-33 -16.5t-39 -6q-21 0 -37 6t-28 18q-11 11 -15.5 28t-8.5 37l-48 286h-541zM833 517l-78 474q-8 41 -13 77t-8 64q-4 32 -7 59h-4q-12 -27 -27 -60q-14 -28 -31.5 -63.5t-37.5 -76.5l-237 -474h443zM558 1680
q-13 10 -20.5 22t-7.5 27q0 19 9 37.5t23 33t31.5 24t34.5 9.5q13 0 23 -5t17 -13l201 -215q9 -11 13 -22.5t3 -24.5q-2 -13 -9.5 -25t-18.5 -21t-24.5 -13.5t-27.5 -1.5q-6 2 -12 4.5t-13 7.5z" />
    <glyph glyph-name="Aacute" unicode="&#xc1;" horiz-adv-x="1219" 
d="M161 58q-9 -18 -14 -27.5t-13 -17.5q-10 -10 -24 -16t-34 -6q-18 0 -35 5.5t-30.5 16t-21.5 25t-8 31.5q0 13 4.5 25.5t15.5 34.5l589 1125q8 16 15.5 28.5t14 23.5t14 20.5t17.5 19.5q19 18 44.5 28t60.5 10q33 0 55 -7.5t38 -23.5q17 -17 24.5 -42.5t13.5 -60.5
l203 -1129q4 -23 5 -32.5t1 -17.5q0 -18 -8 -32.5t-22 -25t-33 -16.5t-39 -6q-21 0 -37 6t-28 18q-11 11 -15.5 28t-8.5 37l-48 286h-541zM833 517l-78 474q-8 41 -13 77t-8 64q-4 32 -7 59h-4q-12 -27 -27 -60q-14 -28 -31.5 -63.5t-37.5 -76.5l-237 -474h443zM943 1811
q18 14 36 14t34 -9.5t28 -23.5t19.5 -31.5t7.5 -33.5q0 -17 -7 -30t-23 -21l-277 -169q-8 -5 -15.5 -8t-16.5 -3q-13 0 -24 6t-19.5 15.5t-13.5 21.5t-5 25t5.5 24t16.5 20z" />
    <glyph glyph-name="Acircumflex" unicode="&#xc2;" horiz-adv-x="1219" 
d="M161 58q-9 -18 -14 -27.5t-13 -17.5q-10 -10 -24 -16t-34 -6q-18 0 -35 5.5t-30.5 16t-21.5 25t-8 31.5q0 13 4.5 25.5t15.5 34.5l589 1125q8 16 15.5 28.5t14 23.5t14 20.5t17.5 19.5q19 18 44.5 28t60.5 10q33 0 55 -7.5t38 -23.5q17 -17 24.5 -42.5t13.5 -60.5
l203 -1129q4 -23 5 -32.5t1 -17.5q0 -18 -8 -32.5t-22 -25t-33 -16.5t-39 -6q-21 0 -37 6t-28 18q-11 11 -15.5 28t-8.5 37l-48 286h-541zM833 517l-78 474q-8 41 -13 77t-8 64q-4 32 -7 59h-4q-12 -27 -27 -60q-14 -28 -31.5 -63.5t-37.5 -76.5l-237 -474h443zM576 1508
q-7 -4 -13.5 -6.5t-15.5 -2.5q-13 0 -24 5.5t-19.5 14t-13.5 20t-5 23.5q0 24 20 41l221 180q24 19 44.5 30.5t46.5 11.5q27 0 45.5 -11t35.5 -30l154 -185q8 -8 11 -17t3 -19q0 -14 -6 -25t-15.5 -20t-22 -14t-24.5 -5t-20 3.5t-17 10.5l-166 139z" />
    <glyph glyph-name="Atilde" unicode="&#xc3;" horiz-adv-x="1219" 
d="M161 58q-9 -18 -14 -27.5t-13 -17.5q-10 -10 -24 -16t-34 -6q-18 0 -35 5.5t-30.5 16t-21.5 25t-8 31.5q0 13 4.5 25.5t15.5 34.5l589 1125q8 16 15.5 28.5t14 23.5t14 20.5t17.5 19.5q19 18 44.5 28t60.5 10q33 0 55 -7.5t38 -23.5q17 -17 24.5 -42.5t13.5 -60.5
l203 -1129q4 -23 5 -32.5t1 -17.5q0 -18 -8 -32.5t-22 -25t-33 -16.5t-39 -6q-21 0 -37 6t-28 18q-11 11 -15.5 28t-8.5 37l-48 286h-541zM833 517l-78 474q-8 41 -13 77t-8 64q-4 32 -7 59h-4q-12 -27 -27 -60q-14 -28 -31.5 -63.5t-37.5 -76.5l-237 -474h443zM653 1628
q-31 0 -52 -12.5t-38.5 -27.5t-33.5 -27.5t-35 -12.5q-22 0 -38.5 13.5t-16.5 43.5q0 24 17 53t48 54.5t73.5 43.5t92.5 18q49 0 85.5 -15.5t66.5 -33.5t57 -33.5t59 -15.5q31 0 52 12.5t38.5 28t33 28t35.5 12.5q22 0 38.5 -14.5t16.5 -43.5q0 -24 -17 -53t-48 -54.5
t-73 -43t-93 -17.5q-50 0 -86 15t-65.5 33t-57 33.5t-59.5 15.5z" />
    <glyph glyph-name="Adieresis" unicode="&#xc4;" horiz-adv-x="1219" 
d="M161 58q-9 -18 -14 -27.5t-13 -17.5q-10 -10 -24 -16t-34 -6q-18 0 -35 5.5t-30.5 16t-21.5 25t-8 31.5q0 13 4.5 25.5t15.5 34.5l589 1125q8 16 15.5 28.5t14 23.5t14 20.5t17.5 19.5q19 18 44.5 28t60.5 10q33 0 55 -7.5t38 -23.5q17 -17 24.5 -42.5t13.5 -60.5
l203 -1129q4 -23 5 -32.5t1 -17.5q0 -18 -8 -32.5t-22 -25t-33 -16.5t-39 -6q-21 0 -37 6t-28 18q-11 11 -15.5 28t-8.5 37l-48 286h-541zM833 517l-78 474q-8 41 -13 77t-8 64q-4 32 -7 59h-4q-12 -27 -27 -60q-14 -28 -31.5 -63.5t-37.5 -76.5l-237 -474h443zM462 1644
q0 27 9.5 49.5t26.5 40t40 27t50 9.5q25 0 45.5 -8.5t35 -23.5t23 -35.5t8.5 -43.5q0 -27 -9 -50t-25.5 -40.5t-39.5 -27t-50 -9.5q-25 0 -46 8.5t-36 23.5t-23.5 35.5t-8.5 44.5zM882 1644q0 27 9.5 49.5t26.5 40t40 27t51 9.5q24 0 45 -8.5t35.5 -23.5t22.5 -35.5t8 -43.5
q0 -27 -9 -50t-25.5 -40.5t-39.5 -27t-50 -9.5q-25 0 -45.5 8.5t-36 23.5t-24 35.5t-8.5 44.5z" />
    <glyph glyph-name="Aring" unicode="&#xc5;" horiz-adv-x="1219" 
d="M161 58q-9 -18 -14 -27.5t-13 -17.5q-10 -10 -24 -16t-34 -6q-18 0 -35 5.5t-30.5 16t-21.5 25t-8 31.5q0 13 4.5 25.5t15.5 34.5l589 1125q8 16 15.5 28.5t14 23.5t14 20.5t17.5 19.5q19 18 44.5 28t60.5 10q33 0 55 -7.5t38 -23.5q17 -17 24.5 -42.5t13.5 -60.5
l203 -1129q4 -23 5 -32.5t1 -17.5q0 -18 -8 -32.5t-22 -25t-33 -16.5t-39 -6q-21 0 -37 6t-28 18q-11 11 -15.5 28t-8.5 37l-48 286h-541zM833 517l-78 474q-8 41 -13 77t-8 64q-4 32 -7 59h-4q-12 -27 -27 -60q-14 -28 -31.5 -63.5t-37.5 -76.5l-237 -474h443zM542 1709
q0 49 19 92t54 75.5t82.5 51t105.5 18.5q56 0 100.5 -16.5t76 -46t48.5 -69.5t17 -86q0 -49 -19 -92t-53.5 -75.5t-83 -51t-105.5 -18.5q-56 0 -100.5 16.5t-76 46t-48.5 69.5t-17 86zM661 1719q0 -61 36.5 -96t96.5 -35t96 35t36 96q0 60 -36 95.5t-96 35.5t-96.5 -35.5
t-36.5 -95.5z" />
    <glyph glyph-name="AE" unicode="&#xc6;" horiz-adv-x="1707" 
d="M104 48q-4 -7 -8 -11.5t-7 -8.5t-6 -7l-7 -7q-23 -23 -56 -23q-18 0 -34.5 6t-29.5 17t-20.5 26t-7.5 32q0 19 9 34.5t24 34.5l876 1164q16 22 30.5 36t29.5 22.5t33 11.5t41 3h722q30 0 46 -16.5t16 -49.5q0 -21 -6 -37.5t-16.5 -28t-25.5 -17.5t-32 -6h-519l-76 -438
h440q30 0 46 -16.5t16 -49.5q0 -20 -6 -36.5t-16.5 -28t-25 -17.5t-32.5 -6h-449l-82 -476h514q30 0 46 -17t16 -50q0 -20 -6 -36.5t-16.5 -28t-25.5 -17.5t-32 -6h-615q-45 0 -64 23.5t-11 70.5l47 272h-484zM850 517l122 706h-3l-522 -706h403z" />
    <glyph glyph-name="Ccedilla" unicode="&#xc7;" horiz-adv-x="1169" 
d="M502 -4q-91 18 -162.5 61.5t-121.5 109t-76 153t-26 194.5q0 134 27.5 252t77 216t119 174.5t153.5 129.5t180.5 81t200.5 28q59 0 109 -7t89 -19t67 -27.5t44 -31.5q13 -14 19 -27.5t6 -31.5q0 -31 -20 -52.5t-55 -21.5q-21 0 -42.5 9.5t-52 21t-75.5 21t-112 9.5
q-105 0 -203 -48t-173.5 -138t-121 -220t-45.5 -294q0 -96 25.5 -170t72.5 -124t114 -76t149 -26q67 0 115.5 10.5t83 22t58 22t42.5 10.5q28 0 43 -17t15 -42q0 -19 -6 -35t-20 -30q-22 -21 -58 -39t-83.5 -31.5t-104.5 -21t-118 -7.5h-15l-37 -90q32 -6 56.5 -17.5
t41.5 -30.5t26 -44.5t9 -58.5q0 -49 -21 -92t-60.5 -74.5t-96.5 -50t-128 -18.5q-35 0 -58.5 5t-37.5 14t-20 21t-6 27q0 24 14.5 39t37.5 15q13 0 26 -1.5t31 -1.5q41 0 70.5 7t48.5 19.5t28 30t9 38.5q0 27 -17.5 44t-57.5 17h-9q-24 0 -33.5 15.5t3.5 47.5z" />
    <glyph glyph-name="Egrave" unicode="&#xc8;" horiz-adv-x="1049" 
d="M313 155h514q30 0 46 -17t16 -50q0 -20 -5.5 -36.5t-16.5 -28t-26 -17.5t-32 -6h-614q-39 0 -58.5 17t-19.5 51q0 9 1 18t3 19l205 1189q7 42 31 63t67 21h611q30 0 46 -16.5t16 -49.5q0 -21 -6 -37.5t-16.5 -28t-25.5 -17.5t-32 -6h-519l-76 -438h440q30 0 46 -16.5
t16 -49.5q0 -20 -5.5 -36.5t-16.5 -28t-25.5 -17.5t-32.5 -6h-449zM517 1680q-13 10 -20.5 22t-7.5 27q0 19 9 37.5t23 33t31.5 24t34.5 9.5q13 0 23 -5t17 -13l201 -215q9 -11 13 -22.5t3 -24.5q-2 -13 -9.5 -25t-18.5 -21t-24.5 -13.5t-27.5 -1.5q-6 2 -12 4.5t-13 7.5z
" />
    <glyph glyph-name="Eacute" unicode="&#xc9;" horiz-adv-x="1049" 
d="M313 155h514q30 0 46 -17t16 -50q0 -20 -5.5 -36.5t-16.5 -28t-26 -17.5t-32 -6h-614q-39 0 -58.5 17t-19.5 51q0 9 1 18t3 19l205 1189q7 42 31 63t67 21h611q30 0 46 -16.5t16 -49.5q0 -21 -6 -37.5t-16.5 -28t-25.5 -17.5t-32 -6h-519l-76 -438h440q30 0 46 -16.5
t16 -49.5q0 -20 -5.5 -36.5t-16.5 -28t-25.5 -17.5t-32.5 -6h-449zM937 1811q18 14 36 14t34 -9.5t28 -23.5t19.5 -31.5t7.5 -33.5q0 -17 -7 -30t-23 -21l-277 -169q-8 -5 -15.5 -8t-16.5 -3q-13 0 -24 6t-19.5 15.5t-13.5 21.5t-5 25t5.5 24t16.5 20z" />
    <glyph glyph-name="Ecircumflex" unicode="&#xca;" horiz-adv-x="1049" 
d="M313 155h514q30 0 46 -17t16 -50q0 -20 -5.5 -36.5t-16.5 -28t-26 -17.5t-32 -6h-614q-39 0 -58.5 17t-19.5 51q0 9 1 18t3 19l205 1189q7 42 31 63t67 21h611q30 0 46 -16.5t16 -49.5q0 -21 -6 -37.5t-16.5 -28t-25.5 -17.5t-32 -6h-519l-76 -438h440q30 0 46 -16.5
t16 -49.5q0 -20 -5.5 -36.5t-16.5 -28t-25.5 -17.5t-32.5 -6h-449zM548 1508q-7 -4 -13.5 -6.5t-15.5 -2.5q-13 0 -24 5.5t-19.5 14t-13.5 20t-5 23.5q0 24 20 41l221 180q24 19 44.5 30.5t46.5 11.5q27 0 45.5 -11t35.5 -30l154 -185q8 -8 11 -17t3 -19q0 -14 -6 -25
t-15.5 -20t-22 -14t-24.5 -5t-20 3.5t-17 10.5l-166 139z" />
    <glyph glyph-name="Edieresis" unicode="&#xcb;" horiz-adv-x="1049" 
d="M313 155h514q30 0 46 -17t16 -50q0 -20 -5.5 -36.5t-16.5 -28t-26 -17.5t-32 -6h-614q-39 0 -58.5 17t-19.5 51q0 9 1 18t3 19l205 1189q7 42 31 63t67 21h611q30 0 46 -16.5t16 -49.5q0 -21 -6 -37.5t-16.5 -28t-25.5 -17.5t-32 -6h-519l-76 -438h440q30 0 46 -16.5
t16 -49.5q0 -20 -5.5 -36.5t-16.5 -28t-25.5 -17.5t-32.5 -6h-449zM422 1644q0 27 9.5 49.5t26.5 40t40 27t50 9.5q25 0 45.5 -8.5t35 -23.5t23 -35.5t8.5 -43.5q0 -27 -9 -50t-25.5 -40.5t-39.5 -27t-50 -9.5q-25 0 -46 8.5t-36 23.5t-23.5 35.5t-8.5 44.5zM842 1644
q0 27 9.5 49.5t26.5 40t40 27t51 9.5q24 0 45 -8.5t35.5 -23.5t22.5 -35.5t8 -43.5q0 -27 -9 -50t-25.5 -40.5t-39.5 -27t-50 -9.5q-25 0 -45.5 8.5t-36 23.5t-24 35.5t-8.5 44.5z" />
    <glyph glyph-name="Igrave" unicode="&#xcc;" horiz-adv-x="563" 
d="M327 1302q7 40 31 61t71 21q84 0 84 -65q0 -7 -2 -16.5t-4 -24.5l-207 -1201q-7 -40 -31 -61.5t-71 -21.5q-84 0 -84 65q0 7 1.5 16.5t4.5 24.5zM247 1680q-13 10 -20.5 22t-7.5 27q0 19 9 37.5t23 33t31.5 24t34.5 9.5q13 0 23 -5t17 -13l201 -215q9 -11 13 -22.5
t3 -24.5q-2 -13 -9.5 -25t-18.5 -21t-24.5 -13.5t-27.5 -1.5q-6 2 -12 4.5t-13 7.5z" />
    <glyph glyph-name="Iacute" unicode="&#xcd;" horiz-adv-x="563" 
d="M327 1302q7 40 31 61t71 21q84 0 84 -65q0 -7 -2 -16.5t-4 -24.5l-207 -1201q-7 -40 -31 -61.5t-71 -21.5q-84 0 -84 65q0 7 1.5 16.5t4.5 24.5zM603 1811q18 14 36 14t34 -9.5t28 -23.5t19.5 -31.5t7.5 -33.5q0 -17 -7 -30t-23 -21l-277 -169q-8 -5 -15.5 -8t-16.5 -3
q-13 0 -24 6t-19.5 15.5t-13.5 21.5t-5 25t5.5 24t16.5 20z" />
    <glyph glyph-name="Icircumflex" unicode="&#xce;" horiz-adv-x="563" 
d="M327 1302q7 40 31 61t71 21q84 0 84 -65q0 -7 -2 -16.5t-4 -24.5l-207 -1201q-7 -40 -31 -61.5t-71 -21.5q-84 0 -84 65q0 7 1.5 16.5t4.5 24.5zM254 1508q-7 -4 -13.5 -6.5t-15.5 -2.5q-13 0 -24 5.5t-19.5 14t-13.5 20t-5 23.5q0 24 20 41l221 180q24 19 44.5 30.5
t46.5 11.5q27 0 45.5 -11t35.5 -30l154 -185q8 -8 11 -17t3 -19q0 -14 -6 -25t-15.5 -20t-22 -14t-24.5 -5t-20 3.5t-17 10.5l-166 139z" />
    <glyph glyph-name="Idieresis" unicode="&#xcf;" horiz-adv-x="563" 
d="M327 1302q7 40 31 61t71 21q84 0 84 -65q0 -7 -2 -16.5t-4 -24.5l-207 -1201q-7 -40 -31 -61.5t-71 -21.5q-84 0 -84 65q0 7 1.5 16.5t4.5 24.5zM138 1644q0 27 9.5 49.5t26.5 40t40 27t50 9.5q25 0 45.5 -8.5t35 -23.5t23 -35.5t8.5 -43.5q0 -27 -9 -50t-25.5 -40.5
t-39.5 -27t-50 -9.5q-25 0 -46 8.5t-36 23.5t-23.5 35.5t-8.5 44.5zM558 1644q0 27 9.5 49.5t26.5 40t40 27t51 9.5q24 0 45 -8.5t35.5 -23.5t22.5 -35.5t8 -43.5q0 -27 -9 -50t-25.5 -40.5t-39.5 -27t-50 -9.5q-25 0 -45.5 8.5t-36 23.5t-24 35.5t-8.5 44.5z" />
    <glyph glyph-name="Eth" unicode="&#xd0;" horiz-adv-x="1393" 
d="M140 652q-29 0 -44 15t-15 46q0 19 5.5 34.5t16 26.5t24.5 16.5t31 5.5h109l86 498q7 42 31 63t67 21h316q144 0 252 -36t180.5 -104t109 -166t36.5 -224q0 -191 -61 -347t-171 -267.5t-263.5 -172.5t-338.5 -61h-289q-46 0 -65 23.5t-11 70.5l96 558h-102zM340 154h202
q134 0 246 46t193 132.5t126.5 211t45.5 281.5q0 197 -103.5 298t-314.5 101h-210l-75 -428h247q29 0 44 -15.5t15 -45.5q0 -20 -5.5 -35t-15.5 -26t-24.5 -16.5t-31.5 -5.5h-253z" />
    <glyph glyph-name="Ntilde" unicode="&#xd1;" horiz-adv-x="1460" 
d="M319 1263q5 31 16.5 54.5t28.5 38t41 21.5t54 7q33 0 55.5 -8t39.5 -25q19 -19 35.5 -52.5t39.5 -83.5l350 -779q17 -38 32 -75.5t26 -66.5q13 -34 24 -65l4 2q3 35 7 75q3 34 8.5 77.5t13.5 89.5l139 831q6 40 30 60t67 20q38 0 59 -16.5t21 -48.5q0 -8 -1.5 -17
t-3.5 -24l-200 -1163q-6 -31 -17 -54.5t-28 -38t-40.5 -21.5t-54.5 -7q-33 0 -55.5 8t-38.5 25q-20 19 -36.5 52.5t-38.5 83.5l-351 779q-17 38 -32 75.5t-26 66.5q-12 34 -23 65l-5 -2q-3 -35 -7 -75q-3 -34 -8.5 -77.5t-12.5 -89.5l-139 -831q-7 -40 -30.5 -60t-66.5 -20
q-38 0 -59.5 16.5t-21.5 48.5q0 7 1.5 16.5t4.5 24.5zM786 1628q-31 0 -52 -12.5t-38.5 -27.5t-33.5 -27.5t-35 -12.5q-22 0 -38.5 13.5t-16.5 43.5q0 24 17 53t48 54.5t73.5 43.5t92.5 18q49 0 85.5 -15.5t66.5 -33.5t57 -33.5t59 -15.5q31 0 52 12.5t38.5 28t33 28
t35.5 12.5q22 0 38.5 -14.5t16.5 -43.5q0 -24 -17 -53t-48 -54.5t-73 -43t-93 -17.5q-50 0 -86 15t-65.5 33t-57 33.5t-59.5 15.5z" />
    <glyph glyph-name="Ograve" unicode="&#xd2;" horiz-adv-x="1453" 
d="M118 517q0 135 27.5 253t77 215.5t118.5 174.5t153 129.5t180.5 80.5t200.5 28q121 0 218 -37.5t165 -107t104.5 -168.5t36.5 -223q0 -135 -27 -253t-76.5 -215.5t-119 -174.5t-153.5 -129.5t-180.5 -80.5t-200.5 -28q-120 0 -217 37t-165.5 106.5t-105 168.5t-36.5 224z
M310 541q0 -98 26 -173t73 -126t113 -77.5t146 -26.5q104 0 201.5 47.5t172.5 138t120 220.5t45 294q0 98 -26 173t-72.5 126t-113 77.5t-146.5 26.5q-104 0 -201 -48t-172 -138t-120.5 -220t-45.5 -294zM664 1680q-13 10 -20.5 22t-7.5 27q0 19 9 37.5t23 33t31.5 24
t34.5 9.5q13 0 23 -5t17 -13l201 -215q9 -11 13 -22.5t3 -24.5q-2 -13 -9.5 -25t-18.5 -21t-24.5 -13.5t-27.5 -1.5q-6 2 -12 4.5t-13 7.5z" />
    <glyph glyph-name="Oacute" unicode="&#xd3;" horiz-adv-x="1453" 
d="M118 517q0 135 27.5 253t77 215.5t118.5 174.5t153 129.5t180.5 80.5t200.5 28q121 0 218 -37.5t165 -107t104.5 -168.5t36.5 -223q0 -135 -27 -253t-76.5 -215.5t-119 -174.5t-153.5 -129.5t-180.5 -80.5t-200.5 -28q-120 0 -217 37t-165.5 106.5t-105 168.5t-36.5 224z
M310 541q0 -98 26 -173t73 -126t113 -77.5t146 -26.5q104 0 201.5 47.5t172.5 138t120 220.5t45 294q0 98 -26 173t-72.5 126t-113 77.5t-146.5 26.5q-104 0 -201 -48t-172 -138t-120.5 -220t-45.5 -294zM1065 1811q18 14 36 14t34 -9.5t28 -23.5t19.5 -31.5t7.5 -33.5
q0 -17 -7 -30t-23 -21l-277 -169q-8 -5 -15.5 -8t-16.5 -3q-13 0 -24 6t-19.5 15.5t-13.5 21.5t-5 25t5.5 24t16.5 20z" />
    <glyph glyph-name="Ocircumflex" unicode="&#xd4;" horiz-adv-x="1453" 
d="M118 517q0 135 27.5 253t77 215.5t118.5 174.5t153 129.5t180.5 80.5t200.5 28q121 0 218 -37.5t165 -107t104.5 -168.5t36.5 -223q0 -135 -27 -253t-76.5 -215.5t-119 -174.5t-153.5 -129.5t-180.5 -80.5t-200.5 -28q-120 0 -217 37t-165.5 106.5t-105 168.5t-36.5 224z
M310 541q0 -98 26 -173t73 -126t113 -77.5t146 -26.5q104 0 201.5 47.5t172.5 138t120 220.5t45 294q0 98 -26 173t-72.5 126t-113 77.5t-146.5 26.5q-104 0 -201 -48t-172 -138t-120.5 -220t-45.5 -294zM707 1508q-7 -4 -13.5 -6.5t-15.5 -2.5q-13 0 -24 5.5t-19.5 14
t-13.5 20t-5 23.5q0 24 20 41l221 180q24 19 44.5 30.5t46.5 11.5q27 0 45.5 -11t35.5 -30l154 -185q8 -8 11 -17t3 -19q0 -14 -6 -25t-15.5 -20t-22 -14t-24.5 -5t-20 3.5t-17 10.5l-166 139z" />
    <glyph glyph-name="Otilde" unicode="&#xd5;" horiz-adv-x="1453" 
d="M118 517q0 135 27.5 253t77 215.5t118.5 174.5t153 129.5t180.5 80.5t200.5 28q121 0 218 -37.5t165 -107t104.5 -168.5t36.5 -223q0 -135 -27 -253t-76.5 -215.5t-119 -174.5t-153.5 -129.5t-180.5 -80.5t-200.5 -28q-120 0 -217 37t-165.5 106.5t-105 168.5t-36.5 224z
M310 541q0 -98 26 -173t73 -126t113 -77.5t146 -26.5q104 0 201.5 47.5t172.5 138t120 220.5t45 294q0 98 -26 173t-72.5 126t-113 77.5t-146.5 26.5q-104 0 -201 -48t-172 -138t-120.5 -220t-45.5 -294zM769 1628q-31 0 -52 -12.5t-38.5 -27.5t-33.5 -27.5t-35 -12.5
q-22 0 -38.5 13.5t-16.5 43.5q0 24 17 53t48 54.5t73.5 43.5t92.5 18q49 0 85.5 -15.5t66.5 -33.5t57 -33.5t59 -15.5q31 0 52 12.5t38.5 28t33 28t35.5 12.5q22 0 38.5 -14.5t16.5 -43.5q0 -24 -17 -53t-48 -54.5t-73 -43t-93 -17.5q-50 0 -86 15t-65.5 33t-57 33.5
t-59.5 15.5z" />
    <glyph glyph-name="Odieresis" unicode="&#xd6;" horiz-adv-x="1453" 
d="M118 517q0 135 27.5 253t77 215.5t118.5 174.5t153 129.5t180.5 80.5t200.5 28q121 0 218 -37.5t165 -107t104.5 -168.5t36.5 -223q0 -135 -27 -253t-76.5 -215.5t-119 -174.5t-153.5 -129.5t-180.5 -80.5t-200.5 -28q-120 0 -217 37t-165.5 106.5t-105 168.5t-36.5 224z
M310 541q0 -98 26 -173t73 -126t113 -77.5t146 -26.5q104 0 201.5 47.5t172.5 138t120 220.5t45 294q0 98 -26 173t-72.5 126t-113 77.5t-146.5 26.5q-104 0 -201 -48t-172 -138t-120.5 -220t-45.5 -294zM580 1644q0 27 9.5 49.5t26.5 40t40 27t50 9.5q25 0 45.5 -8.5
t35 -23.5t23 -35.5t8.5 -43.5q0 -27 -9 -50t-25.5 -40.5t-39.5 -27t-50 -9.5q-25 0 -46 8.5t-36 23.5t-23.5 35.5t-8.5 44.5zM1000 1644q0 27 9.5 49.5t26.5 40t40 27t51 9.5q24 0 45 -8.5t35.5 -23.5t22.5 -35.5t8 -43.5q0 -27 -9 -50t-25.5 -40.5t-39.5 -27t-50 -9.5
q-25 0 -45.5 8.5t-36 23.5t-24 35.5t-8.5 44.5z" />
    <glyph glyph-name="multiply" unicode="&#xd7;" horiz-adv-x="1168" 
d="M917 946q15 12 28.5 18t28.5 6q14 0 27 -5.5t22 -14.5t14.5 -21.5t5.5 -25.5q0 -17 -8 -32t-24 -30l-308 -263l220 -258q12 -14 16.5 -26.5t4.5 -26.5q0 -16 -6 -29.5t-16 -23.5t-24 -15.5t-30 -5.5q-15 0 -32 8t-31 25l-214 257l-307 -266q-13 -12 -26.5 -18t-28.5 -6
t-28 5.5t-22 15t-14 22t-5 26.5q0 17 6.5 31.5t23.5 29.5l309 264l-220 257q-11 13 -16.5 25.5t-5.5 29.5q0 15 6 28t16.5 23t24 15.5t27.5 5.5q18 0 33 -7t31 -26l217 -256z" />
    <glyph glyph-name="Oslash" unicode="&#xd8;" horiz-adv-x="1480" 
d="M271 120q-73 68 -113 168t-40 229q0 135 28 253t79 215.5t122 174.5t157.5 129.5t185.5 80.5t207 28q74 0 135.5 -12.5t116.5 -37.5l121 168q6 9 11 16t9 12t7.5 9t6.5 7q18 18 44 18q16 0 31.5 -5.5t27.5 -15.5t19 -24t7 -29t-8 -29t-26 -40l-122 -171
q72 -69 110 -170.5t38 -231.5q0 -203 -58.5 -365.5t-161 -277.5t-241.5 -176.5t-300 -61.5q-74 0 -141 14t-125 42l-124 -174q-13 -18 -20.5 -27.5t-14.5 -16.5q-17 -18 -44 -18q-16 0 -31 5.5t-27 15.5t-19.5 23.5t-7.5 29.5q0 15 8.5 29t26.5 40zM496 179
q42 -21 88.5 -32.5t105.5 -11.5q110 0 209.5 48t174.5 138.5t119 221t44 295.5q0 87 -19.5 154t-56.5 117zM1050 1205q-39 19 -82.5 29t-96.5 10q-73 0 -143.5 -21.5t-133.5 -63t-115.5 -102t-91 -138.5t-59.5 -173t-21 -205q0 -85 20 -151t59 -115z" />
    <glyph glyph-name="Ugrave" unicode="&#xd9;" horiz-adv-x="1393" 
d="M315 1301q7 40 31 61.5t71 21.5t68 -21t14 -62l-117 -678q-5 -29 -9 -55.5t-7 -50.5t-5 -46t-2 -43q0 -77 21 -132t58.5 -90t87.5 -51.5t110 -16.5q71 0 136.5 24.5t119 74t92 126.5t56.5 182l130 756q7 40 31 61.5t71 21.5t68 -21t14 -62l-129 -748q-26 -146 -80 -253.5
t-132.5 -178t-179.5 -105.5t-222 -35q-106 0 -187 27t-137 79.5t-85 131t-29 181.5q0 56 8 114.5t19 119.5zM612 1680q-13 10 -20.5 22t-7.5 27q0 19 9 37.5t23 33t31.5 24t34.5 9.5q13 0 23 -5t17 -13l201 -215q9 -11 13 -22.5t3 -24.5q-2 -13 -9.5 -25t-18.5 -21
t-24.5 -13.5t-27.5 -1.5q-6 2 -12 4.5t-13 7.5z" />
    <glyph glyph-name="Uacute" unicode="&#xda;" horiz-adv-x="1393" 
d="M315 1301q7 40 31 61.5t71 21.5t68 -21t14 -62l-117 -678q-5 -29 -9 -55.5t-7 -50.5t-5 -46t-2 -43q0 -77 21 -132t58.5 -90t87.5 -51.5t110 -16.5q71 0 136.5 24.5t119 74t92 126.5t56.5 182l130 756q7 40 31 61.5t71 21.5t68 -21t14 -62l-129 -748q-26 -146 -80 -253.5
t-132.5 -178t-179.5 -105.5t-222 -35q-106 0 -187 27t-137 79.5t-85 131t-29 181.5q0 56 8 114.5t19 119.5zM1059 1811q18 14 36 14t34 -9.5t28 -23.5t19.5 -31.5t7.5 -33.5q0 -17 -7 -30t-23 -21l-277 -169q-8 -5 -15.5 -8t-16.5 -3q-13 0 -24 6t-19.5 15.5t-13.5 21.5
t-5 25t5.5 24t16.5 20z" />
    <glyph glyph-name="Ucircumflex" unicode="&#xdb;" horiz-adv-x="1393" 
d="M315 1301q7 40 31 61.5t71 21.5t68 -21t14 -62l-117 -678q-5 -29 -9 -55.5t-7 -50.5t-5 -46t-2 -43q0 -77 21 -132t58.5 -90t87.5 -51.5t110 -16.5q71 0 136.5 24.5t119 74t92 126.5t56.5 182l130 756q7 40 31 61.5t71 21.5t68 -21t14 -62l-129 -748q-26 -146 -80 -253.5
t-132.5 -178t-179.5 -105.5t-222 -35q-106 0 -187 27t-137 79.5t-85 131t-29 181.5q0 56 8 114.5t19 119.5zM671 1508q-7 -4 -13.5 -6.5t-15.5 -2.5q-13 0 -24 5.5t-19.5 14t-13.5 20t-5 23.5q0 24 20 41l221 180q24 19 44.5 30.5t46.5 11.5q27 0 45.5 -11t35.5 -30
l154 -185q8 -8 11 -17t3 -19q0 -14 -6 -25t-15.5 -20t-22 -14t-24.5 -5t-20 3.5t-17 10.5l-166 139z" />
    <glyph glyph-name="Udieresis" unicode="&#xdc;" horiz-adv-x="1393" 
d="M315 1301q7 40 31 61.5t71 21.5t68 -21t14 -62l-117 -678q-5 -29 -9 -55.5t-7 -50.5t-5 -46t-2 -43q0 -77 21 -132t58.5 -90t87.5 -51.5t110 -16.5q71 0 136.5 24.5t119 74t92 126.5t56.5 182l130 756q7 40 31 61.5t71 21.5t68 -21t14 -62l-129 -748q-26 -146 -80 -253.5
t-132.5 -178t-179.5 -105.5t-222 -35q-106 0 -187 27t-137 79.5t-85 131t-29 181.5q0 56 8 114.5t19 119.5zM553 1644q0 27 9.5 49.5t26.5 40t40 27t50 9.5q25 0 45.5 -8.5t35 -23.5t23 -35.5t8.5 -43.5q0 -27 -9 -50t-25.5 -40.5t-39.5 -27t-50 -9.5q-25 0 -46 8.5
t-36 23.5t-23.5 35.5t-8.5 44.5zM973 1644q0 27 9.5 49.5t26.5 40t40 27t51 9.5q24 0 45 -8.5t35.5 -23.5t22.5 -35.5t8 -43.5q0 -27 -9 -50t-25.5 -40.5t-39.5 -27t-50 -9.5q-25 0 -45.5 8.5t-36 23.5t-24 35.5t-8.5 44.5z" />
    <glyph glyph-name="Yacute" unicode="&#xdd;" horiz-adv-x="1088" 
d="M185 1232q-10 24 -14.5 37t-4.5 27q0 20 8.5 36.5t23.5 28.5t33.5 19t39.5 7q18 0 32 -5.5t24 -15.5q9 -9 14.5 -20.5t16.5 -38.5l184 -460q8 -21 15 -40t12 -35q5 -18 10 -34h4q11 17 23 35q11 16 25 36.5t30 42.5l346 477q9 13 15.5 21.5t13.5 14.5q10 11 25 16.5
t30 5.5q18 0 35 -6.5t30.5 -18.5t21.5 -27.5t8 -33.5q0 -8 -2 -15.5t-5.5 -14.5t-8.5 -14.5t-11 -15.5l-513 -667l-86 -497q-7 -40 -31 -61.5t-71 -21.5t-68 21t-14 62l86 499zM890 1811q18 14 36 14t34 -9.5t28 -23.5t19.5 -31.5t7.5 -33.5q0 -17 -7 -30t-23 -21l-277 -169
q-8 -5 -15.5 -8t-16.5 -3q-13 0 -24 6t-19.5 15.5t-13.5 21.5t-5 25t5.5 24t16.5 20z" />
    <glyph glyph-name="Thorn" unicode="&#xde;" horiz-adv-x="1092" 
d="M299 77q-6 -40 -30.5 -61.5t-71.5 -21.5q-46 0 -67 21t-14 62l211 1225q7 40 31 61t71 21q23 0 40 -5.5t27 -16t14 -25.5t1 -34l-32 -185h170q107 0 186 -23.5t131.5 -67.5t77.5 -105t25 -135q0 -108 -39.5 -199.5t-113.5 -159t-181.5 -105t-244.5 -37.5h-155zM522 438
q83 0 149 23.5t111.5 66t70 102.5t24.5 131q0 49 -14.5 87t-45.5 64.5t-80 39.5t-118 13h-167l-91 -527h161z" />
    <glyph glyph-name="germandbls" unicode="&#xdf;" horiz-adv-x="1183" 
d="M272 1090q16 99 57.5 174t103.5 126.5t145.5 78t185.5 26.5q78 0 138.5 -20t101.5 -54.5t62 -81t21 -99.5q0 -70 -24.5 -122t-60.5 -92.5t-78.5 -73t-78.5 -63t-60 -63t-24 -74.5q0 -41 24.5 -71.5t61 -56.5t80 -52.5t80.5 -61t61.5 -80.5t24.5 -112q0 -72 -26.5 -133.5
t-78.5 -106.5t-128.5 -70.5t-175.5 -25.5q-87 0 -142.5 18.5t-77.5 39.5q-12 12 -18 25.5t-6 30.5q0 14 5 26.5t14 21.5t21.5 14.5t28.5 5.5q17 0 32.5 -5.5t36.5 -13t50.5 -13.5t74.5 -6q51 0 90 12.5t65 35t39.5 52t13.5 65.5q0 47 -25 80t-62 60t-80.5 52.5t-81 57.5
t-62 75t-24.5 106q0 67 24 116t59.5 86.5t78 67.5t78.5 61.5t60 69t24 87.5q0 65 -40.5 101t-129.5 36q-52 0 -98.5 -17t-83 -50t-62 -81.5t-36.5 -112.5l-210 -1213q-17 -102 -54 -171.5t-87 -111.5t-111.5 -60.5t-129.5 -18.5q-65 0 -103.5 14t-55.5 31q-10 10 -15.5 23
t-5.5 29t5 29t14.5 22.5t21.5 14t27 4.5q13 0 24.5 -3t25 -6.5t30 -7t40.5 -3.5q33 0 63.5 11t56.5 38t46.5 71t31.5 111z" />
    <glyph glyph-name="agrave" unicode="&#xe0;" horiz-adv-x="1134" 
d="M932 322q-7 -38 -11.5 -69t-8 -57t-5 -46.5t-1.5 -36.5t1 -27t1 -25q0 -30 -19.5 -49t-54.5 -19q-28 0 -46 11.5t-28.5 32t-14.5 49.5t-1 64h-3q-35 -47 -83 -84q-21 -16 -46.5 -31.5t-56 -27t-65.5 -18.5t-74 -7q-74 0 -135 25t-105 74t-68 121.5t-24 167.5
q0 155 44.5 276.5t125.5 206t194 129t250 44.5q65 0 117 -8.5t90.5 -21t64 -26.5t36.5 -25q7 -6 11.5 -14t7.5 -18t3 -23t-3 -31zM842 837q-19 11 -44 21q-21 7 -54 14t-78 7q-83 0 -155 -31.5t-125 -93t-84 -151.5t-31 -208q0 -69 13.5 -119t39 -82t61 -46.5t79.5 -14.5
q32 0 61.5 8.5t56.5 22t50 31.5t42 36q45 44 80 100zM504 1387q-8 10 -14 20t-6 23q0 18 9.5 34.5t24.5 29.5t33 21t36 8t30 -7.5t21 -22.5l137 -248q6 -10 8 -17.5t2 -16.5q0 -13 -6 -25t-16 -20.5t-23.5 -14t-27.5 -5.5q-15 0 -25.5 6t-20.5 18z" />
    <glyph glyph-name="aacute" unicode="&#xe1;" horiz-adv-x="1134" 
d="M932 322q-7 -38 -11.5 -69t-8 -57t-5 -46.5t-1.5 -36.5t1 -27t1 -25q0 -30 -19.5 -49t-54.5 -19q-28 0 -46 11.5t-28.5 32t-14.5 49.5t-1 64h-3q-35 -47 -83 -84q-21 -16 -46.5 -31.5t-56 -27t-65.5 -18.5t-74 -7q-74 0 -135 25t-105 74t-68 121.5t-24 167.5
q0 155 44.5 276.5t125.5 206t194 129t250 44.5q65 0 117 -8.5t90.5 -21t64 -26.5t36.5 -25q7 -6 11.5 -14t7.5 -18t3 -23t-3 -31zM842 837q-19 11 -44 21q-21 7 -54 14t-78 7q-83 0 -155 -31.5t-125 -93t-84 -151.5t-31 -208q0 -69 13.5 -119t39 -82t61 -46.5t79.5 -14.5
q32 0 61.5 8.5t56.5 22t50 31.5t42 36q45 44 80 100zM823 1499q19 21 45 21q17 0 34 -8.5t30 -22t21.5 -30.5t8.5 -34q0 -15 -6 -26t-17 -21l-242 -213q-9 -6 -18 -9.5t-19 -3.5q-13 0 -25 5.5t-21.5 14t-15 20t-5.5 23.5q0 11 4.5 20.5t13.5 21.5z" />
    <glyph glyph-name="acircumflex" unicode="&#xe2;" horiz-adv-x="1134" 
d="M932 322q-7 -38 -11.5 -69t-8 -57t-5 -46.5t-1.5 -36.5t1 -27t1 -25q0 -30 -19.5 -49t-54.5 -19q-28 0 -46 11.5t-28.5 32t-14.5 49.5t-1 64h-3q-35 -47 -83 -84q-21 -16 -46.5 -31.5t-56 -27t-65.5 -18.5t-74 -7q-74 0 -135 25t-105 74t-68 121.5t-24 167.5
q0 155 44.5 276.5t125.5 206t194 129t250 44.5q65 0 117 -8.5t90.5 -21t64 -26.5t36.5 -25q7 -6 11.5 -14t7.5 -18t3 -23t-3 -31zM842 837q-19 11 -44 21q-21 7 -54 14t-78 7q-83 0 -155 -31.5t-125 -93t-84 -151.5t-31 -208q0 -69 13.5 -119t39 -82t61 -46.5t79.5 -14.5
q32 0 61.5 8.5t56.5 22t50 31.5t42 36q45 44 80 100zM504 1171q-17 -13 -35 -13q-13 0 -23.5 5.5t-18 13.5t-12 18.5t-4.5 20.5q0 11 5 22t15 21l219 203q23 21 42 31.5t44 10.5q26 0 43.5 -10t32.5 -31l149 -209q6 -9 9 -17t3 -17q0 -13 -6 -25t-15.5 -20.5t-21.5 -13.5
t-25 -5q-26 0 -44 19l-146 157z" />
    <glyph glyph-name="atilde" unicode="&#xe3;" horiz-adv-x="1134" 
d="M932 322q-7 -38 -11.5 -69t-8 -57t-5 -46.5t-1.5 -36.5t1 -27t1 -25q0 -30 -19.5 -49t-54.5 -19q-28 0 -46 11.5t-28.5 32t-14.5 49.5t-1 64h-3q-35 -47 -83 -84q-21 -16 -46.5 -31.5t-56 -27t-65.5 -18.5t-74 -7q-74 0 -135 25t-105 74t-68 121.5t-24 167.5
q0 155 44.5 276.5t125.5 206t194 129t250 44.5q65 0 117 -8.5t90.5 -21t64 -26.5t36.5 -25q7 -6 11.5 -14t7.5 -18t3 -23t-3 -31zM842 837q-19 11 -44 21q-21 7 -54 14t-78 7q-83 0 -155 -31.5t-125 -93t-84 -151.5t-31 -208q0 -69 13.5 -119t39 -82t61 -46.5t79.5 -14.5
q32 0 61.5 8.5t56.5 22t50 31.5t42 36q45 44 80 100zM567 1298q-30 0 -51 -13.5t-39 -29.5t-34.5 -29t-38.5 -13q-11 0 -20.5 3t-16.5 10t-11.5 17t-4.5 24q0 27 18.5 58t50 57t74 43.5t90.5 17.5q50 0 85 -16.5t63 -36.5t53 -36.5t54 -16.5q30 0 51.5 13.5t39 29.5
t34.5 29.5t38 13.5q11 0 21 -3.5t17 -10t11.5 -17t4.5 -24.5q0 -27 -18.5 -58t-50.5 -57t-74 -43t-90 -17q-51 0 -85.5 16t-63 36t-53 36.5t-54.5 16.5z" />
    <glyph glyph-name="adieresis" unicode="&#xe4;" horiz-adv-x="1134" 
d="M932 322q-7 -38 -11.5 -69t-8 -57t-5 -46.5t-1.5 -36.5t1 -27t1 -25q0 -30 -19.5 -49t-54.5 -19q-28 0 -46 11.5t-28.5 32t-14.5 49.5t-1 64h-3q-35 -47 -83 -84q-21 -16 -46.5 -31.5t-56 -27t-65.5 -18.5t-74 -7q-74 0 -135 25t-105 74t-68 121.5t-24 167.5
q0 155 44.5 276.5t125.5 206t194 129t250 44.5q65 0 117 -8.5t90.5 -21t64 -26.5t36.5 -25q7 -6 11.5 -14t7.5 -18t3 -23t-3 -31zM842 837q-19 11 -44 21q-21 7 -54 14t-78 7q-83 0 -155 -31.5t-125 -93t-84 -151.5t-31 -208q0 -69 13.5 -119t39 -82t61 -46.5t79.5 -14.5
q32 0 61.5 8.5t56.5 22t50 31.5t42 36q45 44 80 100zM380 1311q0 27 9.5 50t27 40t41 26.5t50.5 9.5q24 0 44 -8t34.5 -22.5t23 -34.5t8.5 -43q0 -27 -9.5 -50.5t-26 -40.5t-40 -27t-50.5 -10q-24 0 -44.5 8.5t-35.5 23t-23.5 34.5t-8.5 44zM774 1311q0 27 9.5 50t26.5 40
t40.5 26.5t51.5 9.5q23 0 43.5 -8t35 -22.5t22.5 -34.5t8 -43q0 -27 -9 -50.5t-26 -40.5t-40 -27t-51 -10q-23 0 -44 8.5t-35.5 23t-23 34.5t-8.5 44z" />
    <glyph glyph-name="aring" unicode="&#xe5;" horiz-adv-x="1134" 
d="M932 322q-7 -38 -11.5 -69t-8 -57t-5 -46.5t-1.5 -36.5t1 -27t1 -25q0 -30 -19.5 -49t-54.5 -19q-28 0 -46 11.5t-28.5 32t-14.5 49.5t-1 64h-3q-35 -47 -83 -84q-21 -16 -46.5 -31.5t-56 -27t-65.5 -18.5t-74 -7q-74 0 -135 25t-105 74t-68 121.5t-24 167.5
q0 155 44.5 276.5t125.5 206t194 129t250 44.5q65 0 117 -8.5t90.5 -21t64 -26.5t36.5 -25q7 -6 11.5 -14t7.5 -18t3 -23t-3 -31zM842 837q-19 11 -44 21q-21 7 -54 14t-78 7q-83 0 -155 -31.5t-125 -93t-84 -151.5t-31 -208q0 -69 13.5 -119t39 -82t61 -46.5t79.5 -14.5
q32 0 61.5 8.5t56.5 22t50 31.5t42 36q45 44 80 100zM457 1335q0 50 19 93.5t53.5 76t82 50.5t103.5 18q52 0 95 -16t74 -44t48 -67t17 -85q0 -50 -19.5 -93.5t-54 -76t-82 -51t-103.5 -18.5q-52 0 -95 16.5t-73.5 44.5t-47.5 67t-17 85zM575 1348q0 -60 34.5 -94t93.5 -34
q56 0 91.5 35.5t35.5 92.5q0 60 -34.5 94t-92.5 34q-57 0 -92.5 -35.5t-35.5 -92.5z" />
    <glyph glyph-name="ae" unicode="&#xe6;" horiz-adv-x="1629" 
d="M699 263q-4 20 -7 42q-3 20 -4.5 44t-0.5 50q-22 7 -49 12q-23 4 -54.5 7.5t-70.5 3.5q-132 0 -201 -42.5t-69 -118.5q0 -62 41.5 -99.5t129.5 -37.5q65 0 117.5 21t90.5 48q43 30 77 70zM727 653q11 61 6.5 103.5t-27.5 69t-64.5 38t-103.5 11.5q-59 0 -102.5 -9
t-76 -19t-55 -18.5t-40.5 -8.5q-26 0 -41 16t-15 40q0 18 6 32t18 27q17 17 51.5 33.5t80 29t101.5 20t117 7.5q67 0 118 -13t86 -34t57.5 -50t33.5 -62q29 33 67.5 62t85.5 50.5t102.5 34.5t119.5 13q77 0 135.5 -19t97.5 -52t59 -78.5t20 -97.5q0 -89 -42 -157.5
t-128 -113.5t-216 -66.5t-305 -17.5q-4 -67 11 -120.5t49 -92t87 -59t124 -20.5q55 0 94 8t67 17t47.5 17t37.5 8q26 0 40.5 -15.5t14.5 -39.5q0 -19 -6 -33.5t-18 -27.5q-15 -15 -44.5 -30t-69.5 -27.5t-89.5 -20t-106.5 -7.5q-65 0 -119.5 11t-99.5 32t-80 51.5t-62 68.5
q-4 -3 -32 -29t-76.5 -56t-115 -53.5t-147.5 -23.5q-79 0 -138.5 19.5t-99.5 54t-60.5 82t-20.5 104.5q0 74 32 130.5t91 95.5t143 59t189 20q44 0 78 -3t59 -7q28 -4 49 -9zM889 559q127 -5 220 7t154 38.5t90.5 65.5t29.5 88q0 58 -37 91.5t-118 33.5q-57 0 -110 -20.5
t-98 -61.5t-79 -102t-52 -140z" />
    <glyph glyph-name="ccedilla" unicode="&#xe7;" horiz-adv-x="905" 
d="M358 -3q-65 18 -116 52.5t-87 84t-55 114t-19 141.5q0 141 45.5 258t124.5 201.5t184.5 131t226.5 46.5q78 0 132.5 -19t79.5 -45q13 -12 18.5 -26t5.5 -29t-5 -28t-14 -22.5t-22.5 -15t-29.5 -5.5q-19 0 -34 6.5t-35.5 14t-49 14.5t-72.5 7q-70 0 -136 -33t-117.5 -93.5
t-83 -146.5t-31.5 -192q0 -138 68.5 -209t188.5 -71q43 0 73.5 6t53.5 13.5t40 13.5t32 6q25 0 40 -16t15 -40q0 -19 -6 -33t-20 -28q-30 -30 -102 -53t-175 -21l-36 -87q31 -6 56 -17.5t42 -30.5t26 -44.5t9 -58.5q0 -49 -21 -92t-61 -74.5t-96.5 -50t-128.5 -18.5
q-34 0 -57.5 5t-38 14t-20 21t-5.5 27q0 24 14 39t38 15q13 0 25.5 -1.5t30.5 -1.5q42 0 71.5 7t48.5 19.5t28 30t9 38.5q0 27 -17.5 44t-57.5 17h-9q-24 0 -33.5 15.5t3.5 47.5z" />
    <glyph glyph-name="egrave" unicode="&#xe8;" 
d="M81 375q0 150 44 270.5t120.5 205t179.5 130t221 45.5q77 0 135.5 -19t97.5 -52t59 -78.5t20 -97.5q0 -89 -42 -157.5t-128 -113.5t-216 -66.5t-305 -17.5q-4 -67 11 -120.5t49 -91.5t87 -59t124 -21q55 0 94 8t67 17t47.5 17t37.5 8q26 0 40.5 -15.5t14.5 -39.5
q0 -19 -6 -33.5t-18 -27.5q-15 -15 -44.5 -30t-69 -27.5t-89.5 -20t-106 -7.5q-105 0 -184.5 28.5t-133 80.5t-80.5 124.5t-27 160.5zM283 559q127 -5 220 7t154 38.5t90.5 65.5t29.5 88q0 58 -37 91.5t-118 33.5q-57 0 -110 -20.5t-98 -61.5t-79 -102t-52 -140zM451 1387
q-8 10 -14 20t-6 23q0 18 9.5 34.5t24.5 29.5t33 21t36 8t30 -7.5t21 -22.5l137 -248q6 -10 8 -17.5t2 -16.5q0 -13 -6 -25t-16 -20.5t-23.5 -14t-27.5 -5.5q-15 0 -25.5 6t-20.5 18z" />
    <glyph glyph-name="eacute" unicode="&#xe9;" 
d="M81 375q0 150 44 270.5t120.5 205t179.5 130t221 45.5q77 0 135.5 -19t97.5 -52t59 -78.5t20 -97.5q0 -89 -42 -157.5t-128 -113.5t-216 -66.5t-305 -17.5q-4 -67 11 -120.5t49 -91.5t87 -59t124 -21q55 0 94 8t67 17t47.5 17t37.5 8q26 0 40.5 -15.5t14.5 -39.5
q0 -19 -6 -33.5t-18 -27.5q-15 -15 -44.5 -30t-69 -27.5t-89.5 -20t-106 -7.5q-105 0 -184.5 28.5t-133 80.5t-80.5 124.5t-27 160.5zM283 559q127 -5 220 7t154 38.5t90.5 65.5t29.5 88q0 58 -37 91.5t-118 33.5q-57 0 -110 -20.5t-98 -61.5t-79 -102t-52 -140zM759 1499
q19 21 45 21q17 0 34 -8.5t30 -22t21.5 -30.5t8.5 -34q0 -15 -6 -26t-17 -21l-242 -213q-9 -6 -18 -9.5t-19 -3.5q-13 0 -25 5.5t-21.5 14t-15 20t-5.5 23.5q0 11 4.5 20.5t13.5 21.5z" />
    <glyph glyph-name="ecircumflex" unicode="&#xea;" 
d="M81 375q0 150 44 270.5t120.5 205t179.5 130t221 45.5q77 0 135.5 -19t97.5 -52t59 -78.5t20 -97.5q0 -89 -42 -157.5t-128 -113.5t-216 -66.5t-305 -17.5q-4 -67 11 -120.5t49 -91.5t87 -59t124 -21q55 0 94 8t67 17t47.5 17t37.5 8q26 0 40.5 -15.5t14.5 -39.5
q0 -19 -6 -33.5t-18 -27.5q-15 -15 -44.5 -30t-69 -27.5t-89.5 -20t-106 -7.5q-105 0 -184.5 28.5t-133 80.5t-80.5 124.5t-27 160.5zM283 559q127 -5 220 7t154 38.5t90.5 65.5t29.5 88q0 58 -37 91.5t-118 33.5q-57 0 -110 -20.5t-98 -61.5t-79 -102t-52 -140zM455 1171
q-17 -13 -35 -13q-13 0 -23.5 5.5t-18 13.5t-12 18.5t-4.5 20.5q0 11 5 22t15 21l219 203q23 21 42 31.5t44 10.5q26 0 43.5 -10t32.5 -31l149 -209q6 -9 9 -17t3 -17q0 -13 -6 -25t-15.5 -20.5t-21.5 -13.5t-25 -5q-26 0 -44 19l-146 157z" />
    <glyph glyph-name="edieresis" unicode="&#xeb;" 
d="M81 375q0 150 44 270.5t120.5 205t179.5 130t221 45.5q77 0 135.5 -19t97.5 -52t59 -78.5t20 -97.5q0 -89 -42 -157.5t-128 -113.5t-216 -66.5t-305 -17.5q-4 -67 11 -120.5t49 -91.5t87 -59t124 -21q55 0 94 8t67 17t47.5 17t37.5 8q26 0 40.5 -15.5t14.5 -39.5
q0 -19 -6 -33.5t-18 -27.5q-15 -15 -44.5 -30t-69 -27.5t-89.5 -20t-106 -7.5q-105 0 -184.5 28.5t-133 80.5t-80.5 124.5t-27 160.5zM283 559q127 -5 220 7t154 38.5t90.5 65.5t29.5 88q0 58 -37 91.5t-118 33.5q-57 0 -110 -20.5t-98 -61.5t-79 -102t-52 -140zM340 1311
q0 27 9.5 50t27 40t41 26.5t50.5 9.5q24 0 44 -8t34.5 -22.5t23 -34.5t8.5 -43q0 -27 -9.5 -50.5t-26 -40.5t-40 -27t-50.5 -10q-24 0 -44.5 8.5t-35.5 23t-23.5 34.5t-8.5 44zM734 1311q0 27 9.5 50t26.5 40t40.5 26.5t51.5 9.5q23 0 43.5 -8t35 -22.5t22.5 -34.5t8 -43
q0 -27 -9 -50.5t-26 -40.5t-40 -27t-51 -10q-23 0 -44 8.5t-35.5 23t-23 34.5t-8.5 44z" />
    <glyph glyph-name="igrave" unicode="&#xec;" horiz-adv-x="520" 
d="M220 1387q-8 10 -14 20t-6 23q0 18 9.5 34.5t24.5 29.5t33 21t36 8t30 -7.5t21 -22.5l137 -248q6 -10 8 -17.5t2 -16.5q0 -13 -6 -25t-16 -20.5t-23.5 -14t-27.5 -5.5q-15 0 -25.5 6t-20.5 18zM245 932q6 40 30 61t69 21q40 0 60.5 -16.5t20.5 -47.5q0 -7 -1 -16t-5 -31
l-144 -827q-6 -40 -30 -61t-69 -21q-40 0 -60.5 16t-20.5 48q0 7 1 16t5 30z" />
    <glyph glyph-name="iacute" unicode="&#xed;" horiz-adv-x="520" 
d="M461 1499q19 21 45 21q17 0 34 -8.5t30 -22t21.5 -30.5t8.5 -34q0 -15 -6 -26t-17 -21l-242 -213q-9 -6 -18 -9.5t-19 -3.5q-13 0 -25 5.5t-21.5 14t-15 20t-5.5 23.5q0 11 4.5 20.5t13.5 21.5zM245 932q6 40 30 61t69 21q40 0 60.5 -16.5t20.5 -47.5q0 -7 -1 -16t-5 -31
l-144 -827q-6 -40 -30 -61t-69 -21q-40 0 -60.5 16t-20.5 48q0 7 1 16t5 30z" />
    <glyph glyph-name="icircumflex" unicode="&#xee;" horiz-adv-x="520" 
d="M245 932q6 40 30 61t69 21q40 0 60.5 -16.5t20.5 -47.5q0 -7 -1 -16t-5 -31l-144 -827q-6 -40 -30 -61t-69 -21q-40 0 -60.5 16t-20.5 48q0 7 1 16t5 30zM210 1173q-8 -6 -16.5 -10t-20.5 -4t-22 4.5t-18 12t-13 18t-5 22.5q0 11 4.5 21t13.5 19l203 206q22 22 41 32
t43 10q25 0 43 -10t31 -31l133 -210q11 -16 11 -33q0 -14 -6.5 -25.5t-16.5 -20t-22.5 -13.5t-24.5 -5q-15 0 -25.5 6t-19.5 15l-124 155z" />
    <glyph glyph-name="idieresis" unicode="&#xef;" horiz-adv-x="520" 
d="M245 932q6 40 30 61t69 21q40 0 60.5 -16.5t20.5 -47.5q0 -7 -1 -16t-5 -31l-144 -827q-6 -40 -30 -61t-69 -21q-40 0 -60.5 16t-20.5 48q0 7 1 16t5 30zM85 1311q0 27 9.5 50t26.5 40t40.5 26.5t51.5 9.5q23 0 43 -8t34.5 -22.5t23 -34.5t8.5 -43q0 -27 -9.5 -50
t-26.5 -40t-39.5 -27t-50.5 -10q-23 0 -43.5 8t-35.5 22.5t-23.5 34.5t-8.5 44zM452 1311q0 27 9.5 50t26.5 40t40.5 26.5t51.5 9.5q23 0 43 -8t34.5 -22.5t22.5 -34.5t8 -43q0 -27 -9 -50t-26 -40t-40 -27t-50 -10q-23 0 -43.5 8t-35.5 22.5t-23.5 34.5t-8.5 44z" />
    <glyph glyph-name="eth" unicode="&#xf0;" horiz-adv-x="1125" 
d="M865 1317q92 -103 137.5 -248.5t45.5 -322.5q0 -192 -44.5 -335.5t-121.5 -238.5t-181 -143t-224 -48q-91 0 -164 28.5t-124.5 81t-79.5 126t-28 164.5q0 144 45 261t124 199.5t189 127.5t240 45q35 0 63 -3t48 -6.5t31.5 -7t12.5 -3.5q-34 136 -111 223l-158 -115
q-12 -8 -20.5 -11.5t-20.5 -3.5q-13 0 -24.5 6t-20.5 15.5t-14.5 22t-5.5 25.5q0 15 7.5 26.5t21.5 21.5l135 99q-29 19 -51.5 29.5t-39 17t-27.5 11.5t-19 13q-9 9 -13 19t-4 23t5.5 26t16 24t26.5 18t38 7q20 0 47.5 -7.5t57 -20t57.5 -28t50 -30.5l152 110
q12 8 20.5 11.5t20.5 3.5q13 0 25 -6t20.5 -15.5t14 -21.5t5.5 -25q0 -15 -7 -27t-21 -22zM861 706q1 31 0 61t-3 59q-34 19 -81 30t-114 11q-84 0 -156.5 -31.5t-125 -91t-83 -146t-30.5 -196.5q0 -67 17 -118t47.5 -85t73.5 -51.5t95 -17.5q71 0 136 32.5t114 102.5
t79 179t31 262z" />
    <glyph glyph-name="ntilde" unicode="&#xf1;" horiz-adv-x="1176" 
d="M247 946q6 36 25.5 53t53.5 17t53 -21t19 -65q0 -13 -1.5 -25t-2.5 -22q-2 -13 -4 -25h4q34 47 83 84q21 16 47 31t57.5 26.5t68 19t78.5 7.5q75 0 133.5 -20.5t99 -60t62 -96.5t21.5 -130q0 -39 -6.5 -89.5t-17 -106t-22 -114t-21.5 -113t-17 -102t-7 -81.5q0 -16 1 -27
t1 -25q0 -30 -20.5 -48.5t-60.5 -18.5q-48 0 -74.5 27t-26.5 80q0 32 6.5 78.5t16.5 100t21.5 111t21 112t16 104t6.5 85.5q0 93 -46 138t-137 45q-35 0 -66 -8.5t-58 -22.5t-50.5 -32t-43.5 -37q-45 -44 -80 -98l-105 -601q-6 -40 -30 -61t-69 -21t-65.5 21t-14.5 61z
M585 1298q-30 0 -51 -13.5t-39 -29.5t-34.5 -29t-38.5 -13q-11 0 -20.5 3t-16.5 10t-11.5 17t-4.5 24q0 27 18.5 58t50 57t74 43.5t90.5 17.5q50 0 85 -16.5t63 -36.5t53 -36.5t54 -16.5q30 0 51.5 13.5t39 29.5t34.5 29.5t38 13.5q11 0 21 -3.5t17 -10t11.5 -17t4.5 -24.5
q0 -27 -18.5 -58t-50.5 -57t-74 -43t-90 -17q-51 0 -85.5 16t-63 36t-53 36.5t-54.5 16.5z" />
    <glyph glyph-name="ograve" unicode="&#xf2;" horiz-adv-x="1138" 
d="M84 384q0 147 44 265.5t120.5 202.5t180.5 129t224 45q91 0 165.5 -28t126.5 -81t80.5 -127.5t28.5 -165.5q0 -147 -44 -266t-120.5 -202.5t-180.5 -129t-224 -45.5q-92 0 -166 28.5t-126.5 81.5t-80.5 127t-28 166zM271 405q0 -68 16.5 -119.5t48.5 -85.5t76 -52t98 -18
q70 0 134.5 31.5t114.5 92t79.5 148.5t29.5 201q0 67 -17 119t-48.5 86t-75.5 52t-99 18q-70 0 -134.5 -32t-114 -92.5t-79 -148t-29.5 -200.5zM496 1387q-8 10 -14 20t-6 23q0 18 9.5 34.5t24.5 29.5t33 21t36 8t30 -7.5t21 -22.5l137 -248q6 -10 8 -17.5t2 -16.5
q0 -13 -6 -25t-16 -20.5t-23.5 -14t-27.5 -5.5q-15 0 -25.5 6t-20.5 18z" />
    <glyph glyph-name="oacute" unicode="&#xf3;" horiz-adv-x="1138" 
d="M84 384q0 147 44 265.5t120.5 202.5t180.5 129t224 45q91 0 165.5 -28t126.5 -81t80.5 -127.5t28.5 -165.5q0 -147 -44 -266t-120.5 -202.5t-180.5 -129t-224 -45.5q-92 0 -166 28.5t-126.5 81.5t-80.5 127t-28 166zM271 405q0 -68 16.5 -119.5t48.5 -85.5t76 -52t98 -18
q70 0 134.5 31.5t114.5 92t79.5 148.5t29.5 201q0 67 -17 119t-48.5 86t-75.5 52t-99 18q-70 0 -134.5 -32t-114 -92.5t-79 -148t-29.5 -200.5zM790 1499q19 21 45 21q17 0 34 -8.5t30 -22t21.5 -30.5t8.5 -34q0 -15 -6 -26t-17 -21l-242 -213q-9 -6 -18 -9.5t-19 -3.5
q-13 0 -25 5.5t-21.5 14t-15 20t-5.5 23.5q0 11 4.5 20.5t13.5 21.5z" />
    <glyph glyph-name="ocircumflex" unicode="&#xf4;" horiz-adv-x="1138" 
d="M84 384q0 147 44 265.5t120.5 202.5t180.5 129t224 45q91 0 165.5 -28t126.5 -81t80.5 -127.5t28.5 -165.5q0 -147 -44 -266t-120.5 -202.5t-180.5 -129t-224 -45.5q-92 0 -166 28.5t-126.5 81.5t-80.5 127t-28 166zM271 405q0 -68 16.5 -119.5t48.5 -85.5t76 -52t98 -18
q70 0 134.5 31.5t114.5 92t79.5 148.5t29.5 201q0 67 -17 119t-48.5 86t-75.5 52t-99 18q-70 0 -134.5 -32t-114 -92.5t-79 -148t-29.5 -200.5zM497 1171q-17 -13 -35 -13q-13 0 -23.5 5.5t-18 13.5t-12 18.5t-4.5 20.5q0 11 5 22t15 21l219 203q23 21 42 31.5t44 10.5
q26 0 43.5 -10t32.5 -31l149 -209q6 -9 9 -17t3 -17q0 -13 -6 -25t-15.5 -20.5t-21.5 -13.5t-25 -5q-26 0 -44 19l-146 157z" />
    <glyph glyph-name="otilde" unicode="&#xf5;" horiz-adv-x="1138" 
d="M84 384q0 147 44 265.5t120.5 202.5t180.5 129t224 45q91 0 165.5 -28t126.5 -81t80.5 -127.5t28.5 -165.5q0 -147 -44 -266t-120.5 -202.5t-180.5 -129t-224 -45.5q-92 0 -166 28.5t-126.5 81.5t-80.5 127t-28 166zM271 405q0 -68 16.5 -119.5t48.5 -85.5t76 -52t98 -18
q70 0 134.5 31.5t114.5 92t79.5 148.5t29.5 201q0 67 -17 119t-48.5 86t-75.5 52t-99 18q-70 0 -134.5 -32t-114 -92.5t-79 -148t-29.5 -200.5zM561 1298q-30 0 -51 -13.5t-39 -29.5t-34.5 -29t-38.5 -13q-11 0 -20.5 3t-16.5 10t-11.5 17t-4.5 24q0 27 18.5 58t50 57
t74 43.5t90.5 17.5q50 0 85 -16.5t63 -36.5t53 -36.5t54 -16.5q30 0 51.5 13.5t39 29.5t34.5 29.5t38 13.5q11 0 21 -3.5t17 -10t11.5 -17t4.5 -24.5q0 -27 -18.5 -58t-50.5 -57t-74 -43t-90 -17q-51 0 -85.5 16t-63 36t-53 36.5t-54.5 16.5z" />
    <glyph glyph-name="odieresis" unicode="&#xf6;" horiz-adv-x="1138" 
d="M84 384q0 147 44 265.5t120.5 202.5t180.5 129t224 45q91 0 165.5 -28t126.5 -81t80.5 -127.5t28.5 -165.5q0 -147 -44 -266t-120.5 -202.5t-180.5 -129t-224 -45.5q-92 0 -166 28.5t-126.5 81.5t-80.5 127t-28 166zM271 405q0 -68 16.5 -119.5t48.5 -85.5t76 -52t98 -18
q70 0 134.5 31.5t114.5 92t79.5 148.5t29.5 201q0 67 -17 119t-48.5 86t-75.5 52t-99 18q-70 0 -134.5 -32t-114 -92.5t-79 -148t-29.5 -200.5zM380 1311q0 27 9.5 50t27 40t41 26.5t50.5 9.5q24 0 44 -8t34.5 -22.5t23 -34.5t8.5 -43q0 -27 -9.5 -50.5t-26 -40.5t-40 -27
t-50.5 -10q-24 0 -44.5 8.5t-35.5 23t-23.5 34.5t-8.5 44zM774 1311q0 27 9.5 50t26.5 40t40.5 26.5t51.5 9.5q23 0 43.5 -8t35 -22.5t22.5 -34.5t8 -43q0 -27 -9 -50.5t-26 -40.5t-40 -27t-51 -10q-23 0 -44 8.5t-35.5 23t-23 34.5t-8.5 44z" />
    <glyph glyph-name="divide" unicode="&#xf7;" horiz-adv-x="1168" 
d="M965 654q32 0 49 -15t17 -45q0 -19 -6 -34.5t-18 -26.5t-27.5 -17t-35.5 -6h-706q-34 0 -50 16t-16 44q0 18 5.5 34t17 27t27 17t34.5 6h709zM545 897q0 24 9 45.5t24 36.5t36 24t46 9q23 0 42.5 -8t33.5 -21.5t22.5 -33t8.5 -42.5q0 -24 -9 -45t-24.5 -36.5t-37.5 -24.5
t-47 -9q-22 0 -41 8t-33.5 22.5t-22 33.5t-7.5 41zM432 257q0 24 9 45t24.5 37t37 25t46.5 9q23 0 42 -8.5t33.5 -22.5t22 -33.5t7.5 -41.5q0 -24 -9 -45.5t-24.5 -36.5t-37 -24t-46.5 -9q-22 0 -41.5 8t-33.5 22.5t-22 33t-8 41.5z" />
    <glyph glyph-name="oslash" unicode="&#xf8;" horiz-adv-x="1138" 
d="M178 108q-44 49 -69 118.5t-25 157.5q0 147 44 265.5t120.5 202.5t180.5 129t224 45q55 0 102.5 -10.5t88.5 -30.5l126 166q12 17 25 25t31 8q15 0 29.5 -6t26 -16t19 -23t7.5 -28q0 -11 -4.5 -20.5t-13.5 -21.5l-129 -169q46 -53 69.5 -122t23.5 -154q0 -147 -44 -266
t-120.5 -202.5t-180.5 -129t-224 -45.5q-56 0 -102 10.5t-88 31.5l-124 -163q-12 -16 -24.5 -24.5t-31.5 -8.5q-15 0 -29.5 6t-26 16t-19 23.5t-7.5 27.5q0 11 4.5 20.5t14.5 21.5zM749 853q-26 15 -55.5 22t-65.5 7q-72 0 -138 -32t-116 -93t-80 -149.5t-30 -202.5
q0 -46 8 -82.5t23 -66.5zM389 155q26 -15 57.5 -22t63.5 -7q72 0 138 31.5t116.5 92.5t80 149.5t29.5 203.5q0 46 -8 82t-23 66z" />
    <glyph glyph-name="ugrave" unicode="&#xf9;" horiz-adv-x="1169" 
d="M235 932q7 40 31 61t69 21t65.5 -21t13.5 -61l-88 -512q-6 -32 -8.5 -55.5t-2.5 -49.5q0 -93 45.5 -137.5t131.5 -44.5q35 0 65.5 8.5t58 22t51 31.5t42.5 36q45 44 81 100l104 601q7 40 31 61t69 21t65.5 -21t14.5 -61l-106 -610q-6 -38 -11 -69t-8.5 -57t-5 -46.5
t-1.5 -36.5t1 -27t1 -25q0 -30 -19.5 -49t-53.5 -19q-56 0 -76.5 42.5t-14.5 113.5h-4q-35 -47 -83 -83q-21 -16 -47 -31.5t-57.5 -27t-68 -18.5t-78.5 -7q-72 0 -129 20.5t-97.5 60t-61.5 96.5t-21 130q0 28 3.5 62t8.5 66zM482 1387q-8 10 -14 20t-6 23q0 18 9.5 34.5
t24.5 29.5t33 21t36 8t30 -7.5t21 -22.5l137 -248q6 -10 8 -17.5t2 -16.5q0 -13 -6 -25t-16 -20.5t-23.5 -14t-27.5 -5.5q-15 0 -25.5 6t-20.5 18z" />
    <glyph glyph-name="uacute" unicode="&#xfa;" horiz-adv-x="1169" 
d="M235 932q7 40 31 61t69 21t65.5 -21t13.5 -61l-88 -512q-6 -32 -8.5 -55.5t-2.5 -49.5q0 -93 45.5 -137.5t131.5 -44.5q35 0 65.5 8.5t58 22t51 31.5t42.5 36q45 44 81 100l104 601q7 40 31 61t69 21t65.5 -21t14.5 -61l-106 -610q-6 -38 -11 -69t-8.5 -57t-5 -46.5
t-1.5 -36.5t1 -27t1 -25q0 -30 -19.5 -49t-53.5 -19q-56 0 -76.5 42.5t-14.5 113.5h-4q-35 -47 -83 -83q-21 -16 -47 -31.5t-57.5 -27t-68 -18.5t-78.5 -7q-72 0 -129 20.5t-97.5 60t-61.5 96.5t-21 130q0 28 3.5 62t8.5 66zM828 1499q19 21 45 21q17 0 34 -8.5t30 -22
t21.5 -30.5t8.5 -34q0 -15 -6 -26t-17 -21l-242 -213q-9 -6 -18 -9.5t-19 -3.5q-13 0 -25 5.5t-21.5 14t-15 20t-5.5 23.5q0 11 4.5 20.5t13.5 21.5z" />
    <glyph glyph-name="ucircumflex" unicode="&#xfb;" horiz-adv-x="1169" 
d="M235 932q7 40 31 61t69 21t65.5 -21t13.5 -61l-88 -512q-6 -32 -8.5 -55.5t-2.5 -49.5q0 -93 45.5 -137.5t131.5 -44.5q35 0 65.5 8.5t58 22t51 31.5t42.5 36q45 44 81 100l104 601q7 40 31 61t69 21t65.5 -21t14.5 -61l-106 -610q-6 -38 -11 -69t-8.5 -57t-5 -46.5
t-1.5 -36.5t1 -27t1 -25q0 -30 -19.5 -49t-53.5 -19q-56 0 -76.5 42.5t-14.5 113.5h-4q-35 -47 -83 -83q-21 -16 -47 -31.5t-57.5 -27t-68 -18.5t-78.5 -7q-72 0 -129 20.5t-97.5 60t-61.5 96.5t-21 130q0 28 3.5 62t8.5 66zM505 1171q-17 -13 -35 -13q-13 0 -23.5 5.5
t-18 13.5t-12 18.5t-4.5 20.5q0 11 5 22t15 21l219 203q23 21 42 31.5t44 10.5q26 0 43.5 -10t32.5 -31l149 -209q6 -9 9 -17t3 -17q0 -13 -6 -25t-15.5 -20.5t-21.5 -13.5t-25 -5q-26 0 -44 19l-146 157z" />
    <glyph glyph-name="udieresis" unicode="&#xfc;" horiz-adv-x="1169" 
d="M235 932q7 40 31 61t69 21t65.5 -21t13.5 -61l-88 -512q-6 -32 -8.5 -55.5t-2.5 -49.5q0 -93 45.5 -137.5t131.5 -44.5q35 0 65.5 8.5t58 22t51 31.5t42.5 36q45 44 81 100l104 601q7 40 31 61t69 21t65.5 -21t14.5 -61l-106 -610q-6 -38 -11 -69t-8.5 -57t-5 -46.5
t-1.5 -36.5t1 -27t1 -25q0 -30 -19.5 -49t-53.5 -19q-56 0 -76.5 42.5t-14.5 113.5h-4q-35 -47 -83 -83q-21 -16 -47 -31.5t-57.5 -27t-68 -18.5t-78.5 -7q-72 0 -129 20.5t-97.5 60t-61.5 96.5t-21 130q0 28 3.5 62t8.5 66zM386 1311q0 27 9.5 50t27 40t41 26.5t50.5 9.5
q24 0 44 -8t34.5 -22.5t23 -34.5t8.5 -43q0 -27 -9.5 -50.5t-26 -40.5t-40 -27t-50.5 -10q-24 0 -44.5 8.5t-35.5 23t-23.5 34.5t-8.5 44zM780 1311q0 27 9.5 50t26.5 40t40.5 26.5t51.5 9.5q23 0 43.5 -8t35 -22.5t22.5 -34.5t8 -43q0 -27 -9 -50.5t-26 -40.5t-40 -27
t-51 -10q-23 0 -44 8.5t-35.5 23t-23 34.5t-8.5 44z" />
    <glyph glyph-name="yacute" unicode="&#xfd;" horiz-adv-x="979" 
d="M442 116q46 75 91 157.5t89.5 181.5t89 217t89.5 262q7 23 12 37.5t17 26.5q10 9 25 15t33 6q16 0 32 -5t29 -14t20.5 -23t7.5 -31q0 -8 -2 -19.5t-10 -36.5q-44 -149 -99.5 -287.5t-121.5 -268t-141.5 -247.5t-158.5 -223q-77 -97 -146.5 -163t-134 -107.5t-125.5 -59
t-119 -17.5q-42 0 -69.5 9t-43.5 23q-13 12 -19 25.5t-6 30.5q0 16 5 28.5t14 22t21.5 14.5t27.5 5q21 0 37 -3.5t43 -3.5q39 0 79.5 12t86 42.5t96.5 82.5t112 131q-25 160 -48.5 294.5t-47 251t-46.5 218t-46 196.5q-2 11 -5 23t-3 20q0 20 9 34.5t23.5 24.5t32 15.5
t34.5 5.5q20 0 36 -6.5t26 -15.5q9 -10 14 -23t10 -35q42 -184 79 -388t68 -435h3zM736 1499q19 21 45 21q17 0 34 -8.5t30 -22t21.5 -30.5t8.5 -34q0 -15 -6 -26t-17 -21l-242 -213q-9 -6 -18 -9.5t-19 -3.5q-13 0 -25 5.5t-21.5 14t-15 20t-5.5 23.5q0 11 4.5 20.5
t13.5 21.5z" />
    <glyph glyph-name="thorn" unicode="&#xfe;" horiz-adv-x="1134" 
d="M291 168q18 -13 44 -22q22 -7 54.5 -13.5t77.5 -6.5q83 0 155 31t125.5 92.5t84.5 152.5t31 210q0 70 -14 119.5t-39 81.5t-61 47t-80 15q-32 0 -62.5 -8.5t-57 -22.5t-49.5 -32t-41 -37q-45 -43 -79 -98zM325 1401q6 39 30 60.5t69 21.5q46 0 66.5 -21.5t13.5 -60.5
l-66 -385q-6 -35 -13 -68t-17 -70h3q33 41 79 74q20 14 44 27t52.5 24t61 17t70.5 6q74 0 135 -25t105 -74t68 -122t24 -167q0 -155 -45 -277t-125.5 -206t-193.5 -129t-250 -45q-38 0 -70 4t-54 8q-27 5 -48 12l-3 -1q-5 -30 -9 -62t-10 -66q-13 -69 -24.5 -136.5
t-23.5 -136.5q-6 -39 -30 -60.5t-70 -21.5q-45 0 -65.5 21.5t-13.5 60.5z" />
    <glyph glyph-name="ydieresis" unicode="&#xff;" horiz-adv-x="979" 
d="M442 116q46 75 91 157.5t89.5 181.5t89 217t89.5 262q7 23 12 37.5t17 26.5q10 9 25 15t33 6q16 0 32 -5t29 -14t20.5 -23t7.5 -31q0 -8 -2 -19.5t-10 -36.5q-44 -149 -99.5 -287.5t-121.5 -268t-141.5 -247.5t-158.5 -223q-77 -97 -146.5 -163t-134 -107.5t-125.5 -59
t-119 -17.5q-42 0 -69.5 9t-43.5 23q-13 12 -19 25.5t-6 30.5q0 16 5 28.5t14 22t21.5 14.5t27.5 5q21 0 37 -3.5t43 -3.5q39 0 79.5 12t86 42.5t96.5 82.5t112 131q-25 160 -48.5 294.5t-47 251t-46.5 218t-46 196.5q-2 11 -5 23t-3 20q0 20 9 34.5t23.5 24.5t32 15.5
t34.5 5.5q20 0 36 -6.5t26 -15.5q9 -10 14 -23t10 -35q42 -184 79 -388t68 -435h3zM293 1311q0 27 9.5 50t27 40t41 26.5t50.5 9.5q24 0 44 -8t34.5 -22.5t23 -34.5t8.5 -43q0 -27 -9.5 -50.5t-26 -40.5t-40 -27t-50.5 -10q-24 0 -44.5 8.5t-35.5 23t-23.5 34.5t-8.5 44z
M687 1311q0 27 9.5 50t26.5 40t40.5 26.5t51.5 9.5q23 0 43.5 -8t35 -22.5t22.5 -34.5t8 -43q0 -27 -9 -50.5t-26 -40.5t-40 -27t-51 -10q-23 0 -44 8.5t-35.5 23t-23 34.5t-8.5 44z" />
    <glyph glyph-name="Amacron" unicode="&#x100;" horiz-adv-x="1219" 
d="M161 58q-9 -18 -14 -27.5t-13 -17.5q-10 -10 -24 -16t-34 -6q-18 0 -35 5.5t-30.5 16t-21.5 25t-8 31.5q0 13 4.5 25.5t15.5 34.5l589 1125q8 16 15.5 28.5t14 23.5t14 20.5t17.5 19.5q19 18 44.5 28t60.5 10q33 0 55 -7.5t38 -23.5q17 -17 24.5 -42.5t13.5 -60.5
l203 -1129q4 -23 5 -32.5t1 -17.5q0 -18 -8 -32.5t-22 -25t-33 -16.5t-39 -6q-21 0 -37 6t-28 18q-11 11 -15.5 28t-8.5 37l-48 286h-541zM833 517l-78 474q-8 41 -13 77t-8 64q-4 32 -7 59h-4q-12 -27 -27 -60q-14 -28 -31.5 -63.5t-37.5 -76.5l-237 -474h443zM1044 1717
q30 0 44 -15.5t14 -42.5q0 -19 -5.5 -33.5t-15 -25t-24 -16.5t-31.5 -6h-496q-30 0 -44 15.5t-14 43.5q0 18 5.5 32.5t15 25.5t24 16.5t31.5 5.5h496z" />
    <glyph glyph-name="amacron" unicode="&#x101;" horiz-adv-x="1134" 
d="M932 322q-7 -38 -11.5 -69t-8 -57t-5 -46.5t-1.5 -36.5t1 -27t1 -25q0 -30 -19.5 -49t-54.5 -19q-28 0 -46 11.5t-28.5 32t-14.5 49.5t-1 64h-3q-35 -47 -83 -84q-21 -16 -46.5 -31.5t-56 -27t-65.5 -18.5t-74 -7q-74 0 -135 25t-105 74t-68 121.5t-24 167.5
q0 155 44.5 276.5t125.5 206t194 129t250 44.5q65 0 117 -8.5t90.5 -21t64 -26.5t36.5 -25q7 -6 11.5 -14t7.5 -18t3 -23t-3 -31zM842 837q-19 11 -44 21q-21 7 -54 14t-78 7q-83 0 -155 -31.5t-125 -93t-84 -151.5t-31 -208q0 -69 13.5 -119t39 -82t61 -46.5t79.5 -14.5
q32 0 61.5 8.5t56.5 22t50 31.5t42 36q45 44 80 100zM960 1387q28 0 42.5 -15t14.5 -43q0 -18 -5.5 -33t-15.5 -25t-23.5 -16t-30.5 -6h-490q-28 0 -42.5 15t-14.5 43q0 18 5.5 33t15 25t23.5 16t31 6h490z" />
    <glyph glyph-name="Abreve" unicode="&#x102;" horiz-adv-x="1219" 
d="M161 58q-9 -18 -14 -27.5t-13 -17.5q-10 -10 -24 -16t-34 -6q-18 0 -35 5.5t-30.5 16t-21.5 25t-8 31.5q0 13 4.5 25.5t15.5 34.5l589 1125q8 16 15.5 28.5t14 23.5t14 20.5t17.5 19.5q19 18 44.5 28t60.5 10q33 0 55 -7.5t38 -23.5q17 -17 24.5 -42.5t13.5 -60.5
l203 -1129q4 -23 5 -32.5t1 -17.5q0 -18 -8 -32.5t-22 -25t-33 -16.5t-39 -6q-21 0 -37 6t-28 18q-11 11 -15.5 28t-8.5 37l-48 286h-541zM833 517l-78 474q-8 41 -13 77t-8 64q-4 32 -7 59h-4q-12 -27 -27 -60q-14 -28 -31.5 -63.5t-37.5 -76.5l-237 -474h443zM525 1727
q0 54 23 76t55 22q29 0 43.5 -16t15.5 -47q1 -60 32.5 -89.5t98.5 -29.5q69 0 110 34t61 94q8 27 24 40.5t46 13.5q27 0 42.5 -16.5t15.5 -47.5q0 -50 -25 -96.5t-68 -83t-101.5 -58.5t-123.5 -22q-60 0 -106 18.5t-77.5 49t-48.5 71.5t-17 87z" />
    <glyph glyph-name="abreve" unicode="&#x103;" horiz-adv-x="1134" 
d="M932 322q-7 -38 -11.5 -69t-8 -57t-5 -46.5t-1.5 -36.5t1 -27t1 -25q0 -30 -19.5 -49t-54.5 -19q-28 0 -46 11.5t-28.5 32t-14.5 49.5t-1 64h-3q-35 -47 -83 -84q-21 -16 -46.5 -31.5t-56 -27t-65.5 -18.5t-74 -7q-74 0 -135 25t-105 74t-68 121.5t-24 167.5
q0 155 44.5 276.5t125.5 206t194 129t250 44.5q65 0 117 -8.5t90.5 -21t64 -26.5t36.5 -25q7 -6 11.5 -14t7.5 -18t3 -23t-3 -31zM842 837q-19 11 -44 21q-21 7 -54 14t-78 7q-83 0 -155 -31.5t-125 -93t-84 -151.5t-31 -208q0 -69 13.5 -119t39 -82t61 -46.5t79.5 -14.5
q32 0 61.5 8.5t56.5 22t50 31.5t42 36q45 44 80 100zM442 1374q0 27 5.5 45.5t16 31t25 18.5t31.5 6q25 0 39.5 -14.5t15.5 -49.5q0 -60 28 -94.5t95 -34.5q71 0 113 38.5t56 99.5q14 55 66 55q58 0 58 -61q0 -53 -22.5 -101.5t-63 -86t-98 -59.5t-126.5 -22q-52 0 -96 16
t-76 45.5t-49.5 72t-17.5 95.5z" />
    <glyph glyph-name="Aogonek" unicode="&#x104;" horiz-adv-x="1219" 
d="M833 517l-78 474q-8 41 -13 77t-8 64q-4 32 -7 59h-4q-12 -27 -27 -60q-14 -28 -31.5 -63.5t-37.5 -76.5l-237 -474h443zM161 58q-9 -18 -14 -27.5t-13 -17.5q-10 -10 -24 -16t-34 -6q-18 0 -35 5.5t-30.5 16t-21.5 25t-8 31.5q0 13 4.5 25.5t15.5 34.5l589 1125
q8 16 15.5 28.5t14 23.5t14 20.5t17.5 19.5q19 18 44.5 28t60.5 10q33 0 55 -7.5t38 -23.5q17 -17 24.5 -42.5t13.5 -60.5l203 -1129q4 -23 5 -32.5t1 -17.5q0 -18 -7.5 -31.5t-16.5 -21.5q-51 -46 -95 -88t-75.5 -81t-49 -75.5t-17.5 -70.5q0 -60 59 -60q19 0 32.5 3t25 6
t22 6t22.5 3q20 0 31.5 -13t11.5 -33q0 -31 -23 -54t-67.5 -38t-105.5 -15q-88 0 -135.5 42t-47.5 119q0 51 25 100.5t64 94.5t86 84t92 70q-5 5 -8 11t-5 13t-4.5 15.5t-3.5 19.5l-49 289h-541z" />
    <glyph glyph-name="aogonek" unicode="&#x105;" horiz-adv-x="1134" 
d="M932 322q-7 -38 -11.5 -69t-8 -57t-5 -46.5t-1.5 -36.5t1 -27t1 -25q0 -17 -5 -29.5t-15 -22.5l-22.5 -20t-32 -27.5t-40.5 -35.5t-48 -45q-47 -48 -74 -92.5t-27 -85.5q0 -60 60 -60q18 0 32 3t25.5 6t22 6t22.5 3q20 0 31 -13t11 -33q0 -31 -22 -54q-24 -23 -68.5 -38
t-105.5 -15q-88 0 -135 42t-47 119q0 54 27.5 104t70 96t95 85t102.5 70q-13 19 -19 48.5t-2 77.5h-3q-35 -47 -83 -84q-21 -16 -46.5 -31.5t-56 -27t-65.5 -18.5t-74 -7q-74 0 -135 25t-105 74t-68 121.5t-24 167.5q0 155 44.5 276.5t125.5 206t194 129t250 44.5
q65 0 117 -8.5t90.5 -21t64 -26.5t36.5 -25q7 -6 11.5 -14t7.5 -18t3 -23t-3 -31zM842 837q-19 11 -44 21q-21 7 -54 14t-78 7q-83 0 -155 -31.5t-125 -93t-84 -151.5t-31 -208q0 -69 13.5 -119t39 -82t61 -46.5t79.5 -14.5q32 0 61.5 8.5t56.5 22t50 31.5t42 36
q45 44 80 100z" />
    <glyph glyph-name="Cacute" unicode="&#x106;" horiz-adv-x="1169" 
d="M116 514q0 134 27.5 252t77 216t119 174.5t153.5 129.5t180.5 81t200.5 28q59 0 109 -7t89 -19t67 -27.5t44 -31.5q13 -14 19 -27.5t6 -31.5q0 -31 -20 -52.5t-55 -21.5q-21 0 -42.5 9.5t-52 21t-75.5 21t-112 9.5q-105 0 -203 -48t-173.5 -138t-121 -220t-45.5 -294
q0 -96 25.5 -170t72.5 -124t114 -76t149 -26q67 0 115.5 10.5t83 22t58 22t42.5 10.5q28 0 43 -17t15 -42q0 -19 -6 -35t-20 -30q-22 -21 -58 -39t-83.5 -31.5t-104.5 -21t-118 -7.5q-121 0 -217.5 36t-164 104.5t-103 166.5t-35.5 223zM1025 1811q18 14 36 14t34 -9.5
t28 -23.5t19.5 -31.5t7.5 -33.5q0 -17 -7 -30t-23 -21l-277 -169q-8 -5 -15.5 -8t-16.5 -3q-13 0 -24 6t-19.5 15.5t-13.5 21.5t-5 25t5.5 24t16.5 20z" />
    <glyph glyph-name="cacute" unicode="&#x107;" horiz-adv-x="905" 
d="M81 389q0 141 45.5 258t124.5 201.5t184.5 131t226.5 46.5q78 0 132.5 -19t79.5 -45q13 -12 18.5 -26t5.5 -29t-5 -28t-14 -22.5t-22.5 -15t-29.5 -5.5q-19 0 -34 6.5t-35.5 14t-49 14.5t-72.5 7q-70 0 -136 -33t-117.5 -93.5t-83 -146.5t-31.5 -192q0 -138 68.5 -209
t188.5 -71q43 0 73.5 6t53.5 13.5t40 13.5t32 6q25 0 40 -16t15 -40q0 -19 -6 -33t-20 -28q-27 -27 -94 -50.5t-169 -23.5q-95 0 -170.5 28.5t-129 81.5t-81.5 128.5t-28 169.5zM757 1499q19 21 45 21q17 0 34 -8.5t30 -22t21.5 -30.5t8.5 -34q0 -15 -6 -26t-17 -21
l-242 -213q-9 -6 -18 -9.5t-19 -3.5q-13 0 -25 5.5t-21.5 14t-15 20t-5.5 23.5q0 11 4.5 20.5t13.5 21.5z" />
    <glyph glyph-name="Ccircumflex" unicode="&#x108;" horiz-adv-x="1169" 
d="M116 514q0 134 27.5 252t77 216t119 174.5t153.5 129.5t180.5 81t200.5 28q59 0 109 -7t89 -19t67 -27.5t44 -31.5q13 -14 19 -27.5t6 -31.5q0 -31 -20 -52.5t-55 -21.5q-21 0 -42.5 9.5t-52 21t-75.5 21t-112 9.5q-105 0 -203 -48t-173.5 -138t-121 -220t-45.5 -294
q0 -96 25.5 -170t72.5 -124t114 -76t149 -26q67 0 115.5 10.5t83 22t58 22t42.5 10.5q28 0 43 -17t15 -42q0 -19 -6 -35t-20 -30q-22 -21 -58 -39t-83.5 -31.5t-104.5 -21t-118 -7.5q-121 0 -217.5 36t-164 104.5t-103 166.5t-35.5 223zM659 1508q-7 -4 -13.5 -6.5
t-15.5 -2.5q-13 0 -24 5.5t-19.5 14t-13.5 20t-5 23.5q0 24 20 41l221 180q24 19 44.5 30.5t46.5 11.5q27 0 45.5 -11t35.5 -30l154 -185q8 -8 11 -17t3 -19q0 -14 -6 -25t-15.5 -20t-22 -14t-24.5 -5t-20 3.5t-17 10.5l-166 139z" />
    <glyph glyph-name="ccircumflex" unicode="&#x109;" horiz-adv-x="905" 
d="M81 389q0 141 45.5 258t124.5 201.5t184.5 131t226.5 46.5q78 0 132.5 -19t79.5 -45q13 -12 18.5 -26t5.5 -29t-5 -28t-14 -22.5t-22.5 -15t-29.5 -5.5q-19 0 -34 6.5t-35.5 14t-49 14.5t-72.5 7q-70 0 -136 -33t-117.5 -93.5t-83 -146.5t-31.5 -192q0 -138 68.5 -209
t188.5 -71q43 0 73.5 6t53.5 13.5t40 13.5t32 6q25 0 40 -16t15 -40q0 -19 -6 -33t-20 -28q-27 -27 -94 -50.5t-169 -23.5q-95 0 -170.5 28.5t-129 81.5t-81.5 128.5t-28 169.5zM449 1171q-17 -13 -35 -13q-13 0 -23.5 5.5t-18 13.5t-12 18.5t-4.5 20.5q0 11 5 22t15 21
l219 203q23 21 42 31.5t44 10.5q26 0 43.5 -10t32.5 -31l149 -209q6 -9 9 -17t3 -17q0 -13 -6 -25t-15.5 -20.5t-21.5 -13.5t-25 -5q-26 0 -44 19l-146 157z" />
    <glyph glyph-name="Cdotaccent" unicode="&#x10a;" horiz-adv-x="1169" 
d="M116 514q0 134 27.5 252t77 216t119 174.5t153.5 129.5t180.5 81t200.5 28q59 0 109 -7t89 -19t67 -27.5t44 -31.5q13 -14 19 -27.5t6 -31.5q0 -31 -20 -52.5t-55 -21.5q-21 0 -42.5 9.5t-52 21t-75.5 21t-112 9.5q-105 0 -203 -48t-173.5 -138t-121 -220t-45.5 -294
q0 -96 25.5 -170t72.5 -124t114 -76t149 -26q67 0 115.5 10.5t83 22t58 22t42.5 10.5q28 0 43 -17t15 -42q0 -19 -6 -35t-20 -30q-22 -21 -58 -39t-83.5 -31.5t-104.5 -21t-118 -7.5q-121 0 -217.5 36t-164 104.5t-103 166.5t-35.5 223zM758 1645q0 27 9.5 49.5t26.5 40
t40 27t50 9.5q25 0 45.5 -8.5t35 -23.5t23 -35.5t8.5 -43.5q0 -27 -9 -50t-25.5 -40t-39.5 -26.5t-50 -9.5q-25 0 -46 8.5t-36 23.5t-23.5 35t-8.5 44z" />
    <glyph glyph-name="cdotaccent" unicode="&#x10b;" horiz-adv-x="905" 
d="M81 389q0 141 45.5 258t124.5 201.5t184.5 131t226.5 46.5q78 0 132.5 -19t79.5 -45q13 -12 18.5 -26t5.5 -29t-5 -28t-14 -22.5t-22.5 -15t-29.5 -5.5q-19 0 -34 6.5t-35.5 14t-49 14.5t-72.5 7q-70 0 -136 -33t-117.5 -93.5t-83 -146.5t-31.5 -192q0 -138 68.5 -209
t188.5 -71q43 0 73.5 6t53.5 13.5t40 13.5t32 6q25 0 40 -16t15 -40q0 -19 -6 -33t-20 -28q-27 -27 -94 -50.5t-169 -23.5q-95 0 -170.5 28.5t-129 81.5t-81.5 128.5t-28 169.5zM535 1313q0 27 9.5 50t27 40t41 26.5t51.5 9.5q23 0 43 -8.5t34.5 -22.5t23 -34t8.5 -44
q0 -26 -9.5 -49.5t-26.5 -40.5t-40 -27t-50 -10q-24 0 -44.5 8.5t-35.5 23t-23.5 34t-8.5 44.5z" />
    <glyph glyph-name="Ccaron" unicode="&#x10c;" horiz-adv-x="1169" 
d="M116 514q0 134 27.5 252t77 216t119 174.5t153.5 129.5t180.5 81t200.5 28q59 0 109 -7t89 -19t67 -27.5t44 -31.5q13 -14 19 -27.5t6 -31.5q0 -31 -20 -52.5t-55 -21.5q-21 0 -42.5 9.5t-52 21t-75.5 21t-112 9.5q-105 0 -203 -48t-173.5 -138t-121 -220t-45.5 -294
q0 -96 25.5 -170t72.5 -124t114 -76t149 -26q67 0 115.5 10.5t83 22t58 22t42.5 10.5q28 0 43 -17t15 -42q0 -19 -6 -35t-20 -30q-22 -21 -58 -39t-83.5 -31.5t-104.5 -21t-118 -7.5q-121 0 -217.5 36t-164 104.5t-103 166.5t-35.5 223zM1086 1814q14 9 29 9q12 0 23.5 -5.5
t20 -14t13.5 -19.5t5 -23q0 -25 -21 -42l-221 -180q-23 -19 -43.5 -30t-46.5 -11q-27 0 -45.5 10.5t-35.5 30.5l-155 184q-7 9 -10 17.5t-3 18.5q0 14 5.5 25.5t15.5 20t22 13.5t24 5t20.5 -3.5t17.5 -10.5l166 -139z" />
    <glyph glyph-name="ccaron" unicode="&#x10d;" horiz-adv-x="905" 
d="M81 389q0 141 45.5 258t124.5 201.5t184.5 131t226.5 46.5q78 0 132.5 -19t79.5 -45q13 -12 18.5 -26t5.5 -29t-5 -28t-14 -22.5t-22.5 -15t-29.5 -5.5q-19 0 -34 6.5t-35.5 14t-49 14.5t-72.5 7q-70 0 -136 -33t-117.5 -93.5t-83 -146.5t-31.5 -192q0 -138 68.5 -209
t188.5 -71q43 0 73.5 6t53.5 13.5t40 13.5t32 6q25 0 40 -16t15 -40q0 -19 -6 -33t-20 -28q-27 -27 -94 -50.5t-169 -23.5q-95 0 -170.5 28.5t-129 81.5t-81.5 128.5t-28 169.5zM852 1486q17 12 36 12q12 0 23 -5t18.5 -13t11.5 -18.5t4 -20.5q0 -12 -4.5 -23t-15.5 -20
l-219 -204q-23 -20 -42 -31t-44 -11t-42.5 10.5t-32.5 30.5l-150 210q-6 9 -8.5 16.5t-2.5 17.5q0 13 6 24.5t15 20t21.5 13.5t25.5 5q25 0 43 -19l147 -156z" />
    <glyph glyph-name="Dcaron" unicode="&#x10e;" horiz-adv-x="1366" 
d="M326 1294q7 42 31 63t67 21h316q144 0 252 -36t180.5 -104t108.5 -166t36 -224q0 -191 -60.5 -347t-170.5 -267.5t-263.5 -172.5t-338.5 -61h-289q-46 0 -65 23.5t-11 70.5zM515 154q134 0 246 46t193 132.5t126 211t45 281.5q0 197 -103 298t-314 101h-210l-185 -1070
h202zM1030 1814q14 9 29 9q12 0 23.5 -5.5t20 -14t13.5 -19.5t5 -23q0 -25 -21 -42l-221 -180q-23 -19 -43.5 -30t-46.5 -11q-27 0 -45.5 10.5t-35.5 30.5l-155 184q-7 9 -10 17.5t-3 18.5q0 14 5.5 25.5t15.5 20t22 13.5t24 5t20.5 -3.5t17.5 -10.5l166 -139z" />
    <glyph glyph-name="dcaron" unicode="&#x10f;" horiz-adv-x="1237" 
d="M939 1401q7 39 31 60.5t69 21.5t65.5 -21.5t13.5 -60.5l-186 -1079q-7 -38 -11.5 -69t-8 -57t-5 -46.5t-1.5 -36.5t1 -27t1 -25q0 -30 -19.5 -49t-54.5 -19q-28 0 -46 11.5t-28.5 32t-14.5 49.5t-1 64h-3q-35 -47 -83 -84q-21 -16 -46.5 -31.5t-56 -27t-65.5 -18.5
t-74 -7q-74 0 -135 25t-105 74t-68 121.5t-24 167.5q0 155 44.5 276.5t125.5 206t194 129t250 44.5q38 0 69.5 -4t53.5 -8q27 -6 49 -12l3 1q4 31 9 63t10 66zM842 837q-19 11 -44 21q-21 7 -54 14t-78 7q-83 0 -155 -31.5t-125 -93t-84 -151.5t-31 -208q0 -69 13.5 -119
t39 -82t61 -46.5t79.5 -14.5q32 0 62 8.5t56.5 22t49.5 31.5t42 36q45 44 80 100zM1322 1512q9 20 25.5 28t35.5 8q18 0 35.5 -6t31 -16t22.5 -24t9 -29q0 -10 -3.5 -18.5t-10.5 -19.5l-161 -259q-9 -15 -22 -21.5t-29 -6.5q-13 0 -24.5 4.5t-21 11.5t-15 16.5t-5.5 22.5
q0 7 2 13.5t6 16.5z" />
    <glyph glyph-name="Dcroat" unicode="&#x110;" horiz-adv-x="1393" 
d="M140 652q-29 0 -44 15t-15 46q0 19 5.5 34.5t16 26.5t24.5 16.5t31 5.5h109l86 498q7 42 31 63t67 21h316q144 0 252 -36t180.5 -104t109 -166t36.5 -224q0 -191 -61 -347t-171 -267.5t-263.5 -172.5t-338.5 -61h-289q-46 0 -65 23.5t-11 70.5l96 558h-102zM340 154h202
q134 0 246 46t193 132.5t126.5 211t45.5 281.5q0 197 -103.5 298t-314.5 101h-210l-75 -428h247q29 0 44 -15.5t15 -45.5q0 -20 -5.5 -35t-15.5 -26t-24.5 -16.5t-31.5 -5.5h-253z" />
    <glyph glyph-name="dcroat" unicode="&#x111;" horiz-adv-x="1136" 
d="M671 1172q-26 0 -41 14.5t-15 42.5q0 37 20 57.5t54 20.5h234l18 103q6 37 30.5 56t67.5 19t64.5 -19.5t15.5 -55.5l-17 -103h95q26 0 41 -14t15 -43q0 -37 -20.5 -57.5t-53.5 -20.5h-100l-147 -850q-7 -38 -11.5 -69t-8 -57t-5 -46.5t-1.5 -36.5t1 -27t1 -25
q0 -30 -19.5 -49t-54.5 -19q-28 0 -46 11.5t-28.5 32t-14.5 49.5t-1 64h-3q-35 -47 -83 -84q-21 -16 -46.5 -31.5t-56 -27t-65.5 -18.5t-74 -7q-74 0 -135 25t-105 74t-68 121.5t-24 167.5q0 150 44 269.5t124.5 203t193.5 128t249 44.5q39 0 70 -4t55 -8q27 -6 49 -12l3 1
q3 29 8 62.5t11 65.5l8 52h-228zM839 825q-18 11 -43 20q-21 8 -54.5 15t-77.5 7q-83 0 -155 -31.5t-124.5 -91.5t-83 -148t-30.5 -201q0 -69 13.5 -119t39 -82t61 -46.5t79.5 -14.5q32 0 62 8.5t56.5 22t49.5 31.5t42 36q45 44 80 100z" />
    <glyph glyph-name="Emacron" unicode="&#x112;" horiz-adv-x="1049" 
d="M313 155h514q30 0 46 -17t16 -50q0 -20 -5.5 -36.5t-16.5 -28t-26 -17.5t-32 -6h-614q-39 0 -58.5 17t-19.5 51q0 9 1 18t3 19l205 1189q7 42 31 63t67 21h611q30 0 46 -16.5t16 -49.5q0 -21 -6 -37.5t-16.5 -28t-25.5 -17.5t-32 -6h-519l-76 -438h440q30 0 46 -16.5
t16 -49.5q0 -20 -5.5 -36.5t-16.5 -28t-25.5 -17.5t-32.5 -6h-449zM1009 1717q30 0 44 -15.5t14 -42.5q0 -19 -5.5 -33.5t-15 -25t-24 -16.5t-31.5 -6h-496q-30 0 -44 15.5t-14 43.5q0 18 5.5 32.5t15 25.5t24 16.5t31.5 5.5h496z" />
    <glyph glyph-name="emacron" unicode="&#x113;" 
d="M81 375q0 150 44 270.5t120.5 205t179.5 130t221 45.5q77 0 135.5 -19t97.5 -52t59 -78.5t20 -97.5q0 -89 -42 -157.5t-128 -113.5t-216 -66.5t-305 -17.5q-4 -67 11 -120.5t49 -91.5t87 -59t124 -21q55 0 94 8t67 17t47.5 17t37.5 8q26 0 40.5 -15.5t14.5 -39.5
q0 -19 -6 -33.5t-18 -27.5q-15 -15 -44.5 -30t-69 -27.5t-89.5 -20t-106 -7.5q-105 0 -184.5 28.5t-133 80.5t-80.5 124.5t-27 160.5zM283 559q127 -5 220 7t154 38.5t90.5 65.5t29.5 88q0 58 -37 91.5t-118 33.5q-57 0 -110 -20.5t-98 -61.5t-79 -102t-52 -140zM909 1387
q28 0 42.5 -15t14.5 -43q0 -18 -5.5 -33t-15.5 -25t-23.5 -16t-30.5 -6h-490q-28 0 -42.5 15t-14.5 43q0 18 5.5 33t15 25t23.5 16t31 6h490z" />
    <glyph glyph-name="Ebreve" unicode="&#x114;" horiz-adv-x="1049" 
d="M313 155h514q30 0 46 -17t16 -50q0 -20 -5.5 -36.5t-16.5 -28t-26 -17.5t-32 -6h-614q-39 0 -58.5 17t-19.5 51q0 9 1 18t3 19l205 1189q7 42 31 63t67 21h611q30 0 46 -16.5t16 -49.5q0 -21 -6 -37.5t-16.5 -28t-25.5 -17.5t-32 -6h-519l-76 -438h440q30 0 46 -16.5
t16 -49.5q0 -20 -5.5 -36.5t-16.5 -28t-25.5 -17.5t-32.5 -6h-449zM494 1727q0 54 23 76t55 22q29 0 43.5 -16t15.5 -47q1 -60 32.5 -89.5t98.5 -29.5q69 0 110 34t61 94q8 27 24 40.5t46 13.5q27 0 42.5 -16.5t15.5 -47.5q0 -50 -25 -96.5t-68 -83t-101.5 -58.5t-123.5 -22
q-60 0 -106 18.5t-77.5 49t-48.5 71.5t-17 87z" />
    <glyph glyph-name="ebreve" unicode="&#x115;" 
d="M81 375q0 150 44 270.5t120.5 205t179.5 130t221 45.5q77 0 135.5 -19t97.5 -52t59 -78.5t20 -97.5q0 -89 -42 -157.5t-128 -113.5t-216 -66.5t-305 -17.5q-4 -67 11 -120.5t49 -91.5t87 -59t124 -21q55 0 94 8t67 17t47.5 17t37.5 8q26 0 40.5 -15.5t14.5 -39.5
q0 -19 -6 -33.5t-18 -27.5q-15 -15 -44.5 -30t-69 -27.5t-89.5 -20t-106 -7.5q-105 0 -184.5 28.5t-133 80.5t-80.5 124.5t-27 160.5zM283 559q127 -5 220 7t154 38.5t90.5 65.5t29.5 88q0 58 -37 91.5t-118 33.5q-57 0 -110 -20.5t-98 -61.5t-79 -102t-52 -140zM394 1374
q0 27 5.5 45.5t16 31t25 18.5t31.5 6q25 0 39.5 -14.5t15.5 -49.5q0 -60 28 -94.5t95 -34.5q71 0 113 38.5t56 99.5q14 55 66 55q58 0 58 -61q0 -53 -22.5 -101.5t-63 -86t-98 -59.5t-126.5 -22q-52 0 -96 16t-76 45.5t-49.5 72t-17.5 95.5z" />
    <glyph glyph-name="Edotaccent" unicode="&#x116;" horiz-adv-x="1049" 
d="M313 155h514q30 0 46 -17t16 -50q0 -20 -5.5 -36.5t-16.5 -28t-26 -17.5t-32 -6h-614q-39 0 -58.5 17t-19.5 51q0 9 1 18t3 19l205 1189q7 42 31 63t67 21h611q30 0 46 -16.5t16 -49.5q0 -21 -6 -37.5t-16.5 -28t-25.5 -17.5t-32 -6h-519l-76 -438h440q30 0 46 -16.5
t16 -49.5q0 -20 -5.5 -36.5t-16.5 -28t-25.5 -17.5t-32.5 -6h-449zM657 1645q0 27 9.5 49.5t26.5 40t40 27t50 9.5q25 0 45.5 -8.5t35 -23.5t23 -35.5t8.5 -43.5q0 -27 -9 -50t-25.5 -40t-39.5 -26.5t-50 -9.5q-25 0 -46 8.5t-36 23.5t-23.5 35t-8.5 44z" />
    <glyph glyph-name="edotaccent" unicode="&#x117;" 
d="M81 375q0 150 44 270.5t120.5 205t179.5 130t221 45.5q77 0 135.5 -19t97.5 -52t59 -78.5t20 -97.5q0 -89 -42 -157.5t-128 -113.5t-216 -66.5t-305 -17.5q-4 -67 11 -120.5t49 -91.5t87 -59t124 -21q55 0 94 8t67 17t47.5 17t37.5 8q26 0 40.5 -15.5t14.5 -39.5
q0 -19 -6 -33.5t-18 -27.5q-15 -15 -44.5 -30t-69 -27.5t-89.5 -20t-106 -7.5q-105 0 -184.5 28.5t-133 80.5t-80.5 124.5t-27 160.5zM283 559q127 -5 220 7t154 38.5t90.5 65.5t29.5 88q0 58 -37 91.5t-118 33.5q-57 0 -110 -20.5t-98 -61.5t-79 -102t-52 -140zM541 1313
q0 27 9.5 50t27 40t41 26.5t51.5 9.5q23 0 43 -8.5t34.5 -22.5t23 -34t8.5 -44q0 -26 -9.5 -49.5t-26.5 -40.5t-40 -27t-50 -10q-24 0 -44.5 8.5t-35.5 23t-23.5 34t-8.5 44.5z" />
    <glyph glyph-name="Eogonek" unicode="&#x118;" horiz-adv-x="1049" 
d="M313 155h514q30 0 46 -17t16 -50q0 -17 -3.5 -29.5t-9.5 -23t-15 -19t-19 -16.5q-41 -34 -83 -70.5t-76 -74t-55 -76t-21 -76.5q0 -60 60 -60q18 0 31.5 3t25 6t22 6t22.5 3q20 0 31.5 -13t11.5 -33q0 -31 -23 -54t-67.5 -38t-105.5 -15q-88 0 -135 42t-47 119
q0 50 24 97.5t62 90t83.5 78.5t88.5 65h-496q-46 0 -65 23.5t-11 70.5l207 1200q7 42 31 63t67 21h611q30 0 46 -16.5t16 -49.5q0 -21 -6 -37.5t-16.5 -28t-25.5 -17.5t-32 -6h-519l-76 -438h440q30 0 46 -16.5t16 -49.5q0 -20 -5.5 -36.5t-16.5 -28t-25.5 -17.5t-32.5 -6
h-449z" />
    <glyph glyph-name="eogonek" unicode="&#x119;" 
d="M81 375q0 150 44 270.5t120.5 205t179.5 130t221 45.5q77 0 135.5 -19t97.5 -52t59 -78.5t20 -97.5q0 -90 -42 -158t-128 -113t-216 -66.5t-305 -17.5q-4 -67 11 -120.5t49 -91.5t87 -59t124 -21q55 0 94 8t67 17t47.5 17t37.5 8q26 0 40.5 -15.5t14.5 -39.5
q0 -19 -6 -33.5t-18 -27.5q-17 -17 -47 -40t-65.5 -51t-72 -60.5t-66.5 -67t-49 -71.5t-19 -73q0 -60 60 -60q18 0 31.5 3t25 6t22 6t22.5 3q20 0 31.5 -13t11.5 -33q0 -23 -14 -42.5t-39.5 -34t-62 -22.5t-80.5 -8q-88 0 -135.5 42t-47.5 119q0 47 21.5 92t55.5 85.5
t76 75.5t83 62q-15 -2 -28 -2h-29q-64 0 -119.5 11.5t-102 34.5t-83 56.5t-62 77t-39 97t-13.5 116.5zM283 559q127 -5 220 7t154 38.5t90.5 65.5t29.5 88q0 58 -37 91.5t-118 33.5q-57 0 -110 -20.5t-98 -61.5t-79 -102t-52 -140z" />
    <glyph glyph-name="Ecaron" unicode="&#x11a;" horiz-adv-x="1049" 
d="M313 155h514q30 0 46 -17t16 -50q0 -20 -5.5 -36.5t-16.5 -28t-26 -17.5t-32 -6h-614q-39 0 -58.5 17t-19.5 51q0 9 1 18t3 19l205 1189q7 42 31 63t67 21h611q30 0 46 -16.5t16 -49.5q0 -21 -6 -37.5t-16.5 -28t-25.5 -17.5t-32 -6h-519l-76 -438h440q30 0 46 -16.5
t16 -49.5q0 -20 -5.5 -36.5t-16.5 -28t-25.5 -17.5t-32.5 -6h-449zM974 1814q14 9 29 9q12 0 23.5 -5.5t20 -14t13.5 -19.5t5 -23q0 -25 -21 -42l-221 -180q-23 -19 -43.5 -30t-46.5 -11q-27 0 -45.5 10.5t-35.5 30.5l-155 184q-7 9 -10 17.5t-3 18.5q0 14 5.5 25.5t15.5 20
t22 13.5t24 5t20.5 -3.5t17.5 -10.5l166 -139z" />
    <glyph glyph-name="ecaron" unicode="&#x11b;" 
d="M81 375q0 150 44 270.5t120.5 205t179.5 130t221 45.5q77 0 135.5 -19t97.5 -52t59 -78.5t20 -97.5q0 -89 -42 -157.5t-128 -113.5t-216 -66.5t-305 -17.5q-4 -67 11 -120.5t49 -91.5t87 -59t124 -21q55 0 94 8t67 17t47.5 17t37.5 8q26 0 40.5 -15.5t14.5 -39.5
q0 -19 -6 -33.5t-18 -27.5q-15 -15 -44.5 -30t-69 -27.5t-89.5 -20t-106 -7.5q-105 0 -184.5 28.5t-133 80.5t-80.5 124.5t-27 160.5zM283 559q127 -5 220 7t154 38.5t90.5 65.5t29.5 88q0 58 -37 91.5t-118 33.5q-57 0 -110 -20.5t-98 -61.5t-79 -102t-52 -140zM863 1486
q17 12 36 12q12 0 23 -5t18.5 -13t11.5 -18.5t4 -20.5q0 -12 -4.5 -23t-15.5 -20l-219 -204q-23 -20 -42 -31t-44 -11t-42.5 10.5t-32.5 30.5l-150 210q-6 9 -8.5 16.5t-2.5 17.5q0 13 6 24.5t15 20t21.5 13.5t25.5 5q25 0 43 -19l147 -156z" />
    <glyph glyph-name="Gcircumflex" unicode="&#x11c;" horiz-adv-x="1348" 
d="M800 571q-29 0 -45 16.5t-16 48.5q0 20 5.5 36.5t16 27.5t25.5 17t32 6h331q43 0 61.5 -23t10.5 -67l-76 -442q-6 -32 -16.5 -55t-27.5 -41q-21 -20 -60 -40t-93 -36.5t-121.5 -27t-145.5 -10.5q-136 0 -241 37t-176.5 106.5t-108.5 170.5t-37 230t28.5 243.5t81 211.5
t126.5 174t166.5 130.5t200.5 82t227 28.5q64 0 119 -8.5t98.5 -22.5t75.5 -31t50 -36q14 -13 19.5 -27t5.5 -31q0 -32 -20 -53.5t-55 -21.5q-22 0 -45 11.5t-57.5 25.5t-87 25.5t-133.5 11.5q-127 0 -237.5 -49t-193 -138.5t-130 -217t-47.5 -283.5q0 -202 106 -308
t309 -106q60 0 104.5 6t74.5 15q35 9 60 21l67 393h-231zM722 1508q-7 -4 -13.5 -6.5t-15.5 -2.5q-13 0 -24 5.5t-19.5 14t-13.5 20t-5 23.5q0 24 20 41l221 180q24 19 44.5 30.5t46.5 11.5q27 0 45.5 -11t35.5 -30l154 -185q8 -8 11 -17t3 -19q0 -14 -6 -25t-15.5 -20
t-22 -14t-24.5 -5t-20 3.5t-17 10.5l-166 139z" />
    <glyph glyph-name="gcircumflex" unicode="&#x11d;" horiz-adv-x="1134" 
d="M883 35q-26 -146 -73.5 -247t-117 -163t-162 -89.5t-207.5 -27.5q-107 0 -176.5 21t-93.5 46q-13 12 -18.5 25.5t-5.5 30.5q0 16 5 28.5t13.5 22t21.5 14.5t28 5q17 0 37.5 -7t48.5 -15t66.5 -15t91.5 -7q76 0 136 20.5t104 64.5t74 113t47 166q3 17 5.5 30.5t5.5 25.5
t5.5 25t7.5 28h-3q-34 -42 -80 -75q-40 -28 -96.5 -50.5t-130.5 -22.5t-135 25t-105 74t-68 121.5t-24 167.5q0 155 44.5 276.5t125.5 206t194 129t250 44.5q64 0 116 -8.5t91 -21t64.5 -26.5t36.5 -25q7 -6 11.5 -14t7.5 -18t3 -23t-3 -31zM842 837q-19 11 -44 21
q-21 7 -53.5 14t-77.5 7q-83 0 -155.5 -31.5t-125.5 -93t-84 -151.5t-31 -208q0 -69 13.5 -119t39 -82t61 -46.5t79.5 -14.5q32 0 61.5 8.5t56.5 22t50 31.5t42 36q45 44 80 100zM504 1171q-17 -13 -35 -13q-13 0 -23.5 5.5t-18 13.5t-12 18.5t-4.5 20.5q0 11 5 22t15 21
l219 203q23 21 42 31.5t44 10.5q26 0 43.5 -10t32.5 -31l149 -209q6 -9 9 -17t3 -17q0 -13 -6 -25t-15.5 -20.5t-21.5 -13.5t-25 -5q-26 0 -44 19l-146 157z" />
    <glyph glyph-name="Gbreve" unicode="&#x11e;" horiz-adv-x="1348" 
d="M800 571q-29 0 -45 16.5t-16 48.5q0 20 5.5 36.5t16 27.5t25.5 17t32 6h331q43 0 61.5 -23t10.5 -67l-76 -442q-6 -32 -16.5 -55t-27.5 -41q-21 -20 -60 -40t-93 -36.5t-121.5 -27t-145.5 -10.5q-136 0 -241 37t-176.5 106.5t-108.5 170.5t-37 230t28.5 243.5t81 211.5
t126.5 174t166.5 130.5t200.5 82t227 28.5q64 0 119 -8.5t98.5 -22.5t75.5 -31t50 -36q14 -13 19.5 -27t5.5 -31q0 -32 -20 -53.5t-55 -21.5q-22 0 -45 11.5t-57.5 25.5t-87 25.5t-133.5 11.5q-127 0 -237.5 -49t-193 -138.5t-130 -217t-47.5 -283.5q0 -202 106 -308
t309 -106q60 0 104.5 6t74.5 15q35 9 60 21l67 393h-231zM640 1727q0 54 23 76t55 22q29 0 43.5 -16t15.5 -47q1 -60 32.5 -89.5t98.5 -29.5q69 0 110 34t61 94q8 27 24 40.5t46 13.5q27 0 42.5 -16.5t15.5 -47.5q0 -50 -25 -96.5t-68 -83t-101.5 -58.5t-123.5 -22
q-60 0 -106 18.5t-77.5 49t-48.5 71.5t-17 87z" />
    <glyph glyph-name="gbreve" unicode="&#x11f;" horiz-adv-x="1134" 
d="M883 35q-26 -146 -73.5 -247t-117 -163t-162 -89.5t-207.5 -27.5q-107 0 -176.5 21t-93.5 46q-13 12 -18.5 25.5t-5.5 30.5q0 16 5 28.5t13.5 22t21.5 14.5t28 5q17 0 37.5 -7t48.5 -15t66.5 -15t91.5 -7q76 0 136 20.5t104 64.5t74 113t47 166q3 17 5.5 30.5t5.5 25.5
t5.5 25t7.5 28h-3q-34 -42 -80 -75q-40 -28 -96.5 -50.5t-130.5 -22.5t-135 25t-105 74t-68 121.5t-24 167.5q0 155 44.5 276.5t125.5 206t194 129t250 44.5q64 0 116 -8.5t91 -21t64.5 -26.5t36.5 -25q7 -6 11.5 -14t7.5 -18t3 -23t-3 -31zM842 837q-19 11 -44 21
q-21 7 -53.5 14t-77.5 7q-83 0 -155.5 -31.5t-125.5 -93t-84 -151.5t-31 -208q0 -69 13.5 -119t39 -82t61 -46.5t79.5 -14.5q32 0 61.5 8.5t56.5 22t50 31.5t42 36q45 44 80 100zM442 1374q0 27 5.5 45.5t16 31t25 18.5t31.5 6q25 0 39.5 -14.5t15.5 -49.5q0 -60 28 -94.5
t95 -34.5q71 0 113 38.5t56 99.5q14 55 66 55q58 0 58 -61q0 -53 -22.5 -101.5t-63 -86t-98 -59.5t-126.5 -22q-52 0 -96 16t-76 45.5t-49.5 72t-17.5 95.5z" />
    <glyph glyph-name="Gdotaccent" unicode="&#x120;" horiz-adv-x="1348" 
d="M800 571q-29 0 -45 16.5t-16 48.5q0 20 5.5 36.5t16 27.5t25.5 17t32 6h331q43 0 61.5 -23t10.5 -67l-76 -442q-6 -32 -16.5 -55t-27.5 -41q-21 -20 -60 -40t-93 -36.5t-121.5 -27t-145.5 -10.5q-136 0 -241 37t-176.5 106.5t-108.5 170.5t-37 230t28.5 243.5t81 211.5
t126.5 174t166.5 130.5t200.5 82t227 28.5q64 0 119 -8.5t98.5 -22.5t75.5 -31t50 -36q14 -13 19.5 -27t5.5 -31q0 -32 -20 -53.5t-55 -21.5q-22 0 -45 11.5t-57.5 25.5t-87 25.5t-133.5 11.5q-127 0 -237.5 -49t-193 -138.5t-130 -217t-47.5 -283.5q0 -202 106 -308
t309 -106q60 0 104.5 6t74.5 15q35 9 60 21l67 393h-231zM794 1645q0 27 9.5 49.5t26.5 40t40 27t50 9.5q25 0 45.5 -8.5t35 -23.5t23 -35.5t8.5 -43.5q0 -27 -9 -50t-25.5 -40t-39.5 -26.5t-50 -9.5q-25 0 -46 8.5t-36 23.5t-23.5 35t-8.5 44z" />
    <glyph glyph-name="gdotaccent" unicode="&#x121;" horiz-adv-x="1134" 
d="M883 35q-26 -146 -73.5 -247t-117 -163t-162 -89.5t-207.5 -27.5q-107 0 -176.5 21t-93.5 46q-13 12 -18.5 25.5t-5.5 30.5q0 16 5 28.5t13.5 22t21.5 14.5t28 5q17 0 37.5 -7t48.5 -15t66.5 -15t91.5 -7q76 0 136 20.5t104 64.5t74 113t47 166q3 17 5.5 30.5t5.5 25.5
t5.5 25t7.5 28h-3q-34 -42 -80 -75q-40 -28 -96.5 -50.5t-130.5 -22.5t-135 25t-105 74t-68 121.5t-24 167.5q0 155 44.5 276.5t125.5 206t194 129t250 44.5q64 0 116 -8.5t91 -21t64.5 -26.5t36.5 -25q7 -6 11.5 -14t7.5 -18t3 -23t-3 -31zM842 837q-19 11 -44 21
q-21 7 -53.5 14t-77.5 7q-83 0 -155.5 -31.5t-125.5 -93t-84 -151.5t-31 -208q0 -69 13.5 -119t39 -82t61 -46.5t79.5 -14.5q32 0 61.5 8.5t56.5 22t50 31.5t42 36q45 44 80 100zM575 1313q0 27 9.5 50t27 40t41 26.5t51.5 9.5q23 0 43 -8.5t34.5 -22.5t23 -34t8.5 -44
q0 -26 -9.5 -49.5t-26.5 -40.5t-40 -27t-50 -10q-24 0 -44.5 8.5t-35.5 23t-23.5 34t-8.5 44.5z" />
    <glyph glyph-name="Gcommaaccent" unicode="&#x122;" horiz-adv-x="1348" 
d="M800 571q-29 0 -45 16.5t-16 48.5q0 20 5.5 36.5t16 27.5t25.5 17t32 6h331q43 0 61.5 -23t10.5 -67l-76 -442q-6 -32 -16.5 -55t-27.5 -41q-21 -20 -60 -40t-93 -36.5t-121.5 -27t-145.5 -10.5q-136 0 -241 37t-176.5 106.5t-108.5 170.5t-37 230t28.5 243.5t81 211.5
t126.5 174t166.5 130.5t200.5 82t227 28.5q64 0 119 -8.5t98.5 -22.5t75.5 -31t50 -36q14 -13 19.5 -27t5.5 -31q0 -32 -20 -53.5t-55 -21.5q-22 0 -45 11.5t-57.5 25.5t-87 25.5t-133.5 11.5q-127 0 -237.5 -49t-193 -138.5t-130 -217t-47.5 -283.5q0 -202 106 -308
t309 -106q60 0 104.5 6t74.5 15q35 9 60 21l67 393h-231zM530 -235q0 25 9 46t24.5 37t37 24.5t47.5 8.5q49 0 76.5 -29t27.5 -79q0 -40 -19 -75.5t-49 -65t-68 -53t-76 -39.5t-73 -24t-59 -8q-32 0 -47.5 13.5t-15.5 37.5q0 11 3.5 20.5t12.5 17.5q11 11 32 19.5t46 19.5
t53.5 27t55.5 41q-8 9 -13 24.5t-5 36.5z" />
    <glyph glyph-name="gcommaaccent" unicode="&#x123;" horiz-adv-x="1134" 
d="M883 35q-26 -146 -73.5 -247t-117 -163t-162 -89.5t-207.5 -27.5q-107 0 -176.5 21t-93.5 46q-13 12 -18.5 25.5t-5.5 30.5q0 16 5 28.5t13.5 22t21.5 14.5t28 5q17 0 37.5 -7t48.5 -15t66.5 -15t91.5 -7q76 0 136 20.5t104 64.5t74 113t47 166q3 17 5.5 30.5t5.5 25.5
t5.5 25t7.5 28h-3q-34 -42 -80 -75q-40 -28 -96.5 -50.5t-130.5 -22.5t-135 25t-105 74t-68 121.5t-24 167.5q0 155 44.5 276.5t125.5 206t194 129t250 44.5q64 0 116 -8.5t91 -21t64.5 -26.5t36.5 -25q7 -6 11.5 -14t7.5 -18t3 -23t-3 -31zM842 837q-19 11 -44 21
q-21 7 -53.5 14t-77.5 7q-83 0 -155.5 -31.5t-125.5 -93t-84 -151.5t-31 -208q0 -69 13.5 -119t39 -82t61 -46.5t79.5 -14.5q32 0 61.5 8.5t56.5 22t50 31.5t42 36q45 44 80 100zM555 1251q0 41 19 76t49 64.5t68 52.5t76.5 39.5t73 25t58.5 8.5q32 0 48 -14t16 -37
q0 -11 -4 -20.5t-13 -18.5q-11 -12 -31.5 -20t-46 -19t-54 -26.5t-55.5 -40.5q8 -10 13 -25.5t5 -36.5q0 -25 -9 -45.5t-24.5 -36.5t-37 -25t-47.5 -9q-49 0 -76.5 29.5t-27.5 78.5z" />
    <glyph glyph-name="Hcircumflex" unicode="&#x124;" horiz-adv-x="1401" 
d="M300 77q-7 -40 -31 -61.5t-71 -21.5q-84 0 -84 65q0 7 1.5 16.5t4.5 24.5l207 1201q7 40 31 61.5t71 21.5t68 -21t14 -62l-89 -515h655l89 515q6 40 30.5 61.5t70.5 21.5q84 0 84 -65q0 -7 -1.5 -16.5t-3.5 -24.5l-208 -1201q-7 -40 -31 -61.5t-71 -21.5t-68 21t-14 62
l95 554h-654zM677 1508q-7 -4 -13.5 -6.5t-15.5 -2.5q-13 0 -24 5.5t-19.5 14t-13.5 20t-5 23.5q0 24 20 41l221 180q24 19 44.5 30.5t46.5 11.5q27 0 45.5 -11t35.5 -30l154 -185q8 -8 11 -17t3 -19q0 -14 -6 -25t-15.5 -20t-22 -14t-24.5 -5t-20 3.5t-17 10.5l-166 139z
" />
    <glyph glyph-name="hcircumflex" unicode="&#x125;" horiz-adv-x="1176" 
d="M326 1401q6 39 30 60.5t69 21.5t66 -21.5t14 -60.5l-66 -385q-7 -35 -13.5 -68t-16.5 -70h3q33 41 80 74q20 14 45 27t54.5 24t63.5 17t73 6q75 0 134 -20.5t99.5 -60t62 -96.5t21.5 -130q0 -39 -6.5 -89.5t-17 -106t-22 -114t-22 -113t-17 -102t-6.5 -81.5q0 -16 1 -27
t1 -25q0 -30 -20.5 -48.5t-60.5 -18.5q-48 0 -74.5 27t-26.5 80q0 32 6.5 78.5t16 100t21 111t21.5 112t16.5 104t6.5 85.5q0 93 -46 138t-137 45q-35 0 -66 -8.5t-58.5 -22.5t-51 -32t-42.5 -37q-45 -43 -80 -98l-105 -601q-6 -40 -30 -61t-70 -21q-45 0 -65.5 21t-13.5 61
zM244 1569q-7 -4 -13.5 -6.5t-15.5 -2.5q-13 0 -24 5.5t-19.5 14t-13.5 20t-5 23.5q0 24 20 41l221 180q24 19 44.5 30.5t46.5 11.5q27 0 45.5 -11t35.5 -30l154 -185q8 -8 11 -17t3 -19q0 -14 -6 -25t-15.5 -20t-22 -14t-24.5 -5t-20 3.5t-17 10.5l-166 139z" />
    <glyph glyph-name="Hbar" unicode="&#x126;" horiz-adv-x="1455" 
d="M326 77q-6 -40 -30.5 -61.5t-70.5 -21.5q-47 0 -68 21t-15 62l156 903h-100q-29 0 -44 15.5t-15 45.5q0 19 5.5 34.5t15.5 26t24 16.5t32 6h108l30 177q7 40 31 61.5t71 21.5t68 -21t14 -62l-30 -177h654l31 177q6 40 30.5 61.5t70.5 21.5q47 0 68 -21t15 -62l-31 -177
h101q29 0 44 -15.5t15 -45.5q0 -19 -5.5 -34.5t-15.5 -26t-24.5 -16.5t-31.5 -6h-108l-156 -903q-7 -40 -31 -61.5t-71 -21.5t-68 21t-14 62l94 543h-655zM1102 773l36 207h-656l-35 -207h655z" />
    <glyph glyph-name="hbar" unicode="&#x127;" horiz-adv-x="1176" 
d="M193 1172q-26 0 -41 14.5t-15 42.5q0 37 20.5 57.5t53.5 20.5h100l18 103q6 37 30.5 56t68.5 19q21 0 37.5 -5t26.5 -14.5t14.5 -23.5t1.5 -32l-18 -103h229q26 0 40.5 -14t14.5 -43q0 -37 -20 -57.5t-53 -20.5h-233l-29 -165q-6 -32 -13 -65t-17 -74h3q33 41 80 73
q20 14 44.5 27.5t54 24.5t64 17t73.5 6q74 0 133 -20.5t100 -60t62.5 -97t21.5 -130.5q0 -38 -7 -87.5t-16.5 -104.5t-21 -112t-21.5 -110t-16.5 -100t-6.5 -81q0 -16 1 -27t1 -25q0 -30 -20.5 -48.5t-60.5 -18.5q-48 0 -75 27t-27 80q0 32 6.5 77.5t16 98t21 109t21 110
t16 101.5t6.5 85q0 93 -46 138t-138 45q-34 0 -65.5 -8.5t-59 -22.5t-50.5 -32t-43 -37q-45 -44 -79 -98l-103 -591q-7 -40 -31 -61t-69 -21t-65.5 21t-13.5 61l189 1096h-95z" />
    <glyph glyph-name="Itilde" unicode="&#x128;" horiz-adv-x="563" 
d="M327 1302q7 40 31 61t71 21q84 0 84 -65q0 -7 -2 -16.5t-4 -24.5l-207 -1201q-7 -40 -31 -61.5t-71 -21.5q-84 0 -84 65q0 7 1.5 16.5t4.5 24.5zM325 1628q-31 0 -52 -12.5t-38.5 -27.5t-33.5 -27.5t-35 -12.5q-22 0 -38.5 13.5t-16.5 43.5q0 24 17 53t48 54.5t73.5 43.5
t92.5 18q49 0 85.5 -15.5t66.5 -33.5t57 -33.5t59 -15.5q31 0 52 12.5t38.5 28t33 28t35.5 12.5q22 0 38.5 -14.5t16.5 -43.5q0 -24 -17 -53t-48 -54.5t-73 -43t-93 -17.5q-50 0 -86 15t-65.5 33t-57 33.5t-59.5 15.5z" />
    <glyph glyph-name="itilde" unicode="&#x129;" horiz-adv-x="520" 
d="M245 932q6 40 30 61t69 21q40 0 60.5 -16.5t20.5 -47.5q0 -7 -1 -16t-5 -31l-144 -827q-6 -40 -30 -61t-69 -21q-40 0 -60.5 16t-20.5 48q0 7 1 16t5 30zM267 1298q-25 0 -42 -13.5t-31.5 -29.5t-29.5 -29t-36 -13q-11 0 -21 3t-17 10t-11 17t-4 24q0 27 16.5 58t45 57
t67 43.5t82.5 17.5t75 -16.5t56 -36.5t46.5 -36.5t45.5 -16.5q25 0 42 13.5t31.5 29.5t30 29.5t35.5 13.5q12 0 22 -3.5t17 -10t11 -17t4 -24.5q0 -27 -17 -58t-45.5 -57t-67 -43t-81.5 -17q-44 0 -75.5 16t-56 36t-46 36.5t-46.5 16.5z" />
    <glyph glyph-name="Imacron" unicode="&#x12a;" horiz-adv-x="563" 
d="M327 1302q7 40 31 61t71 21q84 0 84 -65q0 -7 -2 -16.5t-4 -24.5l-207 -1201q-7 -40 -31 -61.5t-71 -21.5q-84 0 -84 65q0 7 1.5 16.5t4.5 24.5zM725 1717q30 0 44 -15.5t14 -42.5q0 -19 -5.5 -33.5t-15 -25t-24 -16.5t-31.5 -6h-496q-30 0 -44 15.5t-14 43.5
q0 18 5.5 32.5t15 25.5t24 16.5t31.5 5.5h496z" />
    <glyph glyph-name="imacron" unicode="&#x12b;" horiz-adv-x="520" 
d="M245 932q6 40 30 61t69 21q40 0 60.5 -16.5t20.5 -47.5q0 -7 -1 -16t-5 -31l-144 -827q-6 -40 -30 -61t-69 -21q-40 0 -60.5 16t-20.5 48q0 7 1 16t5 30zM606 1387q28 0 42.5 -15t14.5 -43q0 -18 -5.5 -33t-15 -25t-23.5 -16t-31 -6h-419q-29 0 -43.5 15t-14.5 43
q0 18 5.5 33t15.5 25t23.5 16t30.5 6h420z" />
    <glyph glyph-name="Ibreve" unicode="&#x12c;" horiz-adv-x="563" 
d="M327 1302q7 40 31 61t71 21q84 0 84 -65q0 -7 -2 -16.5t-4 -24.5l-207 -1201q-7 -40 -31 -61.5t-71 -21.5q-84 0 -84 65q0 7 1.5 16.5t4.5 24.5zM202 1727q0 54 23 76t55 22q29 0 43.5 -16t15.5 -47q1 -60 32.5 -89.5t98.5 -29.5q69 0 110 34t61 94q8 27 24 40.5t46 13.5
q27 0 42.5 -16.5t15.5 -47.5q0 -50 -25 -96.5t-68 -83t-101.5 -58.5t-123.5 -22q-60 0 -106 18.5t-77.5 49t-48.5 71.5t-17 87z" />
    <glyph glyph-name="ibreve" unicode="&#x12d;" horiz-adv-x="520" 
d="M245 932q6 40 30 61t69 21q40 0 60.5 -16.5t20.5 -47.5q0 -7 -1 -16t-5 -31l-144 -827q-6 -40 -30 -61t-69 -21q-40 0 -60.5 16t-20.5 48q0 7 1 16t5 30zM135 1374q0 27 6 45.5t16 31t24.5 18.5t31.5 6q25 0 39.5 -14.5t15.5 -49.5q0 -60 25 -94.5t88 -34.5q34 0 60.5 10
t45.5 28.5t32.5 44t20.5 55.5q14 55 66 55q58 0 58 -61q0 -53 -21.5 -101.5t-61 -86t-95 -59.5t-122.5 -22q-50 0 -92 16t-72.5 45.5t-47.5 72t-17 95.5z" />
    <glyph glyph-name="Iogonek" unicode="&#x12e;" horiz-adv-x="563" 
d="M327 1302q7 40 31 61t71 21q84 0 84 -65q0 -6 -2 -16t-4 -25l-207 -1201q-4 -22 -14 -39.5t-31 -34.5q-27 -24 -57 -58.5t-55.5 -74.5t-42 -82t-16.5 -81q0 -33 14.5 -48.5t44.5 -15.5q17 0 29 2.5t22.5 6t20 6t21.5 2.5q20 0 31.5 -13t11.5 -33q0 -31 -23 -54t-65 -37.5
t-99 -14.5q-88 0 -135.5 42.5t-47.5 122.5q0 53 21 103t53.5 94t71.5 81.5t74 65.5q-5 5 -10 14.5t-5 27.5q0 7 1.5 16.5t4.5 24.5z" />
    <glyph glyph-name="iogonek" unicode="&#x12f;" horiz-adv-x="520" 
d="M245 932q6 40 30 61t69 21t65.5 -21t14.5 -61l-149 -856q-4 -24 -12 -37.5t-26 -31.5q-25 -26 -54.5 -58t-55.5 -71q-31 -47 -48 -88.5t-17 -76.5q0 -37 15 -53.5t43 -16.5q17 0 30 2.5t24 6t20.5 6t20.5 2.5q20 0 31.5 -13t11.5 -33q0 -31 -23 -54t-65 -37.5t-100 -14.5
q-87 0 -134.5 43.5t-47.5 126.5q0 48 20.5 97t52.5 93.5t71.5 83t76.5 65.5q-9 10 -12.5 24t-0.5 35zM277 1314q0 28 10 51t27 40.5t41 27t53 9.5q25 0 47 -8.5t37.5 -23.5t24 -36.5t8.5 -46.5q0 -28 -10 -51.5t-27 -40.5t-41 -26.5t-53 -9.5q-26 0 -47.5 8.5t-37 23.5
t-24 36.5t-8.5 46.5z" />
    <glyph glyph-name="Idotaccent" unicode="&#x130;" horiz-adv-x="563" 
d="M327 1302q7 40 31 61t71 21q84 0 84 -65q0 -7 -2 -16.5t-4 -24.5l-207 -1201q-7 -40 -31 -61.5t-71 -21.5q-84 0 -84 65q0 7 1.5 16.5t4.5 24.5zM350 1645q0 27 9.5 49.5t26.5 40t40 27t50 9.5q25 0 45.5 -8.5t35 -23.5t23 -35.5t8.5 -43.5q0 -27 -9 -50t-25.5 -40
t-39.5 -26.5t-50 -9.5q-25 0 -46 8.5t-36 23.5t-23.5 35t-8.5 44z" />
    <glyph glyph-name="dotlessi" unicode="&#x131;" horiz-adv-x="520" 
d="M245 932q6 40 30 61t69 21q40 0 60.5 -16.5t20.5 -47.5q0 -7 -1 -16t-5 -31l-144 -827q-6 -40 -30 -61t-69 -21q-40 0 -60.5 16t-20.5 48q0 7 1 16t5 30z" />
    <glyph glyph-name="IJ" unicode="&#x132;" horiz-adv-x="1133" 
d="M327 1302q7 40 31 61t71 21q84 0 84 -65q0 -7 -2 -16.5t-4 -24.5l-207 -1201q-7 -40 -31 -61.5t-71 -21.5q-84 0 -84 65q0 7 1.5 16.5t4.5 24.5zM898 1302q7 40 31 61t71 21q84 0 84 -65q0 -7 -2 -16.5t-4 -24.5l-201 -1162q-14 -80 -31.5 -138.5t-39 -102t-46.5 -76
t-53 -60.5q-29 -29 -60.5 -52t-62.5 -39t-61 -24.5t-57 -8.5q-40 0 -60.5 18.5t-20.5 48.5q0 24 12.5 40.5t40.5 28.5q50 25 91 53.5t73 70.5t55 101.5t38 147.5z" />
    <glyph glyph-name="ij" unicode="&#x133;" horiz-adv-x="1040" 
d="M245 932q6 40 30 61t69 21t65.5 -21t14.5 -61l-149 -856q-6 -40 -30 -61t-69 -21t-65.5 21t-14.5 61zM277 1314q0 28 10 51t27 40.5t41 27t53 9.5q25 0 47 -8.5t37.5 -23.5t24 -36.5t8.5 -46.5q0 -28 -10 -51.5t-27 -40.5t-41 -26.5t-53 -9.5q-26 0 -47.5 8.5t-37 23.5
t-24 36.5t-8.5 46.5zM765 932q7 40 31 61t69 21t65.5 -21t14.5 -61l-163 -937q-14 -80 -30.5 -139.5t-36 -103t-41.5 -74.5t-48 -56q-49 -49 -108.5 -79t-117.5 -30q-45 0 -66 19t-21 48q0 25 12 41t38 28q54 22 93.5 49.5t67.5 68t47.5 100t34.5 146.5zM798 1314
q0 28 9.5 51t27 40.5t41.5 27t53 9.5q25 0 47 -8.5t37.5 -23.5t24 -36.5t8.5 -46.5q0 -28 -10 -51.5t-27.5 -40.5t-41.5 -26.5t-52 -9.5q-26 0 -47.5 8.5t-37 23.5t-24 36.5t-8.5 46.5z" />
    <glyph glyph-name="Jcircumflex" unicode="&#x134;" horiz-adv-x="570" 
d="M335 1302q7 40 31 61t71 21q84 0 84 -65q0 -7 -2 -16.5t-4 -24.5l-201 -1162q-14 -80 -31.5 -138.5t-39 -102t-46.5 -76t-53 -60.5q-29 -29 -60.5 -52t-62.5 -39t-61 -24.5t-57 -8.5q-40 0 -60.5 18.5t-20.5 48.5q0 24 12.5 40.5t40.5 28.5q50 25 91 53.5t73 70.5
t55 101.5t38 147.5zM263 1508q-7 -4 -13.5 -6.5t-15.5 -2.5q-13 0 -24 5.5t-19.5 14t-13.5 20t-5 23.5q0 24 20 41l221 180q24 19 44.5 30.5t46.5 11.5q27 0 45.5 -11t35.5 -30l154 -185q8 -8 11 -17t3 -19q0 -14 -6 -25t-15.5 -20t-22 -14t-24.5 -5t-20 3.5t-17 10.5
l-166 139z" />
    <glyph glyph-name="jcircumflex" unicode="&#x135;" horiz-adv-x="520" 
d="M245 932q7 40 31 61t69 21q40 0 60.5 -16.5t20.5 -47.5q0 -7 -1 -16t-5 -31l-157 -908q-14 -80 -30.5 -139.5t-36 -103t-42 -74.5t-48.5 -56q-48 -49 -108 -79t-118 -30q-45 0 -66 19t-21 48q0 25 12 41t38 28q54 22 93.5 49.5t67.5 68t47.5 100t34.5 146.5zM186 1171
q-17 -13 -35 -13q-13 0 -23.5 5.5t-18 13.5t-12 18.5t-4.5 20.5q0 11 5 22t15 21l219 203q23 21 42 31.5t44 10.5q26 0 43.5 -10t32.5 -31l149 -209q6 -9 9 -17t3 -17q0 -13 -6 -25t-15.5 -20.5t-21.5 -13.5t-25 -5q-26 0 -44 19l-146 157z" />
    <glyph glyph-name="Kcommaaccent" unicode="&#x136;" horiz-adv-x="1126" 
d="M1033 1341q7 7 11.5 11t8.5 7.5t6.5 5.5t6.5 5q11 8 23 12.5t25 4.5q19 0 35.5 -7t30 -19.5t21.5 -28.5t8 -34q0 -13 -4.5 -24t-11.5 -20.5t-15.5 -17.5t-16.5 -15l-557 -500l383 -563q14 -19 22.5 -36t8.5 -36q0 -20 -9.5 -37.5t-24 -30.5t-33.5 -20t-38 -7
q-20 0 -35 6.5t-26 17.5q-7 8 -13.5 16t-17.5 27l-414 636l-107 -617q-7 -40 -31 -61.5t-71 -21.5q-84 0 -84 65q0 7 1.5 16.5t4.5 24.5l207 1202q7 40 31 61t71 21t68 -21t14 -62l-93 -539zM399 -235q0 25 9 46t24.5 37t37 24.5t47.5 8.5q49 0 76.5 -29t27.5 -79
q0 -40 -19 -75.5t-49 -65t-68 -53t-76 -39.5t-73 -24t-59 -8q-32 0 -47.5 13.5t-15.5 37.5q0 11 3.5 20.5t12.5 17.5q11 11 32 19.5t46 19.5t53.5 27t55.5 41q-8 9 -13 24.5t-5 36.5z" />
    <glyph glyph-name="kcommaaccent" unicode="&#x137;" horiz-adv-x="1057" 
d="M325 1401q6 39 30 60.5t69 21.5t66 -21.5t14 -60.5l-66 -385q-7 -35 -13.5 -68t-16.5 -70h3q34 41 81 74q20 14 45.5 27t56 24t66 17t76.5 6q61 0 108.5 -16t80 -45.5t49.5 -71t17 -91.5q0 -67 -24.5 -122t-70.5 -98t-113.5 -73.5t-153.5 -48.5l234 -305q8 -10 14 -19.5
t11 -18.5t7.5 -18t2.5 -20q0 -19 -8.5 -35.5t-22.5 -28t-31 -18t-34 -6.5q-18 0 -32 6t-24 17q-7 7 -13.5 15t-21.5 28l-239 327q-22 31 -35.5 56t-13.5 53q0 27 17.5 49.5t54.5 25.5q154 12 232.5 63.5t78.5 138.5q0 49 -30.5 77.5t-93.5 28.5q-36 0 -67.5 -8.5t-59 -22.5
t-51 -32t-43.5 -37q-46 -44 -81 -99l-105 -601q-4 -21 -11 -36.5t-19 -25.5t-29.5 -15.5t-40.5 -5.5q-45 0 -65 22t-14 63zM326 -235q0 25 9 46t24.5 37t37 24.5t47.5 8.5q49 0 76.5 -29t27.5 -79q0 -40 -19 -75.5t-49 -65t-68 -53t-76 -39.5t-73 -24t-59 -8
q-32 0 -47.5 13.5t-15.5 37.5q0 11 3.5 20.5t12.5 17.5q11 11 32 19.5t46 19.5t53.5 27t55.5 41q-8 9 -13 24.5t-5 36.5z" />
    <glyph glyph-name="kgreenlandic" unicode="&#x138;" horiz-adv-x="979" 
d="M245 932q6 40 30 61t69 21t66 -21t14 -61l-65 -372q63 48 118.5 92.5t108 90t105 95.5t110.5 108q14 15 24.5 26.5t20.5 21.5q26 25 59 25q17 0 33 -7t28 -18t19 -25t7 -30q0 -21 -14 -39t-38 -42q-42 -42 -88.5 -85t-96.5 -85.5t-102.5 -84.5t-105.5 -81l270 -371
q14 -19 23 -35.5t9 -35.5t-8 -35.5t-22 -28t-31 -18.5t-36 -7q-18 0 -32 6.5t-26 18.5q-7 7 -14 16.5t-16 23.5l-314 452l-75 -432q-6 -40 -30 -61t-69 -21q-40 0 -60.5 16t-20.5 48q0 7 1 16t5 30z" />
    <glyph glyph-name="Lacute" unicode="&#x139;" horiz-adv-x="971" 
d="M811 157q30 0 46.5 -17t16.5 -51q0 -20 -6 -37t-16.5 -28.5t-26 -17.5t-32.5 -6h-598q-39 0 -58.5 17t-19.5 51q0 9 1 18t3 19l206 1197q7 40 31 61t71 21t68 -21t14 -62l-198 -1144h498zM730 1811q18 14 36 14t34 -9.5t28 -23.5t19.5 -31.5t7.5 -33.5q0 -17 -7 -30
t-23 -21l-277 -169q-8 -5 -15.5 -8t-16.5 -3q-13 0 -24 6t-19.5 15.5t-13.5 21.5t-5 25t5.5 24t16.5 20z" />
    <glyph glyph-name="lacute" unicode="&#x13a;" horiz-adv-x="558" 
d="M321 1401q6 39 30.5 60.5t69.5 21.5q40 0 60.5 -16.5t20.5 -47.5q0 -8 -1.5 -16.5t-5.5 -30.5l-188 -1095q-8 -43 -7 -70t9 -42t21.5 -20.5t30.5 -5.5q20 0 31.5 2.5t24.5 2.5q23 0 35.5 -15.5t12.5 -38.5q0 -19 -6 -33.5t-19 -26.5q-7 -8 -19 -15t-28.5 -12.5t-38.5 -9
t-50 -3.5q-93 0 -140 47.5t-47 139.5q0 24 2.5 46.5t7.5 51.5zM586 1913q18 14 36 14t34 -9.5t28 -23.5t19.5 -31.5t7.5 -33.5q0 -17 -7 -30t-23 -21l-277 -169q-8 -5 -15.5 -8t-16.5 -3q-13 0 -24 6t-19.5 15.5t-13.5 21.5t-5 25t5.5 24t16.5 20z" />
    <glyph glyph-name="Lcommaaccent" unicode="&#x13b;" horiz-adv-x="971" 
d="M811 157q30 0 46.5 -17t16.5 -51q0 -20 -6 -37t-16.5 -28.5t-26 -17.5t-32.5 -6h-598q-39 0 -58.5 17t-19.5 51q0 9 1 18t3 19l206 1197q7 40 31 61t71 21t68 -21t14 -62l-198 -1144h498zM354 -235q0 25 9 46t24.5 37t37 24.5t47.5 8.5q49 0 76.5 -29t27.5 -79
q0 -40 -19 -75.5t-49 -65t-68 -53t-76 -39.5t-73 -24t-59 -8q-32 0 -47.5 13.5t-15.5 37.5q0 11 3.5 20.5t12.5 17.5q11 11 32 19.5t46 19.5t53.5 27t55.5 41q-8 9 -13 24.5t-5 36.5z" />
    <glyph glyph-name="lcommaaccent" unicode="&#x13c;" horiz-adv-x="558" 
d="M321 1401q6 39 30.5 60.5t69.5 21.5q40 0 60.5 -16.5t20.5 -47.5q0 -8 -1.5 -16.5t-5.5 -30.5l-188 -1095q-8 -43 -7 -70t9 -42t21.5 -20.5t30.5 -5.5q20 0 31.5 2.5t24.5 2.5q23 0 35.5 -15.5t12.5 -38.5q0 -19 -6 -33.5t-19 -26.5q-7 -8 -19 -15t-28.5 -12.5t-38.5 -9
t-50 -3.5q-93 0 -140 47.5t-47 139.5q0 24 2.5 46.5t7.5 51.5zM105 -235q0 25 9 46t24.5 37t37 24.5t47.5 8.5q49 0 76.5 -29t27.5 -79q0 -40 -19 -75.5t-49 -65t-68 -53t-76 -39.5t-73 -24t-59 -8q-32 0 -47.5 13.5t-15.5 37.5q0 11 3.5 20.5t12.5 17.5q11 11 32 19.5
t46 19.5t53.5 27t55.5 41q-8 9 -13 24.5t-5 36.5z" />
    <glyph glyph-name="Lcaron" unicode="&#x13d;" horiz-adv-x="971" 
d="M811 157q30 0 46.5 -17t16.5 -51q0 -20 -6 -37t-16.5 -28.5t-26 -17.5t-32.5 -6h-598q-39 0 -58.5 17t-19.5 51q0 9 1 18t3 19l206 1197q7 40 31 61t71 21t68 -21t14 -62l-198 -1144h498zM689 1814q14 9 29 9q12 0 23.5 -5.5t20 -14t13.5 -19.5t5 -23q0 -25 -21 -42
l-221 -180q-23 -19 -43.5 -30t-46.5 -11q-27 0 -45.5 10.5t-35.5 30.5l-155 184q-7 9 -10 17.5t-3 18.5q0 14 5.5 25.5t15.5 20t22 13.5t24 5t20.5 -3.5t17.5 -10.5l166 -139z" />
    <glyph glyph-name="lcaron" unicode="&#x13e;" horiz-adv-x="619" 
d="M321 1401q6 39 30.5 60.5t69.5 21.5q40 0 60.5 -16.5t20.5 -47.5q0 -8 -1.5 -16.5t-5.5 -30.5l-188 -1095q-8 -43 -7 -70t9 -42t21.5 -20.5t30.5 -5.5q20 0 31.5 2.5t24.5 2.5q23 0 35.5 -15.5t12.5 -38.5q0 -19 -6 -33.5t-19 -26.5q-7 -8 -19 -15t-28.5 -12.5t-38.5 -9
t-50 -3.5q-93 0 -140 47.5t-47 139.5q0 24 2.5 46.5t7.5 51.5zM705 1512q9 20 25.5 28t35.5 8q18 0 35.5 -6t31 -16t22.5 -24t9 -29q0 -10 -3.5 -18.5t-10.5 -19.5l-161 -259q-9 -15 -22 -21.5t-29 -6.5q-13 0 -24.5 4.5t-21 11.5t-15 16.5t-5.5 22.5q0 7 2 13.5t6 16.5z
" />
    <glyph glyph-name="Ldot" unicode="&#x13f;" horiz-adv-x="994" 
d="M811 157q30 0 46.5 -17t16.5 -51q0 -20 -6 -37t-16.5 -28.5t-26 -17.5t-32.5 -6h-598q-39 0 -58.5 17t-19.5 51q0 9 1 18t3 19l206 1197q7 40 31 61t71 21t68 -21t14 -62l-198 -1144h498zM690 752q0 29 10.5 54.5t29 43.5t43.5 29t54 11q28 0 52 -9.5t41 -26.5t26.5 -41
t9.5 -52q0 -29 -10.5 -54t-29 -43.5t-43.5 -29t-53 -10.5q-29 0 -52.5 9.5t-41 26.5t-27 40.5t-9.5 51.5z" />
    <glyph glyph-name="ldot" unicode="&#x140;" horiz-adv-x="815" 
d="M321 1401q6 39 30.5 60.5t69.5 21.5q40 0 60.5 -16.5t20.5 -47.5q0 -8 -1.5 -16.5t-5.5 -30.5l-188 -1095q-8 -43 -7 -70t9 -42t21.5 -20.5t30.5 -5.5q20 0 31.5 2.5t24.5 2.5q23 0 35.5 -15.5t12.5 -38.5q0 -19 -6 -33.5t-19 -26.5q-7 -8 -19 -15t-28.5 -12.5t-38.5 -9
t-50 -3.5q-93 0 -140 47.5t-47 139.5q0 24 2.5 46.5t7.5 51.5zM557 705q0 29 10.5 54.5t29 43.5t43.5 29t54 11q28 0 52 -9.5t41 -26.5t26.5 -41t9.5 -52q0 -29 -10.5 -54t-29 -43.5t-43.5 -29t-53 -10.5q-29 0 -52.5 9.5t-41 26.5t-27 40.5t-9.5 51.5z" />
    <glyph glyph-name="Lslash" unicode="&#x141;" horiz-adv-x="999" 
d="M839 157q31 0 47 -17t16 -51q0 -20 -6 -37t-16.5 -28.5t-25.5 -17.5t-33 -6h-598q-46 0 -65 23.5t-11 70.5l106 611l-76 -31q-8 -4 -15.5 -6t-17.5 -2q-16 0 -28 7t-21 18.5t-14 25.5t-5 29q0 14 4.5 25t13.5 20t24.5 16t37.5 16l126 53l73 426q7 40 31 61t71 21t68 -21
t14 -62l-60 -345l173 72q10 4 18 6t18 2q15 0 28 -6.5t21.5 -18t13.5 -26t5 -28.5q0 -15 -5 -26t-13 -20q-9 -8 -24.5 -15.5t-36.5 -16.5l-227 -94l-108 -628h497z" />
    <glyph glyph-name="lslash" unicode="&#x142;" horiz-adv-x="597" 
d="M169 801q-10 -4 -16.5 -6t-14.5 -2q-13 0 -24.5 7t-19.5 17.5t-12.5 24.5t-4.5 28q0 23 11 38.5t34 24.5l157 66l70 402q7 39 31 60.5t69 21.5t65.5 -21.5t14.5 -60.5l-56 -321l111 47q12 5 19.5 6.5t15.5 1.5q14 0 25.5 -6t19.5 -17t12.5 -24.5t4.5 -28.5
q0 -23 -11 -38.5t-34 -24.5l-191 -80l-111 -639q-7 -43 -6 -70t8.5 -42t21 -20.5t30.5 -5.5q20 0 31.5 2.5t24.5 2.5q23 0 35.5 -15.5t12.5 -38.5q0 -19 -5.5 -33.5t-18.5 -26.5q-8 -8 -20 -15t-28.5 -12.5t-38.5 -9t-49 -3.5q-110 0 -156.5 67t-24.5 194l101 586z" />
    <glyph glyph-name="Nacute" unicode="&#x143;" horiz-adv-x="1460" 
d="M319 1263q5 31 16.5 54.5t28.5 38t41 21.5t54 7q33 0 55.5 -8t39.5 -25q19 -19 35.5 -52.5t39.5 -83.5l350 -779q17 -38 32 -75.5t26 -66.5q13 -34 24 -65l4 2q3 35 7 75q3 34 8.5 77.5t13.5 89.5l139 831q6 40 30 60t67 20q38 0 59 -16.5t21 -48.5q0 -8 -1.5 -17
t-3.5 -24l-200 -1163q-6 -31 -17 -54.5t-28 -38t-40.5 -21.5t-54.5 -7q-33 0 -55.5 8t-38.5 25q-20 19 -36.5 52.5t-38.5 83.5l-351 779q-17 38 -32 75.5t-26 66.5q-12 34 -23 65l-5 -2q-3 -35 -7 -75q-3 -34 -8.5 -77.5t-12.5 -89.5l-139 -831q-7 -40 -30.5 -60t-66.5 -20
q-38 0 -59.5 16.5t-21.5 48.5q0 7 1.5 16.5t4.5 24.5zM1108 1811q18 14 36 14t34 -9.5t28 -23.5t19.5 -31.5t7.5 -33.5q0 -17 -7 -30t-23 -21l-277 -169q-8 -5 -15.5 -8t-16.5 -3q-13 0 -24 6t-19.5 15.5t-13.5 21.5t-5 25t5.5 24t16.5 20z" />
    <glyph glyph-name="nacute" unicode="&#x144;" horiz-adv-x="1176" 
d="M247 946q6 36 25.5 53t53.5 17t53 -21t19 -65q0 -13 -1.5 -25t-2.5 -22q-2 -13 -4 -25h4q34 47 83 84q21 16 47 31t57.5 26.5t68 19t78.5 7.5q75 0 133.5 -20.5t99 -60t62 -96.5t21.5 -130q0 -39 -6.5 -89.5t-17 -106t-22 -114t-21.5 -113t-17 -102t-7 -81.5q0 -16 1 -27
t1 -25q0 -30 -20.5 -48.5t-60.5 -18.5q-48 0 -74.5 27t-26.5 80q0 32 6.5 78.5t16.5 100t21.5 111t21 112t16 104t6.5 85.5q0 93 -46 138t-137 45q-35 0 -66 -8.5t-58 -22.5t-50.5 -32t-43.5 -37q-45 -44 -80 -98l-105 -601q-6 -40 -30 -61t-69 -21t-65.5 21t-14.5 61z
M853 1499q19 21 45 21q17 0 34 -8.5t30 -22t21.5 -30.5t8.5 -34q0 -15 -6 -26t-17 -21l-242 -213q-9 -6 -18 -9.5t-19 -3.5q-13 0 -25 5.5t-21.5 14t-15 20t-5.5 23.5q0 11 4.5 20.5t13.5 21.5z" />
    <glyph glyph-name="Ncommaaccent" unicode="&#x145;" horiz-adv-x="1460" 
d="M319 1263q5 31 16.5 54.5t28.5 38t41 21.5t54 7q33 0 55.5 -8t39.5 -25q19 -19 35.5 -52.5t39.5 -83.5l350 -779q17 -38 32 -75.5t26 -66.5q13 -34 24 -65l4 2q3 35 7 75q3 34 8.5 77.5t13.5 89.5l139 831q6 40 30 60t67 20q38 0 59 -16.5t21 -48.5q0 -8 -1.5 -17
t-3.5 -24l-200 -1163q-6 -31 -17 -54.5t-28 -38t-40.5 -21.5t-54.5 -7q-33 0 -55.5 8t-38.5 25q-20 19 -36.5 52.5t-38.5 83.5l-351 779q-17 38 -32 75.5t-26 66.5q-12 34 -23 65l-5 -2q-3 -35 -7 -75q-3 -34 -8.5 -77.5t-12.5 -89.5l-139 -831q-7 -40 -30.5 -60t-66.5 -20
q-38 0 -59.5 16.5t-21.5 48.5q0 7 1.5 16.5t4.5 24.5zM542 -235q0 25 9 46t24.5 37t37 24.5t47.5 8.5q49 0 76.5 -29t27.5 -79q0 -40 -19 -75.5t-49 -65t-68 -53t-76 -39.5t-73 -24t-59 -8q-32 0 -47.5 13.5t-15.5 37.5q0 11 3.5 20.5t12.5 17.5q11 11 32 19.5t46 19.5
t53.5 27t55.5 41q-8 9 -13 24.5t-5 36.5z" />
    <glyph glyph-name="ncommaaccent" unicode="&#x146;" horiz-adv-x="1176" 
d="M247 946q6 36 25.5 53t53.5 17t53 -21t19 -65q0 -13 -1.5 -25t-2.5 -22q-2 -13 -4 -25h4q34 47 83 84q21 16 47 31t57.5 26.5t68 19t78.5 7.5q75 0 133.5 -20.5t99 -60t62 -96.5t21.5 -130q0 -39 -6.5 -89.5t-17 -106t-22 -114t-21.5 -113t-17 -102t-7 -81.5q0 -16 1 -27
t1 -25q0 -30 -20.5 -48.5t-60.5 -18.5q-48 0 -74.5 27t-26.5 80q0 32 6.5 78.5t16.5 100t21.5 111t21 112t16 104t6.5 85.5q0 93 -46 138t-137 45q-35 0 -66 -8.5t-58 -22.5t-50.5 -32t-43.5 -37q-45 -44 -80 -98l-105 -601q-6 -40 -30 -61t-69 -21t-65.5 21t-14.5 61z
M381 -235q0 25 9 46t24.5 37t37 24.5t47.5 8.5q49 0 76.5 -29t27.5 -79q0 -40 -19 -75.5t-49 -65t-68 -53t-76 -39.5t-73 -24t-59 -8q-32 0 -47.5 13.5t-15.5 37.5q0 11 3.5 20.5t12.5 17.5q11 11 32 19.5t46 19.5t53.5 27t55.5 41q-8 9 -13 24.5t-5 36.5z" />
    <glyph glyph-name="Ncaron" unicode="&#x147;" horiz-adv-x="1460" 
d="M319 1263q5 31 16.5 54.5t28.5 38t41 21.5t54 7q33 0 55.5 -8t39.5 -25q19 -19 35.5 -52.5t39.5 -83.5l350 -779q17 -38 32 -75.5t26 -66.5q13 -34 24 -65l4 2q3 35 7 75q3 34 8.5 77.5t13.5 89.5l139 831q6 40 30 60t67 20q38 0 59 -16.5t21 -48.5q0 -8 -1.5 -17
t-3.5 -24l-200 -1163q-6 -31 -17 -54.5t-28 -38t-40.5 -21.5t-54.5 -7q-33 0 -55.5 8t-38.5 25q-20 19 -36.5 52.5t-38.5 83.5l-351 779q-17 38 -32 75.5t-26 66.5q-12 34 -23 65l-5 -2q-3 -35 -7 -75q-3 -34 -8.5 -77.5t-12.5 -89.5l-139 -831q-7 -40 -30.5 -60t-66.5 -20
q-38 0 -59.5 16.5t-21.5 48.5q0 7 1.5 16.5t4.5 24.5zM1142 1814q14 9 29 9q12 0 23.5 -5.5t20 -14t13.5 -19.5t5 -23q0 -25 -21 -42l-221 -180q-23 -19 -43.5 -30t-46.5 -11q-27 0 -45.5 10.5t-35.5 30.5l-155 184q-7 9 -10 17.5t-3 18.5q0 14 5.5 25.5t15.5 20t22 13.5
t24 5t20.5 -3.5t17.5 -10.5l166 -139z" />
    <glyph glyph-name="ncaron" unicode="&#x148;" horiz-adv-x="1176" 
d="M247 946q6 36 25.5 53t53.5 17t53 -21t19 -65q0 -13 -1.5 -25t-2.5 -22q-2 -13 -4 -25h4q34 47 83 84q21 16 47 31t57.5 26.5t68 19t78.5 7.5q75 0 133.5 -20.5t99 -60t62 -96.5t21.5 -130q0 -39 -6.5 -89.5t-17 -106t-22 -114t-21.5 -113t-17 -102t-7 -81.5q0 -16 1 -27
t1 -25q0 -30 -20.5 -48.5t-60.5 -18.5q-48 0 -74.5 27t-26.5 80q0 32 6.5 78.5t16.5 100t21.5 111t21 112t16 104t6.5 85.5q0 93 -46 138t-137 45q-35 0 -66 -8.5t-58 -22.5t-50.5 -32t-43.5 -37q-45 -44 -80 -98l-105 -601q-6 -40 -30 -61t-69 -21t-65.5 21t-14.5 61z
M919 1486q17 12 36 12q12 0 23 -5t18.5 -13t11.5 -18.5t4 -20.5q0 -12 -4.5 -23t-15.5 -20l-219 -204q-23 -20 -42 -31t-44 -11t-42.5 10.5t-32.5 30.5l-150 210q-6 9 -8.5 16.5t-2.5 17.5q0 13 6 24.5t15 20t21.5 13.5t25.5 5q25 0 43 -19l147 -156z" />
    <glyph glyph-name="napostrophe" unicode="&#x149;" horiz-adv-x="1296" 
d="M367 946q6 36 25.5 53t53.5 17t53 -21t19 -65q0 -13 -1.5 -25t-2.5 -22q-2 -13 -4 -25h4q34 47 83 84q21 16 47 31t57.5 26.5t68 19t78.5 7.5q75 0 133.5 -20.5t99 -60t62 -96.5t21.5 -130q0 -39 -6.5 -89.5t-17 -106t-22 -114t-21.5 -113t-17 -102t-7 -81.5q0 -16 1 -27
t1 -25q0 -30 -20.5 -48.5t-60.5 -18.5q-48 0 -74.5 27t-26.5 80q0 32 6.5 78.5t16.5 100t21.5 111t21 112t16 104t6.5 85.5q0 93 -46 138t-137 45q-35 0 -66 -8.5t-58 -22.5t-50.5 -32t-43.5 -37q-45 -44 -80 -98l-105 -601q-6 -40 -30 -61t-69 -21t-65.5 21t-14.5 61z
M227 1443q0 24 9 46t25 38t38 25t48 9q47 0 75 -29.5t28 -81.5q0 -34 -14 -71t-37 -73.5t-53.5 -71.5t-63.5 -63q-32 -28 -56 -37.5t-45 -9.5q-25 0 -37.5 12.5t-12.5 31.5q0 20 12 34t31.5 32.5t44 47t49.5 78.5q-17 12 -29 31.5t-12 51.5z" />
    <glyph glyph-name="Eng" unicode="&#x14a;" horiz-adv-x="1460" 
d="M319 1263q5 31 16.5 54.5t28.5 38t41 21.5t54 7q33 0 55.5 -8t39.5 -25q19 -19 35.5 -52.5t39.5 -83.5l350 -779q17 -38 32 -75.5t26 -66.5q13 -34 24 -65l4 2q3 35 7 75q3 34 8.5 77.5t13.5 89.5l139 831q6 40 30 60t67 20q38 0 59 -16.5t21 -48.5q0 -8 -1.5 -17
t-3.5 -24l-217 -1259q-11 -62 -23.5 -110t-28 -87.5t-34 -70.5t-40.5 -59q-30 -40 -67.5 -72t-75.5 -55t-75 -35.5t-68 -12.5q-39 0 -59.5 18.5t-20.5 48.5q0 24 12.5 40.5t40.5 28.5q48 24 88.5 51t73.5 67t57 96t38 136q-9 4 -17.5 9.5t-17.5 14.5q-20 19 -36.5 53
t-38.5 83l-351 779q-17 38 -32 75.5t-26 66.5q-12 34 -23 65l-5 -2q-3 -35 -7 -75q-3 -34 -8.5 -77.5t-12.5 -89.5l-139 -831q-7 -40 -30.5 -60t-66.5 -20q-38 0 -59.5 16.5t-21.5 48.5q0 7 1.5 16.5t4.5 24.5z" />
    <glyph glyph-name="eng" unicode="&#x14b;" horiz-adv-x="1172" 
d="M247 946q6 36 25.5 53t53.5 17t53 -21t19 -65q0 -13 -1.5 -25t-2.5 -22q-2 -13 -4 -25h4q34 47 83 84q21 16 47 31t57.5 26.5t68 19t78.5 7.5q74 0 132.5 -20.5t98.5 -59.5t61.5 -96.5t21.5 -129.5q0 -46 -3 -94t-10.5 -104t-18.5 -121t-26 -144q-30 -148 -58 -250.5
t-57 -173.5t-61 -118.5t-70 -85.5q-25 -24 -52.5 -44t-56.5 -34t-59 -22t-58 -8q-44 0 -65 18t-21 47q0 23 12 39t38 27q36 15 67 32t59 43t53.5 66.5t49.5 102.5t47.5 150t48.5 211q16 78 26.5 141.5t18 116.5t10.5 97t3 82q0 92 -45.5 136.5t-135.5 44.5q-35 0 -66 -8.5
t-58 -22.5t-50.5 -32t-43.5 -37q-45 -44 -80 -98l-105 -601q-6 -40 -30 -61t-69 -21t-65.5 21t-14.5 61z" />
    <glyph glyph-name="Omacron" unicode="&#x14c;" horiz-adv-x="1453" 
d="M118 517q0 135 27.5 253t77 215.5t118.5 174.5t153 129.5t180.5 80.5t200.5 28q121 0 218 -37.5t165 -107t104.5 -168.5t36.5 -223q0 -135 -27 -253t-76.5 -215.5t-119 -174.5t-153.5 -129.5t-180.5 -80.5t-200.5 -28q-120 0 -217 37t-165.5 106.5t-105 168.5t-36.5 224z
M310 541q0 -98 26 -173t73 -126t113 -77.5t146 -26.5q104 0 201.5 47.5t172.5 138t120 220.5t45 294q0 98 -26 173t-72.5 126t-113 77.5t-146.5 26.5q-104 0 -201 -48t-172 -138t-120.5 -220t-45.5 -294zM1162 1717q30 0 44 -15.5t14 -42.5q0 -19 -5.5 -33.5t-15 -25
t-24 -16.5t-31.5 -6h-496q-30 0 -44 15.5t-14 43.5q0 18 5.5 32.5t15 25.5t24 16.5t31.5 5.5h496z" />
    <glyph glyph-name="omacron" unicode="&#x14d;" horiz-adv-x="1138" 
d="M84 384q0 147 44 265.5t120.5 202.5t180.5 129t224 45q91 0 165.5 -28t126.5 -81t80.5 -127.5t28.5 -165.5q0 -147 -44 -266t-120.5 -202.5t-180.5 -129t-224 -45.5q-92 0 -166 28.5t-126.5 81.5t-80.5 127t-28 166zM271 405q0 -68 16.5 -119.5t48.5 -85.5t76 -52t98 -18
q70 0 134.5 31.5t114.5 92t79.5 148.5t29.5 201q0 67 -17 119t-48.5 86t-75.5 52t-99 18q-70 0 -134.5 -32t-114 -92.5t-79 -148t-29.5 -200.5zM950 1387q28 0 42.5 -15t14.5 -43q0 -18 -5.5 -33t-15.5 -25t-23.5 -16t-30.5 -6h-490q-28 0 -42.5 15t-14.5 43q0 18 5.5 33
t15 25t23.5 16t31 6h490z" />
    <glyph glyph-name="Obreve" unicode="&#x14e;" horiz-adv-x="1453" 
d="M118 517q0 135 27.5 253t77 215.5t118.5 174.5t153 129.5t180.5 80.5t200.5 28q121 0 218 -37.5t165 -107t104.5 -168.5t36.5 -223q0 -135 -27 -253t-76.5 -215.5t-119 -174.5t-153.5 -129.5t-180.5 -80.5t-200.5 -28q-120 0 -217 37t-165.5 106.5t-105 168.5t-36.5 224z
M310 541q0 -98 26 -173t73 -126t113 -77.5t146 -26.5q104 0 201.5 47.5t172.5 138t120 220.5t45 294q0 98 -26 173t-72.5 126t-113 77.5t-146.5 26.5q-104 0 -201 -48t-172 -138t-120.5 -220t-45.5 -294zM644 1727q0 54 23 76t55 22q29 0 43.5 -16t15.5 -47
q1 -60 32.5 -89.5t98.5 -29.5q69 0 110 34t61 94q8 27 24 40.5t46 13.5q27 0 42.5 -16.5t15.5 -47.5q0 -50 -25 -96.5t-68 -83t-101.5 -58.5t-123.5 -22q-60 0 -106 18.5t-77.5 49t-48.5 71.5t-17 87z" />
    <glyph glyph-name="obreve" unicode="&#x14f;" horiz-adv-x="1138" 
d="M84 384q0 147 44 265.5t120.5 202.5t180.5 129t224 45q91 0 165.5 -28t126.5 -81t80.5 -127.5t28.5 -165.5q0 -147 -44 -266t-120.5 -202.5t-180.5 -129t-224 -45.5q-92 0 -166 28.5t-126.5 81.5t-80.5 127t-28 166zM271 405q0 -68 16.5 -119.5t48.5 -85.5t76 -52t98 -18
q70 0 134.5 31.5t114.5 92t79.5 148.5t29.5 201q0 67 -17 119t-48.5 86t-75.5 52t-99 18q-70 0 -134.5 -32t-114 -92.5t-79 -148t-29.5 -200.5zM434 1374q0 27 5.5 45.5t16 31t25 18.5t31.5 6q25 0 39.5 -14.5t15.5 -49.5q0 -60 28 -94.5t95 -34.5q71 0 113 38.5t56 99.5
q14 55 66 55q58 0 58 -61q0 -53 -22.5 -101.5t-63 -86t-98 -59.5t-126.5 -22q-52 0 -96 16t-76 45.5t-49.5 72t-17.5 95.5z" />
    <glyph glyph-name="Ohungarumlaut" unicode="&#x150;" horiz-adv-x="1453" 
d="M118 517q0 135 27.5 253t77 215.5t118.5 174.5t153 129.5t180.5 80.5t200.5 28q121 0 218 -37.5t165 -107t104.5 -168.5t36.5 -223q0 -135 -27 -253t-76.5 -215.5t-119 -174.5t-153.5 -129.5t-180.5 -80.5t-200.5 -28q-120 0 -217 37t-165.5 106.5t-105 168.5t-36.5 224z
M310 541q0 -98 26 -173t73 -126t113 -77.5t146 -26.5q104 0 201.5 47.5t172.5 138t120 220.5t45 294q0 98 -26 173t-72.5 126t-113 77.5t-146.5 26.5q-104 0 -201 -48t-172 -138t-120.5 -220t-45.5 -294zM858 1799q12 12 24.5 17t27.5 5q16 0 31.5 -7t27.5 -19t19 -27.5
t7 -32.5q0 -15 -7 -28t-19 -23l-246 -194q-16 -12 -36 -12q-12 0 -23 4.5t-19 13t-13 19t-5 22.5q0 10 3.5 19.5t12.5 18.5zM1255 1763q9 7 19 10.5t22 3.5q17 0 32.5 -8t27 -21.5t18.5 -30t7 -33.5q0 -18 -9 -33.5t-27 -25.5l-267 -150q-8 -5 -16 -7.5t-18 -2.5
q-11 0 -21.5 5t-19 13.5t-13 20.5t-4.5 24q0 14 5.5 25.5t17.5 20.5z" />
    <glyph glyph-name="ohungarumlaut" unicode="&#x151;" horiz-adv-x="1138" 
d="M84 384q0 147 44 265.5t120.5 202.5t180.5 129t224 45q91 0 165.5 -28t126.5 -81t80.5 -127.5t28.5 -165.5q0 -147 -44 -266t-120.5 -202.5t-180.5 -129t-224 -45.5q-92 0 -166 28.5t-126.5 81.5t-80.5 127t-28 166zM271 405q0 -68 16.5 -119.5t48.5 -85.5t76 -52t98 -18
q70 0 134.5 31.5t114.5 92t79.5 148.5t29.5 201q0 67 -17 119t-48.5 86t-75.5 52t-99 18q-70 0 -134.5 -32t-114 -92.5t-79 -148t-29.5 -200.5zM621 1493q11 14 24 19.5t26 5.5q17 0 33 -7.5t29 -19t20.5 -26.5t7.5 -30q0 -12 -5 -22.5t-15 -20.5l-226 -215q-9 -9 -19 -12.5
t-21 -3.5q-13 0 -24.5 4.5t-20 12.5t-13.5 18.5t-5 22.5q0 9 3 16.5t9 16.5zM979 1481q8 8 19 14t24 6q18 0 34 -8.5t29 -21.5t20.5 -29.5t7.5 -32.5q0 -28 -26 -49l-239 -197q-8 -6 -17 -10.5t-21 -4.5t-23.5 5t-20.5 13.5t-14 20t-5 24.5q0 10 3.5 20t13.5 19z" />
    <glyph glyph-name="OE" unicode="&#x152;" horiz-adv-x="1819" 
d="M1081 1212q-41 14 -93 21.5t-120 7.5q-111 0 -212 -47.5t-177.5 -138t-122.5 -220.5t-46 -294q0 -98 26 -173.5t75 -126.5t119 -77t157 -26q67 0 117 6.5t97 20.5zM1083 155h514q30 0 46 -17t16 -50q0 -20 -6 -36.5t-16.5 -28t-25.5 -17.5t-33 -6h-691q-51 -8 -105 -13.5
t-121 -5.5q-128 0 -229 37t-170.5 106.5t-106.5 168.5t-37 224q0 135 27.5 253t77.5 215.5t120 174.5t156.5 129.5t186 80.5t207.5 28q70 0 126 -5t107 -15h678q31 0 47 -16.5t16 -49.5q0 -21 -6 -37.5t-17 -28t-25.5 -17.5t-32.5 -6h-519l-76 -438h441q30 0 46 -16.5
t16 -49.5q0 -20 -6 -36.5t-16.5 -28t-25.5 -17.5t-32 -6h-449z" />
    <glyph glyph-name="oe" unicode="&#x153;" horiz-adv-x="1795" 
d="M84 384q0 147 44 265.5t120.5 202.5t180 129t222.5 45q65 0 120 -14.5t99 -41t76.5 -64t52.5 -84.5q35 46 79.5 83.5t97.5 64t113.5 41.5t128.5 15q77 0 135.5 -19t97.5 -52t59 -78.5t20 -97.5q0 -89 -42 -157.5t-128 -113.5t-216 -66.5t-305 -17.5q-4 -67 11 -120.5
t49 -91.5t87 -59t124 -21q55 0 94 8t67 17t47.5 17t37.5 8q26 0 40.5 -15.5t14.5 -39.5q0 -19 -6 -33.5t-18 -27.5q-15 -15 -44.5 -30t-69 -27.5t-89.5 -20t-106 -7.5q-146 0 -239.5 53.5t-137.5 146.5q-71 -91 -175.5 -145.5t-240.5 -54.5q-92 0 -166 28.5t-126.5 81.5
t-80.5 127t-28 166zM271 405q0 -68 16.5 -119.5t48.5 -85.5t76 -52t98 -18q70 0 134.5 31.5t114.5 92t79.5 148.5t29.5 201q0 67 -17 119t-48.5 86t-75.5 52t-99 18q-70 0 -134.5 -32t-114 -92.5t-79 -148t-29.5 -200.5zM1055 559q127 -5 220 7t154 38.5t90.5 65.5t29.5 88
q0 58 -37 91.5t-118 33.5q-57 0 -110 -20.5t-98 -61.5t-79 -102t-52 -140z" />
    <glyph glyph-name="Racute" unicode="&#x154;" horiz-adv-x="1152" 
d="M298 77q-6 -40 -30 -61.5t-71 -21.5t-67.5 21t-13.5 62l210 1217q7 42 31 63t67 21h273q113 0 195.5 -24t136.5 -67t80 -102.5t26 -129.5q0 -88 -31 -161.5t-85 -129t-126 -92.5t-155 -54l224 -473q10 -21 15 -35t5 -29q0 -19 -8.5 -35.5t-23 -28.5t-33 -19t-37.5 -7
t-34.5 6.5t-26.5 17.5q-10 10 -17 22.5t-15 30.5l-234 527h-165zM579 747q90 0 158 22t113.5 59.5t68.5 89t23 110.5q0 45 -15 82t-47.5 62.5t-84.5 39t-127 13.5h-171l-83 -478h165zM922 1811q18 14 36 14t34 -9.5t28 -23.5t19.5 -31.5t7.5 -33.5q0 -17 -7 -30t-23 -21
l-277 -169q-8 -5 -15.5 -8t-16.5 -3q-13 0 -24 6t-19.5 15.5t-13.5 21.5t-5 25t5.5 24t16.5 20z" />
    <glyph glyph-name="racute" unicode="&#x155;" horiz-adv-x="701" 
d="M247 946q6 36 25.5 53t53.5 17t53 -21t19 -65q0 -15 -1.5 -30t-3.5 -28q-3 -15 -5 -31h2q27 40 59 74.5t67 59t71.5 38t73.5 13.5q51 0 76.5 -23.5t25.5 -64.5q0 -23 -6.5 -44t-18.5 -36t-28 -23.5t-35 -8.5q-11 0 -19.5 1.5t-16.5 3.5t-16.5 3.5t-18.5 1.5
q-25 0 -52.5 -12t-57 -35.5t-59.5 -57.5t-59 -77l-101 -578q-6 -40 -30 -61t-69 -21q-40 0 -60.5 16t-20.5 48q0 7 1 16t5 30zM677 1499q19 21 45 21q17 0 34 -8.5t30 -22t21.5 -30.5t8.5 -34q0 -15 -6 -26t-17 -21l-242 -213q-9 -6 -18 -9.5t-19 -3.5q-13 0 -25 5.5
t-21.5 14t-15 20t-5.5 23.5q0 11 4.5 20.5t13.5 21.5z" />
    <glyph glyph-name="Rcommaaccent" unicode="&#x156;" horiz-adv-x="1152" 
d="M298 77q-6 -40 -30 -61.5t-71 -21.5t-67.5 21t-13.5 62l210 1217q7 42 31 63t67 21h273q113 0 195.5 -24t136.5 -67t80 -102.5t26 -129.5q0 -88 -31 -161.5t-85 -129t-126 -92.5t-155 -54l224 -473q10 -21 15 -35t5 -29q0 -19 -8.5 -35.5t-23 -28.5t-33 -19t-37.5 -7
t-34.5 6.5t-26.5 17.5q-10 10 -17 22.5t-15 30.5l-234 527h-165zM579 747q90 0 158 22t113.5 59.5t68.5 89t23 110.5q0 45 -15 82t-47.5 62.5t-84.5 39t-127 13.5h-171l-83 -478h165zM394 -235q0 25 9 46t24.5 37t37 24.5t47.5 8.5q49 0 76.5 -29t27.5 -79q0 -40 -19 -75.5
t-49 -65t-68 -53t-76 -39.5t-73 -24t-59 -8q-32 0 -47.5 13.5t-15.5 37.5q0 11 3.5 20.5t12.5 17.5q11 11 32 19.5t46 19.5t53.5 27t55.5 41q-8 9 -13 24.5t-5 36.5z" />
    <glyph glyph-name="rcommaaccent" unicode="&#x157;" horiz-adv-x="701" 
d="M247 946q6 36 25.5 53t53.5 17t53 -21t19 -65q0 -15 -1.5 -30t-3.5 -28q-3 -15 -5 -31h2q27 40 59 74.5t67 59t71.5 38t73.5 13.5q51 0 76.5 -23.5t25.5 -64.5q0 -23 -6.5 -44t-18.5 -36t-28 -23.5t-35 -8.5q-11 0 -19.5 1.5t-16.5 3.5t-16.5 3.5t-18.5 1.5
q-25 0 -52.5 -12t-57 -35.5t-59.5 -57.5t-59 -77l-101 -578q-6 -40 -30 -61t-69 -21q-40 0 -60.5 16t-20.5 48q0 7 1 16t5 30zM68 -235q0 25 9 46t24.5 37t37 24.5t47.5 8.5q49 0 76.5 -29t27.5 -79q0 -40 -19 -75.5t-49 -65t-68 -53t-76 -39.5t-73 -24t-59 -8
q-32 0 -47.5 13.5t-15.5 37.5q0 11 3.5 20.5t12.5 17.5q11 11 32 19.5t46 19.5t53.5 27t55.5 41q-8 9 -13 24.5t-5 36.5z" />
    <glyph glyph-name="Rcaron" unicode="&#x158;" horiz-adv-x="1152" 
d="M298 77q-6 -40 -30 -61.5t-71 -21.5t-67.5 21t-13.5 62l210 1217q7 42 31 63t67 21h273q113 0 195.5 -24t136.5 -67t80 -102.5t26 -129.5q0 -88 -31 -161.5t-85 -129t-126 -92.5t-155 -54l224 -473q10 -21 15 -35t5 -29q0 -19 -8.5 -35.5t-23 -28.5t-33 -19t-37.5 -7
t-34.5 6.5t-26.5 17.5q-10 10 -17 22.5t-15 30.5l-234 527h-165zM579 747q90 0 158 22t113.5 59.5t68.5 89t23 110.5q0 45 -15 82t-47.5 62.5t-84.5 39t-127 13.5h-171l-83 -478h165zM962 1814q14 9 29 9q12 0 23.5 -5.5t20 -14t13.5 -19.5t5 -23q0 -25 -21 -42l-221 -180
q-23 -19 -43.5 -30t-46.5 -11q-27 0 -45.5 10.5t-35.5 30.5l-155 184q-7 9 -10 17.5t-3 18.5q0 14 5.5 25.5t15.5 20t22 13.5t24 5t20.5 -3.5t17.5 -10.5l166 -139z" />
    <glyph glyph-name="rcaron" unicode="&#x159;" horiz-adv-x="701" 
d="M247 946q6 36 25.5 53t53.5 17t53 -21t19 -65q0 -15 -1.5 -30t-3.5 -28q-3 -15 -5 -31h2q27 40 59 74.5t67 59t71.5 38t73.5 13.5q51 0 76.5 -23.5t25.5 -64.5q0 -23 -6.5 -44t-18.5 -36t-28 -23.5t-35 -8.5q-11 0 -19.5 1.5t-16.5 3.5t-16.5 3.5t-18.5 1.5
q-25 0 -52.5 -12t-57 -35.5t-59.5 -57.5t-59 -77l-101 -578q-6 -40 -30 -61t-69 -21q-40 0 -60.5 16t-20.5 48q0 7 1 16t5 30zM729 1486q17 12 36 12q12 0 23 -5t18.5 -13t11.5 -18.5t4 -20.5q0 -12 -4.5 -23t-15.5 -20l-219 -204q-23 -20 -42 -31t-44 -11t-42.5 10.5
t-32.5 30.5l-150 210q-6 9 -8.5 16.5t-2.5 17.5q0 13 6 24.5t15 20t21.5 13.5t25.5 5q25 0 43 -19l147 -156z" />
    <glyph glyph-name="Sacute" unicode="&#x15a;" horiz-adv-x="1059" 
d="M211 999q0 85 31.5 158t94 126t154.5 83.5t212 30.5q53 0 97 -6.5t80 -17.5t62.5 -25.5t41.5 -29.5q14 -14 19.5 -27.5t5.5 -30.5q0 -31 -20 -52.5t-55 -21.5q-21 0 -41.5 9t-49 19.5t-69 19t-99.5 8.5q-73 0 -125 -16t-85 -44.5t-48.5 -67.5t-15.5 -86q0 -49 23 -85.5
t60 -67t85 -56.5t97.5 -54t97.5 -60t85 -73.5t60 -96t23 -126.5q0 -94 -33 -172.5t-99 -135t-164.5 -88t-227.5 -31.5q-65 0 -117.5 8t-92.5 21t-68.5 29.5t-43.5 31.5q-14 14 -19.5 27.5t-5.5 30.5q0 31 20 52.5t55 21.5q22 0 44.5 -10.5t55.5 -23t81 -23t120 -10.5
q77 0 134.5 17.5t95 49.5t56 77t18.5 99q0 50 -22.5 88.5t-60 69.5t-85 58t-97.5 54.5t-97.5 59t-85 72.5t-60 94t-22.5 123zM867 1811q18 14 36 14t34 -9.5t28 -23.5t19.5 -31.5t7.5 -33.5q0 -17 -7 -30t-23 -21l-277 -169q-8 -5 -15.5 -8t-16.5 -3q-13 0 -24 6t-19.5 15.5
t-13.5 21.5t-5 25t5.5 24t16.5 20z" />
    <glyph glyph-name="sacute" unicode="&#x15b;" horiz-adv-x="852" 
d="M149 720q0 66 24.5 122t72.5 97t120.5 64t167.5 23q83 0 139.5 -18t81.5 -43q12 -13 18 -26t6 -29q0 -28 -18.5 -48t-51.5 -20q-18 0 -34 6.5t-37 14t-51 14t-75 6.5q-96 0 -138.5 -37.5t-42.5 -98.5q0 -45 29.5 -75.5t74 -54.5t95.5 -47.5t95.5 -57.5t74 -83t29.5 -123
q0 -68 -26.5 -127t-77 -103t-124 -69t-168.5 -25q-56 0 -100.5 6.5t-78 16.5t-56.5 22.5t-35 24.5q-13 13 -18.5 26.5t-5.5 28.5q0 28 18.5 48t51.5 20q18 0 37.5 -8t46 -17.5t65 -17t97.5 -7.5q48 0 83.5 11.5t59.5 32.5t36.5 49t12.5 61q0 36 -17 62.5t-45 47t-64 38.5
t-73.5 37t-73 41t-63.5 52t-45 69.5t-17 93.5zM674 1499q19 21 45 21q17 0 34 -8.5t30 -22t21.5 -30.5t8.5 -34q0 -15 -6 -26t-17 -21l-242 -213q-9 -6 -18 -9.5t-19 -3.5q-13 0 -25 5.5t-21.5 14t-15 20t-5.5 23.5q0 11 4.5 20.5t13.5 21.5z" />
    <glyph glyph-name="Scircumflex" unicode="&#x15c;" horiz-adv-x="1059" 
d="M211 999q0 85 31.5 158t94 126t154.5 83.5t212 30.5q53 0 97 -6.5t80 -17.5t62.5 -25.5t41.5 -29.5q14 -14 19.5 -27.5t5.5 -30.5q0 -31 -20 -52.5t-55 -21.5q-21 0 -41.5 9t-49 19.5t-69 19t-99.5 8.5q-73 0 -125 -16t-85 -44.5t-48.5 -67.5t-15.5 -86q0 -49 23 -85.5
t60 -67t85 -56.5t97.5 -54t97.5 -60t85 -73.5t60 -96t23 -126.5q0 -94 -33 -172.5t-99 -135t-164.5 -88t-227.5 -31.5q-65 0 -117.5 8t-92.5 21t-68.5 29.5t-43.5 31.5q-14 14 -19.5 27.5t-5.5 30.5q0 31 20 52.5t55 21.5q22 0 44.5 -10.5t55.5 -23t81 -23t120 -10.5
q77 0 134.5 17.5t95 49.5t56 77t18.5 99q0 50 -22.5 88.5t-60 69.5t-85 58t-97.5 54.5t-97.5 59t-85 72.5t-60 94t-22.5 123zM510 1508q-7 -4 -13.5 -6.5t-15.5 -2.5q-13 0 -24 5.5t-19.5 14t-13.5 20t-5 23.5q0 24 20 41l221 180q24 19 44.5 30.5t46.5 11.5q27 0 45.5 -11
t35.5 -30l154 -185q8 -8 11 -17t3 -19q0 -14 -6 -25t-15.5 -20t-22 -14t-24.5 -5t-20 3.5t-17 10.5l-166 139z" />
    <glyph glyph-name="scircumflex" unicode="&#x15d;" horiz-adv-x="852" 
d="M149 720q0 66 24.5 122t72.5 97t120.5 64t167.5 23q83 0 139.5 -18t81.5 -43q12 -13 18 -26t6 -29q0 -28 -18.5 -48t-51.5 -20q-18 0 -34 6.5t-37 14t-51 14t-75 6.5q-96 0 -138.5 -37.5t-42.5 -98.5q0 -45 29.5 -75.5t74 -54.5t95.5 -47.5t95.5 -57.5t74 -83t29.5 -123
q0 -68 -26.5 -127t-77 -103t-124 -69t-168.5 -25q-56 0 -100.5 6.5t-78 16.5t-56.5 22.5t-35 24.5q-13 13 -18.5 26.5t-5.5 28.5q0 28 18.5 48t51.5 20q18 0 37.5 -8t46 -17.5t65 -17t97.5 -7.5q48 0 83.5 11.5t59.5 32.5t36.5 49t12.5 61q0 36 -17 62.5t-45 47t-64 38.5
t-73.5 37t-73 41t-63.5 52t-45 69.5t-17 93.5zM368 1171q-17 -13 -35 -13q-13 0 -23.5 5.5t-18 13.5t-12 18.5t-4.5 20.5q0 11 5 22t15 21l219 203q23 21 42 31.5t44 10.5q26 0 43.5 -10t32.5 -31l149 -209q6 -9 9 -17t3 -17q0 -13 -6 -25t-15.5 -20.5t-21.5 -13.5t-25 -5
q-26 0 -44 19l-146 157z" />
    <glyph glyph-name="Scedilla" unicode="&#x15e;" horiz-adv-x="1059" 
d="M353 -16q-106 7 -172.5 33t-94.5 55q-14 14 -19.5 27.5t-5.5 30.5q0 31 20 52.5t55 21.5q22 0 44.5 -10.5t55.5 -23t81 -23t120 -10.5q77 0 134.5 17.5t95 49.5t56 77t18.5 99q0 50 -22.5 88.5t-60 69.5t-85 58t-97.5 54.5t-97.5 59t-85 72.5t-60 94t-22.5 123
q0 85 31.5 158t94 126t154.5 83.5t212 30.5q53 0 97 -6.5t80 -17.5t62.5 -25.5t41.5 -29.5q14 -14 19.5 -27.5t5.5 -30.5q0 -31 -20 -52.5t-55 -21.5q-21 0 -41.5 9t-49 19.5t-69 19t-99.5 8.5q-73 0 -125 -16t-85 -44.5t-48.5 -67.5t-15.5 -86q0 -49 23 -85.5t60 -67
t85 -56.5t97.5 -54t97.5 -60t85 -73.5t60 -96t23 -126.5q0 -88 -28.5 -162t-85.5 -129.5t-142 -89.5t-198 -44l-37 -90q32 -6 56.5 -18t41.5 -30.5t25.5 -44t8.5 -58.5q0 -49 -21 -92t-60.5 -74.5t-96 -50t-128.5 -18.5q-34 0 -57.5 5t-38 14t-20.5 21t-6 27q0 24 14.5 39
t37.5 15q13 0 26 -1.5t31 -1.5q42 0 71 7t48 19.5t28 30t9 38.5q0 27 -17 44t-57 17h-9q-24 0 -34 15.5t4 47.5z" />
    <glyph glyph-name="scedilla" unicode="&#x15f;" horiz-adv-x="852" 
d="M275 -16q-38 2 -70.5 8.5t-60 15.5t-48.5 20.5t-33 23.5q-13 13 -18.5 26.5t-5.5 28.5q0 28 18.5 48t51.5 20q18 0 37.5 -8t46 -17.5t65.5 -17t98 -7.5q47 0 82.5 11.5t59.5 32.5t36.5 49t12.5 61q0 36 -17 62.5t-45 47t-64 38.5t-73.5 37t-73 41t-63.5 52t-45 69.5
t-17 93.5q0 66 24.5 122t72.5 97t120.5 64t167.5 23q83 0 139.5 -18t81.5 -43q12 -13 18 -26t6 -29q0 -28 -18.5 -48t-51.5 -20q-18 0 -34 6.5t-37 14t-51 14t-75 6.5q-96 0 -138.5 -37.5t-42.5 -98.5q0 -45 29.5 -75.5t74 -54.5t95.5 -47.5t95.5 -57.5t74 -83t29.5 -123
q0 -64 -22.5 -119t-65.5 -97t-104 -69.5t-138 -35.5l-38 -91q32 -6 56.5 -17.5t42 -30.5t26 -44.5t8.5 -58.5q0 -49 -21 -92t-60.5 -74.5t-96 -50t-128.5 -18.5q-35 0 -58 5t-37.5 14t-20.5 21t-6 27q0 24 14.5 39t37.5 15q13 0 26 -1.5t31 -1.5q41 0 70.5 7t48.5 19.5
t28 30t9 38.5q0 27 -17 44t-57 17h-10q-23 0 -33 15.5t4 47.5z" />
    <glyph glyph-name="Scaron" unicode="&#x160;" horiz-adv-x="1059" 
d="M211 999q0 85 31.5 158t94 126t154.5 83.5t212 30.5q53 0 97 -6.5t80 -17.5t62.5 -25.5t41.5 -29.5q14 -14 19.5 -27.5t5.5 -30.5q0 -31 -20 -52.5t-55 -21.5q-21 0 -41.5 9t-49 19.5t-69 19t-99.5 8.5q-73 0 -125 -16t-85 -44.5t-48.5 -67.5t-15.5 -86q0 -49 23 -85.5
t60 -67t85 -56.5t97.5 -54t97.5 -60t85 -73.5t60 -96t23 -126.5q0 -94 -33 -172.5t-99 -135t-164.5 -88t-227.5 -31.5q-65 0 -117.5 8t-92.5 21t-68.5 29.5t-43.5 31.5q-14 14 -19.5 27.5t-5.5 30.5q0 31 20 52.5t55 21.5q22 0 44.5 -10.5t55.5 -23t81 -23t120 -10.5
q77 0 134.5 17.5t95 49.5t56 77t18.5 99q0 50 -22.5 88.5t-60 69.5t-85 58t-97.5 54.5t-97.5 59t-85 72.5t-60 94t-22.5 123zM926 1814q14 9 29 9q12 0 23.5 -5.5t20 -14t13.5 -19.5t5 -23q0 -25 -21 -42l-221 -180q-23 -19 -43.5 -30t-46.5 -11q-27 0 -45.5 10.5
t-35.5 30.5l-155 184q-7 9 -10 17.5t-3 18.5q0 14 5.5 25.5t15.5 20t22 13.5t24 5t20.5 -3.5t17.5 -10.5l166 -139z" />
    <glyph glyph-name="scaron" unicode="&#x161;" horiz-adv-x="852" 
d="M149 720q0 66 24.5 122t72.5 97t120.5 64t167.5 23q83 0 139.5 -18t81.5 -43q12 -13 18 -26t6 -29q0 -28 -18.5 -48t-51.5 -20q-18 0 -34 6.5t-37 14t-51 14t-75 6.5q-96 0 -138.5 -37.5t-42.5 -98.5q0 -45 29.5 -75.5t74 -54.5t95.5 -47.5t95.5 -57.5t74 -83t29.5 -123
q0 -68 -26.5 -127t-77 -103t-124 -69t-168.5 -25q-56 0 -100.5 6.5t-78 16.5t-56.5 22.5t-35 24.5q-13 13 -18.5 26.5t-5.5 28.5q0 28 18.5 48t51.5 20q18 0 37.5 -8t46 -17.5t65 -17t97.5 -7.5q48 0 83.5 11.5t59.5 32.5t36.5 49t12.5 61q0 36 -17 62.5t-45 47t-64 38.5
t-73.5 37t-73 41t-63.5 52t-45 69.5t-17 93.5zM766 1486q17 12 36 12q12 0 23 -5t18.5 -13t11.5 -18.5t4 -20.5q0 -12 -4.5 -23t-15.5 -20l-219 -204q-23 -20 -42 -31t-44 -11t-42.5 10.5t-32.5 30.5l-150 210q-6 9 -8.5 16.5t-2.5 17.5q0 13 6 24.5t15 20t21.5 13.5t25.5 5
q25 0 43 -19l147 -156z" />
    <glyph glyph-name="uni0162" unicode="&#x162;" horiz-adv-x="1093" 
d="M227 1221q-31 0 -47.5 17t-16.5 51q0 20 6 37t17 28.5t26 17.5t33 6h898q30 0 46.5 -16.5t16.5 -50.5q0 -21 -6 -38t-17 -28.5t-26 -17.5t-33 -6h-362l-198 -1144q-5 -28 -17.5 -46t-34.5 -27l-45 -110q31 -6 56 -17.5t42 -30.5t25.5 -44.5t8.5 -58.5q0 -49 -20.5 -92
t-60.5 -74.5t-96.5 -50t-128.5 -18.5q-34 0 -57.5 5t-38 14t-20.5 21t-6 27q0 24 14.5 39t38.5 15q12 0 25 -1.5t31 -1.5q42 0 71 7t48 19.5t28 30t9 38.5q0 27 -17 44t-57 17h-9q-24 0 -34 15.5t4 47.5l71 172q-20 21 -14 60l198 1144h-351z" />
    <glyph glyph-name="uni0163" unicode="&#x163;" horiz-adv-x="691" 
d="M163 863q-29 0 -44 15t-15 46q0 20 5.5 35.5t16 26t24.5 16.5t31 6h113l58 195q5 19 14.5 33.5t21 24.5t25.5 15.5t32 5.5q34 0 50 -19.5t9 -55.5l-34 -199h202q29 0 44 -15.5t15 -46.5q0 -20 -5.5 -35.5t-16 -26t-24.5 -16t-31 -5.5h-209l-101 -586q-13 -74 12 -106
t78 -32q21 0 37 2t28 5.5t22.5 5.5t19.5 2q25 0 39 -14.5t14 -37.5q0 -19 -6 -34t-20 -28q-12 -13 -31.5 -22.5t-45.5 -16t-55 -9.5t-61 -1l-40 -97q32 -6 56.5 -17.5t41.5 -30.5t26 -44.5t9 -58.5q0 -49 -21 -92t-60.5 -74.5t-96.5 -50t-128 -18.5q-35 0 -58 5t-37.5 14
t-20.5 21t-6 27q0 24 14.5 39t37.5 15q13 0 26 -1.5t31 -1.5q41 0 70.5 7t48.5 19.5t28 30t9 38.5q0 27 -17.5 44t-57.5 17h-9q-24 0 -33.5 15.5t3.5 47.5l69 168q-28 13 -50 33.5t-35 52t-16.5 74.5t6.5 99l102 591h-104z" />
    <glyph glyph-name="Tcaron" unicode="&#x164;" horiz-adv-x="1093" 
d="M227 1221q-31 0 -47.5 17t-16.5 51q0 20 6 37t17 28.5t26 17.5t33 6h898q30 0 46.5 -16.5t16.5 -50.5q0 -21 -6 -38t-17 -28.5t-26 -17.5t-33 -6h-362l-198 -1144q-6 -40 -30.5 -61.5t-70.5 -21.5q-47 0 -68 21t-15 62l198 1144h-351zM949 1814q14 9 29 9q12 0 23.5 -5.5
t20 -14t13.5 -19.5t5 -23q0 -25 -21 -42l-221 -180q-23 -19 -43.5 -30t-46.5 -11q-27 0 -45.5 10.5t-35.5 30.5l-155 184q-7 9 -10 17.5t-3 18.5q0 14 5.5 25.5t15.5 20t22 13.5t24 5t20.5 -3.5t17.5 -10.5l166 -139z" />
    <glyph glyph-name="tcaron" unicode="&#x165;" horiz-adv-x="701" 
d="M163 863q-29 0 -44 15t-15 46q0 20 5.5 35.5t16 26t24.5 16.5t31 6h113l58 195q5 19 14.5 33.5t21 24.5t25.5 15.5t32 5.5q34 0 50 -19.5t9 -55.5l-34 -199h202q29 0 44 -15.5t15 -46.5q0 -20 -5.5 -35.5t-16 -26t-24.5 -16t-31 -5.5h-208l-101 -586q-13 -74 11.5 -106
t77.5 -32q21 0 37 2t28 5.5t22.5 5.5t19.5 2q25 0 39 -14.5t14 -37.5q0 -19 -6 -34t-20 -28q-22 -22 -69 -36t-109 -14q-136 0 -192.5 70.5t-32.5 211.5l102 591h-104zM738 1512q9 20 25.5 28t35.5 8q18 0 35.5 -6t31 -16t22.5 -24t9 -29q0 -10 -3.5 -18.5t-10.5 -19.5
l-161 -259q-9 -15 -22 -21.5t-29 -6.5q-13 0 -24.5 4.5t-21 11.5t-15 16.5t-5.5 22.5q0 7 2 13.5t6 16.5z" />
    <glyph glyph-name="Tbar" unicode="&#x166;" horiz-adv-x="1093" 
d="M227 1221q-31 0 -47.5 17t-16.5 51q0 20 6 37t17 28.5t26 17.5t33 6h898q30 0 46.5 -16.5t16.5 -50.5q0 -21 -6 -38t-17 -28.5t-26 -17.5t-33 -6h-362l-75 -438h227q29 0 44 -15t15 -46q0 -20 -5.5 -35t-16 -25.5t-24.5 -16.5t-31 -6h-235l-97 -562q-6 -40 -30.5 -61.5
t-70.5 -21.5q-47 0 -68 21t-15 62l97 562h-225q-29 0 -44 15.5t-15 45.5q0 19 5.5 34.5t16 26.5t24.5 16.5t31 5.5h233l75 438h-351z" />
    <glyph glyph-name="tbar" unicode="&#x167;" horiz-adv-x="749" 
d="M195 863q-29 0 -44 15t-15 46q0 20 5 35.5t15.5 26t24.5 16.5t31 6h113l58 195q6 19 15 33.5t20.5 24.5t25.5 15.5t32 5.5q34 0 50 -19.5t10 -55.5l-34 -199h201q29 0 44 -15.5t15 -46.5q0 -20 -5.5 -35.5t-15.5 -26t-24 -16t-31 -5.5h-208l-36 -207h190q28 0 43 -15.5
t15 -44.5q0 -38 -21 -59t-55 -21h-197l-41 -240q-13 -73 11.5 -105t77.5 -32q21 0 37.5 2t28.5 5.5t22 5.5t20 2q25 0 38.5 -14.5t13.5 -37.5q0 -19 -6 -34t-19 -28q-22 -22 -69 -36t-110 -14q-136 0 -192.5 70.5t-32.5 212.5l43 243h-103q-28 0 -43 15t-15 44
q0 38 20.5 59.5t55.5 21.5h108l36 207h-103z" />
    <glyph glyph-name="Utilde" unicode="&#x168;" horiz-adv-x="1393" 
d="M315 1301q7 40 31 61.5t71 21.5t68 -21t14 -62l-117 -678q-5 -29 -9 -55.5t-7 -50.5t-5 -46t-2 -43q0 -77 21 -132t58.5 -90t87.5 -51.5t110 -16.5q71 0 136.5 24.5t119 74t92 126.5t56.5 182l130 756q7 40 31 61.5t71 21.5t68 -21t14 -62l-129 -748q-26 -146 -80 -253.5
t-132.5 -178t-179.5 -105.5t-222 -35q-106 0 -187 27t-137 79.5t-85 131t-29 181.5q0 56 8 114.5t19 119.5zM738 1628q-31 0 -52 -12.5t-38.5 -27.5t-33.5 -27.5t-35 -12.5q-22 0 -38.5 13.5t-16.5 43.5q0 24 17 53t48 54.5t73.5 43.5t92.5 18q49 0 85.5 -15.5t66.5 -33.5
t57 -33.5t59 -15.5q31 0 52 12.5t38.5 28t33 28t35.5 12.5q22 0 38.5 -14.5t16.5 -43.5q0 -24 -17 -53t-48 -54.5t-73 -43t-93 -17.5q-50 0 -86 15t-65.5 33t-57 33.5t-59.5 15.5z" />
    <glyph glyph-name="utilde" unicode="&#x169;" horiz-adv-x="1169" 
d="M235 932q7 40 31 61t69 21t65.5 -21t13.5 -61l-88 -512q-6 -32 -8.5 -55.5t-2.5 -49.5q0 -93 45.5 -137.5t131.5 -44.5q35 0 65.5 8.5t58 22t51 31.5t42.5 36q45 44 81 100l104 601q7 40 31 61t69 21t65.5 -21t14.5 -61l-106 -610q-6 -38 -11 -69t-8.5 -57t-5 -46.5
t-1.5 -36.5t1 -27t1 -25q0 -30 -19.5 -49t-53.5 -19q-56 0 -76.5 42.5t-14.5 113.5h-4q-35 -47 -83 -83q-21 -16 -47 -31.5t-57.5 -27t-68 -18.5t-78.5 -7q-72 0 -129 20.5t-97.5 60t-61.5 96.5t-21 130q0 28 3.5 62t8.5 66zM575 1298q-30 0 -51 -13.5t-39 -29.5t-34.5 -29
t-38.5 -13q-11 0 -20.5 3t-16.5 10t-11.5 17t-4.5 24q0 27 18.5 58t50 57t74 43.5t90.5 17.5q50 0 85 -16.5t63 -36.5t53 -36.5t54 -16.5q30 0 51.5 13.5t39 29.5t34.5 29.5t38 13.5q11 0 21 -3.5t17 -10t11.5 -17t4.5 -24.5q0 -27 -18.5 -58t-50.5 -57t-74 -43t-90 -17
q-51 0 -85.5 16t-63 36t-53 36.5t-54.5 16.5z" />
    <glyph glyph-name="Umacron" unicode="&#x16a;" horiz-adv-x="1393" 
d="M315 1301q7 40 31 61.5t71 21.5t68 -21t14 -62l-117 -678q-5 -29 -9 -55.5t-7 -50.5t-5 -46t-2 -43q0 -77 21 -132t58.5 -90t87.5 -51.5t110 -16.5q71 0 136.5 24.5t119 74t92 126.5t56.5 182l130 756q7 40 31 61.5t71 21.5t68 -21t14 -62l-129 -748q-26 -146 -80 -253.5
t-132.5 -178t-179.5 -105.5t-222 -35q-106 0 -187 27t-137 79.5t-85 131t-29 181.5q0 56 8 114.5t19 119.5zM1139 1717q30 0 44 -15.5t14 -42.5q0 -19 -5.5 -33.5t-15 -25t-24 -16.5t-31.5 -6h-496q-30 0 -44 15.5t-14 43.5q0 18 5.5 32.5t15 25.5t24 16.5t31.5 5.5h496z
" />
    <glyph glyph-name="umacron" unicode="&#x16b;" horiz-adv-x="1169" 
d="M235 932q7 40 31 61t69 21t65.5 -21t13.5 -61l-88 -512q-6 -32 -8.5 -55.5t-2.5 -49.5q0 -93 45.5 -137.5t131.5 -44.5q35 0 65.5 8.5t58 22t51 31.5t42.5 36q45 44 81 100l104 601q7 40 31 61t69 21t65.5 -21t14.5 -61l-106 -610q-6 -38 -11 -69t-8.5 -57t-5 -46.5
t-1.5 -36.5t1 -27t1 -25q0 -30 -19.5 -49t-53.5 -19q-56 0 -76.5 42.5t-14.5 113.5h-4q-35 -47 -83 -83q-21 -16 -47 -31.5t-57.5 -27t-68 -18.5t-78.5 -7q-72 0 -129 20.5t-97.5 60t-61.5 96.5t-21 130q0 28 3.5 62t8.5 66zM960 1387q28 0 42.5 -15t14.5 -43
q0 -18 -5.5 -33t-15.5 -25t-23.5 -16t-30.5 -6h-490q-28 0 -42.5 15t-14.5 43q0 18 5.5 33t15 25t23.5 16t31 6h490z" />
    <glyph glyph-name="Ubreve" unicode="&#x16c;" horiz-adv-x="1393" 
d="M315 1301q7 40 31 61.5t71 21.5t68 -21t14 -62l-117 -678q-5 -29 -9 -55.5t-7 -50.5t-5 -46t-2 -43q0 -77 21 -132t58.5 -90t87.5 -51.5t110 -16.5q71 0 136.5 24.5t119 74t92 126.5t56.5 182l130 756q7 40 31 61.5t71 21.5t68 -21t14 -62l-129 -748q-26 -146 -80 -253.5
t-132.5 -178t-179.5 -105.5t-222 -35q-106 0 -187 27t-137 79.5t-85 131t-29 181.5q0 56 8 114.5t19 119.5zM620 1727q0 54 23 76t55 22q29 0 43.5 -16t15.5 -47q1 -60 32.5 -89.5t98.5 -29.5q69 0 110 34t61 94q8 27 24 40.5t46 13.5q27 0 42.5 -16.5t15.5 -47.5
q0 -50 -25 -96.5t-68 -83t-101.5 -58.5t-123.5 -22q-60 0 -106 18.5t-77.5 49t-48.5 71.5t-17 87z" />
    <glyph glyph-name="ubreve" unicode="&#x16d;" horiz-adv-x="1169" 
d="M235 932q7 40 31 61t69 21t65.5 -21t13.5 -61l-88 -512q-6 -32 -8.5 -55.5t-2.5 -49.5q0 -93 45.5 -137.5t131.5 -44.5q35 0 65.5 8.5t58 22t51 31.5t42.5 36q45 44 81 100l104 601q7 40 31 61t69 21t65.5 -21t14.5 -61l-106 -610q-6 -38 -11 -69t-8.5 -57t-5 -46.5
t-1.5 -36.5t1 -27t1 -25q0 -30 -19.5 -49t-53.5 -19q-56 0 -76.5 42.5t-14.5 113.5h-4q-35 -47 -83 -83q-21 -16 -47 -31.5t-57.5 -27t-68 -18.5t-78.5 -7q-72 0 -129 20.5t-97.5 60t-61.5 96.5t-21 130q0 28 3.5 62t8.5 66zM440 1374q0 27 5.5 45.5t16 31t25 18.5t31.5 6
q25 0 39.5 -14.5t15.5 -49.5q0 -60 28 -94.5t95 -34.5q71 0 113 38.5t56 99.5q14 55 66 55q58 0 58 -61q0 -53 -22.5 -101.5t-63 -86t-98 -59.5t-126.5 -22q-52 0 -96 16t-76 45.5t-49.5 72t-17.5 95.5z" />
    <glyph glyph-name="Uring" unicode="&#x16e;" horiz-adv-x="1393" 
d="M315 1301q7 40 31 61.5t71 21.5t68 -21t14 -62l-117 -678q-5 -29 -9 -55.5t-7 -50.5t-5 -46t-2 -43q0 -77 21 -132t58.5 -90t87.5 -51.5t110 -16.5q71 0 136.5 24.5t119 74t92 126.5t56.5 182l130 756q7 40 31 61.5t71 21.5t68 -21t14 -62l-129 -748q-26 -146 -80 -253.5
t-132.5 -178t-179.5 -105.5t-222 -35q-106 0 -187 27t-137 79.5t-85 131t-29 181.5q0 56 8 114.5t19 119.5zM644 1709q0 49 19 92t54 75.5t82.5 51t105.5 18.5q56 0 100.5 -16.5t76 -46t48.5 -69.5t17 -86q0 -49 -19 -92t-53.5 -75.5t-83 -51t-105.5 -18.5
q-56 0 -100.5 16.5t-76 46t-48.5 69.5t-17 86zM763 1719q0 -61 36.5 -96t96.5 -35t96 35t36 96q0 60 -36 95.5t-96 35.5t-96.5 -35.5t-36.5 -95.5z" />
    <glyph glyph-name="uring" unicode="&#x16f;" horiz-adv-x="1169" 
d="M235 932q7 40 31 61t69 21t65.5 -21t13.5 -61l-88 -512q-6 -32 -8.5 -55.5t-2.5 -49.5q0 -93 45.5 -137.5t131.5 -44.5q35 0 65.5 8.5t58 22t51 31.5t42.5 36q45 44 81 100l104 601q7 40 31 61t69 21t65.5 -21t14.5 -61l-106 -610q-6 -38 -11 -69t-8.5 -57t-5 -46.5
t-1.5 -36.5t1 -27t1 -25q0 -30 -19.5 -49t-53.5 -19q-56 0 -76.5 42.5t-14.5 113.5h-4q-35 -47 -83 -83q-21 -16 -47 -31.5t-57.5 -27t-68 -18.5t-78.5 -7q-72 0 -129 20.5t-97.5 60t-61.5 96.5t-21 130q0 28 3.5 62t8.5 66zM467 1335q0 50 19 93.5t53.5 76t82 50.5
t103.5 18q52 0 95 -16t74 -44t48 -67t17 -85q0 -50 -19.5 -93.5t-54 -76t-82 -51t-103.5 -18.5q-52 0 -95 16.5t-73.5 44.5t-47.5 67t-17 85zM585 1348q0 -60 34.5 -94t93.5 -34q56 0 91.5 35.5t35.5 92.5q0 60 -34.5 94t-92.5 34q-57 0 -92.5 -35.5t-35.5 -92.5z" />
    <glyph glyph-name="Uhungarumlaut" unicode="&#x170;" horiz-adv-x="1393" 
d="M315 1301q7 40 31 61.5t71 21.5t68 -21t14 -62l-117 -678q-5 -29 -9 -55.5t-7 -50.5t-5 -46t-2 -43q0 -77 21 -132t58.5 -90t87.5 -51.5t110 -16.5q71 0 136.5 24.5t119 74t92 126.5t56.5 182l130 756q7 40 31 61.5t71 21.5t68 -21t14 -62l-129 -748q-26 -146 -80 -253.5
t-132.5 -178t-179.5 -105.5t-222 -35q-106 0 -187 27t-137 79.5t-85 131t-29 181.5q0 56 8 114.5t19 119.5zM847 1799q12 12 24.5 17t27.5 5q16 0 31.5 -7t27.5 -19t19 -27.5t7 -32.5q0 -15 -7 -28t-19 -23l-246 -194q-16 -12 -36 -12q-12 0 -23 4.5t-19 13t-13 19t-5 22.5
q0 10 3.5 19.5t12.5 18.5zM1244 1763q9 7 19 10.5t22 3.5q17 0 32.5 -8t27 -21.5t18.5 -30t7 -33.5q0 -18 -9 -33.5t-27 -25.5l-267 -150q-8 -5 -16 -7.5t-18 -2.5q-11 0 -21.5 5t-19 13.5t-13 20.5t-4.5 24q0 14 5.5 25.5t17.5 20.5z" />
    <glyph glyph-name="uhungarumlaut" unicode="&#x171;" horiz-adv-x="1169" 
d="M235 932q7 40 31 61t69 21t65.5 -21t13.5 -61l-88 -512q-6 -32 -8.5 -55.5t-2.5 -49.5q0 -93 45.5 -137.5t131.5 -44.5q35 0 65.5 8.5t58 22t51 31.5t42.5 36q45 44 81 100l104 601q7 40 31 61t69 21t65.5 -21t14.5 -61l-106 -610q-6 -38 -11 -69t-8.5 -57t-5 -46.5
t-1.5 -36.5t1 -27t1 -25q0 -30 -19.5 -49t-53.5 -19q-56 0 -76.5 42.5t-14.5 113.5h-4q-35 -47 -83 -83q-21 -16 -47 -31.5t-57.5 -27t-68 -18.5t-78.5 -7q-72 0 -129 20.5t-97.5 60t-61.5 96.5t-21 130q0 28 3.5 62t8.5 66zM652 1493q11 14 24 19.5t26 5.5q17 0 33 -7.5
t29 -19t20.5 -26.5t7.5 -30q0 -12 -5 -22.5t-15 -20.5l-226 -215q-9 -9 -19 -12.5t-21 -3.5q-13 0 -24.5 4.5t-20 12.5t-13.5 18.5t-5 22.5q0 9 3 16.5t9 16.5zM1010 1481q8 8 19 14t24 6q18 0 34 -8.5t29 -21.5t20.5 -29.5t7.5 -32.5q0 -28 -26 -49l-239 -197
q-8 -6 -17 -10.5t-21 -4.5t-23.5 5t-20.5 13.5t-14 20t-5 24.5q0 10 3.5 20t13.5 19z" />
    <glyph glyph-name="Uogonek" unicode="&#x172;" horiz-adv-x="1393" 
d="M315 1301q7 40 31 61.5t71 21.5t68 -21t14 -62l-117 -678q-5 -29 -9 -55.5t-7 -50.5t-5 -46t-2 -43q0 -77 21 -132t58.5 -90t87.5 -51.5t110 -16.5q71 0 136.5 24.5t119 74t92 126.5t56.5 182l130 756q7 40 31 61.5t71 21.5t68 -21t14 -62l-129 -748q-12 -71 -31 -132
t-44 -112.5t-55 -94t-65 -77.5q-32 -32 -71.5 -59.5t-82.5 -55.5t-85 -58.5t-80 -67.5q-54 -54 -84.5 -101t-30.5 -92q0 -60 60 -60q18 0 31.5 3t25 6t22 6t22.5 3q20 0 31.5 -13t11.5 -33q0 -31 -23 -54t-67.5 -38t-105.5 -15q-88 0 -135 42t-47 119q0 45 20.5 88.5
t53.5 83.5t74.5 76t85.5 66q-10 -1 -22.5 -1h-24.5q-105 0 -186.5 27t-137 79.5t-84 131t-28.5 180.5q0 56 8 114.5t19 119.5z" />
    <glyph glyph-name="uogonek" unicode="&#x173;" horiz-adv-x="1169" 
d="M235 932q7 40 31 61t69 21t65.5 -21t13.5 -61l-88 -512q-6 -32 -8.5 -55.5t-2.5 -49.5q0 -93 45.5 -137.5t131.5 -44.5q35 0 65.5 8.5t58 22t51 31.5t42.5 36q45 44 81 100l104 601q7 40 31 61t69 21t65.5 -21t14.5 -61l-106 -610q-6 -38 -11 -69t-8.5 -57t-5 -46.5
t-1.5 -36.5t1 -27t1 -25q0 -17 -5 -29.5t-15 -22.5q-8 -8 -22 -20t-32.5 -27.5t-40.5 -35.5t-48 -45q-47 -48 -73.5 -92.5t-26.5 -85.5q0 -60 59 -60q18 0 32 3t25.5 6t22 6t22.5 3q20 0 31.5 -13t11.5 -33q0 -31 -23 -54q-24 -23 -68.5 -38t-104.5 -15q-88 0 -135.5 42
t-47.5 119q0 54 27.5 104t70.5 96t95 85t102 70q-13 19 -18.5 47t-2.5 78h-4q-35 -47 -83 -83q-21 -16 -47 -31.5t-57.5 -27t-68 -18.5t-78.5 -7q-72 0 -129 20.5t-97.5 60t-61.5 96.5t-21 130q0 28 3.5 62t8.5 66z" />
    <glyph glyph-name="Wcircumflex" unicode="&#x174;" horiz-adv-x="1864" 
d="M212 1256q-2 25 -2.5 35t-0.5 18q0 18 8 32.5t22 24.5t31.5 15.5t36.5 5.5q21 0 38 -6t28 -17q7 -7 11 -15.5t6 -19t3 -24.5t3 -34l68 -879q3 -42 4.5 -78.5t2.5 -64.5v-59h4q9 25 20 58q11 27 24.5 63.5t32.5 80.5l380 882q13 32 28.5 54t33 35t39 18.5t47.5 5.5
q51 0 83 -24t37 -89l74 -878q3 -41 4.5 -77.5t3.5 -65.5q0 -33 1 -63h4q10 30 23 63q10 29 24.5 65.5t30.5 75.5l374 902q7 17 12 28.5t9.5 19.5t8 13t7.5 9q10 10 24.5 15.5t32.5 5.5q15 0 32.5 -4.5t31 -14.5t22.5 -24t9 -33q0 -5 -1 -11t-3 -13.5t-6 -17.5t-11 -25
l-480 -1105q-9 -19 -15.5 -34.5t-13.5 -28.5t-15 -24t-16 -20q-10 -9 -20.5 -15.5t-23.5 -12t-29 -8t-35 -2.5q-31 0 -53 7t-39 24q-10 9 -16 21t-9.5 26.5t-6 31t-3.5 37.5l-71 840q-4 37 -5.5 72.5t-3.5 64.5q-1 33 -2 62h-4q-10 -30 -22 -63q-11 -28 -24.5 -63.5
t-30.5 -72.5l-363 -844q-8 -19 -14.5 -34t-14 -28t-15 -23.5t-15.5 -19.5q-20 -19 -45 -28.5t-62 -9.5q-33 0 -55 7t-38 24q-10 9 -16 20.5t-9.5 26t-6 31.5t-3.5 38zM912 1508q-7 -4 -13.5 -6.5t-15.5 -2.5q-13 0 -24 5.5t-19.5 14t-13.5 20t-5 23.5q0 24 20 41l221 180
q24 19 44.5 30.5t46.5 11.5q27 0 45.5 -11t35.5 -30l154 -185q8 -8 11 -17t3 -19q0 -14 -6 -25t-15.5 -20t-22 -14t-24.5 -5t-20 3.5t-17 10.5l-166 139z" />
    <glyph glyph-name="wcircumflex" unicode="&#x175;" horiz-adv-x="1558" 
d="M389 181q37 76 71 148.5t72 156.5t83 185.5t103 233.5q6 13 11 24.5t10.5 21.5t11.5 18t13 16q15 14 36.5 23t54.5 9q28 0 47.5 -6.5t33.5 -20.5q17 -17 21.5 -38.5t9.5 -51.5q16 -128 29 -227.5t22 -183.5t15.5 -158t11.5 -150h3q42 73 84 159.5t81 183t74.5 200.5
t66.5 212q6 22 11.5 36.5t15.5 24.5t24.5 16t32.5 6q17 0 33 -5.5t28.5 -15t19.5 -23t7 -29.5q0 -10 -2 -19t-8 -31q-22 -80 -54.5 -168.5t-70 -176.5t-76.5 -170t-74.5 -149.5t-64 -115t-44.5 -66.5q-11 -15 -23 -25t-25.5 -17t-30 -10.5t-37.5 -3.5q-29 0 -49 7t-33 20
t-20 34t-10 48q-10 90 -18 173t-16.5 167t-19 173.5t-23.5 190.5h-4q-48 -111 -88.5 -202t-78 -173t-75 -161.5t-80.5 -167.5q-12 -27 -22.5 -44t-24.5 -30q-17 -17 -41.5 -26t-62.5 -9q-28 0 -49 6.5t-35.5 20t-23 35t-11.5 50.5q-12 112 -22.5 208t-22 188.5t-25.5 187.5
t-32 205q-4 23 -4.5 30t-0.5 12q0 19 8 34t21.5 25.5t31 16.5t37.5 6t35.5 -6.5t25.5 -16.5q12 -11 16 -26.5t8 -44.5q17 -108 29 -201.5t21 -182.5t15.5 -176.5t13.5 -183.5h3zM701 1171q-17 -13 -35 -13q-13 0 -23.5 5.5t-18 13.5t-12 18.5t-4.5 20.5q0 11 5 22t15 21
l219 203q23 21 42 31.5t44 10.5q26 0 43.5 -10t32.5 -31l149 -209q6 -9 9 -17t3 -17q0 -13 -6 -25t-15.5 -20.5t-21.5 -13.5t-25 -5q-26 0 -44 19l-146 157z" />
    </font>
</defs>
</svg>
